<svg xmlns="http://www.w3.org/2000/svg" xmlns:xlink="http://www.w3.org/1999/xlink" width="336" height="280" viewBox="0 0 336 280">
  <defs>
    <clipPath id="clip-path">
      <path id="Path_156" data-name="Path 156" d="M301.234-112.7c-.2,1.085-.391,2.324-.557,3.744s-.274,3.022-.54,4.818-.367,3.82-.692,6.05c.129-2.729-.646-1.356-.587-3.429a32.375,32.375,0,0,1-.721,4.47,47.675,47.675,0,0,1-1.661,6.194c-.62,1.73-1.143,3.331-1.749,4.649a110.944,110.944,0,0,0,4.347-34.059c-.67-30.266-6.525-56.257-17.483-77.65q3,4.974,5.61,10.219c1.521.1-4.151-12.726.107-5.827,1.779,3.468,1.086,3.417,1.16,4.251l2.4,5.293c.828,1.759,1.459,3.591,2.2,5.389-.45,1.345-.861,2.658-1.358,3.978,1.553,9.486,3.749,16.651,6.079,24.728,2.26,8.049,4.509,17.064,4.437,29.546a8.383,8.383,0,0,0,.668,1.518,12.672,12.672,0,0,0-1.149,3.3c-.189.8-.324,1.733-.5,2.818M91.553-6.355a67.023,67.023,0,0,0-7.682-1.063,7.781,7.781,0,0,1-2.35-1.514c-.263-.278-.339-.493-.3-.666q5.193,1.813,10.8,3.31l-.475-.067m1.876-253.229a98.7,98.7,0,0,0-16.237,8.113A140.531,140.531,0,0,0,38.265-221.9a128.567,128.567,0,0,1,55.164-37.679m110.844-2.53c1.251.464,2.842.96,4.439,1.639s3.251,1.379,4.69,2.039c2.875,1.333,4.834,2.653,4.008,2.831.73.405,1.484.8,2.229,1.2a155.953,155.953,0,0,0-19.012-6.463c.478-.719.758-1.472,3.646-1.248m69.47,50.129a32.618,32.618,0,0,1,3.75,6.13c.046.23-.141.086-.415-.179-1.962-3.22-4.074-6.3-6.3-9.28.994,1.04,2.007,2.115,2.963,3.329m31.246,100.4c-.157-2.049-.473-4.366-.687-7.149a11.652,11.652,0,0,0,.907-2.989c.7-3.487,1.212-8.628,1.737-11.143l-.586,2.511c-.349-1.546-.8-2.671-1.143-4.2a36.1,36.1,0,0,1-.682-6.669c-.151-6.435,1.46,3.321,1.632-1.16-.071-1.283-.139-2.5-.2-3.651-.1-1.154-.236-2.246-.36-3.286-.264-2.079-.511-3.951-.84-5.663a80.2,80.2,0,0,0-2.318-8.919c-.459-1.333-.909-2.647-1.371-4-.234-.671-.469-1.352-.71-2.049-.265-.691-.536-1.4-.816-2.127-.552-1.461-1.12-3.017-1.71-4.73-.639-1.7-1.357-3.545-2.085-5.618-.437-1.93-1.069-3.754-1.654-5.549s-1.179-3.544-1.923-5.2q-1.06-2.5-2.157-4.883c-.805-1.556-1.627-3.071-2.453-4.556a50.127,50.127,0,0,0-2.631-4.3c-.928-1.381-1.806-2.772-2.792-4.082-2.01-2.6-3.954-5.178-6.187-7.553-2.114-2.465-4.479-4.727-6.829-7.066-1.179-1.165-2.473-2.243-3.718-3.394q-.941-.853-1.894-1.722l-2.007-1.656a206.7,206.7,0,0,0-18.166-13.692l3.5,2.75,3.431,3.009,1.749,1.539c.576.531,1.132,1.1,1.707,1.656l3.495,3.418a164.686,164.686,0,0,1,14.256,16.985c-1.493-1.731-3.185-3.282-4.793-4.884-1.577-1.631-3.358-3.057-5.038-4.555.016.028.033.053.05.081a117.5,117.5,0,0,0-25.666-20.186l1.389.7c1.241.609,2.455,1.174,3.551,1.811,2.205,1.251,4.276,2.256,5.82,3.346-3.766-4.058-10.92-9.5-16.022-12.889-1.24-.91-2.337-1.713-3.218-2.357a7.152,7.152,0,0,1-1.718-1.676c-.5-.873.406-1.219,3.558-.72-1.765-.9-3.36-1.683-4.815-2.373s-2.814-1.168-4.043-1.649c-1.235-.464-2.363-.861-3.423-1.212s-2.073-.57-3.041-.812c-1.943-.452-3.739-.868-5.73-1.212-2-.325-4.161-.686-6.8-1.214-2.594-.78-6.246-1.684-9.4-2.374-3.157-.674-5.788-1.35-6.32-2.044-5-.177-7.274-.24-10.172-.528-2.9-.269-6.388-1.051-13.848-2.222-2.582-.177-5.137-.08-7.4-.044a45.97,45.97,0,0,0-5.706.4c-2.913.419-3.617.919-.133,1.352a259.245,259.245,0,0,1,28.425,2.019c6.534,2.2,3.155,2.584-1.29,2.8-2.59.169-5.537.282-7.206.512q-8.756-.875-18.094-1.145a153.782,153.782,0,0,0-42.751,4.731c3.417-1.281,6.887-2.447,10.417-3.44a143.99,143.99,0,0,0-19.4,4.789c1.438-1.462,4.566-3.368,5.355-4.587.393-.6.2-1.01-1.1-1.043a28.143,28.143,0,0,0-7.685,1.4c-3.1,1.281-6.04,2.866-9,4.287-2.881,1.617-5.79,3.071-8.548,4.807-5.609,3.263-10.9,6.93-16.115,10.7A267.531,267.531,0,0,0,31.448-220.2,127.573,127.573,0,0,0,4.524-169.783c-.586,2.39-1.25,4.765-1.667,7.208l-.7,3.648c-.2,1.224-.347,2.457-.521,3.688-.387,2.457-.573,4.944-.762,7.434-.248,2.5-.23,4.938-.344,7.417A174.082,174.082,0,0,0,2.235-110.5c.728-6.824,1.695,8.675,1.556-3.842.489,1.947.924,3.771,1.345,5.712q.909,7.667,2.539,15.131c-1.477-3.15-2.126-3.819-2.282-2.936A26.966,26.966,0,0,0,6.136-89.9c.3,1.489.615,3.074.917,4.587.324,1.509.675,2.938.882,4.158.406,2.439.456,3.988-.594,3.4.877,2.259,1.58,4.249,2.157,6.048.645,1.775,1.191,3.348,1.626,4.815.212.737.414,1.438.609,2.115s.405,1.322.6,1.955c.372,1.275.7,2.506,1.034,3.755a52.045,52.045,0,0,0,9.656,18.985c2.39,2.222,3.271,2.49,3.1,1.681A8.212,8.212,0,0,0,25.2-40.4c-.505-.888-1.091-2.049-1.817-3.287-.7-1.261-1.566-2.582-2.32-4.032l-2.3-4.335c-1.461-2.856-2.618-5.572-3.351-7.227,1.083,1.659,2.267,4.189,3.6,6.652a58.555,58.555,0,0,1-2.144-6.128A33.789,33.789,0,0,1,15.8-64.133a10.515,10.515,0,0,1,.072-4.1A106.113,106.113,0,0,0,36.734-37.165,2.735,2.735,0,0,0,36.116-35a4.746,4.746,0,0,0,.755,1.732A13.969,13.969,0,0,0,39-31.006a8.269,8.269,0,0,0,1.438,2.079c.354.4.755.838,1.206,1.284.472.42.988.859,1.54,1.312,1.1.908,2.346,1.874,3.657,2.868,1.336.956,2.8,1.851,4.234,2.789l2.149,1.386,2.169,1.237c1.419.808,2.763,1.6,3.967,2.344,2.449,1.4,4.371,2.569,5.1,3.563C74.678-7.817,83.794-4.192,91.877-1.706,93.9-1.127,95.852-.589,97.725-.12a53.272,53.272,0,0,0,5.422.929,36.761,36.761,0,0,0,4.943.323A24.225,24.225,0,0,0,112.546.54c5.128,1.908,10.377,3.366,15.681,4.91,3.236.376,6.22.6,9.015.729,2.793.09,5.391-.053,7.87-.176s4.837-.323,7.15-.648,4.578-.554,6.866-.943c2.038-.8-.48-1.131-2.121-1.584-.824-.248-1.43-.514-1.153-.845s1.44-.719,4.134-1.333C163.94.144,170.617-.832,174.5-.621c.558.327-.42.787-1.685,1.213s-2.819.737-3.383.916C179.829.1,188.664-.7,197.03-1.527s16.236-1.7,24.318-3.766a180.379,180.379,0,0,0,32.726-16.326c10.27-6.751,18.458-14.712,22.009-20.462-.774.782-1.532,1.582-2.32,2.346l-2.429,2.217c-.814.733-1.611,1.483-2.436,2.2l-2.534,2.069c.9-.79,1.671-1.495,2.338-2.124s1.182-1.246,1.636-1.756a15.641,15.641,0,0,0,1.779-2.368c.654-1.149.411-1.57.243-2.019s-.281-.943.576-2.235a24.851,24.851,0,0,1,2.121-2.644c1.044-1.13,2.277-2.716,4.038-4.66,1.369-1.413,2.345-2.686,3.248-3.631.871-.971,1.6-1.671,2.132-2.224,1.061-1.1,1.615-1.388,1.927-1.27.626.231.269,2.093,1.164,2.069a60.492,60.492,0,0,0,3.952-6.672c.637-1.258,1.326-2.529,1.941-3.854l1.751-4.029c.612-1.321,1.111-2.674,1.6-3.987l1.465-3.77a64.6,64.6,0,0,1,2.41-6.256c-1.454,5.027-.468,3.239.712.729,1.106-2.526,2.207-5.828,1.627-3.4a57.317,57.317,0,0,0,2.289-10.222,55.4,55.4,0,0,0,.25-7.266c-.094-2.191-.386-4.3-.569-6.742" transform="translate(-0.467 273.793)" fill="none" clip-rule="evenodd"/>
    </clipPath>
    <clipPath id="clip-path-2">
      <path id="Path_155" data-name="Path 155" d="M-208,501.676H1242.008V-549H-208Z" transform="translate(208 549)" fill="none"/>
    </clipPath>
    <clipPath id="clip-path-3">
      <rect id="Rectangle_5" data-name="Rectangle 5" width="402.78" height="418.629" fill="none"/>
    </clipPath>
    <clipPath id="clip-path-4">
      <path id="Path_151" data-name="Path 151" d="M0,7.138H307.12V-274H0Z" transform="translate(0 274)" fill="none"/>
    </clipPath>
    <clipPath id="clip-path-5">
      <path id="Path_154" data-name="Path 154" d="M-.9-339.56H324.977c20.911,0,37.863,17.273,37.863,38.581V39.5c0,21.308-16.952,38.581-37.863,38.581H-.9c-20.911,0-37.863-17.273-37.863-38.581V-300.979C-38.762-322.287-21.811-339.56-.9-339.56Z" transform="translate(38.762 339.56)" fill="none" clip-rule="evenodd"/>
    </clipPath>
    <clipPath id="clip-path-7">
      <path id="Path_159" data-name="Path 159" d="M229.882-33.166H67.508a6.851,6.851,0,0,1-6.833-6.871V-197.909h176.04V-40.037a6.852,6.852,0,0,1-6.832,6.871" transform="translate(-60.675 197.909)" fill="none" clip-rule="evenodd"/>
    </clipPath>
    <clipPath id="clip-path-8">
      <path id="Path_158" data-name="Path 158" d="M-208,475H1232V-549H-208Z" transform="translate(208 549)" fill="none"/>
    </clipPath>
    <clipPath id="clip-path-9">
      <path id="Path_162" data-name="Path 162" d="M227.245-234.6H70.144a9.5,9.5,0,0,0-9.469,9.522v27.173h176.04v-27.173a9.5,9.5,0,0,0-9.47-9.522" transform="translate(-60.675 234.604)" fill="none" clip-rule="evenodd"/>
    </clipPath>
    <clipPath id="clip-path-11">
      <path id="Path_165" data-name="Path 165" d="M159.62-216.245a10.921,10.921,0,0,1-10.891,10.951,10.921,10.921,0,0,1-10.892-10.951A10.921,10.921,0,0,1,148.728-227.2a10.921,10.921,0,0,1,10.891,10.951" transform="translate(-137.837 227.196)" fill="none" clip-rule="evenodd"/>
    </clipPath>
    <clipPath id="clip-path-13">
      <path id="Path_168" data-name="Path 168" d="M213.511-216.245a10.921,10.921,0,0,1-10.892,10.951,10.921,10.921,0,0,1-10.891-10.951A10.921,10.921,0,0,1,202.619-227.2a10.921,10.921,0,0,1,10.892,10.951" transform="translate(-191.728 227.196)" fill="none" clip-rule="evenodd"/>
    </clipPath>
    <clipPath id="clip-path-15">
      <path id="Path_171" data-name="Path 171" d="M106.322-216.245A10.921,10.921,0,0,1,95.43-205.294a10.922,10.922,0,0,1-10.892-10.951A10.922,10.922,0,0,1,95.43-227.2a10.921,10.921,0,0,1,10.891,10.951" transform="translate(-84.539 227.196)" fill="none" clip-rule="evenodd"/>
    </clipPath>
    <clipPath id="clip-path-17">
      <path id="Path_174" data-name="Path 174" d="M101.8-241.126a6.389,6.389,0,0,0-6.371-6.407,6.389,6.389,0,0,0-6.372,6.407v24.607a6.389,6.389,0,0,0,6.372,6.407,6.389,6.389,0,0,0,6.371-6.407v-20.595c0-.01,0-4,0-4.012" transform="translate(-89.059 247.533)" fill="none" clip-rule="evenodd"/>
    </clipPath>
    <clipPath id="clip-path-19">
      <path id="Path_177" data-name="Path 177" d="M155.031-241.126a6.39,6.39,0,0,0-6.372-6.407,6.389,6.389,0,0,0-6.371,6.407v24.607a6.389,6.389,0,0,0,6.371,6.407,6.389,6.389,0,0,0,6.372-6.407v-20.595c0-.01,0-4,0-4.012" transform="translate(-142.288 247.533)" fill="none" clip-rule="evenodd"/>
    </clipPath>
    <clipPath id="clip-path-21">
      <path id="Path_180" data-name="Path 180" d="M208.861-241.126a6.389,6.389,0,0,0-6.372-6.407,6.389,6.389,0,0,0-6.371,6.407v24.607a6.389,6.389,0,0,0,6.371,6.407,6.389,6.389,0,0,0,6.372-6.407l0-20.595c0-.01,0-4,0-4.012" transform="translate(-196.118 247.533)" fill="none" clip-rule="evenodd"/>
    </clipPath>
    <clipPath id="clip-path-23">
      <path id="Path_182" data-name="Path 182" d="M133.535-100.315h30.275v-30.441H133.535Z" transform="translate(-133.535 130.756)" fill="none"/>
    </clipPath>
    <clipPath id="clip-path-24">
      <path id="Path_184" data-name="Path 184" d="M175.841-100.315h30.275v-30.441H175.841Z" transform="translate(-175.841 130.756)" fill="none"/>
    </clipPath>
    <clipPath id="clip-path-25">
      <path id="Path_187" data-name="Path 187" d="M305.59-90.937l-11.507-28.156,28-11.571,11.507,28.156Z" transform="translate(-294.083 130.664)" fill="none" clip-rule="evenodd"/>
    </clipPath>
    <clipPath id="clip-path-27">
      <path id="Path_190" data-name="Path 190" d="M91.051-130.756h30.275v30.44H107.014" transform="translate(-91.051 130.756)" fill="none" clip-rule="evenodd"/>
    </clipPath>
    <clipPath id="clip-path-29">
      <path id="Path_192" data-name="Path 192" d="M175.841-142.677h30.275v-30.441H175.841Z" transform="translate(-175.841 173.118)" fill="none"/>
    </clipPath>
    <clipPath id="clip-path-30">
      <path id="Path_195" data-name="Path 195" d="M245.15-165.426s-4,3.463-5.584,4.867-4.736.726-6.887-.281c-5.4-2.527-12.1-5.615-13.495-6.27a62.911,62.911,0,0,1-6.447-3.551c-.685-.337-1.405-.665-2.116-.941-2.834-1.1-3.35.468-1.582,2.34.711.752,3.38,2.932,4.461,3.762l-1.627,3.682s.433.661,3.681,2.476c.838.467,13.217,8.422,19.36,10.856s9.83,1.772,13.216-1.217a61.009,61.009,0,0,0,6.514-6.738Z" transform="translate(-208.013 171.968)" fill="none" clip-rule="evenodd"/>
    </clipPath>
    <clipPath id="clip-path-32">
      <path id="Path_198" data-name="Path 198" d="M152.671-88.1h11.137v30.441H133.535V-88.1h6.481" transform="translate(-133.535 88.095)" fill="none" clip-rule="evenodd"/>
    </clipPath>
    <clipPath id="clip-path-34">
      <path id="Path_201" data-name="Path 201" d="M191.435-57.654H175.841V-88.1h30.275v30.441h-5.088" transform="translate(-175.841 88.095)" fill="none" clip-rule="evenodd"/>
    </clipPath>
    <clipPath id="clip-path-36">
      <path id="Path_204" data-name="Path 204" d="M110.265-88.1h11.06v30.441H104.832" transform="translate(-104.832 88.095)" fill="none" clip-rule="evenodd"/>
    </clipPath>
    <clipPath id="clip-path-38">
      <path id="Path_207" data-name="Path 207" d="M52.747-133.85l-5.517.365a3.514,3.514,0,0,1-3.73-3.286l-.781-11.922a3.52,3.52,0,0,1,3.269-3.75l5.517-.366a3.515,3.515,0,0,1,3.73,3.286l.78,11.922a3.518,3.518,0,0,1-3.268,3.75" transform="translate(-42.711 152.816)" fill="none" clip-rule="evenodd"/>
    </clipPath>
    <clipPath id="clip-path-40">
      <path id="Path_210" data-name="Path 210" d="M27.58-112.4h0c-2.31,2.017-4.556,1.021-6.561-1.3l-7.637-8.844c-2.006-2.322-3.118-4.877-.7-7.109,2.074-1.916,4.891-.737,6.9,1.586l7.637,8.845c2.005,2.322,2.675,4.807.366,6.824" transform="translate(-11.305 130.61)" fill="none" clip-rule="evenodd"/>
    </clipPath>
    <clipPath id="clip-path-42">
      <path id="Path_213" data-name="Path 213" d="M95.367-88.4a42.727,42.727,0,0,1-39.68,45.53,42.654,42.654,0,0,1-45.28-39.9,42.727,42.727,0,0,1,39.68-45.53,42.654,42.654,0,0,1,45.28,39.9" transform="translate(-10.313 128.389)" fill="none" clip-rule="evenodd"/>
    </clipPath>
    <clipPath id="clip-path-44">
      <path id="Path_216" data-name="Path 216" d="M60.685-142.909l-22.507,1.492a3.513,3.513,0,0,1-3.73-3.286l-.4-6.057a3.519,3.519,0,0,1,3.269-3.75L59.826-156a3.514,3.514,0,0,1,3.731,3.286l.4,6.058a3.52,3.52,0,0,1-3.269,3.75" transform="translate(-34.043 156.011)" fill="none" clip-rule="evenodd"/>
    </clipPath>
    <clipPath id="clip-path-46">
      <path id="Path_219" data-name="Path 219" d="M54.22-89.057h0c-1.868-.572-1.738-2.195-1.17-4.072l3.7-12.245c.568-1.878,1.623-3.215,3.226-2.725,1.67.511,1.88,2.236,1.313,4.113l-3.7,12.245c-.568,1.878-1.5,3.256-3.368,2.685" transform="translate(-52.677 108.202)" fill="none" clip-rule="evenodd"/>
    </clipPath>
    <clipPath id="clip-path-48">
      <path id="Path_222" data-name="Path 222" d="M245.5-203.429s-2.022,4.71-1.306,7.519c1.151,4.515-.589,6.9-1.022,8.28a.471.471,0,0,0,.436.615l1.976.054s.616,3.807,1.934,5.132c2.316,2.327,7.934-1.371,7.934-1.371l.4,8.228s1.042,3.152,4.839,1.122,3.538-4.4,3.538-4.4L260.573-198.3Z" transform="translate(-243.149 203.429)" fill="none" clip-rule="evenodd"/>
    </clipPath>
    <clipPath id="clip-path-50">
      <path id="Path_225" data-name="Path 225" d="M266.709-52.422l1.439,11.46,5.519,1.81,2.64-1.086V-55.076Z" transform="translate(-266.709 55.076)" fill="none" clip-rule="evenodd"/>
    </clipPath>
    <clipPath id="clip-path-52">
      <path id="Path_228" data-name="Path 228" d="M259.4-94.476s2.233,23.892,3.349,31.269,1.913,12.027,1.913,12.027,2.393,1.6,7.336,1.443,7.176-1.443,7.176-1.443l.16-22.289Z" transform="translate(-259.405 94.476)" fill="none" clip-rule="evenodd"/>
    </clipPath>
    <clipPath id="clip-path-54">
      <path id="Path_231" data-name="Path 231" d="M250.152-35.051h29.034c1.559,0,1.439-4.705.6-6.876s-1.918-3.5-2.759-3.378,0,2.533-4.678,3.015-4.439-3.015-4.919-3.739-3.359-.965-5.159.965-7.8,4.343-10.078,5.428-2.04,4.585-2.04,4.585" transform="translate(-250.145 46.56)" fill="none" clip-rule="evenodd"/>
    </clipPath>
    <clipPath id="clip-path-56">
      <path id="Path_234" data-name="Path 234" d="M301.5-62.917l6.478,10.254L305.7-47.475l-4.439.964-2.279-2.533-6.239-8.564Z" transform="translate(-292.742 62.917)" fill="none" clip-rule="evenodd"/>
    </clipPath>
    <clipPath id="clip-path-58">
      <path id="Path_237" data-name="Path 237" d="M256.215-134.565s-1.594,17.96-2.233,27.9.479,12.348,8.453,21.808,28.226,32.392,28.226,32.392a30.412,30.412,0,0,0,7.975-5.452c4.146-3.849,4.944-7.216,4.944-7.216s-11.322-16.035-16.745-23.892a109.311,109.311,0,0,0-7.5-10.1s2.552-13.149,4.146-21.808a80.911,80.911,0,0,0,1.594-12.988Z" transform="translate(-253.831 134.565)" fill="none" clip-rule="evenodd"/>
    </clipPath>
    <clipPath id="clip-path-60">
      <path id="Path_240" data-name="Path 240" d="M288.585-35.9h12.837s1.56.121,3.6-2.413,7.917-10.736,8.757-11.822-1.86-4.8-4-5.79c-1.587-.737-2.6-.831-3-.6-.467.266.479,3.5-1.8,5.428a5.888,5.888,0,0,1-6.6.6c-1.2-.845-2.4-1.207-2.4,1.206s.211,5.753.211,5.753-8.868,1.324-7.608,7.637" transform="translate(-288.462 56.633)" fill="none" clip-rule="evenodd"/>
    </clipPath>
    <clipPath id="clip-path-62">
      <path id="Path_243" data-name="Path 243" d="M291.253-161.153a133.333,133.333,0,0,1,10.486,12.682,126.416,126.416,0,0,1,10.485,19.253c1.976,4.431,2.887,8.4,1.368,10.391s-2.279,1.222-3.8-1.682a23.405,23.405,0,0,0-2.737-4.278l-3.494,1.681s.456-4.584-.3-5.959a96.465,96.465,0,0,0-10.638-13.6c-5.774-6.265-12.917-14.058-12.917-14.058Z" transform="translate(-279.703 161.153)" fill="none" clip-rule="evenodd"/>
    </clipPath>
    <clipPath id="clip-path-64">
      <path id="Path_255" data-name="Path 255" d="M163.4-172.844v30.487h-30.3v-30.487Zm-42.518,0v30.487h-30.3v-30.487Zm70.995-19.408,27.762,12.21-4.829,11.12c-1.459-.832-2.441-1.461-2.441-1.461-.686-.337-1.408-.666-2.119-.943-2.836-1.1-3.353.469-1.584,2.343.712.753,3.382,2.937,4.465,3.768h0l-1.629,3.688s.024.029.063.072h0l-4.061,9.348-27.763-12.21Z" transform="translate(-90.587 192.253)" fill="none" clip-rule="evenodd"/>
    </clipPath>
    <clipPath id="clip-path-66">
      <rect id="Rectangle_6" data-name="Rectangle 6" width="394" height="408" fill="none"/>
    </clipPath>
    <clipPath id="clip-path-67">
      <path id="Path_245" data-name="Path 245" d="M133.105-142.358h30.3v-30.487h-30.3Z" transform="translate(-133.105 172.844)" fill="none"/>
    </clipPath>
    <clipPath id="clip-path-68">
      <path id="Path_248" data-name="Path 248" d="M210.255-171.326c.711.277,1.433.606,2.119.943,0,0,.982.629,2.441,1.461l4.829-11.12-27.762-12.21-12.135,27.935,27.763,12.21,4.061-9.348c-.04-.043-.063-.072-.063-.072l1.629-3.687c-1.083-.831-3.753-3.014-4.465-3.768-1.769-1.874-1.253-3.447,1.584-2.343" transform="translate(-179.746 192.253)" fill="none" clip-rule="evenodd"/>
    </clipPath>
    <clipPath id="clip-path-69">
      <path id="Path_247" data-name="Path 247" d="M90-142H220v-51H90Z" transform="translate(-90 193)" fill="none"/>
    </clipPath>
    <clipPath id="clip-path-70">
      <path id="Path_250" data-name="Path 250" d="M90.587-142.358h30.3v-30.487h-30.3Z" transform="translate(-90.587 172.844)" fill="none"/>
    </clipPath>
    <clipPath id="clip-path-71">
      <path id="Path_253" data-name="Path 253" d="M.24-337.653H318.264a37.6,37.6,0,0,1,37.6,37.6V31.782a37.6,37.6,0,0,1-37.6,37.6H.24a37.6,37.6,0,0,1-37.6-37.6V-300.051A37.6,37.6,0,0,1,.24-337.653Z" transform="translate(37.361 337.653)" fill="none" clip-rule="evenodd"/>
    </clipPath>
    <clipPath id="clip-path-73">
      <path id="Path_266" data-name="Path 266" d="M49.443-137.445a51.764,51.764,0,0,1,54.936,48.452A51.869,51.869,0,0,1,56.238-33.7,51.764,51.764,0,0,1,1.3-82.156,51.871,51.871,0,0,1,49.443-137.445ZM95.169-88.383a42.7,42.7,0,0,0-45.32-39.97A42.791,42.791,0,0,0,10.134-82.742,42.7,42.7,0,0,0,55.455-42.771,42.791,42.791,0,0,0,95.169-88.383Zm-49.293.677a7.271,7.271,0,0,1,9.082-4.877,7.334,7.334,0,0,1,4.846,9.14,7.271,7.271,0,0,1-9.082,4.878A7.333,7.333,0,0,1,45.876-87.706Z" transform="translate(-1.187 137.56)" fill="none" clip-rule="evenodd"/>
    </clipPath>
    <clipPath id="clip-path-75">
      <rect id="Rectangle_7" data-name="Rectangle 7" width="395" height="392" fill="none"/>
    </clipPath>
    <clipPath id="clip-path-76">
      <path id="Path_258" data-name="Path 258" d="M55.455-42.771A42.7,42.7,0,0,1,10.134-82.742,42.791,42.791,0,0,1,49.85-128.353a42.7,42.7,0,0,1,45.32,39.97A42.791,42.791,0,0,1,55.455-42.771m48.924-46.222a51.764,51.764,0,0,0-54.936-48.452A51.871,51.871,0,0,0,1.3-82.156,51.764,51.764,0,0,0,56.238-33.7a51.869,51.869,0,0,0,48.141-55.289" transform="translate(-1.187 137.56)" fill="none" clip-rule="evenodd"/>
    </clipPath>
    <clipPath id="clip-path-77">
      <path id="Path_257" data-name="Path 257" d="M0-31H107V-140H0Z" transform="translate(0 140)" fill="none"/>
    </clipPath>
    <clipPath id="clip-path-78">
      <path id="Path_261" data-name="Path 261" d="M54.958-92.584a7.271,7.271,0,0,0-9.082,4.877,7.333,7.333,0,0,0,4.846,9.141A7.271,7.271,0,0,0,59.8-83.443a7.334,7.334,0,0,0-4.846-9.14" transform="translate(-45.559 92.903)" fill="none" clip-rule="evenodd"/>
    </clipPath>
    <clipPath id="clip-path-80">
      <path id="Path_264" data-name="Path 264" d="M1.543-323.352H319.566a37.6,37.6,0,0,1,37.6,37.6V30.1a37.6,37.6,0,0,1-37.6,37.6H1.543a37.6,37.6,0,0,1-37.6-37.6V-285.75A37.6,37.6,0,0,1,1.543-323.352Z" transform="translate(36.059 323.352)" fill="none" clip-rule="evenodd"/>
    </clipPath>
    <clipPath id="clip-path-82">
      <path id="Path_273" data-name="Path 273" d="M293.162-163.32c-3.681-3.065-12.638-10.66-17.344-13.7-8.035-5.19-16.3-2.961-20.1,1.849a1.6,1.6,0,0,0-.166.033c-5.323,1.786-12.7,8.277-12.7,8.277s1.215,2.728,5.7,7.619a26.888,26.888,0,0,0,3.937,3.543c-.257,10.5-.562,18.939-.695,22.406a1.641,1.641,0,0,0,1.639,1.708H286.6a2.345,2.345,0,0,0,2.232-3.023L283.2-153.5l9.881-7.223a1.648,1.648,0,0,0,.085-2.594" transform="translate(-242.848 179.996)" fill="none" clip-rule="evenodd"/>
    </clipPath>
    <clipPath id="clip-path-84">
      <rect id="Rectangle_8" data-name="Rectangle 8" width="406" height="416" fill="none"/>
    </clipPath>
    <clipPath id="clip-path-85">
      <path id="Path_268" data-name="Path 268" d="M242-131h52v-52H242Z" transform="translate(-242 183)" fill="none"/>
    </clipPath>
    <clipPath id="clip-path-86">
      <path id="Path_271" data-name="Path 271" d="M.24-340.273h329.7a37.6,37.6,0,0,1,37.6,37.6V36.682a37.6,37.6,0,0,1-37.6,37.6H.24a37.6,37.6,0,0,1-37.6-37.6V-302.671A37.6,37.6,0,0,1,.24-340.273Z" transform="translate(37.361 340.273)" fill="none" clip-rule="evenodd"/>
    </clipPath>
    <clipPath id="clip-path-88">
      <path id="Path_362" data-name="Path 362" d="M1.815-89.09l.094.008a.662.662,0,0,1,.536.759,55.006,55.006,0,0,0-.5,11.694C3.809-47.5,28.287-25.358,56.532-27.281a49.819,49.819,0,0,0,19.141-5.236.633.633,0,0,1,.86.3.672.672,0,0,1-.295.888,51.141,51.141,0,0,1-9.794,3.734,8.612,8.612,0,0,0,3.96.979H228.48a9.107,9.107,0,0,0,8.952-9.234.653.653,0,0,1,.643-.664.654.654,0,0,1,.644.664A10.416,10.416,0,0,1,228.48-25.282H70.4a9.96,9.96,0,0,1-5.788-1.856,51.567,51.567,0,0,1-8,1.184q-1.756.12-3.5.119C25.678-25.836,2.494-47.888.663-76.541a56.244,56.244,0,0,1,.511-11.987.648.648,0,0,1,.735-.553ZM286.26-124.515l.094.005a.661.661,0,0,1,.559.742c-.276,2.263-.649,4.708-1.11,7.265-.507,2.823-1.112,6.126-1.7,9.319l-.161.868c-1.041,5.616-2,10.719-2.251,12.028.667.793,2.875,3.549,7.384,10.253,1.446,2.15,3.32,4.909,5.291,7.8l.456.669.229.336.46.674.922,1.35.461.674c4.447,6.5,8.678,12.653,9.018,13.147l.021.031.17.246-.068.292a12.058,12.058,0,0,1-1.369,3.09h0L308-50.308a.8.8,0,0,1,.307-.348c.916-.537,2.657.143,3.61.6a10,10,0,0,1,4.481,5.406,1.842,1.842,0,0,1-.215,1.586c-.282.374-1.128,1.566-2.206,3.085-2.213,3.116-5.244,7.385-6.62,9.139-2.011,2.561-3.664,2.741-4.088,2.741a.791.791,0,0,1-.086,0h0l-13.4,0-.1-.533a5.961,5.961,0,0,1,.873-4.659c1.762-2.589,5.335-3.6,6.742-3.9-.06-1.1-.18-3.529-.18-5.4,0-.472,0-1.909.936-2.411.011-.007.022-.008.034-.014h0l-1.7-2.389a24.893,24.893,0,0,1-3.738,2.144h0l-.423.182-.307-.354c-.13-.151-8.487-9.861-16.568-19.366l-.757-.89c-4.28-5.038-8.407-9.932-11.108-13.22-.372-.453-.715-.876-1.059-1.3.225,2.349.479,4.939.744,7.567.764,7.577,1.358,12.814,1.764,15.568.951,6.448,1.679,10.923,1.873,12.1a13.669,13.669,0,0,0,6.783,1.249,18.062,18.062,0,0,0,6.606-1.249h0l.064-8.865a.653.653,0,0,1,.643-.66h0a.656.656,0,0,1,.643.669h0l-.067,9.664-.322.19a10.955,10.955,0,0,1-2.568.923h0v3.914c1.2-.167,2.46,1.255,3.458,3.906.709,1.877,1.027,5.768.016,7.294a1.427,1.427,0,0,1-1.219.714H251.006l-.042-.618c-.012-.166-.244-4.081,2.42-5.381.449-.22,1.04-.491,1.715-.8,2.568-1.179,6.866-3.153,8.239-4.662a5.415,5.415,0,0,1,4.392-1.739,4.261,4.261,0,0,1,.571.1h0l-.337-2.754a8.731,8.731,0,0,1-2.1-.915h0l-.231-.158-.048-.281c-.007-.049-.816-4.9-1.927-12.439-.41-2.774-1.006-8.033-1.772-15.629-.342-3.387-.668-6.736-.935-9.541-5.723-7.276-6.725-10.4-6.133-19.868.176-2.816.425-6.252.692-9.747l.147-1.909c.247-3.18.5-6.325.724-9.011a.666.666,0,0,1,.7-.6.658.658,0,0,1,.587.718c-.222,2.684-.476,5.825-.723,9l-.147,1.907c-.267,3.491-.515,6.922-.691,9.732-.618,9.907.241,12.175,8.362,22.06,2.585,3.147,6.482,7.771,10.568,12.584l.7.827c7.387,8.693,15.178,17.757,16.827,19.674A31.531,31.531,0,0,0,299.992-52a17.476,17.476,0,0,0,4.707-6.849c-.886-1.287-4.846-7.045-8.965-13.07l-.526-.77c-2.635-3.856-5.285-7.748-7.192-10.583a115.045,115.045,0,0,0-7.489-10.364h0l-.223-.247.063-.332h0l.006-.034c.094-.5,1.159-6.131,2.318-12.383l.137-.738.206-1.114.138-.745.137-.745.137-.744c.386-2.1.763-4.165,1.1-6.021.453-2.533.824-4.951,1.1-7.189a.649.649,0,0,1,.718-.576ZM267.344-39.121h-.02a4.166,4.166,0,0,0-3.046,1.336c-1.551,1.7-5.826,3.668-8.656,4.967-.664.3-1.245.571-1.687.788-1.363.666-1.636,2.5-1.683,3.472h28.589c.042,0,.1-.046.155-.136.623-.94.541-4.227-.151-6.063-.775-2.057-1.612-2.951-1.988-3.062-.03.064-.065.147-.093.214-.367.874-1.049,2.5-4.742,2.893-4.318.455-5.052-2.3-5.4-3.633a3.647,3.647,0,0,0-.16-.526,1.961,1.961,0,0,0-1.12-.25ZM309.188-49.53h-.068c-.009.14-.012.323-.016.483-.026,1.23-.073,3.518-1.875,5.084a6.4,6.4,0,0,1-7.429.659c-.79-.571-1.087-.55-1.147-.535l-.012,0s-.243.16-.243,1.232c0,2.443.209,5.868.211,5.9h0l.038.608-.583.09c-.047.008-4.608.741-6.463,3.47a4.444,4.444,0,0,0-.743,3.1h12.4c.194-.008,1.448-.142,3.1-2.246,1.358-1.729,4.5-6.157,6.582-9.088,1.089-1.533,1.944-2.738,2.229-3.115a.759.759,0,0,0-.022-.467,8.887,8.887,0,0,0-3.768-4.5,5.338,5.338,0,0,0-2.257-.676ZM50.107-124.889c23.945-1.626,44.7,17.141,46.28,41.839A45.493,45.493,0,0,1,85.693-50.512,42.76,42.76,0,0,1,55.831-35.3q-1.455.1-2.892.1c-22.7,0-41.874-18.238-43.389-41.937C7.973-101.843,26.166-123.261,50.107-124.889ZM277.3-42.784a25.286,25.286,0,0,1-3.669.38c-.245.009-.485.012-.717.012a17.548,17.548,0,0,1-3.608-.36h0l.447,3.649c.04.128.078.26.116.412.33,1.266.762,3,4.023,2.657,2.218-.234,3.02-.9,3.408-1.525h0ZM53-123.659q-1.395,0-2.8.1C26.959-121.984,9.3-101.2,10.835-77.232s21.686,42.194,44.91,40.6a41.494,41.494,0,0,0,28.98-14.757A44.147,44.147,0,0,0,95.1-82.962C93.632-105.959,75.023-123.659,53-123.659Zm2.275,76.1a.655.655,0,0,1,.685.619h0l.354,5.519a.657.657,0,0,1-.6.707h-.043a.653.653,0,0,1-.643-.62h0l-.353-5.519A.656.656,0,0,1,55.271-47.563Zm5.54-129.989a.654.654,0,0,1,.643.665h0v24.12a5.754,5.754,0,0,1,2.992,4.7h0l.216,3.391a5.816,5.816,0,0,1-1.369,4.163,5.548,5.548,0,0,1-1.839,1.413h0v5.408c23.7,3.9,42.553,24.291,44.2,50.014a55.631,55.631,0,0,1-9.667,35.09,54.518,54.518,0,0,1-5.891,7.127.635.635,0,0,1-.452.19.633.633,0,0,1-.458-.2.679.679,0,0,1,.006-.939,52.95,52.95,0,0,0,5.747-6.954,54.252,54.252,0,0,0,9.431-34.231c-1.861-29.128-26.33-51.264-54.585-49.348A51.2,51.2,0,0,0,9.132-107.33a.631.631,0,0,1-.884.228.675.675,0,0,1-.22-.911,54.172,54.172,0,0,1,5.964-8.3h0L12.7-117.85c-2.76-3.282-2.982-6.064-.655-8.27a4.011,4.011,0,0,1,3.063-1.157,7.25,7.25,0,0,1,4.8,2.85h0l1.136,1.35a51.96,51.96,0,0,1,21.8-10.24h0l-.263-4.1-3,.2c-.124.008-.247.012-.371.012a5.652,5.652,0,0,1-5.551-5.366h0l-.216-3.391a5.821,5.821,0,0,1,1.368-4.164.631.631,0,0,1,.909-.061.68.68,0,0,1,.059.937,4.47,4.47,0,0,0-1.052,3.2h0l.217,3.39a4.327,4.327,0,0,0,4.552,4.115h0l19.883-1.352a4.2,4.2,0,0,0,2.938-1.5,4.466,4.466,0,0,0,1.052-3.2h0l-.215-3.39a4.332,4.332,0,0,0-4.553-4.115h0l-13.775.936a.664.664,0,0,1-.685-.619.658.658,0,0,1,.6-.707h0l13.774-.936a5.268,5.268,0,0,1,1.643.167h0v-23.632A.654.654,0,0,1,60.811-177.551ZM303.883-54.516a22.933,22.933,0,0,1-3.02,3.488,35,35,0,0,1-3.419,2.863h0l2.348,3.307a6.121,6.121,0,0,1,.748.469,5.217,5.217,0,0,0,5.861-.587,4.457,4.457,0,0,0,1.38-3.21h0Zm-65.807-81.011a.654.654,0,0,1,.644.664h0v89.472a.654.654,0,0,1-.644.664.653.653,0,0,1-.643-.664h0v-89.472A.653.653,0,0,1,238.076-135.528ZM31.338-55.554a.628.628,0,0,1,.908-.061.678.678,0,0,1,.061.936h0l-3.534,4.16a.636.636,0,0,1-.485.227.629.629,0,0,1-.424-.165.679.679,0,0,1-.06-.937h0ZM122.526-83.36v32.779H105.275a.653.653,0,0,1-.643-.665.653.653,0,0,1,.643-.664h15.963V-82.032H110.746a.654.654,0,0,1-.643-.665.654.654,0,0,1,.643-.664h11.78Zm85.38,0v32.779h-5.767a.653.653,0,0,1-.643-.665.653.653,0,0,1,.643-.664h4.48V-82.032h-29.2V-51.91h15.06a.653.653,0,0,1,.643.664.653.653,0,0,1-.643.665H176.134V-83.36Zm-67.2,0a.653.653,0,0,1,.643.665.653.653,0,0,1-.643.664H134.82v30.121h29.2V-82.032H153.446a.654.654,0,0,1-.643-.664.654.654,0,0,1,.643-.665H165.3v32.779H133.532V-83.361Zm-63.63,24.7a.63.63,0,0,1,.908-.062h0l4.032,3.646a.678.678,0,0,1,.061.937.635.635,0,0,1-.485.226.631.631,0,0,1-.424-.165h0l-4.032-3.645A.679.679,0,0,1,77.073-58.664ZM57.652-103.356A2.52,2.52,0,0,1,60.3-104c1.861.585,2.516,2.483,1.75,5.077h0L58.338-86.339a8.155,8.155,0,0,1,1.847,2.358,8.39,8.39,0,0,1,.595,6.261,8.015,8.015,0,0,1-7.628,5.829,7.7,7.7,0,0,1-2.313-.356A8.278,8.278,0,0,1,45.534-82.5a8.028,8.028,0,0,1,7.043-5.8h0l3.669-12.441A5.949,5.949,0,0,1,57.652-103.356ZM53.148-87a6.487,6.487,0,0,0-3.135.814,6.8,6.8,0,0,0-3.246,4.075,6.94,6.94,0,0,0,4.448,8.6,6.449,6.449,0,0,0,5.087-.513,6.806,6.806,0,0,0,3.247-4.074A6.941,6.941,0,0,0,55.1-86.7,6.5,6.5,0,0,0,53.148-87ZM20.8-78.727a.65.65,0,0,1,.685.619.658.658,0,0,1-.6.707h0l-5.351.363h0l-.044,0a.652.652,0,0,1-.641-.62.657.657,0,0,1,.6-.707h0Zm70.029-4.762a.656.656,0,0,1,.685.619.657.657,0,0,1-.6.707h0l-5.35.364h-.044a.651.651,0,0,1-.641-.62.656.656,0,0,1,.6-.707h0Zm156.564-122.5c2.354-2.773,7.473-4.706,13.15-2.4,2.847,1.157,4.638,3.4,6.219,5.381a20.925,20.925,0,0,0,1.979,2.262,10.59,10.59,0,0,0,2.335,1.4c2.322,1.159,5.211,2.6,5.763,6.771.7,5.3,1.6,7.4,5.5,9.356l.384.193.291.149c2.738,1.417,8.471,4.825,7.2,10.514a7.905,7.905,0,0,1-2.854,4.639c2.565,2.13,5.03,4.241,6.825,5.779h0l1.313,1.124a2.363,2.363,0,0,1,.826,1.883,2.363,2.363,0,0,1-.942,1.831h0l-.331.249c.778.885,1.773,2.033,2.893,3.383,2.414,2.9,4.478,5.6,6.13,8.013,4.757,6.939,9.013,16.3,10.622,20,.259.6.485,1.166.7,1.724h0l8.995-3.813,12.077,30.318L307.079-84.765,295-115.083l9.768-4.142c.151-1.785.209-4.62-.252-5.475A100.255,100.255,0,0,0,293.9-138.621h0l-5.125-5.714a.679.679,0,0,1,.035-.938.632.632,0,0,1,.91.036h0l5.123,5.713a99.264,99.264,0,0,1,10.8,14.179c.61,1.132.562,3.813.472,5.384h0l1.946-.96a8.8,8.8,0,0,1-.81-1.365.668.668,0,0,1,.408-.839.637.637,0,0,1,.789.358c.1.186.73,1.186,1.3,2.067a.667.667,0,0,1,.092.236,29.039,29.039,0,0,1,2.393,3.973c.331.648,1.183,2.307,1.685,2.492h0l-2.745-5.972a.673.673,0,0,1,.307-.885.636.636,0,0,1,.857.315h0l2.626,5.711.017-.02a2.722,2.722,0,0,0,.165-.309c0-.008-.011-.011-.015-.019h0l-2.038-5.363a.672.672,0,0,1,.364-.861.637.637,0,0,1,.836.375h0l1.314,3.46a21.9,21.9,0,0,0-2.079-7.341c-1.594-3.668-5.806-12.936-10.5-19.78-1.629-2.378-3.667-5.041-6.056-7.915-1.159-1.4-2.181-2.576-2.964-3.464h0l-8.167,6.116,5.525,18.969a3.125,3.125,0,0,1-.464,2.722,2.927,2.927,0,0,1-2.392,1.24H255.216a2.242,2.242,0,0,1-1.654-.725,2.371,2.371,0,0,1-.634-1.721c.127-3.424.431-12,.688-22.682a27.855,27.855,0,0,1-3.77-3.512,37.8,37.8,0,0,1-5.738-7.809l-.043-.089c-.03-.064-.047-.1-.052-.113h0l-.194-.449.357-.323c.162-.146,2.266-2.027,5-4.043.386-1.511.809-3.291,1.111-4.917a23.745,23.745,0,0,0,.381-4.707,3.284,3.284,0,0,1-2.175-.955c-1.169-1.2-1.8-3.927-2.032-5.122h0L245-184.229a1.1,1.1,0,0,1-.882-.484,1.174,1.174,0,0,1-.153-1.016c.087-.282.221-.6.376-.972a10.31,10.31,0,0,0,.644-7.217c-.506-2.039.207-4.864.774-6.611h0l-.315-.1-.006-.485A8.144,8.144,0,0,1,247.393-205.987Zm76.3,80.178-7.852,3.329c1.328,3.934,1.4,6.778.159,8.439-.491.659-1.157,1.4-2,1.4-.042,0-.083,0-.126-.006-1.006-.089-1.727-1.157-2.784-3.229a28.259,28.259,0,0,0-2.194-3.665h0l-12.215,5.178,11.1,27.862,27.007-11.45ZM59.46-102.8a1.293,1.293,0,0,0-.924.414,4.741,4.741,0,0,0-1.058,2.034h0L53.92-88.291a7.76,7.76,0,0,1,1.555.317,7.833,7.833,0,0,1,1.755.83h0l3.586-12.163c.317-1.073.62-2.945-.894-3.42A1.522,1.522,0,0,0,59.46-102.8Zm105.846-24.63v32.779H133.532v-32.779Zm42.6,0v32.779H176.134v-32.779Zm-85.38,0v32.779H107.472a.654.654,0,0,1-.643-.664.654.654,0,0,1,.643-.665h13.766v-30.121H91.4a.654.654,0,0,1-.643-.665.654.654,0,0,1,.643-.664h31.13Zm41.492,1.328h-29.2v30.122h29.2Zm42.6,0h-29.2v30.122h29.2ZM24.291-106.383a.631.631,0,0,1,.908-.062h0l4.032,3.646a.679.679,0,0,1,.06.937.634.634,0,0,1-.484.227.633.633,0,0,1-.424-.165h0l-4.032-3.646A.679.679,0,0,1,24.291-106.383Zm53.3-3.625a.63.63,0,0,1,.908-.061.679.679,0,0,1,.06.937h0l-3.534,4.161a.633.633,0,0,1-.484.226.631.631,0,0,1-.424-.165.679.679,0,0,1-.06-.937h0Zm-26.937-9.8a.634.634,0,0,1,.685.618h0l.352,5.52a.656.656,0,0,1-.6.707h-.042a.652.652,0,0,1-.643-.62h0l-.352-5.52A.656.656,0,0,1,50.656-119.808Zm-35.79-6.149a2.77,2.77,0,0,0-1.95.815c-1.786,1.694-1.554,3.674.758,6.421h0l1.188,1.412a53.5,53.5,0,0,1,5.178-4.939h0l-1.1-1.309a6,6,0,0,0-3.9-2.394C14.98-125.954,14.924-125.957,14.866-125.957Zm262.471-47.869c-4.358-2.883-9.139-3.7-13.46-2.293a11.563,11.563,0,0,0-7.247,6.434h0l-.144.225c-.15.24-1.249,2.356-1.495,13.557-.271,12.428-.633,22.665-.775,26.488a1.028,1.028,0,0,0,.275.749.979.979,0,0,0,.726.317H288.5a1.662,1.662,0,0,0,1.36-.7,1.782,1.782,0,0,0,.264-1.548h0l-5.408-18.566-2.2,1.5a1.574,1.574,0,0,1-.883.273,1.545,1.545,0,0,1-.427-.06,1.61,1.61,0,0,1-.97-.782A41.869,41.869,0,0,1,275.143-156a86.637,86.637,0,0,1-3.683-8.184.669.669,0,0,1,.366-.859.64.64,0,0,1,.834.379c0,.005.03.079.082.214l.06.155c.411,1.048,1.684,4.191,3.476,7.672a40.775,40.775,0,0,0,4.966,7.549h0l.1.159a.314.314,0,0,0,.2.173.3.3,0,0,0,.259-.042h0l2.912-1.979,9.905-7.417a1.03,1.03,0,0,0,.411-.8,1.029,1.029,0,0,0-.358-.819h0l-1.315-1.125C289.229-164.458,281.534-171.048,277.337-173.826ZM55.19-138.277l-11.319.77.252,3.95a50.9,50.9,0,0,1,5.573-.708,51.276,51.276,0,0,1,5.745-.061h0Zm4.976-.41a5.45,5.45,0,0,1-.694.118h0l-3,.2.264,4.12c1.151.08,2.3.187,3.428.344h0ZM165.306-171.2v32.779H133.532V-171.2Zm-42.78,0v32.779H90.753V-171.2Zm70.454-20.231L222.093-178.3l-4.755,11.226a18.7,18.7,0,0,0,3.356,2.148c.5.241,1.679.8,3.235,1.54,1.82.865,4.154,1.975,6.524,3.105l1.293.617c.86.411,1.713.82,2.537,1.216,2.1,1.01,4.953,1.565,6.239.393a.63.63,0,0,1,.908.058.679.679,0,0,1-.056.938c-1.846,1.682-5.266.951-7.634-.187-3.5-1.678-7.537-3.6-10.348-4.934-1.558-.741-2.741-1.3-3.241-1.544a18.4,18.4,0,0,1-2.379-1.4.6.6,0,0,1-.318-.093,39.668,39.668,0,0,0-5.884-3.132c-1.243-.5-1.7-.307-1.736-.249-.057.088.006.684.84,1.591a49.9,49.9,0,0,0,5.985,4.837.676.676,0,0,1,.174.922.637.637,0,0,1-.534.292.625.625,0,0,1-.36-.113c-.042-.03-.314-.219-.72-.512h0l-1.181,2.685a25.747,25.747,0,0,0,3.042,2.014c.14.08.6.369,1.289.811,3.556,2.265,13.005,8.284,18.128,10.366,5.655,2.3,9.2,1.981,12.647-1.138.778-.7,1.51-1.41,2.182-2.085a.629.629,0,0,1,.909.011.678.678,0,0,1-.012.939c-.686.691-1.435,1.411-2.23,2.132a10.244,10.244,0,0,1-7.159,2.964,18.343,18.343,0,0,1-6.81-1.588c-5.23-2.126-14.75-8.19-18.333-10.473-.664-.423-1.1-.7-1.237-.781a27.877,27.877,0,0,1-2.962-1.934h0l-4.124,9.388-1.461-.659v10.507H176.134V-171.2h8.274Zm-28.963,21.559h-29.2v30.122h29.2Zm19.827,0H177.42v30.122h29.2v-9.759L180.256-161.4Zm-62.607,0H92.04v30.122h29.2Zm72.406-19.811-11.694,27.6L208.7-150.019l5.284-12.468a35.46,35.46,0,0,1-4.249-3.608c-1.132-1.23-1.5-2.443-.977-3.245.3-.461,1.124-1.106,3.27-.25a34.078,34.078,0,0,1,4.1,2.031h0l4.263-10.06Zm62.236,18.569c-4.2,2.019-9.085,6.13-10.473,7.335l.047.086.109.194a41.92,41.92,0,0,0,5.228,6.939,26.84,26.84,0,0,0,2.866,2.762q.024-1.056.048-2.133c.237-10.871,1.274-13.643,1.772-14.345C255.592-170.564,255.738-170.839,255.88-171.115Zm-8.955-28.819c-.511,1.6-1.106,4.031-.7,5.686a11.66,11.66,0,0,1-.711,8.077c-.1.227-.183.432-.252.622h0l2.288.065.086.541c.045.283.128.711.241,1.2.013.007.026.007.038.013a2.633,2.633,0,0,0,3.538-.91.63.63,0,0,1,.9-.118.678.678,0,0,1,.114.931,3.983,3.983,0,0,1-3.251,1.76,3.918,3.918,0,0,1-.909-.115A6.084,6.084,0,0,0,249.407-180c1.605,1.654,5.729-.522,7.184-1.5h0l.938-.633.391,8.206a13.655,13.655,0,0,1,5.195-3.308,44.04,44.04,0,0,1-4.526-10.014h0l-.156-.516.457-.263a9.9,9.9,0,0,0,1.737-1.333,4.049,4.049,0,0,0,1.106-4.064,3.078,3.078,0,0,0-1.592-1.926,2.477,2.477,0,0,0-1.958.189,7.2,7.2,0,0,0-1,.7c-.227.179-.45.353-.663.5-1.367.929-3.448-.747-4.564-1.829A31.4,31.4,0,0,0,246.925-199.934ZM248-191.8c.463,0,.836.5.836,1.113s-.374,1.112-.836,1.112-.836-.5-.836-1.112S247.543-191.8,248-191.8ZM258.493-194a1.581,1.581,0,0,1,1.241.357,1.627,1.627,0,0,1,.488,1.306,2.936,2.936,0,0,1-2.178,2.458.641.641,0,0,1-.191.03.647.647,0,0,1-.614-.466.67.67,0,0,1,.421-.831c.013,0,1.258-.435,1.275-1.22,0-.178-.03-.259-.052-.279a.337.337,0,0,0-.21-.04.648.648,0,0,1-.716-.573A.653.653,0,0,1,258.493-194Zm-11.916-1.516a2.428,2.428,0,0,1,2.557-.1.675.675,0,0,1,.234.908.635.635,0,0,1-.88.24,1.209,1.209,0,0,0-1.2.058.623.623,0,0,1-.355.11.643.643,0,0,1-.537-.3A.677.677,0,0,1,246.576-195.512ZM203.611-248.08a7.182,7.182,0,0,1,7.059,7.283h0v6.074h14.109a14.184,14.184,0,0,1,13.941,14.382h0v24.858H60.167v-24.858a14.183,14.183,0,0,1,13.941-14.382H88.747V-240.8a7.393,7.393,0,0,1,.767-3.3.637.637,0,0,1,.867-.291.675.675,0,0,1,.28.893,6.044,6.044,0,0,0-.626,2.7h0v25.422a5.873,5.873,0,0,0,5.773,5.956,5.576,5.576,0,0,0,1.8-.3.639.639,0,0,1,.812.424.666.666,0,0,1-.41.838,6.823,6.823,0,0,1-2.2.363,7.182,7.182,0,0,1-7.061-7.283h0v-7.455a10.754,10.754,0,0,0-3.264,7.737,10.5,10.5,0,0,0,10.324,10.65,10.5,10.5,0,0,0,10.322-10.65,10.754,10.754,0,0,0-3.264-7.739h0v7.456a7.537,7.537,0,0,1-.319,2.177.65.65,0,0,1-.616.466.622.622,0,0,1-.192-.031.668.668,0,0,1-.423-.832,6.069,6.069,0,0,0,.263-1.78h0V-240.8a6.055,6.055,0,0,0-.654-2.756,5.739,5.739,0,0,0-5.118-3.2,5.61,5.61,0,0,0-3.156.97.635.635,0,0,1-.892-.192.677.677,0,0,1,.185-.919,6.883,6.883,0,0,1,3.864-1.186,7.018,7.018,0,0,1,6.259,3.913,7.5,7.5,0,0,1,.8,3.371h0v6.074h39.481V-240.8a7.183,7.183,0,0,1,7.06-7.283,7.183,7.183,0,0,1,7.06,7.283h0v6.074h40.085v-1.8a.653.653,0,0,1,.643-.664.653.653,0,0,1,.643.664h0v21.144a5.874,5.874,0,0,0,5.774,5.956,5.873,5.873,0,0,0,5.771-5.956h0V-240.8a5.873,5.873,0,0,0-5.771-5.956,5.73,5.73,0,0,0-4.788,2.626.631.631,0,0,1-.894.179.678.678,0,0,1-.173-.922A7,7,0,0,1,203.611-248.08ZM88.747-233.395H74.108a12.872,12.872,0,0,0-12.653,13.053h0v23.53H237.432v-23.53a12.872,12.872,0,0,0-12.653-13.053H210.67v8.735a12.061,12.061,0,0,1,4.684,9.568,11.812,11.812,0,0,1-11.61,11.978,11.811,11.811,0,0,1-11.611-11.978,12.077,12.077,0,0,1,4.419-9.367h0v-8.936H156.466v8.78a12.065,12.065,0,0,1,4.621,9.522,11.811,11.811,0,0,1-11.609,11.978,11.812,11.812,0,0,1-11.612-11.978,12.079,12.079,0,0,1,4.482-9.421h0v-8.881H102.866v8.83a12.071,12.071,0,0,1,4.551,9.473,11.812,11.812,0,0,1-11.61,11.978A11.812,11.812,0,0,1,84.2-215.092a12.072,12.072,0,0,1,4.551-9.472h0ZM210.67-222.949v7.575a7.181,7.181,0,0,1-7.059,7.283,7.182,7.182,0,0,1-7.061-7.283h0v-7.335a10.772,10.772,0,0,0-3.132,7.618,10.5,10.5,0,0,0,10.324,10.65,10.5,10.5,0,0,0,10.322-10.65,10.742,10.742,0,0,0-3.4-7.858Zm-61.263-23.8a5.873,5.873,0,0,0-5.773,5.956h0v19.965a.653.653,0,0,1-.644.665.653.653,0,0,1-.643-.665h0v-1.934a10.761,10.761,0,0,0-3.194,7.675,10.5,10.5,0,0,0,10.324,10.65,10.5,10.5,0,0,0,10.322-10.65,10.749,10.749,0,0,0-3.334-7.8h0v7.518a7.182,7.182,0,0,1-7.06,7.283,6.9,6.9,0,0,1-4.992-2.133.679.679,0,0,1,0-.939.629.629,0,0,1,.909,0,5.648,5.648,0,0,0,4.082,1.745,5.873,5.873,0,0,0,5.772-5.956h0V-240.8A5.873,5.873,0,0,0,149.407-246.752Z" transform="translate(-0.548 248.08)" fill="none" clip-rule="evenodd"/>
    </clipPath>
    <clipPath id="clip-path-89">
      <path id="Path_361" data-name="Path 361" d="M-208,508.75H1241.125V-549H-208Z" transform="translate(208 549)" fill="none"/>
    </clipPath>
    <clipPath id="clip-path-90">
      <rect id="Rectangle_9" data-name="Rectangle 9" width="413.605" height="423.513" fill="none"/>
    </clipPath>
    <clipPath id="clip-path-91">
      <path id="Path_276" data-name="Path 276" d="M60.535-103.9,56.949-91.737a7.833,7.833,0,0,0-1.755-.83,7.759,7.759,0,0,0-1.555-.317L57.2-104.949a4.741,4.741,0,0,1,1.058-2.034,1.292,1.292,0,0,1,.924-.414,1.522,1.522,0,0,1,.463.076c1.514.475,1.21,2.347.894,3.42M59.267-82.7a6.806,6.806,0,0,1-3.247,4.074,6.449,6.449,0,0,1-5.087.513,6.94,6.94,0,0,1-4.448-8.6,6.8,6.8,0,0,1,3.246-4.075,6.487,6.487,0,0,1,3.135-.814,6.5,6.5,0,0,1,1.953.3,6.941,6.941,0,0,1,4.448,8.6m.749-25.894a2.52,2.52,0,0,0-2.645.643,5.949,5.949,0,0,0-1.406,2.614L52.3-92.893a8.028,8.028,0,0,0-7.043,5.8A8.278,8.278,0,0,0,50.559-76.84a7.7,7.7,0,0,0,2.313.356A8.015,8.015,0,0,0,60.5-82.312a8.389,8.389,0,0,0-.595-6.261,8.155,8.155,0,0,0-1.847-2.358l3.709-12.582c.765-2.594.111-4.493-1.75-5.077" transform="translate(-44.908 108.727)" fill="none" clip-rule="evenodd"/>
    </clipPath>
    <clipPath id="clip-path-92">
      <path id="Path_275" data-name="Path 275" d="M0-24.848H337.123V-249H0Z" transform="translate(0 249)" fill="none"/>
    </clipPath>
    <clipPath id="clip-path-93">
      <path id="Path_279" data-name="Path 279" d="M237.057-196.812H61.079v-23.53a12.872,12.872,0,0,1,12.654-13.053H88.372v8.831a12.072,12.072,0,0,0-4.551,9.472,11.812,11.812,0,0,0,11.611,11.978,11.812,11.812,0,0,0,11.61-11.978,12.071,12.071,0,0,0-4.551-9.473v-8.83h39.481v8.881a12.079,12.079,0,0,0-4.482,9.421A11.812,11.812,0,0,0,149.1-203.114a11.811,11.811,0,0,0,11.609-11.978,12.065,12.065,0,0,0-4.621-9.522v-8.78h40.085v8.936a12.077,12.077,0,0,0-4.419,9.367,11.811,11.811,0,0,0,11.611,11.978,11.812,11.812,0,0,0,11.61-11.978,12.061,12.061,0,0,0-4.684-9.568v-8.735H224.4a12.872,12.872,0,0,1,12.653,13.053Zm-94.442-23.355a.653.653,0,0,0,.644-.665V-240.8a5.873,5.873,0,0,1,5.773-5.956A5.873,5.873,0,0,1,154.8-240.8v25.422a5.873,5.873,0,0,1-5.772,5.956,5.648,5.648,0,0,1-4.082-1.745.629.629,0,0,0-.909,0,.679.679,0,0,0,0,.939,6.9,6.9,0,0,0,4.992,2.133,7.182,7.182,0,0,0,7.06-7.283v-7.518a10.749,10.749,0,0,1,3.334,7.8,10.5,10.5,0,0,1-10.322,10.65,10.5,10.5,0,0,1-10.324-10.65,10.761,10.761,0,0,1,3.194-7.675v1.934a.653.653,0,0,0,.643.665Zm60.621,12.076a7.181,7.181,0,0,0,7.059-7.283v-7.575a10.742,10.742,0,0,1,3.4,7.858,10.5,10.5,0,0,1-10.322,10.65,10.5,10.5,0,0,1-10.324-10.65,10.772,10.772,0,0,1,3.132-7.618v7.335a7.182,7.182,0,0,0,7.061,7.283Zm35.109-12.25A14.184,14.184,0,0,0,224.4-234.723H210.295V-240.8a7.182,7.182,0,0,0-7.059-7.283,7,7,0,0,0-5.854,3.211.678.678,0,0,0,.173.922.631.631,0,0,0,.894-.179,5.73,5.73,0,0,1,4.788-2.626,5.873,5.873,0,0,1,5.771,5.956v25.422a5.873,5.873,0,0,1-5.771,5.956,5.874,5.874,0,0,1-5.774-5.956v-21.144a.653.653,0,0,0-.643-.664.653.653,0,0,0-.643.664v1.8H156.09V-240.8a7.183,7.183,0,0,0-7.06-7.283,7.183,7.183,0,0,0-7.06,7.283v6.074H102.491V-240.8a7.5,7.5,0,0,0-.8-3.371,7.018,7.018,0,0,0-6.259-3.913,6.883,6.883,0,0,0-3.864,1.186.677.677,0,0,0-.185.919.635.635,0,0,0,.892.192,5.61,5.61,0,0,1,3.156-.97,5.739,5.739,0,0,1,5.118,3.2,6.055,6.055,0,0,1,.654,2.756v25.422a6.069,6.069,0,0,1-.263,1.78.668.668,0,0,0,.423.832.622.622,0,0,0,.192.031.65.65,0,0,0,.616-.466,7.536,7.536,0,0,0,.319-2.177v-7.456a10.754,10.754,0,0,1,3.264,7.739,10.5,10.5,0,0,1-10.322,10.65,10.5,10.5,0,0,1-10.324-10.65,10.754,10.754,0,0,1,3.264-7.737v7.455a7.182,7.182,0,0,0,7.061,7.283,6.823,6.823,0,0,0,2.2-.363.666.666,0,0,0,.41-.838.639.639,0,0,0-.812-.424,5.576,5.576,0,0,1-1.8.3,5.873,5.873,0,0,1-5.773-5.956V-240.8a6.044,6.044,0,0,1,.626-2.7.675.675,0,0,0-.28-.893.637.637,0,0,0-.867.291,7.393,7.393,0,0,0-.767,3.3v6.074H73.733a14.183,14.183,0,0,0-13.941,14.382v24.858H238.345Z" transform="translate(-59.791 248.08)" fill="none" clip-rule="evenodd"/>
    </clipPath>
    <clipPath id="clip-path-95">
      <path id="Path_282" data-name="Path 282" d="M238.076-41.582a.653.653,0,0,0-.643.664,9.107,9.107,0,0,1-8.952,9.234H70.4a8.612,8.612,0,0,1-3.96-.979A51.141,51.141,0,0,0,76.239-36.4a.672.672,0,0,0,.295-.888.633.633,0,0,0-.86-.3,49.819,49.819,0,0,1-19.141,5.236C28.287-30.431,3.809-52.571,1.947-81.7a55.006,55.006,0,0,1,.5-11.694.662.662,0,0,0-.536-.759.648.648,0,0,0-.735.553A56.244,56.244,0,0,0,.663-81.614C2.494-52.961,25.678-30.909,53.122-30.909q1.737,0,3.5-.119a51.567,51.567,0,0,0,8-1.184A9.96,9.96,0,0,0,70.4-30.355H228.48a10.416,10.416,0,0,0,10.239-10.562.654.654,0,0,0-.644-.664" transform="translate(-0.548 94.163)" fill="none" clip-rule="evenodd"/>
    </clipPath>
    <clipPath id="clip-path-97">
      <path id="Path_285" data-name="Path 285" d="M13.628-120.97c-2.312-2.747-2.544-4.727-.758-6.421a2.77,2.77,0,0,1,1.95-.815c.057,0,.114,0,.172.006a6,6,0,0,1,3.9,2.394l1.1,1.309a53.5,53.5,0,0,0-5.178,4.939Zm41.516-19.557.252,3.951a51.272,51.272,0,0,0-5.745.061,50.9,50.9,0,0,0-5.573.708l-.252-3.95Zm4.282-.291a5.45,5.45,0,0,0,.694-.118v4.786c-1.132-.157-2.277-.264-3.428-.344l-.264-4.12ZM8.2-109.353a.631.631,0,0,0,.884-.228,51.2,51.2,0,0,1,40.65-25.611c28.255-1.916,52.724,20.22,54.585,49.348A54.252,54.252,0,0,1,94.89-51.612a52.95,52.95,0,0,1-5.747,6.954.679.679,0,0,0-.006.939.633.633,0,0,0,.458.2.635.635,0,0,0,.452-.19,54.518,54.518,0,0,0,5.891-7.127,55.631,55.631,0,0,0,9.667-35.09c-1.645-25.723-20.5-46.11-44.2-50.014v-5.408a5.548,5.548,0,0,0,1.839-1.413,5.816,5.816,0,0,0,1.369-4.163l-.216-3.391a5.754,5.754,0,0,0-2.992-4.7v-24.12a.654.654,0,0,0-.643-.665.654.654,0,0,0-.644.665v23.632a5.268,5.268,0,0,0-1.643-.167l-13.774.936a.658.658,0,0,0-.6.707.664.664,0,0,0,.685.619l13.775-.936a4.332,4.332,0,0,1,4.553,4.115l.215,3.39a4.466,4.466,0,0,1-1.052,3.2,4.2,4.2,0,0,1-2.938,1.5l-19.883,1.352a4.327,4.327,0,0,1-4.552-4.115l-.217-3.39a4.47,4.47,0,0,1,1.052-3.2.68.68,0,0,0-.059-.937.631.631,0,0,0-.909.061,5.821,5.821,0,0,0-1.368,4.164l.216,3.391a5.652,5.652,0,0,0,5.551,5.366c.124,0,.247,0,.371-.012l3-.2.263,4.1A51.961,51.961,0,0,0,21-125.328l-1.136-1.35a7.25,7.25,0,0,0-4.8-2.85A4.011,4.011,0,0,0,12-128.37c-2.326,2.206-2.1,4.988.655,8.27l1.292,1.533a54.172,54.172,0,0,0-5.964,8.3.675.675,0,0,0,.22.911Z" transform="translate(-7.89 179.802)" fill="none" clip-rule="evenodd"/>
    </clipPath>
    <clipPath id="clip-path-99">
      <path id="Path_288" data-name="Path 288" d="M84.669-55.315a41.494,41.494,0,0,1-28.98,14.757c-23.224,1.593-43.38-16.634-44.91-40.6S26.9-125.912,50.136-127.491q1.413-.1,2.8-.1c22.026,0,40.635,17.7,42.1,40.7A44.147,44.147,0,0,1,84.669-55.315M96.331-86.978c-1.58-24.7-22.334-43.465-46.28-41.839S7.917-105.771,9.494-81.073c1.515,23.7,20.689,41.937,43.389,41.937q1.437,0,2.892-.1A42.76,42.76,0,0,0,85.637-54.44,45.493,45.493,0,0,0,96.331-86.978" transform="translate(-9.398 128.915)" fill="none" clip-rule="evenodd"/>
    </clipPath>
    <clipPath id="clip-path-101">
      <path id="Path_291" data-name="Path 291" d="M50.739-117.055h.042a.656.656,0,0,0,.6-.707l-.352-5.52a.634.634,0,0,0-.685-.618.656.656,0,0,0-.6.706l.352,5.52a.652.652,0,0,0,.643.62" transform="translate(-49.744 123.902)" fill="none" clip-rule="evenodd"/>
    </clipPath>
    <clipPath id="clip-path-103">
      <path id="Path_294" data-name="Path 294" d="M54.93-53.961a.656.656,0,0,0-.6.707l.353,5.519a.653.653,0,0,0,.643.62h.043a.657.657,0,0,0,.6-.707l-.354-5.519a.655.655,0,0,0-.685-.619" transform="translate(-54.33 53.961)" fill="none" clip-rule="evenodd"/>
    </clipPath>
    <clipPath id="clip-path-105">
      <path id="Path_297" data-name="Path 297" d="M20.711-84.13l-5.351.364a.657.657,0,0,0-.6.707.652.652,0,0,0,.641.62l.044,0L20.8-82.8a.658.658,0,0,0,.6-.707.65.65,0,0,0-.685-.619" transform="translate(-14.759 84.131)" fill="none" clip-rule="evenodd"/>
    </clipPath>
    <clipPath id="clip-path-107">
      <path id="Path_300" data-name="Path 300" d="M90.3-88.74l-5.35.364a.656.656,0,0,0-.6.707.651.651,0,0,0,.641.62h.044l5.35-.364a.657.657,0,0,0,.6-.707.656.656,0,0,0-.685-.619" transform="translate(-84.348 88.74)" fill="none" clip-rule="evenodd"/>
    </clipPath>
    <clipPath id="clip-path-109">
      <path id="Path_303" data-name="Path 303" d="M28.659-106.149a.634.634,0,0,0,.484-.227.679.679,0,0,0-.06-.937l-4.032-3.646a.631.631,0,0,0-.908.062.679.679,0,0,0,.061.937l4.032,3.646a.633.633,0,0,0,.424.165" transform="translate(-23.984 111.123)" fill="none" clip-rule="evenodd"/>
    </clipPath>
    <clipPath id="clip-path-111">
      <path id="Path_306" data-name="Path 306" d="M77.5-64.763a.63.63,0,0,0-.908.062.679.679,0,0,0,.06.937l4.032,3.645a.631.631,0,0,0,.424.165.635.635,0,0,0,.485-.226.678.678,0,0,0-.061-.937Z" transform="translate(-76.433 64.927)" fill="none" clip-rule="evenodd"/>
    </clipPath>
    <clipPath id="clip-path-113">
      <path id="Path_309" data-name="Path 309" d="M31.167-61.69l-3.534,4.16a.679.679,0,0,0,.06.937.629.629,0,0,0,.424.165.636.636,0,0,0,.485-.227l3.534-4.16a.678.678,0,0,0-.061-.936.628.628,0,0,0-.908.061" transform="translate(-27.474 61.917)" fill="none" clip-rule="evenodd"/>
    </clipPath>
    <clipPath id="clip-path-115">
      <path id="Path_312" data-name="Path 312" d="M78.038-114.467a.63.63,0,0,0-.908.061L73.6-110.245a.679.679,0,0,0,.06.937.631.631,0,0,0,.424.165.633.633,0,0,0,.484-.226L78.1-113.53a.679.679,0,0,0-.06-.937" transform="translate(-73.437 114.632)" fill="none" clip-rule="evenodd"/>
    </clipPath>
    <clipPath id="clip-path-117">
      <path id="Path_315" data-name="Path 315" d="M313.591-47.823c-.284.377-1.139,1.582-2.229,3.115-2.081,2.931-5.224,7.359-6.582,9.088-1.765,2.25-3.076,2.247-3.124,2.247H289.28a4.444,4.444,0,0,1,.743-3.1c1.856-2.729,6.416-3.462,6.463-3.47l.583-.09-.038-.608c0-.035-.211-3.46-.211-5.9,0-1.072.24-1.231.243-1.232s.264-.117,1.16.53a6.4,6.4,0,0,0,7.429-.659c1.8-1.566,1.849-3.854,1.875-5.084,0-.16.007-.343.016-.483a5.338,5.338,0,0,1,2.257.676,8.887,8.887,0,0,1,3.768,4.5.759.759,0,0,1,.022.467Zm-17.723-4.285a35.005,35.005,0,0,0,3.419-2.863,22.931,22.931,0,0,0,3.02-3.488l3.9,6.33a4.457,4.457,0,0,1-1.38,3.21,5.217,5.217,0,0,1-5.861.587,6.12,6.12,0,0,0-.748-.469Zm-28.821,9.82c.346,1.329,1.08,4.089,5.4,3.634,3.694-.39,4.376-2.019,4.742-2.893.029-.068.064-.15.093-.214.376.111,1.213,1,1.988,3.062.692,1.836.775,5.123.151,6.063-.059.09-.113.136-.155.136H250.676c.047-.97.32-2.806,1.683-3.472.442-.216,1.023-.483,1.687-.788,2.83-1.3,7.1-3.262,8.656-4.967a4.166,4.166,0,0,1,3.046-1.336h.02a1.961,1.961,0,0,1,1.12.25,3.647,3.647,0,0,1,.16.526Zm4.288-4.046c.233,0,.473,0,.717-.012a25.287,25.287,0,0,0,3.669-.38V-41.5c-.388.621-1.189,1.291-3.408,1.525-3.262.345-3.694-1.391-4.023-2.657-.039-.152-.077-.285-.116-.412l-.447-3.649a17.549,17.549,0,0,0,3.608.36ZM310.341-54c-.953-.455-2.694-1.135-3.61-.6a.8.8,0,0,0-.307.348l-3.338-5.42a12.056,12.056,0,0,0,1.369-3.09l.068-.292-.17-.246c-.113-.165-11.463-16.657-16.858-24.679-4.509-6.7-6.717-9.459-7.384-10.253.4-2.113,2.664-14.129,4.115-22.214.461-2.557.834-5,1.11-7.265a.661.661,0,0,0-.559-.742.648.648,0,0,0-.718.576c-.273,2.238-.643,4.656-1.1,7.189-1.587,8.84-4.149,22.388-4.175,22.524l-.063.332.223.247a115.036,115.036,0,0,1,7.489,10.364c5.022,7.467,15.2,22.26,16.684,24.424a17.477,17.477,0,0,1-4.707,6.849,31.531,31.531,0,0,1-7.429,5.312c-2.616-3.042-20.71-24.093-28.1-33.084-8.121-9.885-8.98-12.153-8.362-22.06.368-5.875,1.052-14.466,1.561-20.639a.659.659,0,0,0-.587-.718.666.666,0,0,0-.7.6c-.51,6.179-1.195,14.781-1.563,20.668-.592,9.463.41,12.592,6.133,19.868.267,2.806.593,6.155.935,9.541.765,7.6,1.362,12.855,1.772,15.629,1.111,7.539,1.919,12.39,1.927,12.439l.048.281.231.158a8.732,8.732,0,0,0,2.1.915l.337,2.754a4.261,4.261,0,0,0-.572-.1,5.415,5.415,0,0,0-4.392,1.739c-1.373,1.51-5.67,3.483-8.239,4.662-.676.31-1.267.581-1.715.8-2.663,1.3-2.432,5.215-2.42,5.381l.042.618h29.835a1.427,1.427,0,0,0,1.219-.714c1.011-1.526.693-5.416-.016-7.294-1-2.651-2.255-4.073-3.458-3.906V-47a10.956,10.956,0,0,0,2.568-.923l.322-.19.067-9.664a.655.655,0,0,0-.638-.669h-.006a.653.653,0,0,0-.643.66l-.064,8.865a18.063,18.063,0,0,1-6.606,1.249,13.669,13.669,0,0,1-6.783-1.249c-.194-1.18-.922-5.656-1.873-12.1-.406-2.754-1-7.992-1.764-15.568-.265-2.628-.519-5.218-.744-7.567.343.423.687.846,1.059,1.3,7.942,9.668,28.23,33.24,28.433,33.476l.307.354.423-.182a24.892,24.892,0,0,0,3.738-2.144l1.7,2.389c-.012.007-.023.008-.034.014-.936.5-.936,1.938-.936,2.411,0,1.872.12,4.3.18,5.4-1.407.307-4.98,1.316-6.742,3.9a5.962,5.962,0,0,0-.873,4.659l.1.533,13.4,0a.789.789,0,0,0,.086,0c.424,0,2.077-.18,4.088-2.741,1.377-1.753,4.407-6.022,6.62-9.139,1.078-1.519,1.925-2.711,2.206-3.085a1.842,1.842,0,0,0,.215-1.586A10,10,0,0,0,310.341-54Z" transform="translate(-249.378 128.457)" fill="none" clip-rule="evenodd"/>
    </clipPath>
    <clipPath id="clip-path-119">
      <path id="Path_318" data-name="Path 318" d="M254.348-172.349c-.142.276-.288.551-.4.837-.5.7-1.534,3.474-1.772,14.345q-.024,1.079-.048,2.133a26.843,26.843,0,0,1-2.866-2.762,39.931,39.931,0,0,1-5.383-7.219c1.388-1.2,6.27-5.316,10.473-7.335Zm-6.473-8.889a6.084,6.084,0,0,1-1.092-2.181,3.918,3.918,0,0,0,.909.115,3.983,3.983,0,0,0,3.251-1.76.678.678,0,0,0-.114-.931.63.63,0,0,0-.9.118,2.633,2.633,0,0,1-3.538.91c-.012-.007-.025-.007-.038-.013-.113-.485-.2-.913-.241-1.2l-.086-.541-2.288-.065c.069-.189.157-.4.252-.622a11.66,11.66,0,0,0,.711-8.077c-.411-1.655.185-4.081.7-5.686a31.4,31.4,0,0,1,5.032,4.135c1.116,1.082,3.2,2.757,4.564,1.829.213-.143.436-.317.663-.5a7.194,7.194,0,0,1,1-.7,2.477,2.477,0,0,1,1.958-.189,3.078,3.078,0,0,1,1.592,1.926A4.049,4.049,0,0,1,259.1-190.6a9.907,9.907,0,0,1-1.737,1.333l-.457.263.156.516a44.041,44.041,0,0,0,4.526,10.014,13.655,13.655,0,0,0-5.195,3.308L256-183.374l-.938.633c-1.454.981-5.578,3.157-7.184,1.5Zm27.93,6.178c4.2,2.777,11.892,9.368,16.026,12.909l1.315,1.125a1.029,1.029,0,0,1,.358.819,1.03,1.03,0,0,1-.411.8l-9.905,7.417-2.912,1.979a.3.3,0,0,1-.259.042.314.314,0,0,1-.2-.173l-.1-.159a40.782,40.782,0,0,1-4.966-7.549,85.276,85.276,0,0,1-3.619-8.041.64.64,0,0,0-.834-.379.669.669,0,0,0-.366.859,86.648,86.648,0,0,0,3.683,8.184,41.867,41.867,0,0,0,5.094,7.757,1.61,1.61,0,0,0,.97.782,1.546,1.546,0,0,0,.427.06,1.574,1.574,0,0,0,.883-.273l2.2-1.5,5.408,18.566a1.782,1.782,0,0,1-.264,1.548,1.662,1.662,0,0,1-1.36.7H253.684a.979.979,0,0,1-.726-.317,1.028,1.028,0,0,1-.275-.749c.142-3.823.5-14.06.775-26.488.246-11.2,1.344-13.317,1.495-13.557l.144-.225a11.563,11.563,0,0,1,7.247-6.434c4.322-1.406,9.1-.59,13.46,2.293Zm46.352,48.016,11.1,27.861-27.007,11.45-11.1-27.862,12.215-5.178a28.263,28.263,0,0,1,2.194,3.665c1.057,2.071,1.778,3.14,2.784,3.229.042,0,.084.006.126.006.838,0,1.5-.743,2-1.4,1.24-1.661,1.17-4.506-.159-8.439Zm-74.508-42.676c-2.739,2.016-4.842,3.9-5,4.043l-.357.323.194.449c.052.119,1.313,2.961,5.833,8.011a27.855,27.855,0,0,0,3.77,3.512c-.257,10.681-.56,19.258-.688,22.682a2.371,2.371,0,0,0,.634,1.721,2.242,2.242,0,0,0,1.654.725h33.288a2.927,2.927,0,0,0,2.392-1.24,3.125,3.125,0,0,0,.464-2.722L284.3-151.186l8.167-6.116c.784.888,1.8,2.067,2.964,3.464,2.389,2.873,4.427,5.536,6.056,7.915,4.693,6.844,8.905,16.112,10.5,19.78a21.9,21.9,0,0,1,2.079,7.341l-1.314-3.46a.637.637,0,0,0-.836-.375.672.672,0,0,0-.364.861l2.038,5.363c0,.009.012.011.015.019a2.727,2.727,0,0,1-.165.309l-.017.02-2.626-5.711a.636.636,0,0,0-.857-.315.673.673,0,0,0-.307.885l2.745,5.972c-.5-.185-1.353-1.844-1.685-2.491a29.037,29.037,0,0,0-2.393-3.973.667.667,0,0,0-.092-.236c-.567-.881-1.2-1.881-1.3-2.067a.637.637,0,0,0-.789-.358.668.668,0,0,0-.408.839,8.792,8.792,0,0,0,.81,1.365l-1.946.96c.09-1.572.138-4.252-.472-5.384a99.263,99.263,0,0,0-10.8-14.179l-5.123-5.713a.632.632,0,0,0-.91-.036.679.679,0,0,0-.035.938l5.125,5.714a100.257,100.257,0,0,1,10.621,13.921c.461.855.4,3.691.252,5.475l-9.768,4.142L305.548-86l29.388-12.459-12.077-30.318-8.995,3.813c-.214-.558-.44-1.126-.7-1.724-1.608-3.7-5.864-13.063-10.622-20-1.653-2.412-3.716-5.108-6.13-8.013-1.12-1.35-2.115-2.5-2.893-3.383l.33-.249a2.363,2.363,0,0,0,.942-1.831,2.364,2.364,0,0,0-.826-1.883l-1.313-1.124c-1.8-1.538-4.261-3.65-6.825-5.779a7.906,7.906,0,0,0,2.854-4.639c1.389-6.216-5.584-9.709-7.875-10.857-3.9-1.956-4.8-4.053-5.5-9.356-.551-4.171-3.441-5.612-5.763-6.771a10.589,10.589,0,0,1-2.335-1.4,20.929,20.929,0,0,1-1.979-2.262c-1.58-1.98-3.372-4.224-6.219-5.381-5.677-2.307-10.8-.373-13.15,2.4a8.144,8.144,0,0,0-1.957,4.869l.006.485.315.1c-.567,1.747-1.28,4.572-.774,6.611a10.31,10.31,0,0,1-.644,7.217c-.155.368-.289.69-.376.971a1.174,1.174,0,0,0,.153,1.016,1.1,1.1,0,0,0,.882.484l1.468.042c.23,1.2.863,3.918,2.032,5.122a3.284,3.284,0,0,0,2.175.955,23.744,23.744,0,0,1-.381,4.707c-.3,1.627-.725,3.406-1.111,4.917Z" transform="translate(-242.287 210.644)" fill="none" clip-rule="evenodd"/>
    </clipPath>
    <clipPath id="clip-path-121">
      <path id="Path_321" data-name="Path 321" d="M236.584-139.119a.653.653,0,0,0-.643.664v89.472a.653.653,0,0,0,.643.664.654.654,0,0,0,.644-.664v-89.472a.654.654,0,0,0-.644-.664" transform="translate(-235.941 139.119)" fill="none" clip-rule="evenodd"/>
    </clipPath>
    <clipPath id="clip-path-123">
      <path id="Path_324" data-name="Path 324" d="M133.982-99.834h29.2v-30.122h-29.2ZM132.7-98.505h31.773v-32.779H132.7Z" transform="translate(-132.695 131.284)" fill="none" clip-rule="evenodd"/>
    </clipPath>
    <clipPath id="clip-path-125">
      <path id="Path_327" data-name="Path 327" d="M176.315-99.834h29.2v-30.122h-29.2Zm-1.287,1.329H206.8v-32.779H175.028Z" transform="translate(-175.028 131.284)" fill="none" clip-rule="evenodd"/>
    </clipPath>
    <clipPath id="clip-path-127">
      <path id="Path_330" data-name="Path 330" d="M121.958-131.284H90.828a.654.654,0,0,0-.643.664.654.654,0,0,0,.643.665H120.67v30.121H106.9a.654.654,0,0,0-.643.665.654.654,0,0,0,.643.664h15.054Z" transform="translate(-90.185 131.284)" fill="none" clip-rule="evenodd"/>
    </clipPath>
    <clipPath id="clip-path-129">
      <path id="Path_333" data-name="Path 333" d="M133.982-142.2h29.2v-30.122h-29.2Zm-1.287,1.329h31.773v-32.779H132.7Z" transform="translate(-132.695 173.653)" fill="none" clip-rule="evenodd"/>
    </clipPath>
    <clipPath id="clip-path-131">
      <path id="Path_336" data-name="Path 336" d="M91.472-142.2h29.2v-30.122h-29.2Zm-1.287,1.329h31.773v-32.779H90.185Z" transform="translate(-90.185 173.653)" fill="none" clip-rule="evenodd"/>
    </clipPath>
    <clipPath id="clip-path-133">
      <path id="Path_339" data-name="Path 339" d="M139.866-87.288a.653.653,0,0,0,.643-.664.653.653,0,0,0-.643-.665h-7.171v32.779h31.773V-88.617H152.609a.654.654,0,0,0-.643.665.654.654,0,0,0,.643.664h10.572v30.121h-29.2V-87.288Z" transform="translate(-132.694 88.617)" fill="none" clip-rule="evenodd"/>
    </clipPath>
    <clipPath id="clip-path-135">
      <path id="Path_342" data-name="Path 342" d="M201.033-57.166a.653.653,0,0,0-.643.664.653.653,0,0,0,.643.665H206.8V-88.616H175.028v32.779h16.347a.653.653,0,0,0,.643-.665.653.653,0,0,0-.643-.664h-15.06V-87.287h29.2v30.121Z" transform="translate(-175.028 88.616)" fill="none" clip-rule="evenodd"/>
    </clipPath>
    <clipPath id="clip-path-137">
      <path id="Path_345" data-name="Path 345" d="M104.62-57.166a.653.653,0,0,0-.643.664.653.653,0,0,0,.643.665h17.251V-88.616h-11.78a.654.654,0,0,0-.643.664.654.654,0,0,0,.643.665h10.492v30.121Z" transform="translate(-103.976 88.616)" fill="none" clip-rule="evenodd"/>
    </clipPath>
    <clipPath id="clip-path-139">
      <path id="Path_348" data-name="Path 348" d="M207.6-151.826l-26.754-12.064,11.694-27.6,26.755,12.064-4.263,10.061a34.076,34.076,0,0,0-4.1-2.031c-2.146-.856-2.969-.211-3.27.25-.521.8-.155,2.015.977,3.245a35.463,35.463,0,0,0,4.249,3.608Zm-2.085,10.269h-29.2V-171.68h6.425l-3.589,8.475,26.363,11.888Zm45.616-9.168a.629.629,0,0,0-.909-.011c-.672.675-1.4,1.38-2.182,2.085-3.444,3.119-6.992,3.436-12.647,1.138-5.123-2.082-14.572-8.1-18.128-10.366-.692-.442-1.148-.731-1.289-.811a25.748,25.748,0,0,1-3.042-2.014l1.181-2.685c.406.292.678.482.72.512a.625.625,0,0,0,.36.113.637.637,0,0,0,.534-.292.676.676,0,0,0-.174-.922,49.905,49.905,0,0,1-5.985-4.837c-.835-.907-.9-1.5-.84-1.591.039-.057.493-.246,1.736.249a39.668,39.668,0,0,1,5.884,3.132.6.6,0,0,0,.318.093,18.4,18.4,0,0,0,2.379,1.4c.5.241,1.683.8,3.241,1.544,2.811,1.334,6.852,3.255,10.348,4.934,2.368,1.138,5.789,1.869,7.634.187a.679.679,0,0,0,.056-.938.63.63,0,0,0-.908-.058c-1.286,1.171-4.136.617-6.239-.393-3.5-1.681-7.541-3.6-10.353-4.938-1.556-.739-2.735-1.3-3.235-1.54a18.7,18.7,0,0,1-3.356-2.148l4.755-11.226-29.113-13.126L183.3-173.007h-8.274v32.778H206.8v-10.507l1.461.659,4.124-9.388a27.879,27.879,0,0,0,2.962,1.934c.135.077.573.358,1.237.781,3.583,2.283,13.1,8.347,18.333,10.473a18.342,18.342,0,0,0,6.81,1.588,10.244,10.244,0,0,0,7.159-2.964c.795-.721,1.544-1.442,2.23-2.132a.678.678,0,0,0,.012-.939Z" transform="translate(-175.029 193.239)" fill="none" clip-rule="evenodd"/>
    </clipPath>
    <clipPath id="clip-path-141">
      <path id="Path_351" data-name="Path 351" d="M246.452-193.6c-.462,0-.836.5-.836,1.113s.375,1.113.836,1.113.836-.5.836-1.113-.374-1.113-.836-1.113" transform="translate(-245.615 193.6)" fill="none" clip-rule="evenodd"/>
    </clipPath>
    <clipPath id="clip-path-143">
      <path id="Path_354" data-name="Path 354" d="M247.586-197.275a2.428,2.428,0,0,0-2.557.1.677.677,0,0,0-.181.92.643.643,0,0,0,.537.3.623.623,0,0,0,.355-.11,1.209,1.209,0,0,1,1.2-.058.635.635,0,0,0,.88-.24.675.675,0,0,0-.234-.908" transform="translate(-244.741 197.596)" fill="none" clip-rule="evenodd"/>
    </clipPath>
    <clipPath id="clip-path-145">
      <path id="Path_357" data-name="Path 357" d="M256.236-191.57a.641.641,0,0,0,.191-.03,2.936,2.936,0,0,0,2.178-2.458,1.627,1.627,0,0,0-.488-1.306,1.581,1.581,0,0,0-1.241-.357.653.653,0,0,0-.535.741.648.648,0,0,0,.716.573.337.337,0,0,1,.21.04c.022.02.056.1.052.279-.017.785-1.262,1.215-1.275,1.22a.67.67,0,0,0-.421.831.647.647,0,0,0,.614.466" transform="translate(-255.593 195.736)" fill="none" clip-rule="evenodd"/>
    </clipPath>
    <clipPath id="clip-path-147">
      <path id="Path_360" data-name="Path 360" d="M-1.39-341.213H335.1c20.9,0,37.84,17.39,37.84,38.841V42.34c0,21.451-16.941,38.841-37.84,38.841H-1.39c-20.9,0-37.84-17.39-37.84-38.841V-302.372C-39.229-323.823-22.288-341.213-1.39-341.213Z" transform="translate(39.229 341.213)" fill="none" clip-rule="evenodd"/>
    </clipPath>
  </defs>
  <g id="Group_771" data-name="Group 771" transform="translate(-0.467 273.793)">
    <g id="Group_117" data-name="Group 117" transform="translate(0.467 -273.793)" clip-path="url(#clip-path)">
      <g id="Group_116" data-name="Group 116" transform="translate(-209.916 -282.376)" clip-path="url(#clip-path-2)">
        <g id="Group_115" data-name="Group 115" transform="translate(170.175 214.445)" style="isolation: isolate">
          <g id="Group_114" data-name="Group 114" transform="translate(0)" clip-path="url(#clip-path-3)">
            <g id="Group_111" data-name="Group 111" transform="translate(39.271 67.719)" clip-path="url(#clip-path-4)">
              <path id="Path_150" data-name="Path 150" d="M-4.533-278.793H312.016V11.468H-4.533Z" transform="translate(-0.032 273.875)" fill="#ffdfd5"/>
            </g>
            <g id="Group_113" data-name="Group 113" transform="translate(0.239 0.451)" clip-path="url(#clip-path-5)">
              <g id="Group_112" data-name="Group 112" transform="translate(39.032 67.268)" clip-path="url(#clip-path-4)">
                <path id="Path_152" data-name="Path 152" d="M-43.762-344.56H367.91V83.34H-43.762Z" transform="translate(-0.304 272.162)" fill="#ffdfd5"/>
              </g>
            </g>
          </g>
        </g>
      </g>
    </g>
    <g id="Group_119" data-name="Group 119" transform="translate(61.482 -190.8)" clip-path="url(#clip-path-7)">
      <g id="Group_118" data-name="Group 118" transform="translate(-268.675 -351.091)" clip-path="url(#clip-path-8)">
        <path id="Path_157" data-name="Path 157" d="M55.675-202.909h186.04V-28.166H55.675Z" transform="translate(208 549)" fill="#fff"/>
      </g>
    </g>
    <g id="Group_121" data-name="Group 121" transform="translate(61.482 -234.604)" clip-path="url(#clip-path-9)">
      <g id="Group_120" data-name="Group 120" transform="translate(-268.675 -314.396)" clip-path="url(#clip-path-8)">
        <path id="Path_160" data-name="Path 160" d="M55.675-239.6h186.04v46.7H55.675Z" transform="translate(208 549)" fill="#fff"/>
      </g>
    </g>
    <g id="Group_123" data-name="Group 123" transform="translate(138.768 -225.876)" clip-path="url(#clip-path-11)">
      <g id="Group_122" data-name="Group 122" transform="translate(-345.836 -321.804)" clip-path="url(#clip-path-8)">
        <path id="Path_163" data-name="Path 163" d="M132.837-232.2H164.62v31.9H132.837Z" transform="translate(208 549)" fill="#ffddd3"/>
      </g>
    </g>
    <g id="Group_125" data-name="Group 125" transform="translate(193.024 -225.876)" clip-path="url(#clip-path-13)">
      <g id="Group_124" data-name="Group 124" transform="translate(-399.728 -321.804)" clip-path="url(#clip-path-8)">
        <path id="Path_166" data-name="Path 166" d="M186.728-232.2h31.783v31.9H186.728Z" transform="translate(208 549)" fill="#ffddd3"/>
      </g>
    </g>
    <g id="Group_127" data-name="Group 127" transform="translate(85.108 -225.876)" clip-path="url(#clip-path-15)">
      <g id="Group_126" data-name="Group 126" transform="translate(-292.539 -321.804)" clip-path="url(#clip-path-8)">
        <path id="Path_169" data-name="Path 169" d="M79.539-232.2h31.783v31.9H79.539Z" transform="translate(208 549)" fill="#ffddd3"/>
      </g>
    </g>
    <g id="Group_129" data-name="Group 129" transform="translate(89.642 -247.533)" clip-path="url(#clip-path-17)">
      <g id="Group_128" data-name="Group 128" transform="translate(-297.059 -301.467)" clip-path="url(#clip-path-8)">
        <path id="Path_172" data-name="Path 172" d="M84.059-252.533H106.8v47.421H84.059Z" transform="translate(208 549)" fill="#fff"/>
      </g>
    </g>
    <g id="Group_131" data-name="Group 131" transform="translate(143.222 -247.533)" clip-path="url(#clip-path-19)">
      <g id="Group_130" data-name="Group 130" transform="translate(-350.288 -301.467)" clip-path="url(#clip-path-8)">
        <path id="Path_175" data-name="Path 175" d="M137.288-252.533h22.743v47.421H137.288Z" transform="translate(208 549)" fill="#fff"/>
      </g>
    </g>
    <g id="Group_133" data-name="Group 133" transform="translate(197.406 -247.533)" clip-path="url(#clip-path-21)">
      <g id="Group_132" data-name="Group 132" transform="translate(-404.118 -301.467)" clip-path="url(#clip-path-8)">
        <path id="Path_178" data-name="Path 178" d="M191.118-252.533h22.743v47.421H191.118Z" transform="translate(208 549)" fill="#fff"/>
      </g>
    </g>
    <g id="Group_134" data-name="Group 134" transform="translate(134.462 -126.562)" clip-path="url(#clip-path-23)">
      <path id="Path_181" data-name="Path 181" d="M128.535-135.756h40.275v40.441H128.535Z" transform="translate(-133.535 130.756)" fill="#fff"/>
    </g>
    <g id="Group_135" data-name="Group 135" transform="translate(177.063 -126.562)" clip-path="url(#clip-path-24)">
      <path id="Path_183" data-name="Path 183" d="M170.841-135.756h40.275v40.441H170.841Z" transform="translate(-175.841 130.756)" fill="#fff"/>
    </g>
    <g id="Group_137" data-name="Group 137" transform="translate(296.198 -126.3)" clip-path="url(#clip-path-25)">
      <g id="Group_136" data-name="Group 136" transform="translate(-502.083 -418.336)" clip-path="url(#clip-path-8)">
        <path id="Path_185" data-name="Path 185" d="M289.083-135.664h49.51v49.727h-49.51Z" transform="translate(208 549)" fill="#fff"/>
      </g>
    </g>
    <g id="Group_139" data-name="Group 139" transform="translate(91.682 -126.562)" clip-path="url(#clip-path-27)">
      <g id="Group_138" data-name="Group 138" transform="translate(-299.051 -418.244)" clip-path="url(#clip-path-8)">
        <path id="Path_188" data-name="Path 188" d="M86.051-135.756h40.275v40.441H86.051Z" transform="translate(208 549)" fill="#fff"/>
      </g>
    </g>
    <g id="Group_140" data-name="Group 140" transform="translate(177.063 -170.167)" clip-path="url(#clip-path-29)">
      <path id="Path_191" data-name="Path 191" d="M170.841-178.118h40.275v40.441H170.841Z" transform="translate(-175.841 173.118)" fill="#fff"/>
    </g>
    <g id="Group_142" data-name="Group 142" transform="translate(209.542 -169.048)" clip-path="url(#clip-path-30)">
      <g id="Group_141" data-name="Group 141" transform="translate(-416.013 -377.032)" clip-path="url(#clip-path-8)">
        <path id="Path_193" data-name="Path 193" d="M203.013-176.968h56.629V-142H203.013Z" transform="translate(208 549)" fill="#fff"/>
      </g>
    </g>
    <g id="Group_144" data-name="Group 144" transform="translate(134.462 -82.651)" clip-path="url(#clip-path-32)">
      <g id="Group_143" data-name="Group 143" transform="translate(-341.534 -460.905)" clip-path="url(#clip-path-8)">
        <path id="Path_196" data-name="Path 196" d="M128.535-93.1h40.274v40.441H128.535Z" transform="translate(208 549)" fill="#fff"/>
      </g>
    </g>
    <g id="Group_146" data-name="Group 146" transform="translate(177.063 -82.651)" clip-path="url(#clip-path-34)">
      <g id="Group_145" data-name="Group 145" transform="translate(-383.841 -460.905)" clip-path="url(#clip-path-8)">
        <path id="Path_199" data-name="Path 199" d="M170.841-93.1h40.275v40.441H170.841Z" transform="translate(208 549)" fill="#fff"/>
      </g>
    </g>
    <g id="Group_148" data-name="Group 148" transform="translate(105.528 -82.651)" clip-path="url(#clip-path-36)">
      <g id="Group_147" data-name="Group 147" transform="translate(-312.832 -460.905)" clip-path="url(#clip-path-8)">
        <path id="Path_202" data-name="Path 202" d="M99.832-93.1h26.493v40.441H99.832Z" transform="translate(208 549)" fill="#fff"/>
      </g>
    </g>
    <g id="Group_150" data-name="Group 150" transform="translate(42.711 -149.424)" clip-path="url(#clip-path-38)">
      <g id="Group_149" data-name="Group 149" transform="translate(-250.711 -396.184)" clip-path="url(#clip-path-8)">
        <path id="Path_205" data-name="Path 205" d="M37.711-157.816H61.022v29.339H37.711Z" transform="translate(208 549)" fill="#fff"/>
      </g>
    </g>
    <g id="Group_152" data-name="Group 152" transform="translate(11.305 -126.596)" clip-path="url(#clip-path-40)">
      <g id="Group_151" data-name="Group 151" transform="translate(-219.305 -418.39)" clip-path="url(#clip-path-8)">
        <path id="Path_208" data-name="Path 208" d="M6.305-135.61H34.038v29.3H6.305Z" transform="translate(208 549)" fill="#fff"/>
      </g>
    </g>
    <g id="Group_154" data-name="Group 154" transform="translate(10.313 -122.869)" clip-path="url(#clip-path-42)">
      <g id="Group_153" data-name="Group 153" transform="translate(-218.313 -420.612)" clip-path="url(#clip-path-8)">
        <path id="Path_211" data-name="Path 211" d="M5.313-133.389h95.148v95.617H5.313Z" transform="translate(208 549)" fill="#fff"/>
      </g>
    </g>
    <g id="Group_156" data-name="Group 156" transform="translate(34.043 -152.769)" clip-path="url(#clip-path-44)">
      <g id="Group_155" data-name="Group 155" transform="translate(-242.043 -392.989)" clip-path="url(#clip-path-8)">
        <path id="Path_214" data-name="Path 214" d="M29.043-161.011H68.961v24.6H29.043Z" transform="translate(208 549)" fill="#fff"/>
      </g>
    </g>
    <g id="Group_158" data-name="Group 158" transform="translate(52.677 -103.56)" clip-path="url(#clip-path-46)">
      <g id="Group_157" data-name="Group 157" transform="translate(-260.677 -440.798)" clip-path="url(#clip-path-8)">
        <path id="Path_217" data-name="Path 217" d="M47.677-113.2h18.9v29.275h-18.9Z" transform="translate(208 549)" fill="#fff"/>
      </g>
    </g>
    <g id="Group_160" data-name="Group 160" transform="translate(244.791 -201.367)" clip-path="url(#clip-path-48)">
      <g id="Group_159" data-name="Group 159" transform="translate(-451.149 -345.571)" clip-path="url(#clip-path-8)">
        <path id="Path_220" data-name="Path 220" d="M238.149-208.429h31.085v40.261H238.149Z" transform="translate(208 549)" fill="#fff"/>
      </g>
    </g>
    <g id="Group_162" data-name="Group 162" transform="translate(268.445 -47.967)" clip-path="url(#clip-path-50)">
      <g id="Group_161" data-name="Group 161" transform="translate(-474.709 -493.924)" clip-path="url(#clip-path-8)">
        <path id="Path_223" data-name="Path 223" d="M261.709-60.076h19.6v25.924h-19.6Z" transform="translate(208 549)" fill="#fff"/>
      </g>
    </g>
    <g id="Group_164" data-name="Group 164" transform="translate(261.149 -88.889)" clip-path="url(#clip-path-52)">
      <g id="Group_163" data-name="Group 163" transform="translate(-467.405 -454.524)" clip-path="url(#clip-path-8)">
        <path id="Path_226" data-name="Path 226" d="M254.4-99.476h29.935v54.75H254.4Z" transform="translate(208 549)" fill="#fff"/>
      </g>
    </g>
    <g id="Group_166" data-name="Group 166" transform="translate(251.884 -39.451)" clip-path="url(#clip-path-54)">
      <g id="Group_165" data-name="Group 165" transform="translate(-458.145 -502.44)" clip-path="url(#clip-path-8)">
        <path id="Path_229" data-name="Path 229" d="M245.145-51.56h40.249v21.51H245.145Z" transform="translate(208 549)" fill="#fff"/>
      </g>
    </g>
    <g id="Group_168" data-name="Group 168" transform="translate(294.858 -57.072)" clip-path="url(#clip-path-56)">
      <g id="Group_167" data-name="Group 167" transform="translate(-500.742 -486.083)" clip-path="url(#clip-path-8)">
        <path id="Path_232" data-name="Path 232" d="M287.742-67.917h25.237v26.406H287.742Z" transform="translate(208 549)" fill="#fff"/>
      </g>
    </g>
    <g id="Group_170" data-name="Group 170" transform="translate(255.946 -129.377)" clip-path="url(#clip-path-58)">
      <g id="Group_169" data-name="Group 169" transform="translate(-461.831 -414.435)" clip-path="url(#clip-path-8)">
        <path id="Path_235" data-name="Path 235" d="M248.831-139.565H308.58v92.1H248.831Z" transform="translate(208 549)" fill="#fff"/>
      </g>
    </g>
    <g id="Group_172" data-name="Group 172" transform="translate(290.577 -49.524)" clip-path="url(#clip-path-60)">
      <g id="Group_171" data-name="Group 171" transform="translate(-496.462 -492.367)" clip-path="url(#clip-path-8)">
        <path id="Path_238" data-name="Path 238" d="M283.462-61.633h35.473v30.739H283.462Z" transform="translate(208 549)" fill="#fff"/>
      </g>
    </g>
    <g id="Group_174" data-name="Group 174" transform="translate(281.818 -157.663)" clip-path="url(#clip-path-62)">
      <g id="Group_173" data-name="Group 173" transform="translate(-487.703 -387.847)" clip-path="url(#clip-path-8)">
        <path id="Path_241" data-name="Path 241" d="M274.7-166.153h44.649v53.433H274.7Z" transform="translate(208 549)" fill="#fff"/>
      </g>
    </g>
    <g id="Group_184" data-name="Group 184" transform="translate(91.518 -189.653)" clip-path="url(#clip-path-64)">
      <g id="Group_183" data-name="Group 183" transform="translate(-298.587 -356.747)" clip-path="url(#clip-path-8)">
        <g id="Group_182" data-name="Group 182" transform="translate(170 211)" style="isolation: isolate">
          <g id="Group_181" data-name="Group 181" clip-path="url(#clip-path-66)">
            <g id="Group_175" data-name="Group 175" transform="translate(171.105 165.156)" clip-path="url(#clip-path-67)">
              <path id="Path_244" data-name="Path 244" d="M128.105-177.844h40.3v40.487h-40.3Z" transform="translate(-133.105 172.844)" fill="#5ae1e1"/>
            </g>
            <g id="Group_177" data-name="Group 177" transform="translate(217.746 145.747)" clip-path="url(#clip-path-68)">
              <g id="Group_176" data-name="Group 176" transform="translate(-89.746 -0.747)" clip-path="url(#clip-path-69)">
                <path id="Path_246" data-name="Path 246" d="M174.746-197.253h49.9v50.145h-49.9Z" transform="translate(-90 193)" fill="#5ae1e1"/>
              </g>
            </g>
            <g id="Group_178" data-name="Group 178" transform="translate(128.587 165.156)" clip-path="url(#clip-path-70)">
              <path id="Path_249" data-name="Path 249" d="M85.587-177.844h40.3v40.487h-40.3Z" transform="translate(-90.587 172.844)" fill="#5ae1e1"/>
            </g>
            <g id="Group_180" data-name="Group 180" transform="translate(0.639 0.347)" clip-path="url(#clip-path-71)">
              <g id="Group_179" data-name="Group 179" transform="translate(127.361 144.653)" clip-path="url(#clip-path-69)">
                <path id="Path_251" data-name="Path 251" d="M-42.361-342.653H360.865V74.383H-42.361Z" transform="translate(-90 193)" fill="#5ae1e1"/>
              </g>
            </g>
          </g>
        </g>
      </g>
    </g>
    <g id="Group_194" data-name="Group 194" transform="translate(1.187 -130.451)" clip-path="url(#clip-path-73)">
      <g id="Group_193" data-name="Group 193" transform="translate(-209.187 -411.44)" clip-path="url(#clip-path-8)">
        <g id="Group_192" data-name="Group 192" transform="translate(171 225)" style="isolation: isolate">
          <g id="Group_191" data-name="Group 191" clip-path="url(#clip-path-75)">
            <g id="Group_186" data-name="Group 186" transform="translate(38.187 186.44)" clip-path="url(#clip-path-76)">
              <g id="Group_185" data-name="Group 185" transform="translate(-1.187 -2.44)" clip-path="url(#clip-path-77)">
                <path id="Path_256" data-name="Path 256" d="M-3.813-142.56H109.493V-28.59H-3.813Z" transform="translate(0 140)" fill="#5ae1e1"/>
              </g>
            </g>
            <g id="Group_188" data-name="Group 188" transform="translate(82.559 231.097)" clip-path="url(#clip-path-78)">
              <g id="Group_187" data-name="Group 187" transform="translate(-45.559 -47.097)" clip-path="url(#clip-path-77)">
                <path id="Path_259" data-name="Path 259" d="M40.559-97.9H65.121v24.656H40.559Z" transform="translate(0 140)" fill="#5ae1e1"/>
              </g>
            </g>
            <g id="Group_190" data-name="Group 190" transform="translate(0.941 0.648)" clip-path="url(#clip-path-80)">
              <g id="Group_189" data-name="Group 189" transform="translate(36.059 183.352)" clip-path="url(#clip-path-77)">
                <path id="Path_262" data-name="Path 262" d="M-41.059-328.352H362.168V72.7H-41.059Z" transform="translate(0 140)" fill="#5ae1e1"/>
              </g>
            </g>
          </g>
        </g>
      </g>
    </g>
    <g id="Group_201" data-name="Group 201" transform="translate(244.963 -177.026)" clip-path="url(#clip-path-82)">
      <g id="Group_200" data-name="Group 200" transform="translate(-450.848 -369.004)" clip-path="url(#clip-path-8)">
        <g id="Group_199" data-name="Group 199" transform="translate(170 208)" style="isolation: isolate">
          <g id="Group_198" data-name="Group 198" clip-path="url(#clip-path-84)">
            <g id="Group_195" data-name="Group 195" transform="translate(280 158)" clip-path="url(#clip-path-85)">
              <path id="Path_267" data-name="Path 267" d="M237.848-185h60.9v58.412h-60.9Z" transform="translate(-242 183)" fill="#5ae1e1"/>
            </g>
            <g id="Group_197" data-name="Group 197" transform="translate(0.639 0.727)" clip-path="url(#clip-path-86)">
              <g id="Group_196" data-name="Group 196" transform="translate(279.361 157.273)" clip-path="url(#clip-path-85)">
                <path id="Path_269" data-name="Path 269" d="M-42.361-345.273h414.9V79.283h-414.9Z" transform="translate(-242 183)" fill="#5ae1e1"/>
              </g>
            </g>
          </g>
        </g>
      </g>
    </g>
    <g id="Group_263" data-name="Group 263" transform="translate(0.548 -248.08)" clip-path="url(#clip-path-88)">
      <g id="Group_262" data-name="Group 262" transform="translate(-209.869 -310.838)" clip-path="url(#clip-path-89)">
        <g id="Group_261" data-name="Group 261" transform="translate(169.065 213.823)" style="isolation: isolate">
          <g id="Group_260" data-name="Group 260" transform="translate(0)" clip-path="url(#clip-path-90)">
            <g id="Group_203" data-name="Group 203" transform="translate(85.446 240.962)" clip-path="url(#clip-path-91)">
              <g id="Group_202" data-name="Group 202" transform="translate(-45.192 -144.896)" clip-path="url(#clip-path-92)">
                <path id="Path_274" data-name="Path 274" d="M39.908-113.727H67.143v42.573H39.908Z" transform="translate(0.253 253.459)" fill="#393e48"/>
              </g>
            </g>
            <g id="Group_205" data-name="Group 205" transform="translate(100.424 97.016)" clip-path="url(#clip-path-93)">
              <g id="Group_204" data-name="Group 204" transform="translate(-60.17 -0.95)" clip-path="url(#clip-path-92)">
                <path id="Path_277" data-name="Path 277" d="M54.791-253.08H243.408v62.926H54.791Z" transform="translate(0.347 248.866)" fill="#393e48"/>
              </g>
            </g>
            <g id="Group_207" data-name="Group 207" transform="translate(40.805 256.006)" clip-path="url(#clip-path-95)">
              <g id="Group_206" data-name="Group 206" transform="translate(-0.551 -159.941)" clip-path="url(#clip-path-92)">
                <path id="Path_280" data-name="Path 280" d="M-4.452-99.163H243.783v74.137H-4.452Z" transform="translate(-0.028 253.939)" fill="#393e48"/>
              </g>
            </g>
            <g id="Group_209" data-name="Group 209" transform="translate(48.194 167.544)" clip-path="url(#clip-path-97)">
              <g id="Group_208" data-name="Group 208" transform="translate(-7.94 -71.479)" clip-path="url(#clip-path-92)">
                <path id="Path_283" data-name="Path 283" d="M2.89-184.8H110.782V-38.192H2.89Z" transform="translate(0.018 251.116)" fill="#393e48"/>
              </g>
            </g>
            <g id="Group_211" data-name="Group 211" transform="translate(49.711 220.108)" clip-path="url(#clip-path-99)">
              <g id="Group_210" data-name="Group 210" transform="translate(-9.458 -124.043)" clip-path="url(#clip-path-92)">
                <path id="Path_286" data-name="Path 286" d="M4.4-133.915h97.092V-33.806H4.4Z" transform="translate(0.028 252.793)" fill="#393e48"/>
              </g>
            </g>
            <g id="Group_213" data-name="Group 213" transform="translate(90.312 225.286)" clip-path="url(#clip-path-101)">
              <g id="Group_212" data-name="Group 212" transform="translate(-50.059 -129.221)" clip-path="url(#clip-path-92)">
                <path id="Path_289" data-name="Path 289" d="M44.744-128.9h11.7v17.177h-11.7Z" transform="translate(0.284 252.958)" fill="#393e48"/>
              </g>
            </g>
            <g id="Group_215" data-name="Group 215" transform="translate(94.927 297.532)" clip-path="url(#clip-path-103)">
              <g id="Group_214" data-name="Group 214" transform="translate(-54.674 -201.467)" clip-path="url(#clip-path-92)">
                <path id="Path_292" data-name="Path 292" d="M49.33-58.961h11.7v17.176H49.33Z" transform="translate(0.313 255.264)" fill="#393e48"/>
              </g>
            </g>
            <g id="Group_217" data-name="Group 217" transform="translate(55.106 266.368)" clip-path="url(#clip-path-105)">
              <g id="Group_216" data-name="Group 216" transform="translate(-14.853 -170.303)" clip-path="url(#clip-path-92)">
                <path id="Path_295" data-name="Path 295" d="M9.759-89.131h16.7V-77.11H9.759Z" transform="translate(0.062 254.269)" fill="#393e48"/>
              </g>
            </g>
            <g id="Group_219" data-name="Group 219" transform="translate(125.136 261.607)" clip-path="url(#clip-path-107)">
              <g id="Group_218" data-name="Group 218" transform="translate(-84.882 -165.542)" clip-path="url(#clip-path-92)">
                <path id="Path_298" data-name="Path 298" d="M79.348-93.74h16.7v12.02h-16.7Z" transform="translate(0.503 254.117)" fill="#393e48"/>
              </g>
            </g>
            <g id="Group_221" data-name="Group 221" transform="translate(64.389 238.487)" clip-path="url(#clip-path-109)">
              <g id="Group_220" data-name="Group 220" transform="translate(-24.136 -142.421)" clip-path="url(#clip-path-92)">
                <path id="Path_301" data-name="Path 301" d="M18.984-116.123H34.365v15.3H18.984Z" transform="translate(0.12 253.38)" fill="#393e48"/>
              </g>
            </g>
            <g id="Group_223" data-name="Group 223" transform="translate(117.171 286.205)" clip-path="url(#clip-path-111)">
              <g id="Group_222" data-name="Group 222" transform="translate(-76.918 -190.14)" clip-path="url(#clip-path-92)">
                <path id="Path_304" data-name="Path 304" d="M71.433-69.927H86.815v15.3H71.433Z" transform="translate(0.453 254.902)" fill="#393e48"/>
              </g>
            </g>
            <g id="Group_225" data-name="Group 225" transform="translate(67.902 289.315)" clip-path="url(#clip-path-113)">
              <g id="Group_224" data-name="Group 224" transform="translate(-27.648 -193.249)" clip-path="url(#clip-path-92)">
                <path id="Path_307" data-name="Path 307" d="M22.474-66.917H37.358V-51.1H22.474Z" transform="translate(0.142 255.001)" fill="#393e48"/>
              </g>
            </g>
            <g id="Group_227" data-name="Group 227" transform="translate(114.156 234.862)" clip-path="url(#clip-path-115)">
              <g id="Group_226" data-name="Group 226" transform="translate(-73.903 -138.797)" clip-path="url(#clip-path-92)">
                <path id="Path_310" data-name="Path 310" d="M68.437-119.632H83.321v15.818H68.437Z" transform="translate(0.434 253.264)" fill="#393e48"/>
              </g>
            </g>
            <g id="Group_229" data-name="Group 229" transform="translate(291.212 220.581)" clip-path="url(#clip-path-117)">
              <g id="Group_228" data-name="Group 228" transform="translate(-250.958 -124.516)" clip-path="url(#clip-path-92)">
                <path id="Path_313" data-name="Path 313" d="M244.378-133.457h75.587V-25.844H244.378Z" transform="translate(1.549 252.808)" fill="#393e48"/>
              </g>
            </g>
            <g id="Group_231" data-name="Group 231" transform="translate(284.076 135.685)" clip-path="url(#clip-path-119)">
              <g id="Group_230" data-name="Group 230" transform="translate(-243.823 -39.62)" clip-path="url(#clip-path-92)">
                <path id="Path_316" data-name="Path 316" d="M237.287-215.644H340V-80.67H237.287Z" transform="translate(1.504 250.099)" fill="#393e48"/>
              </g>
            </g>
            <g id="Group_233" data-name="Group 233" transform="translate(277.689 209.568)" clip-path="url(#clip-path-121)">
              <g id="Group_232" data-name="Group 232" transform="translate(-237.436 -113.503)" clip-path="url(#clip-path-92)">
                <path id="Path_319" data-name="Path 319" d="M230.941-144.119h11.35V-42.99h-11.35Z" transform="translate(1.464 252.457)" fill="#393e48"/>
              </g>
            </g>
            <g id="Group_235" data-name="Group 235" transform="translate(173.789 217.661)" clip-path="url(#clip-path-123)">
              <g id="Group_234" data-name="Group 234" transform="translate(-133.536 -121.596)" clip-path="url(#clip-path-92)">
                <path id="Path_322" data-name="Path 322" d="M127.695-136.284h41.837v43.108H127.695Z" transform="translate(0.809 252.715)" fill="#393e48"/>
              </g>
            </g>
            <g id="Group_237" data-name="Group 237" transform="translate(216.391 217.661)" clip-path="url(#clip-path-125)">
              <g id="Group_236" data-name="Group 236" transform="translate(-176.137 -121.596)" clip-path="url(#clip-path-92)">
                <path id="Path_325" data-name="Path 325" d="M170.028-136.284h41.836v43.108H170.028Z" transform="translate(1.077 252.715)" fill="#393e48"/>
              </g>
            </g>
            <g id="Group_239" data-name="Group 239" transform="translate(131.01 217.661)" clip-path="url(#clip-path-127)">
              <g id="Group_238" data-name="Group 238" transform="translate(-90.756 -121.596)" clip-path="url(#clip-path-92)">
                <path id="Path_328" data-name="Path 328" d="M85.185-136.284h41.837v43.108H85.185Z" transform="translate(0.54 252.715)" fill="#393e48"/>
              </g>
            </g>
            <g id="Group_241" data-name="Group 241" transform="translate(173.789 173.895)" clip-path="url(#clip-path-129)">
              <g id="Group_240" data-name="Group 240" transform="translate(-133.536 -77.83)" clip-path="url(#clip-path-92)">
                <path id="Path_331" data-name="Path 331" d="M127.695-178.653h41.837v43.108H127.695Z" transform="translate(0.809 251.319)" fill="#393e48"/>
              </g>
            </g>
            <g id="Group_243" data-name="Group 243" transform="translate(131.01 173.895)" clip-path="url(#clip-path-131)">
              <g id="Group_242" data-name="Group 242" transform="translate(-90.756 -77.83)" clip-path="url(#clip-path-92)">
                <path id="Path_334" data-name="Path 334" d="M85.185-178.653h41.837v43.108H85.185Z" transform="translate(0.54 251.319)" fill="#393e48"/>
              </g>
            </g>
            <g id="Group_245" data-name="Group 245" transform="translate(173.789 261.735)" clip-path="url(#clip-path-133)">
              <g id="Group_244" data-name="Group 244" transform="translate(-133.535 -165.67)" clip-path="url(#clip-path-92)">
                <path id="Path_337" data-name="Path 337" d="M127.694-93.617h41.837v43.108H127.694Z" transform="translate(0.809 254.121)" fill="#393e48"/>
              </g>
            </g>
            <g id="Group_247" data-name="Group 247" transform="translate(216.391 261.735)" clip-path="url(#clip-path-135)">
              <g id="Group_246" data-name="Group 246" transform="translate(-176.138 -165.67)" clip-path="url(#clip-path-92)">
                <path id="Path_340" data-name="Path 340" d="M170.028-93.616h41.836v43.108H170.028Z" transform="translate(1.078 254.121)" fill="#393e48"/>
              </g>
            </g>
            <g id="Group_249" data-name="Group 249" transform="translate(144.889 261.735)" clip-path="url(#clip-path-137)">
              <g id="Group_248" data-name="Group 248" transform="translate(-104.635 -165.67)" clip-path="url(#clip-path-92)">
                <path id="Path_343" data-name="Path 343" d="M98.976-93.616h27.958v43.108H98.976Z" transform="translate(0.627 254.121)" fill="#393e48"/>
              </g>
            </g>
            <g id="Group_251" data-name="Group 251" transform="translate(216.391 153.664)" clip-path="url(#clip-path-139)">
              <g id="Group_250" data-name="Group 250" transform="translate(-176.138 -57.599)" clip-path="url(#clip-path-92)">
                <path id="Path_346" data-name="Path 346" d="M170.029-198.239h86.347V-134.9H170.029Z" transform="translate(1.078 250.673)" fill="#393e48"/>
              </g>
            </g>
            <g id="Group_253" data-name="Group 253" transform="translate(287.425 153.291)" clip-path="url(#clip-path-141)">
              <g id="Group_252" data-name="Group 252" transform="translate(-247.172 -57.226)" clip-path="url(#clip-path-92)">
                <path id="Path_349" data-name="Path 349" d="M240.615-198.6h11.736v12.555H240.615Z" transform="translate(1.525 250.661)" fill="#393e48"/>
              </g>
            </g>
            <g id="Group_255" data-name="Group 255" transform="translate(286.545 149.163)" clip-path="url(#clip-path-143)">
              <g id="Group_254" data-name="Group 254" transform="translate(-246.292 -53.098)" clip-path="url(#clip-path-92)">
                <path id="Path_352" data-name="Path 352" d="M239.741-202.6h13.23v11.967h-13.23Z" transform="translate(1.519 250.529)" fill="#393e48"/>
              </g>
            </g>
            <g id="Group_257" data-name="Group 257" transform="translate(297.467 151.085)" clip-path="url(#clip-path-145)">
              <g id="Group_256" data-name="Group 256" transform="translate(-257.213 -55.02)" clip-path="url(#clip-path-92)">
                <path id="Path_355" data-name="Path 355" d="M250.593-200.736h13.076v14.5H250.593Z" transform="translate(1.588 250.591)" fill="#393e48"/>
              </g>
            </g>
            <g id="Group_259" data-name="Group 259" transform="translate(0.776 0.813)" clip-path="url(#clip-path-147)">
              <g id="Group_258" data-name="Group 258" transform="translate(39.478 95.252)" clip-path="url(#clip-path-92)">
                <path id="Path_358" data-name="Path 358" d="M-44.229-346.213H378V86.51H-44.229Z" transform="translate(-0.28 245.796)" fill="#475473"/>
              </g>
            </g>
          </g>
        </g>
      </g>
    </g>
  </g>
</svg>
