<svg xmlns="http://www.w3.org/2000/svg" xmlns:xlink="http://www.w3.org/1999/xlink" width="336" height="270" viewBox="0 0 336 270"><defs><style>.a,.b{fill:none;}.a{clip-rule:evenodd;}.c{clip-path:url(#a);}.d{clip-path:url(#b);}.e{isolation:isolate;}.f{clip-path:url(#c);}.g{clip-path:url(#d);}.h{fill:#ffddd3;}.i{clip-path:url(#e);}.j{fill:#ffdfd5;}.k{clip-path:url(#g);}.l{clip-path:url(#h);}.m{fill:#fff;}.n{clip-path:url(#i);}.o{clip-path:url(#k);}.p{clip-path:url(#m);}.q{clip-path:url(#o);}.r{clip-path:url(#q);}.s{clip-path:url(#s);}.t{clip-path:url(#u);}.u{clip-path:url(#w);}.v{clip-path:url(#y);}.w{clip-path:url(#z);}.x{fill:#fb779f;}.y{clip-path:url(#aa);}.z{clip-path:url(#ac);}.aa{clip-path:url(#ae);}.ab{clip-path:url(#ag);}.ac{clip-path:url(#ai);}.ad{clip-path:url(#ak);}.ae{clip-path:url(#am);}.af{clip-path:url(#ao);}.ag{clip-path:url(#aq);}.ah{clip-path:url(#ar);}.ai{fill:#ffca56;}.aj{clip-path:url(#as);}.ak{clip-path:url(#au);}.al{clip-path:url(#aw);}.am{clip-path:url(#ay);}.an{clip-path:url(#ba);}.ao{clip-path:url(#bc);}.ap{clip-path:url(#be);}.aq{clip-path:url(#bg);}.ar{clip-path:url(#bh);}.as{clip-path:url(#bi);}.at{clip-path:url(#bj);}.au{clip-path:url(#bk);}.av{fill:#393e48;}.aw{clip-path:url(#bl);}.ax{clip-path:url(#bn);}.ay{clip-path:url(#bp);}.az{clip-path:url(#br);}.ba{clip-path:url(#bt);}.bb{clip-path:url(#bv);}.bc{clip-path:url(#bx);}.bd{clip-path:url(#bz);}.be{clip-path:url(#cb);}.bf{clip-path:url(#cd);}.bg{clip-path:url(#cf);}.bh{clip-path:url(#ch);}.bi{clip-path:url(#cj);}.bj{clip-path:url(#cl);}.bk{clip-path:url(#cn);}.bl{clip-path:url(#cp);}.bm{clip-path:url(#cr);}.bn{clip-path:url(#ct);}.bo{clip-path:url(#cv);}.bp{clip-path:url(#cx);}.bq{fill:#475473;}.br{clip-path:url(#cz);}</style><clipPath id="a"><path class="a" d="M303.821-144.729c-.048,1.546-.174,3.591-.077,6.295.014.677.077,1.393.083,2.157s.022,1.574.034,2.431c.035,1.716.172,3.625.134,5.756-.239-2.6-.714-1.143-.935-3.206.02.428.038.86.036,1.3-.028,1-.076,2.034-.14,3.066s-.135,2.066-.241,3.079c-.161,1.007-.319,2-.472,2.953a43.083,43.083,0,0,1-.966,4.569,104.872,104.872,0,0,0-.532-32.479c-5.031-28.429-14.275-51.8-27.711-69.935,2.35,2.755,4.58,5.625,6.663,8.611.638-.027-.744-2.87-1.754-4.943-1.068-2.028-1.67-3.354.931-.472,2.151,3,1.493,3.056,1.7,3.815l1.583,2.26,1.476,2.327c.979,1.557,2,3.1,2.881,4.711l-.625,3.87c2.875,8.628,6.015,15.008,9.332,22.244a96.049,96.049,0,0,1,8.349,27.008,7.994,7.994,0,0,0,.82,1.326,12.34,12.34,0,0,0-.568,3.257m-36.356-80.952q-3.516-4.049-7.363-7.682l.8.583c.8.607,1.556,1.292,2.344,2s1.566,1.472,2.346,2.3c.738.867,1.462,1.808,2.172,2.832.075.17-.067.118-.3-.03m-81.627-38.711c.333-.712.5-1.421,3.254-1.663,5.1.74,15.121,3.1,13.575,3.8.6.217,1.212.421,1.826.62a156.789,156.789,0,0,0-18.655-2.755M125.122-8.427a59.316,59.316,0,0,0-7.481-.232c-2.143-.8-2.822-1.329-2.784-1.707,3.467.749,7.024,1.407,10.693,1.954l-.428-.015M68.417-238.754a99.769,99.769,0,0,0-31.286,34.968,96.783,96.783,0,0,1,7.989-13.368,97.906,97.906,0,0,1,10.673-12.384A102.322,102.322,0,0,1,83.074-248.3a88,88,0,0,0-14.656,9.543M309.3-130.321l-.185-1.739c-.135-1.118-.29-2.159-.46-3.177-.687-3.745-1.656-7.181-2.97-12.869a11.411,11.411,0,0,0,.382-2.912c.058-1.677.015-3.73-.014-5.669s-.141-3.753-.042-4.966l-.166,2.421c-.538-1.394-1.1-2.385-1.638-3.77a22.2,22.2,0,0,1-.782-2.473,36.694,36.694,0,0,1-.819-3.655c-1.068-5.984,1.8,2.9,1.3-1.3a73.985,73.985,0,0,0-6.613-19.546l-1.82-3.55c-.659-1.177-1.336-2.386-2.059-3.676-1.377-2.6-3.087-5.467-5.059-9.126-6.133-13.68-14.554-23.021-24.182-30.746a131.6,131.6,0,0,0-15.866-10.659,189.232,189.232,0,0,0-19.471-9.787,130.458,130.458,0,0,1,31.506,22.69l-2.61-1.975c-.866-.657-1.8-1.232-2.694-1.848l-2.7-1.813-2.577-1.53A110.716,110.716,0,0,0,222.432-256.5c.306.092.615.19.919.275,1.27.391,2.53.683,3.673,1.106,2.3.812,4.422,1.43,6.07,2.184a37.622,37.622,0,0,0-3.757-2.432c-1.4-.842-2.917-1.727-4.507-2.485s-3.164-1.633-4.729-2.314-3.056-1.362-4.39-1.991c-5.37-2.31-8.238-3.977-2.139-3.981-1.822-.54-3.452-1.067-4.955-1.41s-2.859-.629-4.1-.872a51,51,0,0,0-6.462-.822c-.957-.068-1.877-.144-2.8-.167l-2.83-.024c-1.945-.008-4.055-.079-6.65-.043-1.295-.174-2.846-.319-4.461-.457l-4.849-.235c-3.11-.21-5.715-.291-6.328-.823-4.788.466-6.951.935-9.76,1.058-1.405.055-2.965.073-5.081.11s-4.806-.068-8.433.039c-9.918,1.131-19.1,3.8-12.368,3.493a257.39,257.39,0,0,1,27.384-2.5c6.553.813,3.4,1.768-.8,2.648l-3.238.656c-1.059.243-2.057.478-2.863.693-.217.058-.417.115-.6.17q-2,.133-4.034.3c-21.07,1.742-38.89,5.592-53.919,11.171q4.721-2.28,9.6-4.3a165.411,165.411,0,0,0-18.143,6.573c1.292-1.382,4.076-3.572,4.732-4.745.666-1.126-.91-1.463-8.349,1.4a128.636,128.636,0,0,0-15.906,10.56,127.959,127.959,0,0,0-13.974,12.438A156.006,156.006,0,0,0,31.46-200.563L30-197.519l-1.325,3.107c-.926,2.059-1.631,4.2-2.453,6.311-1.441,4.278-2.817,8.608-3.836,13.033a167.379,167.379,0,0,0-4.125,27.033c-1.437,18.271-.216,37.34,5.254,55.731-.1-3.272.556-1.262,1.017.066.535,1.318.711,1.993-.137-3.864.541,1.349,1.035,2.634,1.524,3.955.168.4.333.821.5,1.235a123.888,123.888,0,0,0,4.619,13.682c-1.894-2.642-2.5-3.194-2.528-2.342-.043.905.817,3.255,1.773,5.97.448,1.372,1.131,2.745,1.665,4.109s1.059,2.661,1.492,3.747c.883,2.158,1.2,3.594.143,3.2,4.722,7.875,6.8,11.927,9.049,16.255a48.221,48.221,0,0,0,4.259,6.875,53.639,53.639,0,0,0,8.293,8.857c2.639,1.621,3.461,1.779,3.162,1.057a8.057,8.057,0,0,0-1.206-1.679c-.619-.744-1.476-1.592-2.338-2.653-1.766-2.075-4.011-4.468-5.851-6.9-.932-1.2-1.9-2.289-2.619-3.366s-1.367-2-1.856-2.708c.637.691,1.35,1.568,2.1,2.537.737.984,1.644,1.948,2.487,2.974-.61-.87-1.2-1.74-1.752-2.6-.509-.9-.987-1.784-1.427-2.641a29.163,29.163,0,0,1-2.062-4.727,11.811,11.811,0,0,1-.719-3.763A103.186,103.186,0,0,0,68.388-29.924c-.6,1.282-.853,2.721,3.243,5.231a14.378,14.378,0,0,0,4.726,3.625c1.182.673,2.5,1.388,3.895,2.109L84.68-17l2.238.979,2.234.843c1.459.557,2.847,1.1,4.093,1.632,2.514.987,4.5,1.806,5.331,2.61,10.267,2.744,19.37,5.123,27.354,6.629a73.325,73.325,0,0,0,11.037,1.243,26.569,26.569,0,0,0,8.991-1.024c2.549.548,5.111,1.23,7.7,1.667l7.808,1.4c3.156.1,6.059-.034,8.768-.173.677-.042,1.343-.075,2-.137l1.927-.247c1.264-.172,2.488-.356,3.681-.549l3.5-.606c1.137-.239,2.248-.527,3.348-.793,2.2-.555,4.355-1.064,6.523-1.653,1.865-1.017-.581-.885-2.224-1.167-.82-.118-1.431-.28-1.2-.608a2.719,2.719,0,0,1,1.055-.632c.615-.254,1.518-.575,2.769-1.051,1.856-.526,4.364-1.207,6.876-1.771a42.873,42.873,0,0,1,6.856-1.43c1.164.423-3.537,2.161-4.578,2.652,9.814-2.7,18.082-5.087,25.9-7.437a127.674,127.674,0,0,0,22.289-8.645c2.21-1.538,4.57-3.08,6.856-4.875l3.533-2.638,3.468-2.861a136.772,136.772,0,0,0,13.135-12.42c7.959-8.711,13.633-17.914,15.761-23.9L288.315-66.7c-1.172,1.721-2.426,3.385-3.635,5.074,1.269-1.891,2.176-3.347,2.813-4.475a13.324,13.324,0,0,0,1.1-2.585c.338-1.207.035-1.524-.209-1.886-.548-.765-.536-1.483,4.287-10.206,1.792-3.278,3.038-5.3,3.774-6.544.78-1.228,1.235-1.6,1.536-1.562.605.076.59,1.833,1.4,1.621.412-.99.839-2.07,1.275-3.211.416-1.149.767-2.388,1.16-3.65.37-1.268.8-2.555,1.127-3.886s.639-2.674.957-4c.161-.663.32-1.323.478-1.976q.189-.991.375-1.959c.264-1.284.52-2.531.763-3.714.48-2.367.828-4.5,1.315-6.15-.593,4.869.04,3.06.743.561.379-1.243.677-2.671.857-3.5s.29-1.046.188.118c.278-2.01.535-3.8.642-5.414.072-1.622.1-3.067.088-4.384-.01-.66-.019-1.287-.051-1.889" transform="translate(-17.708 270.993)"/></clipPath><clipPath id="b"><path class="b" d="M-208,473.174H1233.748V-550H-208Z" transform="translate(208 550)"/></clipPath><clipPath id="c"><rect class="b" width="399.484" height="391.684"/></clipPath><clipPath id="d"><path class="b" d="M16-.219H310.357V-271H16Z" transform="translate(-16 271)"/></clipPath><clipPath id="e"><path class="a" d="M4.453-321.756h327.1a35.422,35.422,0,0,1,35.458,35.387V34.11A35.422,35.422,0,0,1,331.553,69.5H4.453A35.422,35.422,0,0,1-31,34.11V-286.37A35.422,35.422,0,0,1,4.453-321.756Z" transform="translate(31.005 321.756)"/></clipPath><clipPath id="g"><path class="a" d="M171.622-188.914h0a6.925,6.925,0,0,1-6.892-6.917,6.925,6.925,0,0,1,6.892-6.917,6.925,6.925,0,0,1,6.892,6.917,6.924,6.924,0,0,1-6.892,6.917" transform="translate(-164.73 202.747)"/></clipPath><clipPath id="h"><path class="b" d="M-208,474H1232V-550H-208Z" transform="translate(208 550)"/></clipPath><clipPath id="i"><path class="a" d="M193.675-188.914h0a6.924,6.924,0,0,1-6.892-6.917,6.925,6.925,0,0,1,6.892-6.917,6.925,6.925,0,0,1,6.892,6.917,6.925,6.925,0,0,1-6.892,6.917" transform="translate(-186.783 202.747)"/></clipPath><clipPath id="k"><path class="a" d="M217.566-188.914h0a6.924,6.924,0,0,1-6.892-6.917,6.925,6.925,0,0,1,6.892-6.917,6.924,6.924,0,0,1,6.892,6.917,6.924,6.924,0,0,1-6.892,6.917" transform="translate(-210.675 202.747)"/></clipPath><clipPath id="m"><path class="a" d="M121.083-55.188h0a6.924,6.924,0,0,1-6.892-6.917,6.925,6.925,0,0,1,6.892-6.917h0a6.925,6.925,0,0,1,6.892,6.917,6.925,6.925,0,0,1-6.892,6.917" transform="translate(-114.191 69.022)"/></clipPath><clipPath id="o"><path class="a" d="M144.974-55.188h0a6.924,6.924,0,0,1-6.892-6.917,6.925,6.925,0,0,1,6.892-6.917,6.925,6.925,0,0,1,6.892,6.917,6.924,6.924,0,0,1-6.892,6.917" transform="translate(-138.082 69.022)"/></clipPath><clipPath id="q"><path class="a" d="M167.027-55.188h0a6.925,6.925,0,0,1-6.892-6.917,6.925,6.925,0,0,1,6.892-6.917,6.925,6.925,0,0,1,6.892,6.917,6.924,6.924,0,0,1-6.892,6.917" transform="translate(-160.136 69.022)"/></clipPath><clipPath id="s"><path class="a" d="M128.426-96.155H16.918A16.484,16.484,0,0,1,.443-112.649V-206.5A16.484,16.484,0,0,1,16.918-223H128.426A16.484,16.484,0,0,1,144.9-206.5v93.856a16.484,16.484,0,0,1-16.475,16.494" transform="translate(-0.443 222.999)"/></clipPath><clipPath id="u"><path class="a" d="M319.482-28.326H205.768A15.382,15.382,0,0,1,190.4-43.716v-96.063a15.382,15.382,0,0,1,15.373-15.39H319.482a15.382,15.382,0,0,1,15.373,15.39v96.063a15.382,15.382,0,0,1-15.373,15.39" transform="translate(-190.396 155.169)"/></clipPath><clipPath id="w"><path class="a" d="M324.047-75.071c-1.8-2.1-11.5-16.433-23.335-32.052-8.239-10.869-20.175-13.767-26.185-14.539.04,1.574.045,2.614.045,2.614s-1.486,6.975-12.339,6.639c-13.556-.419-11.661-5.645-11.661-5.645s.529-1.493.966-3c-3.007,1.12-9.81,4.292-18.2,12.274-4.045,3.85-16.425,20.5-16.425,20.5s.749,1.873,2.005,4.515h12.737a3.392,3.392,0,0,1,3,1.817l21,40.034H228.54l-1.811,14.036h76.135L294.72-56.592s23.733-11.615,29.327-18.478" transform="translate(-216.917 121.662)"/></clipPath><clipPath id="y"><rect class="b" width="398" height="401"/></clipPath><clipPath id="z"><path class="b" d="M216-27H325v-95H216Z" transform="translate(-216 122)"/></clipPath><clipPath id="aa"><path class="a" d="M5.888-324.78H331.707a35.415,35.415,0,0,1,35.415,35.415V40.263a35.415,35.415,0,0,1-35.415,35.415H5.888A35.415,35.415,0,0,1-29.527,40.263V-289.365A35.415,35.415,0,0,1,5.888-324.78Z" transform="translate(29.527 324.78)"/></clipPath><clipPath id="ac"><path class="a" d="M198.407-124.849s-.222,3.109-.665,8.44-.885,6.219.222,7.551,5.536,7.107,10.851,14.215,7.307,8.884,7.307,8.884l1.308-1.357L226.571-65.7l6.6,14.364S223.63-47.06,216.122-50c-10.666-4.178-17.493-24.875-21.48-31.761s-7.307-13.548-7.307-13.548a48.038,48.038,0,0,1-11.294-9.995c-4.429-5.774-4.871-7.329-4.65-8.662s.954-1.118.954-1.118-3.186-3.517-2.144-5.606c.689-1.382,2.3-.538,2.3-.538s-.995-3.071.613-3.994a2.45,2.45,0,0,1,2.68.461,1.7,1.7,0,0,1,.819-2.575c1.914-.845,9.441,5.108,11.508,6.952A37.867,37.867,0,0,1,191.488-117s2.506-9.852,6.919-7.844" transform="translate(-169.992 127.417)"/></clipPath><clipPath id="ae"><path class="a" d="M277.009-148.616a6.8,6.8,0,0,0-3.8.882,27,27,0,0,0-2.675-12.718c-3.157-6.293-18.24-8-23.726-1.671,0,0-2.786,12.21-2.5,20.462.285,8.12,5.135,11.247,8.134,12.1-.1,1.841-.254,4.042-.453,5.848a37.558,37.558,0,0,1-1.513,5.4s-1.894,5.227,11.654,5.648c10.846.336,12.332-6.644,12.332-6.644s-.022-4.231-.3-8.558c-.138-2.147-.249-6.3-.324-9.944a6.753,6.753,0,0,0,6.235-2.462,5.231,5.231,0,0,0-3.06-8.333" transform="translate(-244.286 166.108)"/></clipPath><clipPath id="ag"><path class="a" d="M319.945-71.639s3.388,4.883,5.427,17.212S319.545-35.1,305.19-32.722c-9.594,1.589-45.993.185-45.993.185s-13.47,3.509-20.289,1.379-14.787-8.279-14.787-8.279L261.2-38.6l3.26-3.546,31.707-9.879-2.033-4.445s6.837-3.414,13.05-7.079c6.97-4.111,12.761-8.09,12.761-8.09" transform="translate(-224.121 71.639)"/></clipPath><clipPath id="ai"><path class="a" d="M199.363-38.5h82.078a.611.611,0,0,0,.611-.612v-2.3a.611.611,0,0,0-.611-.612H199.363a.611.611,0,0,0-.61.612v2.3a.611.611,0,0,0,.61.612" transform="translate(-198.753 42.021)"/></clipPath><clipPath id="ak"><path class="a" d="M179.791-84.021h51.78a3.39,3.39,0,0,1,3,1.819L255.56-42.145H198.752L178.2-81.377a1.8,1.8,0,0,1,1.593-2.645" transform="translate(-177.988 84.021)"/></clipPath><clipPath id="am"><path class="a" d="M212.5-60.094c1.973,1.741,4.611,1.968,5.891.507s.721-4.056-1.252-5.8-4.61-1.968-5.891-.507-.721,4.055,1.252,5.8" transform="translate(-210.564 66.853)"/></clipPath><clipPath id="ao"><path class="a" d="M12.838-130.009s10-28.069,21.06-40.845,24.3-13.032,24.3-13.032l29.432,5.511s6.594,7.191,12.841,10.25,7.684,2.618,10.539,2.618,2.739.493,2.739.493a79.312,79.312,0,0,1,5.656,10.413,118.237,118.237,0,0,1,5.43,17.853l-18.657,1.16,4.226,39.241-11.485.018H34.895l3.644-26.664s-12.672,1.8-25.7-7.017" transform="translate(-12.838 183.886)"/></clipPath><clipPath id="aq"><rect class="b" width="379" height="371"/></clipPath><clipPath id="ar"><path class="b" d="M12-96H125v-88H12Z" transform="translate(-12 184)"/></clipPath><clipPath id="as"><path class="a" d="M5.888-323.668H313.556a35.415,35.415,0,0,1,35.415,35.415V10.706a35.415,35.415,0,0,1-35.415,35.415H5.888A35.415,35.415,0,0,1-29.527,10.706V-288.253A35.415,35.415,0,0,1,5.888-323.668Z" transform="translate(29.527 323.668)"/></clipPath><clipPath id="au"><path class="a" d="M101.039-219.159c-3.8-7.764-17.534-5.849-22.342-.415s-6.89,6.33-6.89,6.33a5.841,5.841,0,0,0-3.562-1.886A5.286,5.286,0,0,0,63-207.638a6.819,6.819,0,0,0,5.134,4.016h0s-1.264,10.984-2.3,15.328-7.842,4.567-7.842,4.567,3.481,11.275,14.57,12.838c13.85,1.951,14.958-7.343,14.958-7.343s-3.041-.963-2.357-4.932c.334-1.943.653-3.815.892-5.225.373.035.741.059,1.1.061,4.267.024,9.42-3.066,11.885-11.21s2.01-19.622,2.01-19.622" transform="translate(-57.984 224.332)"/></clipPath><clipPath id="aw"><path class="a" d="M56.193-153.957l13.434,20,4.773-2.033L60.973-156.57a2.764,2.764,0,0,0-3.466-.738c-2.8,1.476-1.313,3.35-1.313,3.35" transform="translate(-55.8 157.653)"/></clipPath><clipPath id="ay"><path class="a" d="M14.65-127.931s-6.2,11.356-3.212,23.136S23.317-91.7,26.785-91.73s14.254-5.037,24.529-19.026,11.51-14.67,11.51-14.67l12.834-3.718,2.473-7.942a84.127,84.127,0,0,0-11.663-3.91c-5.036-1.117-7.186.336-11.7,4.568s-19.377,14.533-19.377,14.533l-.67-.294s-5.229-.142-13.979-2.8a27.6,27.6,0,0,1-6.1-2.943" transform="translate(-10.625 141.357)"/></clipPath><clipPath id="ba"><path class="a" d="M136.3-138.764l-2.2.153-2.935-5.345s-4.241.283-14.748.764c-9.775.449-11.455,5.66-11.455,5.66s-4.11-5.071-14.736-5.151C83.99-142.729,76-142.774,76-142.774L73.787-137.4l-.135,0a1.1,1.1,0,0,0-1.038.5L59-108.463c-.163.34.21.7.723.691l30.166-.295s.656,1.348,4.1,1.434,4.53-2.075,4.53-2.075l23.2-2.091a1.118,1.118,0,0,0,.88-.507l14.428-26.822c.178-.333-.224-.684-.728-.636" transform="translate(-58.966 143.956)"/></clipPath><clipPath id="bc"><path class="a" d="M237.02-42.229c.5-1.386,3.292-1.22,6.677-.438,2.4.556,5.143.691,7.606,1.267a35.99,35.99,0,0,1,10.142,3.941l-7.456,3.38s-18.273-4.5-16.97-8.149" transform="translate(-236.954 43.264)"/></clipPath><clipPath id="be"><path class="a" d="M132.859-127.794c-2.211-1.266-11.257-2.17-14.07-2.442s-3.178-.344-3.618.362c-.9,1.447.5,2.893.5,2.893s-1.809-.09-1.708,1.629c.064,1.088,2.01,2.713,2.01,2.713s-1.91.452-.3,2.894c.522.794,4.81,3.172,8.668,5.212l-1.736,3.228a1.121,1.121,0,0,1-.881.507l-12.793,1.152,1.429,13.191-10.784.018-.032.627h24.937c1.03-1.365,2.022-2.844,3.033-4.394a83.691,83.691,0,0,0,5.824-10.807c1.3-.461,2.379-2.058,2.436-5.931.1-6.783-.7-9.586-2.915-10.853" transform="translate(-99.545 130.429)"/></clipPath><clipPath id="bg"><path class="a" d="M253.8-180.9a9.617,9.617,0,0,1,7.88,2.541l.053.053.018.018a26.143,26.143,0,0,1,7.48-1.386c3.714-.042,10.333.208,14.056,9.648,1.815,4.6.964,9.884-.3,13.949h35.958A17.07,17.07,0,0,1,336-139.026h0v94.042A17.07,17.07,0,0,1,318.953-27.93H207.174a17.069,17.069,0,0,1-17.047-17.054h0V-58.05L177.81-81.5a2.425,2.425,0,0,1,.072-2.4,2.425,2.425,0,0,1,2.091-1.18h10.154v-4.251c-1.569-2.924-2.708-5.164-3.061-5.862l-.033-.065a47.929,47.929,0,0,1-11.321-10.037c-4.4-5.728-5.05-7.513-4.779-9.145a2.327,2.327,0,0,1,.548-1.257c-.953-1.221-2.617-3.765-1.681-5.64a2,2,0,0,1,1.172-1.047,2.294,2.294,0,0,1,.843-.094c-.177-1.147-.185-2.888,1.154-3.653a2.545,2.545,0,0,1,2.052-.224,2.075,2.075,0,0,1,.085-.458,2.368,2.368,0,0,1,1.425-1.459c2.742-1.206,12.112,6.965,12.206,7.048.517.459.978.895,1.391,1.3h0v-19.1a17.07,17.07,0,0,1,17.047-17.054h35.683a6.168,6.168,0,0,1,2.515-1.162c.475-2.687.911-4.677,1.029-5.2l.021-.091h0l.006-.027.035-.156.1-.112c-.147-.017-.279-.013-.431-.037-3.026-.486-4.687-4.327-5.774-6.955s.725-2.425,3.668-3.924S248.507-180.094,253.8-180.9ZM318.953-154.8H282.575a36.234,36.234,0,0,1-2.347,5.354,4.211,4.211,0,0,1-.5.928,6.479,6.479,0,0,1,1.945,2.485,5.633,5.633,0,0,1-.806,5.806,7.08,7.08,0,0,1-5.944,2.756.646.646,0,0,1,.027.127h0l.349,14.512c6.28.9,17.993,3.993,26.1,14.676,7.23,9.524,13.7,18.626,17.985,24.649,2.7,3.8,4.653,6.543,5.336,7.34h0l.35.408-.34.416a23.993,23.993,0,0,1-3.632,3.383c.883,1.5,3.521,6.615,5.236,16.963,1.026,6.19-.361,11.275-4.122,15.115-3.528,3.6-9.116,6.057-16.608,7.294-.8.133-1.8.244-2.931.338h0l.861,3.032h15.421a15.784,15.784,0,0,0,15.763-15.769h0v-94.042a15.784,15.784,0,0,0-15.763-15.77ZM191.409-55.607v10.623a15.785,15.785,0,0,0,15.764,15.769H226.3l1.01-7.818c-.736-.491-1.381-.939-1.9-1.309H199.8a1.5,1.5,0,0,1-1.494-1.5h0v-1.812a1.487,1.487,0,0,1,.121-.587h0Zm37.1,19.354-.906,7.008h74.588l-.825-2.9c-3.568.235-8.246.326-13.181.334h-1.061l-1.067,0-1.071,0c-.894,0-1.79-.011-2.684-.02l-1.071-.011c-10.513-.12-20.407-.487-21.7-.536h0l-.42.1a67.7,67.7,0,0,1-14.329,1.958,20.106,20.106,0,0,1-5.821-.717,46.6,46.6,0,0,1-10.452-5.21Zm91.562-34.91-.679.455-.339.225c-2.2,1.462-6.46,4.234-11.233,7.041q-.7.413-1.413.821l-.71.405c-4.492,2.554-8.9,4.813-10.423,5.582h0l1.776,3.878a.641.641,0,0,1,0,.528.644.644,0,0,1-.395.352h0l-28.1,8.731h12.929a1.5,1.5,0,0,1,1.494,1.5h0v1.812a1.5,1.5,0,0,1-1.494,1.5H262.569a.633.633,0,0,1-.037.588.643.643,0,0,1-.885.2,35.829,35.829,0,0,0-9.956-3.856c-1.218-.284-2.54-.464-3.818-.636s-2.577-.348-3.792-.629c-4.036-.933-5.71-.6-5.935.028a.594.594,0,0,0,.076.516c1.39,2.589,12.352,5.777,16.458,6.787a.642.642,0,0,1,.47.776.642.642,0,0,1-.623.489.68.68,0,0,1-.154-.018,83.151,83.151,0,0,1-12.826-4.246H227.685a49.493,49.493,0,0,0,11.654,6.072c6.572,2.047,19.823-1.351,19.959-1.386a.885.885,0,0,1,.186-.019c.364.013,36.479,1.38,45.909-.176,7.217-1.192,12.567-3.523,15.9-6.927,3.457-3.531,4.727-8.242,3.771-14.006C323.449-64.534,320.956-69.593,320.068-71.163Zm-38.585,29.3H254.9a38.6,38.6,0,0,1,5.617,2.233h20.963a.21.21,0,0,0,.21-.211h0v-1.812a.21.21,0,0,0-.21-.211Zm-44.536,0H199.8a.21.21,0,0,0-.21.211h0v1.812a.21.21,0,0,0,.21.211h39.344a5.878,5.878,0,0,1-2.058-1.9,2.268,2.268,0,0,1-.145-.337Zm31.519-117.727c-1.148-1.745-6.753-6.59-5.739-4.505s-.982,2.348-.982,2.348-4.27-2.947-6.654-2.816c-1.923.106-3.837,1.564-6.72,1.777a8.382,8.382,0,0,0-.73.671c-.117.527-.5,2.322-.938,4.744a6.115,6.115,0,0,1,4.186,1.645,6.2,6.2,0,0,1,1.422,1.975,4.216,4.216,0,0,1,4.635,1.178c.026-.028.043-.063.069-.09a6.356,6.356,0,0,1,4.457-2.035,6.3,6.3,0,0,1,4.589,1.713,6.364,6.364,0,0,1,2.035,4.46,6.361,6.361,0,0,1-1.714,4.591,6.352,6.352,0,0,1-4.457,2.035c-.077,0-.155,0-.233,0a6.355,6.355,0,0,1-4.357-1.718,6.363,6.363,0,0,1-2.033-4.46,6.344,6.344,0,0,1,.868-3.428,2.925,2.925,0,0,0-3.461-1.028,6.188,6.188,0,0,1,.15,1.126,6.165,6.165,0,0,1-.058.942.671.671,0,0,1,.029.115c0,.1.106,2.507-2.238,6.168-.434.68-.721,1.143-.909,1.454h0l2.517.655a.641.641,0,0,1,.459.783.642.642,0,0,1-.619.481.646.646,0,0,1-.162-.02h0l-3.315-.862a.642.642,0,0,1-.465-.479c-.067-.293-.083-.364,1.415-2.7.28-.438.517-.852.725-1.247a6.156,6.156,0,0,1-3.358,1.135c-.075,0-.15,0-.226,0a6.175,6.175,0,0,1-1.436-.188c-.048,1.093-.061,2.156-.026,3.155.319,9.095,6.563,11.195,7.812,11.524a13.045,13.045,0,0,0,9.949-1.136,20.15,20.15,0,0,0,5.826-4.68.642.642,0,0,1,.9-.082.643.643,0,0,1,.082.9,21.2,21.2,0,0,1-6.223,5,14.6,14.6,0,0,1-6.842,1.791,15.7,15.7,0,0,1-4.022-.554c-4.06-1.069-8.5-4.971-8.767-12.719-.041-1.16-.018-2.4.044-3.659a6.179,6.179,0,0,1-1.523-1.017,6.161,6.161,0,0,1-1.971-4.322,6.138,6.138,0,0,1,1.189-3.834H207.174a15.785,15.785,0,0,0-15.764,15.77h0v20.321c.648-1.994,2.187-5.915,4.581-7.065a3.268,3.268,0,0,1,2.882-.013.643.643,0,0,1,.374.631c-.01.142-.232,3.228-.666,8.435-.1,1.18-.2,2.145-.278,2.943-.289,2.833-.317,3.325.353,4.131,1.016,1.22,4.856,6.2,9.738,12.694l.568.756.576.768a93.064,93.064,0,0,0,6.818,8.368h0l.572-.525c-.267-.624-.43-1.025-.469-1.126h0l-.133-.333.214-.288c.265-.356,3.665-4.918,7.426-9.736l.5-.644h0l.506-.645a115.288,115.288,0,0,1,8.069-9.536c8.935-8.492,16.037-11.582,18.858-12.561-.134.509-.291,1.044-.446,1.548-3.155,1.248-9.659,4.465-17.528,11.943-3.56,3.383-13.832,17.023-15.968,19.874l-.174.232c.252.6.845,1.993,1.686,3.775H231.8a4.026,4.026,0,0,1,1.642.351c1.89-12.816,3.637-20.53,3.661-20.635a.641.641,0,0,1,.769-.482.641.641,0,0,1,.481.769c-.024.107-1.818,8.024-3.734,21.156a4.029,4.029,0,0,1,.753,1h0l14.329,27.281a.641.641,0,0,1-.269.866.641.641,0,0,1-.866-.27h0L234.241-82.321a2.746,2.746,0,0,0-2.436-1.472H179.972a1.148,1.148,0,0,0-.993.56,1.153,1.153,0,0,0-.034,1.139h0l20.4,38.827h37.7c.7-1.432,3.029-1.649,7.328-.656,1.158.267,2.381.433,3.676.608.113.016.228.034.342.049h6.368l-2.845-5.417a.641.641,0,0,1,.27-.866.64.64,0,0,1,.866.27h0l3.225,6.138h8.115a.622.622,0,0,1,.151-.095h0l30.947-9.617-.177-.622-1.234-2.691a31.139,31.139,0,0,1-10.755,2.641h0l-.446.015-.169-.412c-.086-.207-2.124-5.225-5.706-18.894A126.561,126.561,0,0,1,273.367-92.4a.644.644,0,0,1,.589-.691.636.636,0,0,1,.691.588c0,.045.214,2.584.9,6.722l.1.617c.55,3.246,1.376,7.381,2.592,12.021,2.985,11.394,4.927,16.828,5.485,18.3a30.33,30.33,0,0,0,10.406-2.782h0l0,0,.482-.236.347-.171.5-.25c1.686-.844,5.684-2.876,10.207-5.393q.755-.432,1.5-.872c4.565-2.686,8.648-5.333,10.9-6.822l.523-.348c.322-.215.59-.395.8-.535a28.136,28.136,0,0,0,4.01-3.5c-.886-1.133-2.614-3.561-5.06-7-4.278-6.017-10.745-15.109-17.962-24.618-7.754-10.216-18.942-13.247-25.048-14.155h0l.1,4.01a.642.642,0,0,1-.626.657h-.016a.643.643,0,0,1-.642-.626h0l-.477-19.819a.655.655,0,0,1,.04-.229,10.55,10.55,0,0,1-2.082-.447.641.641,0,0,1-.393-.817.645.645,0,0,1,.816-.394c.21.074,5.141,1.735,7.793-1.8a4.325,4.325,0,0,0,.654-4.527,4.612,4.612,0,0,0-3.275-2.769,6.153,6.153,0,0,0-3.406.791h0l-.849.511c-.336.469-.559.816-.561.723A26.006,26.006,0,0,0,268.466-159.587Zm45.072,103.41.43,0a.642.642,0,0,1,.632.652.675.675,0,0,1-.652.632A41.688,41.688,0,0,0,298.533-52.2a.634.634,0,0,1-.25.051.641.641,0,0,1-.591-.391.642.642,0,0,1,.34-.841,42.675,42.675,0,0,1,15.936-2.786ZM210.983-66.756a3.729,3.729,0,0,1,3.226-1.162,6.319,6.319,0,0,1,3.577,1.61,6.335,6.335,0,0,1,2.052,3.344,3.74,3.74,0,0,1-.74,3.346,3.63,3.63,0,0,1-2.8,1.181c-.139,0-.281-.006-.424-.018a6.332,6.332,0,0,1-3.577-1.609,6.34,6.34,0,0,1-2.051-3.344A3.737,3.737,0,0,1,210.983-66.756Zm2.806.1a2.381,2.381,0,0,0-1.842.744,2.49,2.49,0,0,0-.449,2.229,5.049,5.049,0,0,0,1.644,2.653,5.05,5.05,0,0,0,2.839,1.293,2.519,2.519,0,0,0,2.152-.731,2.49,2.49,0,0,0,.449-2.228,5.043,5.043,0,0,0-1.645-2.652,5.035,5.035,0,0,0-2.839-1.293C213.994-66.647,213.89-66.653,213.789-66.653ZM191.41-86.962v1.885h1.044C192.095-85.718,191.746-86.349,191.41-86.962Zm-3.527-33.3c-3.434-3.053-9.637-7.369-10.837-6.833a1.172,1.172,0,0,0-.712.653,1.328,1.328,0,0,0,.15.932c.4.368,3.11,2.879,6.364,6.152,1.3,1.306,2.7,2.76,2.9,2.961l.023.024a.574.574,0,0,1,.072.111c.335-.248.68-.493,1.045-.73a.641.641,0,0,1,.888.188.643.643,0,0,1-.188.888,26.048,26.048,0,0,0-5.434,5.516,16.542,16.542,0,0,0-2.032,4.079l-.02.064h0l0,.009a.641.641,0,0,1-.622.488.627.627,0,0,1-.154-.018.642.642,0,0,1-.47-.776,13.51,13.51,0,0,1,.778-2.1,38.624,38.624,0,0,0-7.282-6.155c0,.06-.089.217-.149.577h0l-.016.108c-.131,1.006.228,2.426,4.548,8.043a47.755,47.755,0,0,0,11.131,9.823.631.631,0,0,1,.239.26h0l.027.054.019.037.051.1c.495.98,2.828,5.565,5.73,10.723h24.12c-.211-.455-.4-.875-.572-1.26h0l-.7.641a.643.643,0,0,1-.86.006c-.084-.075-2.1-1.9-7.4-8.965-5.406-7.21-9.757-12.865-10.841-14.166-1.036-1.244-.938-2.211-.644-5.084.081-.792.178-1.748.276-2.919.341-4.091.551-6.872.629-7.935a1.962,1.962,0,0,0-1.387.146c-2.2,1.057-3.808,5.7-4.242,7.405,0,.015-.018.025-.023.04a.621.621,0,0,1-.126.218.421.421,0,0,1-.041.051c-.006.006-.009.016-.017.022-.081.071-1.659,1.521-1.21,5.488a11.874,11.874,0,0,0,2.292,5.034.642.642,0,0,1-.1.9.638.638,0,0,1-.4.141.638.638,0,0,1-.5-.241,12.974,12.974,0,0,1-2.566-5.69c-.387-3.423.6-5.3,1.217-6.114A39.608,39.608,0,0,0,187.883-120.26ZM83.2-240.2c13.434-.456,18.105,11.538,18.105,11.538a11.631,11.631,0,0,1,7.808,4.742h19.711a17.071,17.071,0,0,1,17.048,17.054h0v94.043a17.071,17.071,0,0,1-17.048,17.054H36.6a23.407,23.407,0,0,1-9.39,4.071,7.638,7.638,0,0,1-1.1.072,14.607,14.607,0,0,1-9.837-4.182A17.058,17.058,0,0,1,0-112.826H0v-94.043a17.07,17.07,0,0,1,17.048-17.054H60.577c1.067-1.616,1.945-3.22,2.817-4.55C67.947-235.421,72.734-239.849,83.2-240.2ZM59.678-222.639H17.048A15.784,15.784,0,0,0,1.284-206.869h0v94.043a15.766,15.766,0,0,0,13.691,15.6,20.473,20.473,0,0,1-3.845-8.009c-1.63-6.426-.513-12.823.712-17.059a.642.642,0,0,1,.8-.438.644.644,0,0,1,.437.8c-1.181,4.082-2.26,10.238-.7,16.385,2.943,11.6,11.788,13.008,14.646,12.581,3.13-.461,11.747-3.212,24.143-18.782h0l.779-.977c2.086-2.615,4.944-6.195,6.659-8.609a.639.639,0,0,1,.895-.152.644.644,0,0,1,.152.9c-1.737,2.443-4.607,6.04-6.7,8.666h0l-.779.976A76.893,76.893,0,0,1,38.4-97.057h86.174c1-1.336,1.943-2.756,2.821-4.1a81.7,81.7,0,0,0,5.453-10,.645.645,0,0,1-.09-.225.641.641,0,0,1,.511-.749c1.83-.347,2.255-3.134,2.289-5.412.095-6.358-.609-9.145-2.593-10.28-.809-.462-3.679-1.383-13.827-2.359h0l-.381-.037c-2.423-.235-2.448-.2-2.635.1a1.742,1.742,0,0,0,.315,1.98h0l13.345,3.445a.644.644,0,0,1,.462.783.644.644,0,0,1-.621.481.639.639,0,0,1-.161-.02h0L116-126.925a1.229,1.229,0,0,0-.806.28.789.789,0,0,0-.185.667c.031.53,1.007,1.588,1.7,2.187h0l12.241,4.456a.642.642,0,0,1,.384.823.642.642,0,0,1-.6.422.634.634,0,0,1-.219-.039h0L116.4-122.543a.576.576,0,0,0-.278.294,2.056,2.056,0,0,0,.5,1.559c.158.233,1.423,1.381,11.007,6.337a.643.643,0,0,1,.276.865.643.643,0,0,1-.865.276c-.719-.373-1.385-.72-2.015-1.051h0l-1.436,2.666a1.748,1.748,0,0,1-1.373.841h0L99.29-108.695c-.021.03-.055.069-.08.1h0l-.045.12a.618.618,0,0,1-.363.342,5.774,5.774,0,0,1-4.215,1.543l-.218,0c-2.757-.069-3.942-.92-4.407-1.43h0l-29.87.292a1.464,1.464,0,0,1-1.245-.611,1.013,1.013,0,0,1-.064-1h0l8.248-17.21a29.836,29.836,0,0,1-8.428,1.224,21.881,21.881,0,0,1-3.015-.18.641.641,0,0,1-.538-.729.651.651,0,0,1,.729-.54,28.088,28.088,0,0,0,11.653-1.239.636.636,0,0,1,.307-.017h0l1.841-3.841H62.448a.642.642,0,0,1-.642-.642.642.642,0,0,1,.642-.643h7.733a.118.118,0,0,1,.015,0h0l1.377-2.873-6.049-.513a.642.642,0,0,1-.585-.693.642.642,0,0,1,.693-.586h0l6.534.553.241-.5a1.6,1.6,0,0,1,1.311-.832h0l.081-.2a61.9,61.9,0,0,0-7.1-2.158c-4.773-1.057-6.735.289-11.131,4.407-1.393,1.3-4.591,3.77-8.369,6.57a.607.607,0,0,1-.387.287c-1.022.756-2.082,1.534-3.158,2.318L43-126.9l-.325.236-.65.472-.977.707-.651.47c-6.714,4.842-13.116,9.322-13.624,9.677a.644.644,0,0,1-.367.116.642.642,0,0,1-.527-.274.643.643,0,0,1,.158-.894c.1-.068,4.081-2.855,9.082-6.424-.3,0-.61-.013-.937-.026a65.661,65.661,0,0,1-13.117-2.742l-.063-.022a43.109,43.109,0,0,1-5.734-2.728c-.178-.11-.3-.191-.3-.191h0l-.007.014c-.837-.485-1.679-1-2.525-1.563a.643.643,0,0,1-.247-.749c.06-.167,3.632-10.048,8.835-20.709-2.335-.079-5.652-.97-9.968-4.066-9.307-6.675-9.206-20.38-2.385-27.473,5.54-5.76,13.055-7.165,18-8.564,5.273-1.491,5.592-5.077,6.022-9.132l.051-.479q.039-.361.083-.726c1.144-9.434,6.659-12.242,16.681-14.053a15.6,15.6,0,0,0,10.169-6.62Zm69.149,0H109.817a10.259,10.259,0,0,1,.621,1.7c1.755,6.715.114,9.592-1.186,12.128l-.164.322h0l-.158.32a10.747,10.747,0,0,0-.6,1.458c-1.053,3.337,2.459,6.675,5.443,8.783s3.161,8.432-.878,10.715-2.107,4.567,1.229,7.2,5.443,4.743,4.038,11.242a4.414,4.414,0,0,1-3.321,3.433,44.034,44.034,0,0,1,5.935,11.5c1.265,3.53,2.259,6.58,3.034,9.088,5.353-.27,7.7-.424,7.735-.426a.629.629,0,0,1,.6.331h0l2.739,4.982,1.8-.124a1.389,1.389,0,0,1,1.287.559.979.979,0,0,1,.052,1.02h0l-4.964,9.215a4.468,4.468,0,0,1,.538.253c2.5,1.427,3.344,4.414,3.241,11.413-.063,4.189-1.325,5.831-2.6,6.419a84.112,84.112,0,0,1-5.767,10.652c-.727,1.112-1.512,2.266-2.325,3.4h2.679a15.784,15.784,0,0,0,15.764-15.769h0v-94.043a15.784,15.784,0,0,0-15.764-15.769Zm7.9,83.937-26.806,1.853-1.217,3.211a.641.641,0,0,1-.6.414.637.637,0,0,1-.227-.041.641.641,0,0,1-.372-.828h0l.652-1.721a9.239,9.239,0,0,1-2.668.466,6.759,6.759,0,0,1-4.034-.82h0l-5.627,14.748a.642.642,0,0,1-.6.413.643.643,0,0,1-.229-.041.643.643,0,0,1-.371-.83h0l5.638-14.777-26.264-.69a.615.615,0,0,0-.445.139h0l-13.51,28.191a.143.143,0,0,0,.029,0h0l29.755-.29,1.44-3.774a.642.642,0,0,1,.828-.371.642.642,0,0,1,.371.829h0l-1.463,3.835c.324.286,1.233.856,3.391.91a4.514,4.514,0,0,0,3.685-1.373h0L103.91-124.6a.642.642,0,0,1,.826-.373.641.641,0,0,1,.373.828h0l-5.356,14.123,22.329-2.009a.535.535,0,0,0,.373-.168h0l1.433-2.66c-7.621-4.049-8.14-4.814-8.341-5.121a3.026,3.026,0,0,1-.619-2.747,1.76,1.76,0,0,1,.394-.6,4.835,4.835,0,0,1-1.589-2.572,2.078,2.078,0,0,1,.558-1.65,2.093,2.093,0,0,1,.709-.461,2.765,2.765,0,0,1,.038-2.787c.631-1.008,1.25-.948,3.846-.7h0l.381.037a84.636,84.636,0,0,1,12.565,1.858h0Zm35.613,17.673a1.534,1.534,0,0,0-.981-.129.7.7,0,0,0-.414.4c-.674,1.35,1.212,3.932,1.993,4.815a38.14,38.14,0,0,1,7.3,6.075,19.3,19.3,0,0,1,1.4-2.2c-.657-.665-1.841-1.872-3.018-3.116l-.5-.534q-.25-.267-.492-.53A44.8,44.8,0,0,0,172.342-121.029Zm78.254,1.716a.639.639,0,0,1,.757.5l0,.014c0,.019.014.053.028.1l.036.112a6.132,6.132,0,0,0,2.613,3.053c2.258,1.438,6.793,2.738,15.562.764a.641.641,0,0,1,.768.485.643.643,0,0,1-.486.768,38.488,38.488,0,0,1-8.347,1.05,15.008,15.008,0,0,1-8.241-2.019,7.011,7.011,0,0,1-3.191-4.066A.641.641,0,0,1,250.6-119.312Zm-75.075-5.336a1.79,1.79,0,0,0-1.917-.365c-.87.5-.59,2.257-.374,3.048a45.655,45.655,0,0,1,5.345,4.851q.244.265.5.534l.506.538c1.1,1.164,2.206,2.291,2.871,2.964a19.934,19.934,0,0,1,2.4-2.4s0,0,0,0h0l-.023-.024c-.149-.155-1.012-1.047-1.99-2.042l-.3-.3-.15-.152-.3-.3h0l-.149-.15c-3.482-3.5-6.373-6.161-6.4-6.187h0Zm-78.14-95.775c-3.447,2.76-8.37,3.314-14.219,4.994a12.787,12.787,0,0,0-6.781,4.12c-1.264,1.494-2.5,1.626-3.209.829a4.782,4.782,0,0,1-.9-2.482c-.008-.057-.014-.1-.02-.156h0l-.276.118-.3-.388a5.287,5.287,0,0,0-3.155-1.646,4.663,4.663,0,0,0-4.071,1.832,4.319,4.319,0,0,0-.8,1.627c-.007.032-.01.066-.017.1a4.436,4.436,0,0,0-.086.5c-.008.073,0,.149-.009.224-.006.131-.017.26-.014.392,0,.11.02.221.031.332s.013.2.029.3c.023.144.061.29.1.436.017.071.026.141.046.212a6.221,6.221,0,0,0,.227.659,5.592,5.592,0,0,0,.354.722c.026.045.057.086.084.129a5.565,5.565,0,0,0,.357.521c.019.025.041.047.062.071a5.544,5.544,0,0,0,.453.494l0,0a6.377,6.377,0,0,0,2.072,1.287c.122.048.242.1.37.141.079.028.157.05.236.074.206.063.415.122.634.171a10.152,10.152,0,0,0,2.692.256.648.648,0,0,1,.69.59.642.642,0,0,1-.59.69,10.936,10.936,0,0,1-2.316-.124c-.272,2.281-1.17,9.569-2.01,13.662l-.02.1c-.07.336-.139.652-.208.937-.913,3.817-5.6,4.758-7.577,4.986,1.013,2.5,4.877,10.372,13.777,11.624a26.216,26.216,0,0,0,3.726.262h0a.643.643,0,0,1,.647.636.642.642,0,0,1-.636.647h-.2a26.79,26.79,0,0,1-3.715-.275c-10.055-1.415-14.106-10.6-14.934-12.795l-.2.018c-.117.012-.225.021-.367.038l-.089.011a29.7,29.7,0,0,0-3.894.749h0l-.129.032c-.3.078-.622.175-.941.268-.172.051-.338.1-.515.152-.282.087-.578.19-.872.29-.236.08-.468.157-.71.245-.278.1-.566.215-.852.327s-.554.219-.838.338-.562.246-.847.374c-.308.139-.618.283-.932.435-.28.136-.562.28-.847.426-.332.172-.667.353-1,.541-.28.156-.561.315-.845.482-.351.208-.7.429-1.059.656-.28.178-.56.355-.841.546-.367.248-.736.515-1.106.783-.273.2-.546.393-.82.6-.388.3-.777.622-1.165.946-.258.214-.514.419-.772.643-.43.378-.857.786-1.285,1.2-.214.2-.428.394-.641.607-.639.639-1.273,1.312-1.9,2.029-.418.479-.84,1-1.264,1.529-.114.144-.227.286-.34.433-.4.52-.811,1.058-1.222,1.626-.1.147-.211.3-.316.451-.308.434-.617.885-.929,1.346-.174.258-.347.514-.519.776-.341.52-.686,1.06-1.031,1.612-.226.362-.451.73-.675,1.1-.172.285-.345.576-.518.868q-.616,1.038-1.217,2.1l-.317.563q-.727,1.305-1.429,2.633l-.145.274a227.022,227.022,0,0,0-10.932,24.708,40.752,40.752,0,0,0,23.4,6.723c3.029-2.17,6.282-4.523,9.2-6.684.479-1.32,2.407-6.707,4.024-12.308l.234-.821h0l.229-.821c.638-2.325,1.194-4.622,1.541-6.617a.645.645,0,0,1,.742-.523.642.642,0,0,1,.523.742c-1.06,6.1-4.027,14.945-5.438,18.969,3.031-2.271,5.508-4.205,6.66-5.283,3.558-3.334,5.813-5.032,9.146-5.074h0l-7.807-11.605a2.631,2.631,0,0,1-.462-2.047,3.469,3.469,0,0,1,2-2.244,3.371,3.371,0,0,1,4.276.912h0l11.174,17.1c.445.154.857.3,1.274.453h0l1.491-3.617a.64.64,0,0,1,.594-.4h.165c1.16.007,8.357.049,14.081.092,7.354.056,11.667,2.425,13.733,4-2.377-14.753-5.8-22.737-7.105-25.381l-.094-.188c-.268-.535-.425-.8-.434-.816a.645.645,0,0,1,.216-.882.642.642,0,0,1,.882.215,31.131,31.131,0,0,1,1.9,4.033l.167.415a107.877,107.877,0,0,1,5.773,22.619c1.32-1.7,4.392-4.217,11.144-4.527,2.159-.1,4.04-.189,5.691-.271-.756-2.433-1.714-5.356-2.919-8.722a41.675,41.675,0,0,0-6.127-11.633,17.339,17.339,0,0,1-5.182-.325,16.993,16.993,0,0,1-5.056-1.417c-.746-.27-1.42-.54-1.981-.787-3.932-1.731-17.064-10.5-15.687-16.155a41.251,41.251,0,0,0,.75-4.593,15.636,15.636,0,0,1-9.378-4.561,25.654,25.654,0,0,1-4.624-6.971.642.642,0,0,1,.311-.853.64.64,0,0,1,.852.31,24.344,24.344,0,0,0,4.367,6.6,14.123,14.123,0,0,0,9.718,4.26h.043c3.866,0,8.833-2.821,11.235-10.748a52.478,52.478,0,0,0,1.806-11.208,2.71,2.71,0,0,0-3.432-.364l-.033.022a.641.641,0,0,1-.893-.16.641.641,0,0,1,.16-.894,4.041,4.041,0,0,1,4.289-.146c.018-.347.036-.7.048-1.029C99.823-218.788,97.382-220.423,97.382-220.423ZM260.658-141l.093.009a.642.642,0,0,1,.513.473,5.627,5.627,0,0,1-3.733,6.512.632.632,0,0,1-.237.046.642.642,0,0,1-.6-.4.642.642,0,0,1,.358-.834,4.346,4.346,0,0,0,3.029-3.657,6.683,6.683,0,0,1-6.734,1.073.642.642,0,0,1-.4-.815.642.642,0,0,1,.815-.4,5.341,5.341,0,0,0,6.343-1.719.647.647,0,0,1,.642-.276Zm-129.435-2.865c-1.3.08-5.746.344-14.365.739-8.879.407-10.713,4.747-10.876,5.188l-.011.03a.645.645,0,0,1-.493.427.641.641,0,0,1-.612-.222c-.04-.049-4.1-4.836-14.257-4.912l-3.026-.022-.771-.005c-4.366-.03-8.663-.055-10.011-.063h0L75.108-138.6l26.465.7.178.315s.762,1.094,3.683.958c2.888-.13,3.452-1.1,3.458-1.108h0l.153-.366.381,0,24.053-1.663Zm146.237-1.254a.64.64,0,0,1,.778.468,3.03,3.03,0,0,1-.344,2.314,3.035,3.035,0,0,1-1.879,1.393,3.089,3.089,0,0,1-.746.093,3.034,3.034,0,0,1-1.567-.437.642.642,0,0,1-.22-.881.643.643,0,0,1,.881-.22,1.775,1.775,0,0,0,1.342.2,1.763,1.763,0,0,0,1.09-.807,1.764,1.764,0,0,0,.2-1.342A.642.642,0,0,1,277.46-145.123ZM59.183-157.582a2.173,2.173,0,0,0-1.021.271,2.35,2.35,0,0,0-1.339,1.361,1.378,1.378,0,0,0,.232,1.026h0l.027.035,8.362,12.433c.489.062.984.133,1.529.254,1.311.291,2.718.69,4.088,1.122h0L60.8-156.792A2.22,2.22,0,0,0,59.183-157.582Zm202.522,4.165-.187,0a5.087,5.087,0,0,0-3.563,1.628,5.088,5.088,0,0,0-1.369,3.672,5.089,5.089,0,0,0,1.626,3.565,5.114,5.114,0,0,0,3.67,1.37,5.085,5.085,0,0,0,3.563-1.628,5.088,5.088,0,0,0,1.37-3.671,5.09,5.09,0,0,0-1.627-3.566A5.08,5.08,0,0,0,261.706-153.416ZM246.667-156.1l-.18,0h0c-.482,2.848-.975,6.318-1.194,9.626a4.868,4.868,0,0,0,1.546.213,4.89,4.89,0,0,0,3.426-1.564,4.888,4.888,0,0,0,1.317-3.53,4.9,4.9,0,0,0-1.564-3.428A4.886,4.886,0,0,0,246.667-156.1Zm-1.7,1.308h-1.589c-.1.092-.222.157-.317.26a4.888,4.888,0,0,0-1.317,3.53,4.891,4.891,0,0,0,1.564,3.427,4.993,4.993,0,0,0,.731.559c.192-2.665.548-5.365.929-7.776Zm14.731,3.716.119.009a1.466,1.466,0,0,1,1,1.774c-.126.884-.778,1.521-1.456,1.424a1.466,1.466,0,0,1-1-1.774c.126-.883.778-1.521,1.456-1.424Zm-11.009-2.176.108.011c.61.1.985.9.837,1.779s-.763,1.51-1.373,1.407-.985-.9-.837-1.779.763-1.51,1.373-1.407Zm12.364-4.611a4.612,4.612,0,0,1,5.581,1.748.642.642,0,0,1-.224.88.644.644,0,0,1-.328.09.637.637,0,0,1-.549-.311l-.009-.014-.038-.056a3.343,3.343,0,0,0-4.021-1.123.637.637,0,0,1-.814-.4A.641.641,0,0,1,261.053-157.868Zm-13.79-1.207a3.888,3.888,0,0,1,5.042.289.643.643,0,0,1,.017.909.643.643,0,0,1-.462.2.633.633,0,0,1-.443-.179,2.6,2.6,0,0,0-3.4-.18.641.641,0,0,1-.9-.138A.643.643,0,0,1,247.263-159.075ZM83.054-173.257a.641.641,0,0,1,.871.257.641.641,0,0,1-.257.87,12.326,12.326,0,0,1-3.207,1.182.629.629,0,0,1-.142.016.639.639,0,0,1-.625-.5.641.641,0,0,1,.484-.767A11.117,11.117,0,0,0,83.054-173.257Zm.21-25.713a.642.642,0,0,1,.562.431,5.509,5.509,0,0,0,5.927,3.345.641.641,0,0,1,.69.588.642.642,0,0,1-.589.691,6.92,6.92,0,0,1-6.088-2.332,7.346,7.346,0,0,0,1.037,2.313.64.64,0,0,1-.191.886.634.634,0,0,1-.347.1.641.641,0,0,1-.539-.294c-2.11-3.273-1.121-5.3-1.078-5.383A.657.657,0,0,1,83.264-198.97Zm9.526-5.254a.638.638,0,0,1,.778-.464.642.642,0,0,1,.467.778,10.724,10.724,0,0,0-.115,3.768h0l.413,1.74a1.27,1.27,0,0,1-.2,1.191,1.252,1.252,0,0,1-1.01.484c-.054,0-.11,0-.167-.009h0l-1.754-.17a.641.641,0,0,1-.577-.7.645.645,0,0,1,.7-.578h0l1.765.171L92.66-199.9A11.935,11.935,0,0,1,92.79-204.224Zm4.176-2.31c.444-.676,1.147-.78,1.57-.233a2.052,2.052,0,0,1-.036,2.215c-.444.676-1.146.78-1.57.232A2.051,2.051,0,0,1,96.966-206.533Zm-9.368-.681a1.006,1.006,0,0,1,1.681-.132,1.949,1.949,0,0,1-.122,2.215,1.006,1.006,0,0,1-1.681.132A1.948,1.948,0,0,1,87.6-207.214Zm-18.759-5.955.207.011a3.117,3.117,0,0,1,2.124,1.114.642.642,0,0,1-.082.9.641.641,0,0,1-.9-.081,1.833,1.833,0,0,0-1.253-.658,1.858,1.858,0,0,0-1.352.422,1.838,1.838,0,0,0-.657,1.255,1.841,1.841,0,0,0,.421,1.352,1.844,1.844,0,0,0,1.254.657.643.643,0,0,1,.582.7.643.643,0,0,1-.639.585l-.059,0a3.118,3.118,0,0,1-2.124-1.114,3.118,3.118,0,0,1-.714-2.291,3.115,3.115,0,0,1,1.114-2.125,3.135,3.135,0,0,1,2.289-.714Zm15.2.84A4.737,4.737,0,0,1,90-213.091a.643.643,0,0,1,.252.873.644.644,0,0,1-.872.252,3.415,3.415,0,0,0-4.37.476.639.639,0,0,1-.485.223.639.639,0,0,1-.42-.157A.642.642,0,0,1,84.037-212.329Z" transform="translate(0 240.216)"/></clipPath><clipPath id="bh"><path class="b" d="M-208,472.949H1233.517V-550H-208Z" transform="translate(208 550)"/></clipPath><clipPath id="bi"><rect class="b" width="395.416" height="395.594"/></clipPath><clipPath id="bj"><path class="a" d="M189.926-84.282h1.284v-3.862c-.459-.846-.888-1.645-1.284-2.39Z" transform="translate(-189.926 90.534)"/></clipPath><clipPath id="bk"><path class="b" d="M0-27.22H336.354V-241H0Z" transform="translate(0 241)"/></clipPath><clipPath id="bl"><path class="a" d="M258.09-149.555a1.466,1.466,0,0,0,1,1.774c.678.1,1.33-.54,1.456-1.424a1.466,1.466,0,0,0-1-1.774c-.678-.1-1.33.541-1.456,1.424" transform="translate(-258.069 150.989)"/></clipPath><clipPath id="bn"><path class="a" d="M144.591-112.826a15.784,15.784,0,0,1-15.764,15.769h-2.679c.813-1.132,1.6-2.286,2.325-3.4a84.112,84.112,0,0,0,5.767-10.652c1.279-.587,2.542-2.23,2.6-6.419.1-7-.744-9.986-3.241-11.413a4.468,4.468,0,0,0-.538-.253l4.964-9.215a.979.979,0,0,0-.052-1.02,1.389,1.389,0,0,0-1.287-.559l-1.8.124-2.739-4.982a.629.629,0,0,0-.6-.331c-.031,0-2.382.156-7.735.426-.775-2.509-1.77-5.559-3.034-9.088a44.034,44.034,0,0,0-5.935-11.5,4.414,4.414,0,0,0,3.321-3.433c1.405-6.5-.7-8.607-4.038-11.242s-5.268-4.918-1.229-7.2,3.863-8.607.878-10.715-6.5-5.445-5.443-8.783,4.348-5.655,2.107-14.228a10.259,10.259,0,0,0-.621-1.7h19.009a15.784,15.784,0,0,1,15.764,15.769ZM71.06-141.08c-1.369-.433-2.776-.831-4.088-1.122-.545-.121-1.04-.192-1.529-.254L57.081-154.89l-.027-.035a1.378,1.378,0,0,1-.232-1.026,2.35,2.35,0,0,1,1.339-1.361,2.173,2.173,0,0,1,1.021-.271,2.22,2.22,0,0,1,1.612.79Zm45.738-3.332c-6.752.309-9.824,2.823-11.144,4.527-3.006-18.871-7.635-26.731-7.838-27.066a.642.642,0,0,0-.882-.215.645.645,0,0,0-.216.882c.049.079,4.661,7.944,7.633,26.385-2.066-1.579-6.379-3.948-13.733-4-6.244-.047-14.242-.093-14.242-.093h0a.64.64,0,0,0-.594.4l-1.491,3.617c-.417-.15-.828-.3-1.274-.453l-11.174-17.1a3.371,3.371,0,0,0-4.276-.912,3.469,3.469,0,0,0-2,2.244,2.631,2.631,0,0,0,.462,2.047l7.807,11.605c-3.332.041-5.588,1.739-9.146,5.074-1.152,1.078-3.629,3.012-6.66,5.283,1.411-4.023,4.378-12.868,5.438-18.969a.642.642,0,0,0-.523-.742.645.645,0,0,0-.742.523c-1.265,7.275-5.3,18.571-6.027,20.567-2.92,2.161-6.173,4.514-9.2,6.684a40.752,40.752,0,0,1-23.4-6.723A227.022,227.022,0,0,1,24.5-155.563l.145-.274q.7-1.326,1.429-2.633l.317-.563q.6-1.065,1.217-2.1c.173-.292.346-.584.518-.868.224-.369.448-.737.675-1.1.345-.552.689-1.092,1.031-1.612.172-.262.345-.518.519-.776.311-.461.62-.911.929-1.346.1-.149.211-.3.316-.451.411-.568.818-1.106,1.222-1.626.113-.146.226-.289.34-.433.424-.533.847-1.051,1.264-1.529.627-.717,1.261-1.39,1.9-2.029.214-.213.428-.4.641-.607.428-.41.855-.818,1.285-1.2.258-.225.514-.429.772-.643.388-.323.777-.647,1.165-.946.274-.211.547-.405.82-.6.37-.269.739-.536,1.106-.783.282-.191.561-.368.841-.546.354-.226.709-.447,1.059-.656.283-.168.565-.327.845-.482.338-.188.673-.369,1-.541.284-.146.567-.29.847-.426.315-.152.624-.3.932-.435.284-.128.569-.256.847-.374s.562-.229.838-.338.574-.226.852-.327c.242-.087.475-.165.71-.245.294-.1.591-.2.872-.29.178-.055.343-.1.515-.152.319-.093.641-.19.941-.268l.129-.032a29.7,29.7,0,0,1,3.894-.749l.089-.011c.142-.017.25-.026.367-.038l.2-.018c.828,2.19,4.879,11.38,14.934,12.795a26.79,26.79,0,0,0,3.715.275h.2a.642.642,0,0,0,.636-.647.642.642,0,0,0-.642-.636h0a26.216,26.216,0,0,1-3.726-.262c-8.9-1.252-12.764-9.124-13.777-11.624,1.979-.228,6.664-1.169,7.577-4.986.069-.285.138-.6.208-.937l.02-.1c.84-4.093,1.737-11.381,2.01-13.662a10.936,10.936,0,0,0,2.316.124.642.642,0,0,0,.59-.69.648.648,0,0,0-.69-.59,10.152,10.152,0,0,1-2.692-.256c-.219-.05-.428-.109-.634-.171-.078-.024-.156-.046-.236-.074-.128-.043-.248-.093-.37-.141a6.377,6.377,0,0,1-2.072-1.287l0,0a5.544,5.544,0,0,1-.453-.494c-.02-.024-.042-.046-.062-.071a5.565,5.565,0,0,1-.357-.521c-.027-.043-.058-.084-.084-.129a5.592,5.592,0,0,1-.354-.722,6.221,6.221,0,0,1-.227-.659c-.02-.071-.029-.141-.046-.212-.036-.146-.074-.293-.1-.436-.016-.1-.018-.2-.029-.3s-.028-.223-.031-.332c0-.133.007-.261.014-.392,0-.075,0-.151.009-.224a4.436,4.436,0,0,1,.086-.5c.007-.032.01-.066.017-.1a4.319,4.319,0,0,1,.8-1.627,4.663,4.663,0,0,1,4.071-1.832,5.287,5.287,0,0,1,3.155,1.646l.3.388.276-.118c.006.053.012.1.02.156a4.782,4.782,0,0,0,.9,2.482c.711.8,1.945.666,3.209-.829a12.787,12.787,0,0,1,6.781-4.12c5.849-1.68,10.772-2.234,14.219-4.994,0,0,2.441,1.635,3.373,6.372-.012.33-.03.682-.048,1.029a4.041,4.041,0,0,0-4.289.146.641.641,0,0,0-.16.894.641.641,0,0,0,.893.16,2.721,2.721,0,0,1,3.466.342,52.478,52.478,0,0,1-1.806,11.208c-2.4,7.927-7.369,10.748-11.235,10.748h-.043a14.123,14.123,0,0,1-9.718-4.26,24.344,24.344,0,0,1-4.367-6.6.64.64,0,0,0-.852-.31.642.642,0,0,0-.311.853,25.654,25.654,0,0,0,4.624,6.971,15.636,15.636,0,0,0,9.378,4.561,41.251,41.251,0,0,1-.75,4.593c-1.377,5.654,11.755,14.424,15.687,16.155.561.247,1.235.517,1.981.787a16.993,16.993,0,0,0,5.056,1.417,17.339,17.339,0,0,0,5.182.325A41.675,41.675,0,0,1,119.57-153.4c1.2,3.366,2.163,6.289,2.919,8.722-1.651.082-3.532.171-5.691.271Zm-7.372,6.311-.381,0-.153.366c-.006.01-.571.979-3.458,1.108-2.921.135-3.681-.958-3.683-.958l-.178-.315-26.465-.7L76.8-142.71c1.744.009,8.428.049,13.808.09,10.162.076,14.217,4.864,14.257,4.912a.641.641,0,0,0,.612.222.645.645,0,0,0,.493-.427c.066-.2,1.73-4.8,10.887-5.217,8.619-.395,13.07-.659,14.365-.739l2.256,4.105ZM115-128.014a2.093,2.093,0,0,0-.709.461,2.078,2.078,0,0,0-.558,1.65,4.835,4.835,0,0,0,1.589,2.572,1.76,1.76,0,0,0-.394.6,3.026,3.026,0,0,0,.619,2.747c.2.307.721,1.072,8.341,5.121l-1.433,2.66a.535.535,0,0,1-.373.168l-22.329,2.009,5.356-14.123a.641.641,0,0,0-.373-.828.642.642,0,0,0-.826.373l-5.823,15.358a4.514,4.514,0,0,1-3.685,1.373c-2.158-.053-3.067-.623-3.391-.91l1.463-3.835a.642.642,0,0,0-.371-.829.642.642,0,0,0-.828.371l-1.44,3.774-29.755.29a.143.143,0,0,1-.029,0L73.562-137.2a.615.615,0,0,1,.445-.139l26.264.69-5.638,14.777a.643.643,0,0,0,.371.83.643.643,0,0,0,.229.041.642.642,0,0,0,.6-.413l5.627-14.748a6.759,6.759,0,0,0,4.034.82,9.239,9.239,0,0,0,2.668-.466l-.652,1.721a.641.641,0,0,0,.372.828.637.637,0,0,0,.227.041.641.641,0,0,0,.6-.414l1.217-3.211L136.73-138.7l-4.9,9.1a84.636,84.636,0,0,0-12.565-1.858l-.381-.037c-2.6-.251-3.214-.311-3.846.7a2.765,2.765,0,0,0-.038,2.787Zm-5.214,30.957H38.4a76.893,76.893,0,0,0,13.763-13.9l.779-.976c2.1-2.626,4.966-6.223,6.7-8.666a.644.644,0,0,0-.152-.9.639.639,0,0,0-.895.152c-1.715,2.414-4.573,5.994-6.659,8.609l-.779.977C38.767-96.183,30.15-93.432,27.02-92.971c-2.858.426-11.7-.984-14.646-12.581-1.56-6.147-.48-12.3.7-16.385a.644.644,0,0,0-.437-.8.642.642,0,0,0-.8.438c-1.225,4.236-2.342,10.633-.712,17.059a20.473,20.473,0,0,0,3.845,8.009,15.766,15.766,0,0,1-13.691-15.6v-94.043a15.784,15.784,0,0,1,15.764-15.769h42.63a15.6,15.6,0,0,1-10.169,6.62c-10.022,1.811-15.537,4.62-16.681,14.053-.55,4.537-.366,8.7-6.157,10.337-4.946,1.4-12.461,2.8-18,8.564-6.821,7.093-6.921,20.8,2.385,27.473,4.316,3.1,7.634,3.986,9.968,4.066-5.2,10.661-8.776,20.542-8.835,20.709a.643.643,0,0,0,.247.749c.846.568,1.688,1.078,2.525,1.563l.007-.014s.126.081.3.191a43.109,43.109,0,0,0,5.734,2.728l.063.022a65.661,65.661,0,0,0,13.117,2.742c.327.013.638.021.937.026-5,3.569-8.985,6.356-9.082,6.424a.643.643,0,0,0-.158.894.642.642,0,0,0,.527.274.644.644,0,0,0,.367-.116c.672-.471,11.653-8.154,20.031-14.351a.607.607,0,0,0,.387-.287c3.778-2.8,6.976-5.266,8.369-6.57,4.4-4.118,6.358-5.464,11.131-4.407a61.9,61.9,0,0,1,7.1,2.158l-.081.2a1.6,1.6,0,0,0-1.311.832l-.241.5-6.534-.553a.642.642,0,0,0-.693.586.642.642,0,0,0,.585.693l6.049.513L70.2-133.149a.118.118,0,0,0-.015,0H62.448a.642.642,0,0,0-.642.643.642.642,0,0,0,.642.642h7.134l-1.841,3.841a.636.636,0,0,0-.307.017,28.088,28.088,0,0,1-11.653,1.239.651.651,0,0,0-.729.54.641.641,0,0,0,.538.729,21.881,21.881,0,0,0,3.015.18,29.836,29.836,0,0,0,8.428-1.224l-8.248,17.21a1.013,1.013,0,0,0,.064,1,1.464,1.464,0,0,0,1.245.611l29.87-.292c.465.51,1.65,1.361,4.407,1.43l.218,0A5.774,5.774,0,0,0,98.8-108.13a.618.618,0,0,0,.363-.342l.045-.12c.025-.034.059-.073.08-.1l22.923-2.062a1.748,1.748,0,0,0,1.373-.841l1.436-2.666c.63.331,1.3.679,2.015,1.051a.643.643,0,0,0,.865-.276.643.643,0,0,0-.276-.865c-9.585-4.956-10.849-6.1-11.007-6.337a2.056,2.056,0,0,1-.5-1.559.576.576,0,0,1,.278-.294l12.124,4.413a.634.634,0,0,0,.219.039.642.642,0,0,0,.6-.422.642.642,0,0,0-.384-.823l-12.241-4.456c-.7-.6-1.672-1.657-1.7-2.187a.789.789,0,0,1,.185-.667,1.229,1.229,0,0,1,.806-.28l13.459,3.474a.639.639,0,0,0,.161.02.644.644,0,0,0,.621-.481.644.644,0,0,0-.462-.783l-13.345-3.445a1.742,1.742,0,0,1-.315-1.98c.187-.3.212-.335,2.635-.1l.381.037c10.148.976,13.018,1.9,13.827,2.359,1.984,1.135,2.688,3.922,2.593,10.28-.034,2.279-.458,5.065-2.289,5.412a.641.641,0,0,0-.511.749.645.645,0,0,0,.09.225,81.7,81.7,0,0,1-5.453,10c-.878,1.344-1.825,2.765-2.821,4.1Zm19.042-126.866H109.115a11.631,11.631,0,0,0-7.808-4.742S96.636-240.659,83.2-240.2c-10.468.354-15.255,4.783-19.809,11.731-.871,1.329-1.75,2.934-2.817,4.55H17.048A17.07,17.07,0,0,0,0-206.869v94.043A17.058,17.058,0,0,0,16.273-95.812,14.607,14.607,0,0,0,26.11-91.63a7.638,7.638,0,0,0,1.1-.072,23.407,23.407,0,0,0,9.39-4.071h92.23a17.071,17.071,0,0,0,17.048-17.054v-94.043a17.071,17.071,0,0,0-17.048-17.054Z" transform="translate(0 240.216)"/></clipPath><clipPath id="bp"><path class="a" d="M82.971-173.188a11.117,11.117,0,0,1-2.876,1.057.641.641,0,0,0-.484.767.639.639,0,0,0,.625.5.629.629,0,0,0,.142-.016,12.326,12.326,0,0,0,3.207-1.182.641.641,0,0,0,.257-.87.641.641,0,0,0-.871-.257" transform="translate(-79.595 173.267)"/></clipPath><clipPath id="br"><path class="a" d="M87.506-207.181a1.948,1.948,0,0,0-.122,2.215,1.006,1.006,0,0,0,1.681-.132,1.949,1.949,0,0,0,.122-2.215,1.006,1.006,0,0,0-1.681.132" transform="translate(-87.093 207.708)"/></clipPath><clipPath id="bt"><path class="a" d="M98.4-204.517a2.052,2.052,0,0,0,.036-2.215c-.423-.547-1.126-.443-1.57.233a2.051,2.051,0,0,0-.036,2.214c.424.548,1.126.444,1.57-.232" transform="translate(-96.521 207.083)"/></clipPath><clipPath id="bv"><path class="a" d="M91.1-196.869l1.754.17c.057.006.112.009.167.009a1.252,1.252,0,0,0,1.01-.484,1.27,1.27,0,0,0,.2-1.191l-.413-1.74a10.724,10.724,0,0,1,.115-3.768.642.642,0,0,0-.467-.778.638.638,0,0,0-.778.464,11.935,11.935,0,0,0-.13,4.327l.426,1.885-1.765-.171a.645.645,0,0,0-.7.578.641.641,0,0,0,.577.7" transform="translate(-90.523 204.671)"/></clipPath><clipPath id="bx"><path class="a" d="M84.179-192.9a.634.634,0,0,0,.347-.1.64.64,0,0,0,.191-.886A7.346,7.346,0,0,1,83.68-196.2a6.92,6.92,0,0,0,6.088,2.332.642.642,0,0,0,.589-.691.641.641,0,0,0-.69-.588A5.509,5.509,0,0,1,83.74-198.5a.642.642,0,0,0-.562-.431.657.657,0,0,0-.616.349c-.043.085-1.033,2.11,1.078,5.383a.641.641,0,0,0,.539.294" transform="translate(-82.293 198.928)"/></clipPath><clipPath id="bz"><path class="a" d="M84.435-211.24a.639.639,0,0,0,.485-.223,3.415,3.415,0,0,1,4.37-.476.644.644,0,0,0,.872-.252.643.643,0,0,0-.252-.873,4.737,4.737,0,0,0-5.961.762.642.642,0,0,0,.066.9.639.639,0,0,0,.42.157" transform="translate(-83.793 213.775)"/></clipPath><clipPath id="cb"><path class="a" d="M68.976-213.13a3.135,3.135,0,0,0-2.289.714,3.115,3.115,0,0,0-1.114,2.125A3.118,3.118,0,0,0,66.288-208a3.118,3.118,0,0,0,2.124,1.114l.059,0a.643.643,0,0,0,.639-.585.643.643,0,0,0-.582-.7,1.844,1.844,0,0,1-1.254-.657,1.841,1.841,0,0,1-.421-1.352,1.839,1.839,0,0,1,.657-1.255,1.858,1.858,0,0,1,1.352-.422,1.833,1.833,0,0,1,1.253.658.641.641,0,0,0,.9.081.642.642,0,0,0,.082-.9,3.117,3.117,0,0,0-2.124-1.114" transform="translate(-65.561 213.142)"/></clipPath><clipPath id="cd"><path class="a" d="M229.074-42.3l.016-.123H227.8l-.016.123Z" transform="translate(-227.781 42.423)"/></clipPath><clipPath id="cf"><path class="a" d="M248-149.971c.61.1,1.225-.527,1.373-1.407s-.227-1.676-.837-1.779-1.225.527-1.373,1.407.227,1.676.837,1.779" transform="translate(-247.131 153.168)"/></clipPath><clipPath id="ch"><path class="a" d="M260.485-140.893a.647.647,0,0,0-.642.276A5.341,5.341,0,0,1,253.5-138.9a.642.642,0,0,0-.815.4.642.642,0,0,0,.4.815,6.683,6.683,0,0,0,6.734-1.073,4.346,4.346,0,0,1-3.029,3.657.642.642,0,0,0-.358.834.642.642,0,0,0,.6.4.632.632,0,0,0,.237-.046A5.627,5.627,0,0,0,261-140.42a.641.641,0,0,0-.513-.473" transform="translate(-252.649 140.902)"/></clipPath><clipPath id="cj"><path class="a" d="M260.779-157.784a.641.641,0,0,0-.4.814.637.637,0,0,0,.814.4,3.334,3.334,0,0,1,4.067,1.193.637.637,0,0,0,.549.311.644.644,0,0,0,.328-.09.642.642,0,0,0,.224-.88,4.612,4.612,0,0,0-5.581-1.748" transform="translate(-260.344 158.094)"/></clipPath><clipPath id="cl"><path class="a" d="M247-158.993a.643.643,0,0,0-.138.9.641.641,0,0,0,.9.138,2.6,2.6,0,0,1,3.4.18.633.633,0,0,0,.443.179.643.643,0,0,0,.462-.2.643.643,0,0,0-.017-.909,3.888,3.888,0,0,0-5.042-.289" transform="translate(-246.742 159.794)"/></clipPath><clipPath id="cn"><path class="a" d="M273.413-141.2a3.034,3.034,0,0,0,1.567.437,3.089,3.089,0,0,0,.746-.093,3.035,3.035,0,0,0,1.879-1.393,3.03,3.03,0,0,0,.344-2.314.64.64,0,0,0-.778-.468.642.642,0,0,0-.467.779,1.764,1.764,0,0,1-.2,1.342,1.763,1.763,0,0,1-1.09.807,1.775,1.775,0,0,1-1.342-.2.643.643,0,0,0-.881.22.642.642,0,0,0,.22.881" transform="translate(-273.102 145.045)"/></clipPath><clipPath id="cp"><path class="a" d="M253.026-114.364a15.008,15.008,0,0,0,8.241,2.019,38.488,38.488,0,0,0,8.347-1.05.643.643,0,0,0,.486-.768.641.641,0,0,0-.768-.485c-8.769,1.974-13.3.674-15.562-.764a5.809,5.809,0,0,1-2.681-3.279.639.639,0,0,0-.757-.5.641.641,0,0,0-.5.758,7.011,7.011,0,0,0,3.191,4.066" transform="translate(-249.822 119.202)"/></clipPath><clipPath id="cr"><path class="a" d="M211.726-65.732a2.381,2.381,0,0,1,1.842-.744c.1,0,.205.006.31.015a5.035,5.035,0,0,1,2.839,1.293,5.043,5.043,0,0,1,1.645,2.652,2.49,2.49,0,0,1-.449,2.228,2.519,2.519,0,0,1-2.152.731,5.05,5.05,0,0,1-2.839-1.293,5.049,5.049,0,0,1-1.644-2.653,2.49,2.49,0,0,1,.449-2.229m.348,5.845a6.332,6.332,0,0,0,3.577,1.609c.144.012.285.018.424.018a3.63,3.63,0,0,0,2.8-1.181,3.74,3.74,0,0,0,.74-3.346,6.335,6.335,0,0,0-2.052-3.344,6.319,6.319,0,0,0-3.577-1.61,3.729,3.729,0,0,0-3.226,1.162,3.737,3.737,0,0,0-.74,3.348,6.34,6.34,0,0,0,2.051,3.344" transform="translate(-209.913 67.76)"/></clipPath><clipPath id="ct"><path class="a" d="M314.287-55.331a.642.642,0,0,0-.632-.652A42.675,42.675,0,0,0,297.718-53.2a.642.642,0,0,0-.34.841.641.641,0,0,0,.591.391.634.634,0,0,0,.25-.051A41.687,41.687,0,0,1,313.635-54.7a.675.675,0,0,0,.652-.632" transform="translate(-297.327 55.988)"/></clipPath><clipPath id="cv"><path class="a" d="M334.538-44.923a15.784,15.784,0,0,1-15.763,15.769H303.354l-.861-3.032c1.13-.094,2.127-.2,2.931-.338,7.492-1.237,13.08-3.692,16.608-7.294,3.761-3.84,5.148-8.925,4.122-15.115C324.438-65.28,321.8-70.4,320.917-71.895a23.993,23.993,0,0,0,3.632-3.383l.34-.416-.35-.408c-.683-.8-2.635-3.542-5.336-7.34-4.283-6.023-10.755-15.125-17.985-24.649-8.108-10.683-19.822-13.774-26.1-14.676l-.349-14.512a.648.648,0,0,0-.027-.127,7.08,7.08,0,0,0,5.944-2.756,5.633,5.633,0,0,0,.806-5.806,6.479,6.479,0,0,0-1.945-2.485,4.211,4.211,0,0,0,.5-.928,36.234,36.234,0,0,0,2.347-5.354h36.378a15.784,15.784,0,0,1,15.763,15.77Zm-143.307,0V-55.546l7.023,13.371a1.487,1.487,0,0,0-.121.587v1.812a1.5,1.5,0,0,0,1.494,1.5h25.607c.52.37,1.165.818,1.9,1.309l-1.01,7.818H207a15.785,15.785,0,0,1-15.764-15.769ZM254.725-41.8H281.3a.21.21,0,0,1,.21.211v1.812a.21.21,0,0,1-.21.211H260.342a38.6,38.6,0,0,0-5.617-2.233Zm-55.1,2.233a.21.21,0,0,1-.21-.211v-1.812a.21.21,0,0,1,.21-.211h37.142a2.27,2.27,0,0,0,.145.337,5.878,5.878,0,0,0,2.058,1.9ZM259.3-33.613a.885.885,0,0,0-.186.019c-.135.035-13.387,3.433-19.959,1.386a49.493,49.493,0,0,1-11.654-6.072h13.863a83.151,83.151,0,0,0,12.826,4.246.68.68,0,0,0,.154.018.642.642,0,0,0,.623-.489.642.642,0,0,0-.47-.776c-4.106-1.01-15.068-4.2-16.458-6.787a.594.594,0,0,1-.076-.516c.225-.627,1.9-.96,5.935-.028,1.216.281,2.525.458,3.792.629s2.6.352,3.818.636a35.829,35.829,0,0,1,9.956,3.856.643.643,0,0,0,.885-.2.633.633,0,0,0,.037-.588H281.3a1.5,1.5,0,0,0,1.494-1.5v-1.812a1.5,1.5,0,0,0-1.494-1.5H268.376l28.1-8.731a.644.644,0,0,0,.395-.352.641.641,0,0,0,0-.528l-1.776-3.878c1.759-.89,7.4-3.779,12.546-6.809,5.676-3.338,10.625-6.628,12.251-7.721.888,1.57,3.381,6.629,5,16.38.956,5.764-.314,10.476-3.771,14.006-3.334,3.4-8.685,5.735-15.9,6.927-9.431,1.556-45.546.189-45.909.176Zm-31.883,4.429.906-7.008a46.6,46.6,0,0,0,10.452,5.21,20.106,20.106,0,0,0,5.821.717,68.616,68.616,0,0,0,14.749-2.062c2.193.083,29.092,1.079,41.836.239l.825,2.9Zm28.986-118.869a5.088,5.088,0,0,1,1.369-3.672,5.087,5.087,0,0,1,3.563-1.628l.187,0a5.08,5.08,0,0,1,3.483,1.373,5.091,5.091,0,0,1,1.627,3.566,5.088,5.088,0,0,1-1.37,3.671,5.085,5.085,0,0,1-3.563,1.628,5.114,5.114,0,0,1-3.67-1.37,5.089,5.089,0,0,1-1.626-3.565ZM178.8-83.173a1.148,1.148,0,0,1,.993-.56h51.832a2.746,2.746,0,0,1,2.436,1.472l14.331,27.281a.641.641,0,0,0,.866.27.641.641,0,0,0,.269-.866L235.2-82.857a4.029,4.029,0,0,0-.753-1c1.916-13.132,3.71-21.049,3.734-21.156a.641.641,0,0,0-.481-.769.641.641,0,0,0-.769.482c-.024.1-1.771,7.819-3.661,20.635a4.026,4.026,0,0,0-1.642-.351H219.295c-.841-1.782-1.434-3.171-1.686-3.775,1.671-2.233,12.472-16.618,16.141-20.106,7.869-7.478,14.374-10.695,17.528-11.943.156-.5.312-1.038.446-1.548-2.822.979-9.923,4.069-18.858,12.561-4.041,3.84-16,19.878-16.5,20.559l-.214.288.133.333c.04.1.2.5.469,1.126l-.572.525a93.07,93.07,0,0,1-6.818-8.368c-5.418-7.227-9.788-12.9-10.882-14.218-.671-.805-.642-1.3-.353-4.131.082-.8.18-1.763.278-2.943.445-5.328.666-8.435.666-8.435a.643.643,0,0,0-.374-.631,3.268,3.268,0,0,0-2.882.013c-2.395,1.15-3.933,5.071-4.581,7.065v-20.321A15.785,15.785,0,0,1,207-154.736h34.478a6.138,6.138,0,0,0-1.189,3.834,6.161,6.161,0,0,0,1.971,4.322,6.179,6.179,0,0,0,1.523,1.017c-.062,1.263-.086,2.5-.044,3.659.272,7.748,4.707,11.651,8.767,12.719a15.7,15.7,0,0,0,4.022.554,14.6,14.6,0,0,0,6.842-1.791,21.2,21.2,0,0,0,6.223-5,.643.643,0,0,0-.082-.9.642.642,0,0,0-.9.082,20.15,20.15,0,0,1-5.826,4.68,13.045,13.045,0,0,1-9.949,1.136c-1.249-.329-7.493-2.429-7.812-11.524-.035-1-.022-2.062.026-3.155a6.175,6.175,0,0,0,1.436.188c.076,0,.151,0,.226,0a6.156,6.156,0,0,0,3.358-1.135c-.208.4-.445.808-.725,1.247-1.5,2.339-1.482,2.41-1.415,2.7a.642.642,0,0,0,.465.479l3.315.862a.646.646,0,0,0,.162.02.642.642,0,0,0,.619-.481.641.641,0,0,0-.459-.783l-2.517-.655c.189-.311.475-.773.909-1.454,2.344-3.661,2.243-6.068,2.238-6.168a.671.671,0,0,0-.029-.115,6.165,6.165,0,0,0,.058-.942,6.188,6.188,0,0,0-.15-1.126,2.925,2.925,0,0,1,3.461,1.028,6.344,6.344,0,0,0-.868,3.428,6.363,6.363,0,0,0,2.033,4.46,6.355,6.355,0,0,0,4.357,1.718c.078,0,.156,0,.233,0a6.352,6.352,0,0,0,4.457-2.035,6.361,6.361,0,0,0,1.714-4.591,6.364,6.364,0,0,0-2.035-4.46,6.3,6.3,0,0,0-4.589-1.713,6.356,6.356,0,0,0-4.457,2.035c-.026.028-.043.062-.069.09a4.216,4.216,0,0,0-4.635-1.178,6.2,6.2,0,0,0-1.422-1.975,6.115,6.115,0,0,0-4.186-1.645c.433-2.422.821-4.217.938-4.744a8.382,8.382,0,0,1,.73-.671c2.882-.213,4.8-1.671,6.72-1.777,2.383-.131,6.654,2.816,6.654,2.816s2-.264.982-2.348,4.59,2.761,5.739,4.505a26.006,26.006,0,0,1,3.934,13.322c0,.093.225-.254.561-.723l.849-.511a6.153,6.153,0,0,1,3.406-.791,4.612,4.612,0,0,1,3.275,2.769,4.325,4.325,0,0,1-.654,4.527c-2.652,3.534-7.583,1.873-7.793,1.8a.645.645,0,0,0-.816.394.641.641,0,0,0,.393.817,10.55,10.55,0,0,0,2.082.447.654.654,0,0,0-.04.229l.477,19.819a.643.643,0,0,0,.642.626h.016a.642.642,0,0,0,.626-.657l-.1-4.01c6.106.908,17.294,3.938,25.048,14.155,7.217,9.508,13.683,18.6,17.962,24.618,2.446,3.44,4.173,5.868,5.06,7a28.138,28.138,0,0,1-4.01,3.5c-1.559,1.051-6.512,4.347-12.218,7.7q-.747.439-1.5.872c-5.922,3.3-10.946,5.761-11.054,5.814l-.482.236,0,0a30.33,30.33,0,0,1-10.406,2.782c-.558-1.477-2.5-6.911-5.485-18.3a124.937,124.937,0,0,1-3.59-19.36.636.636,0,0,0-.691-.588.644.644,0,0,0-.589.691,126.561,126.561,0,0,0,3.628,19.583c3.582,13.669,5.62,18.687,5.706,18.894l.169.412.446-.015a31.139,31.139,0,0,0,10.755-2.641l1.234,2.691.177.622-30.947,9.617a.622.622,0,0,0-.151.095h-8.115l-3.225-6.138a.64.64,0,0,0-.866-.27.641.641,0,0,0-.27.866l2.845,5.417h-6.368c-.114-.015-.229-.033-.342-.049-1.295-.175-2.518-.341-3.676-.608-4.3-.992-6.626-.775-7.328.656h-37.7l-20.4-38.827a1.153,1.153,0,0,1,.034-1.139Zm9.119-12.759a.631.631,0,0,0-.239-.26,47.755,47.755,0,0,1-11.131-9.823c-4.476-5.821-4.7-7.135-4.531-8.151.06-.36.151-.517.149-.577a38.623,38.623,0,0,1,7.282,6.155,13.511,13.511,0,0,0-.778,2.1.642.642,0,0,0,.47.776.627.627,0,0,0,.154.018.641.641,0,0,0,.622-.488,16.517,16.517,0,0,1,2.055-4.152,26.048,26.048,0,0,1,5.434-5.516.643.643,0,0,0,.188-.888.641.641,0,0,0-.888-.188c-.365.237-.71.482-1.045.73a.574.574,0,0,0-.072-.111s-1.523-1.578-2.921-2.985c-3.254-3.274-5.965-5.784-6.364-6.152a1.328,1.328,0,0,1-.15-.932,1.172,1.172,0,0,1,.712-.653c1.2-.536,7.4,3.78,10.837,6.833a39.606,39.606,0,0,1,2.945,2.9c-.613.814-1.6,2.691-1.217,6.114a12.974,12.974,0,0,0,2.566,5.69.638.638,0,0,0,.5.241.638.638,0,0,0,.4-.141.642.642,0,0,0,.1-.9,11.874,11.874,0,0,1-2.292-5.034c-.449-3.967,1.129-5.417,1.21-5.488.007-.006.01-.016.017-.022a.421.421,0,0,0,.041-.051.621.621,0,0,0,.126-.218c0-.015.019-.025.023-.04.434-1.7,2.042-6.349,4.242-7.405a1.962,1.962,0,0,1,1.387-.146c-.078,1.063-.288,3.844-.629,7.935-.1,1.171-.2,2.128-.276,2.919-.294,2.872-.392,3.84.644,5.084,1.084,1.3,5.435,6.955,10.841,14.166,5.3,7.067,7.319,8.89,7.4,8.965a.643.643,0,0,0,.86-.006l.7-.641c.172.386.362.806.572,1.26h-24.12c-3.258-5.789-5.8-10.857-5.827-10.915ZM170.769-120.7a.7.7,0,0,1,.414-.4,1.534,1.534,0,0,1,.981.129,44.8,44.8,0,0,1,5.29,4.785c1.452,1.573,3.169,3.325,4.013,4.18a19.3,19.3,0,0,0-1.4,2.2,38.14,38.14,0,0,0-7.3-6.075c-.781-.883-2.667-3.465-1.993-4.815Zm2.658-4.254a1.81,1.81,0,0,1,1.929.376h0c.03.026,2.92,2.683,6.4,6.187,1.391,1.4,2.908,2.97,2.909,2.972s0,0,0,0a19.934,19.934,0,0,0-2.4,2.4c-.87-.88-2.491-2.537-3.873-4.037a45.656,45.656,0,0,0-5.345-4.851c-.216-.791-.5-2.551.374-3.048Zm69.456-29.524c.095-.1.214-.168.317-.26h1.589c-.38,2.41-.736,5.11-.929,7.776a4.993,4.993,0,0,1-.731-.559,4.891,4.891,0,0,1-1.564-3.427,4.888,4.888,0,0,1,1.317-3.53Zm3.423-1.564h0l.18,0a4.886,4.886,0,0,1,3.349,1.32A4.9,4.9,0,0,1,251.4-151.3a4.888,4.888,0,0,1-1.317,3.53,4.89,4.89,0,0,1-3.426,1.564,4.868,4.868,0,0,1-1.546-.213c.218-3.308.711-6.778,1.194-9.626Zm72.469.021H282.817c1.26-4.066,2.111-9.347.3-13.949-3.723-9.44-10.342-9.69-14.056-9.648a26.143,26.143,0,0,0-7.48,1.386,9.627,9.627,0,0,0-7.951-2.612c-5.3.808-6.838,5.663-9.781,7.161s-4.755,1.3-3.668,3.924,2.748,6.469,5.774,6.955c.152.024.283.019.431.037l-.1.112-.035.156c-.048.205-.527,2.33-1.056,5.316a6.168,6.168,0,0,0-2.515,1.162H207a17.07,17.07,0,0,0-17.047,17.054v19.1c-.413-.4-.874-.838-1.391-1.3-.094-.084-9.464-8.254-12.206-7.048a2.368,2.368,0,0,0-1.425,1.459,2.075,2.075,0,0,0-.085.458,2.545,2.545,0,0,0-2.052.224c-1.339.765-1.331,2.506-1.154,3.653a2.294,2.294,0,0,0-.843.094,2,2,0,0,0-1.172,1.047c-.936,1.874.729,4.419,1.681,5.64a2.327,2.327,0,0,0-.548,1.257c-.271,1.631.375,3.416,4.779,9.145A47.929,47.929,0,0,0,186.853-95.2c.444.878,2.639,5.2,5.421,10.178H179.794a2.425,2.425,0,0,0-2.091,1.18,2.425,2.425,0,0,0-.072,2.4l12.317,23.447v13.066A17.069,17.069,0,0,0,207-27.87H318.775a17.07,17.07,0,0,0,17.047-17.054v-94.042a17.07,17.07,0,0,0-17.047-17.054Z" transform="translate(-169.344 180.946)"/></clipPath><clipPath id="cx"><path class="a" d="M7.563-319.392H331.952A35.416,35.416,0,0,1,367.4-284.014V39.947a35.416,35.416,0,0,1-35.452,35.379H7.563A35.416,35.416,0,0,1-27.889,39.947V-284.014A35.416,35.416,0,0,1,7.563-319.392Z" transform="translate(27.889 319.392)"/></clipPath><clipPath id="cz"><path class="a" d="M15.867-181.666c-.061-.035-.066-.108.013-.154-.019.062.181-.022.323-.05l-.336.2Zm-.6.421a1.612,1.612,0,0,1,.174-.139l0,0a1.464,1.464,0,0,0-.176.136Zm-1.391-.441v.029a.218.218,0,0,1-.008-.109c.106-.113.168-.117.207-.1l-.2.18Zm74.9-53.117c.127.024.029.16-.07.168-.325.069-.411-.149-.416-.214l.228.007c-.148-.408-.9-.138-1.336-.218l.231-.233-.5.144c-.086-.085-.133-.243.1-.246-.306-.181-.3.04-.56-.133-.029-.026-.012-.037.017-.044l-.329.045c.07-.05-.032-.193.161-.133-.564-.209-.946.091-1.148-.111l.05-.015c-.808.058-.092.193-.7.4l-.39-.5-.082.193c-.083-.014-.246-.026-.215-.1-.308.145.052.083-.126.216-.4-.166-1.085.119-1.193-.19-.132.154.386.1-.029.22-.147-.338-.482.109-.857-.007.092-.185.448-.134.066-.246-.185.319-.719.013-1.02.116.007.071-.061.117-.155.156a.276.276,0,0,1,.155-.156.252.252,0,0,0-.058-.118c-.084.009-.083.191-.1.275-.22.09-.633.133-.974.259.009-.108-.976.107-1.462.2v-.041c-.014.261-.51.345-.824.535-.037-.133,0-.227.165-.344a2.385,2.385,0,0,0-.319.13.7.7,0,0,1-.322.3l.011-.2a7.489,7.489,0,0,1-1.337.718c.052.16.6.171.138.577-.062-.067-.155-.188-.034-.3-.04.037-.125.16-.234.18l.139-.256c-.259.077-.06.18-.247.275-.058-.112-.179,0-.2-.1.04-.039.186-.049.231-.134a1.29,1.29,0,0,1-.639.156c.055.051.087.146-.054.25-.387.242-.216-.049-.482.035-.052.124-.346.212-.239.379-.106.081-.177.024-.247.014-.14.214-.863.7-.527.693l.055-.027-.025.03c-.512.584-1.281.956-1.766,1.559l-.044-.044a4.763,4.763,0,0,0-.788,1.086c-.088.1-.293.162-.313.069a1.742,1.742,0,0,1-.562.681c.139-.337-.152.029.167-.324-.329.308-.477.32-.649.8-.02-.23-.374.13-.469.328l.288-.17a3.909,3.909,0,0,1-.42.511l-.094-.224c-.782.557-.681,1.571-1.448,1.859-.029.284.385-.332.393-.053-.28.316-.789.481-.869.587-.443.391-.075.619-.5,1.055.107-.018.313.046.1.45-.271.322-.563.229-.456-.022.055-.086.1-.11.121-.092.058-.126.139-.289-.027-.2l.029.089c-.187.123-.523.6-.543.413-.129.3.021.183.191.016-.407.373-.5.682-.882,1.091.086-.048.206-.062.154.009-.552.606-.092.373-.389.836-.279.181-.158-.253-.406.247-.262.223-.2-.064-.176-.208-.179.489-.627.694-.828.894l.113-.242a1.627,1.627,0,0,1-.23.346l.213-.023c-.117.1-.2.205-.246.164-.021.186.275.062.185.393-.189.113-.327.545-.527.472.455-.463-.2-.072.112-.52a.985.985,0,0,1-.244.3c-.032,0-.018-.043,0-.084-.522.367,0,.366-.417.852-.035-.135-.261-.028-.31.067.168-.193.224.029.136.267-.334.253-.241.382-.389.54l.191-.159c.03.139-.112.287-.284.52-.083-.042.132-.233.033-.184-.07.369-.642.388-.845.8-.2.1-.168-.134-.328-.039-.245.452-.489.264-.77.715.212.005.206-.042.049.324l.533-.678-.235.544c.187-.18.321-.452.45-.542-.1.272-.107.227.073.228-.415.087-.409.592-.811.772l-.251-.286c-.572.275-.661.892-1.345,1.315l.24-.111c.014.183-.368.327-.529.538-.06-.114-.213-.049-.346-.042.071.071-.468.334-.377.582l-.383.075c-.554.312-.4.7-.946,1.012.084-.218-.2-.143.094-.45-.172.11-.336.192-.294.266-.143-.01-.407.428-.63.417-.048.09-.007.225-.217.325-.034-.012-.028-.055-.028-.055.029.055-.286.235-.04.271-.736-.065-1.611.788-2.258.613a7.644,7.644,0,0,1-1.306.449c.017-.041-.012-.062.065-.062-.564-.028-.27.428-.927.385-.347-.173.322-.142.11-.2-.143-.406-.723.128-1.214-.074l.108-.035c-.356-.11-.824.233-1.382.254,0,0,.023-.039,0-.063a5.9,5.9,0,0,1-1.568.6c.131-.188.223-.125.09-.271-.233.066.119.242-.339.382-.169-.048-.523-.037-.613-.2l.443-.125c-.281-.163-.576.158-.819.18l0-.1c-.682.2-.6.48-1.318.713l.1.044c-.287.38-.385-.031-.679.325l-.217-.176c-.225.18-.763.627-1.13.95a3.157,3.157,0,0,1,.864-.935c-.255.106-.83.443-.876.644.08-.08.167-.209.28-.234a3.083,3.083,0,0,1-.932.974c-.11-.227-.408-.026-.748.228-.323.275-.654.629-.943.649a16.774,16.774,0,0,0-1.653,2.684c.5-.241-.112.32.282.388-.072.238-.092.331-.125.352l-.006.009h0c-.148.228-.31.459-.44.7-.155.158-.026-.266-.117-.265-.164.564-.217.2-.409.561.152-.048.155.241.045.558l.261-.424c.062.827-.454.634-.353,1.463l-.092-.268c.016.429-.167,1.494.109,1.91-.052.064-.169.145-.179-.03-.138.934.1,2.122-.208,2.809l-.084-.085c0,.175.132.329,0,.526-.037-.018-.082-.086-.1-.008a1.466,1.466,0,0,1-.018.7l-.069-.213c-.3.852-.038,1.4-.191,2.154-.278-.086-.557.559-.737.854l-.034-.026c-.389.931-.464,1.673-.894,2.53a5.074,5.074,0,0,0-.951.921,5.422,5.422,0,0,1-1.188,1.007c.14-.042.122.184.007.3-.2.084-.373.51-.488.265l.066-.034c-.273-.135-.581.141-.892.258l.086.334c-.949-.087-2.307.825-2.933.5-.217.127-.505.179-.72.3l-.021-.18a10.275,10.275,0,0,0-1.789.328l.138-.161c-.46.081-.464.636-.875.741l-.187-.236a6.9,6.9,0,0,0-2.35.624.168.168,0,0,1,.127-.17c-.369.1-1.474.239-1.228.56-.081-.229-.8.233-1.182.467l.008-.191a1.775,1.775,0,0,1-.731.651c-.09.018-.129-.042-.075-.082-.275.082-.2.255-.643.338l.13-.173c-.4.146-.349.181-.5.4-.205.185-.731.32-.861.205a.563.563,0,0,1-.395.406c-.06-.039,0-.113.035-.15-.7.209-.793.722-1.3.817a.135.135,0,0,0-.129-.045,9.49,9.49,0,0,1,.841-.5c-.081-.144-.489.079-.293-.313a3.572,3.572,0,0,1-1.06,1.044.221.221,0,0,1-.08-.01l.027-.043a.6.6,0,0,0-.21.194,1.859,1.859,0,0,0-.324.187c-.124-.077-.465.265-.651.4.129.129-.126.288.19.233-.037.012.02-.043.135-.142a.385.385,0,0,0,.065-.074l0,.022.441-.355a.684.684,0,0,1-.448.432c-.019.162-.045.332-.065.418-.411-.02-.923.313-1.1.25-.465.531-1.131,1.215-1.154,1.77-.1.174-.224.1-.313.126.049-.107.144-.205.147-.284-.214.338-.719.927-.578,1.15-.376.336-.011-.355-.381.219l0-.117a2.614,2.614,0,0,0-.881,1.556,4.107,4.107,0,0,1-.821,1.7c.07-.082.1-.124.149-.127-.861,1.5-.938,3.344-1.294,5-.113.479.09.535.205.821l-.189.111.249.484c.164.67-.282,1.279.163,2.112l.1-.145c.04.32.379.939.212.937.033.025.162.057.136.2l-.092.043a6.672,6.672,0,0,0,.427.675c.2.577-.414.07-.035.894.185.291.679.719.683.571-.054-.122-.094-.334-.008-.391l.176.241c.286-.095.64-.064.526-.777l-.373-.348.063-.2.184.355c.023-.263-.147-.338-.3-.45a.292.292,0,0,0,.059-.243,3.1,3.1,0,0,1-.435-.329c.092-.094.282.115.245-.2-.192-.163-.178.292-.375-.027.055-.265.182-.233-.012-.453.061-.059.126-.019.191.07-.161-.2-.238-.581-.425-.66.121-.273-.19-.788.092-.817a1.5,1.5,0,0,1-.349-.59c.371.355-.05-.819.335-.74-.328-.273-.2-1.044-.294-1.573.022.031.066.092.047.136a1.831,1.831,0,0,1,.216-.548c-.258-.064-.267-.531-.352-.8.311-.316.247.268.5.192-.205-.013-.077-.647-.268-.561.2-.242.118-.221.349-.312-.29-.121-.019-.267-.121-.533.273-.343.314-.017.359-.461.155-.167.143.234.143.234.14-.416-.157-.269-.258-.4.1-.535.242-.179.41-.309a3.211,3.211,0,0,1,.072-.873c.043,0,.076-.04.1.031-.029-.4.412-.964.441-1.427a.147.147,0,0,1,.079-.018.506.506,0,0,1-.316-.1c.1-.181.067-.411.24-.4-.069.108-.02.149-.009.225l.052-.222c.288-.052-.084.3.059.379.146-.4.234-.929.494-1.148.215.067-.378.654.03.412-.121.116-.216.251-.327.378.481-.144-.17.245.315.141a11.176,11.176,0,0,1,.73-1.143c-.011-.19-.171-.068-.182-.26.379-.893.887-.21,1.095-.914.009-.225-.151-.473.286-.729l.063.291c.46-.422.01-.5.607-.836-.02.152-.307.4-.217.354.445-.149.125-.308.368-.534l.2.117a19.779,19.779,0,0,1,1.547-1.52c0,.076-.067.2.118.161a8.085,8.085,0,0,1,1.229-.79c.453-.2.926-.357,1.349-.5l.229-.324c.076-.027.173.024.107.089.354-.062-.03-.116.1-.246.182-.086.288,0,.192.1a8.016,8.016,0,0,1,1.043-.631,3.431,3.431,0,0,1,1.215-.328l-.108.093c.519-.086.449-.552.968-.518l-.08.058a12.137,12.137,0,0,1,3.2-.636c.1-.308,1.123-.115,1.12-.5a5.493,5.493,0,0,0,1.432.113c.247-.028.318-.3.613-.394l.044.193.374-.285.266.19.279-.111c-.119.015-.263-.033-.257-.093a1.79,1.79,0,0,1,1.177-.037,9.68,9.68,0,0,0,1.036-.525c.008.089-.164.179-.293.278.512-.4.189.162.65-.243-.09-.008-.011-.124-.017-.166a2.422,2.422,0,0,0,1.251-.674l.006.165a9.125,9.125,0,0,0,1.941-1.964c-.267.227-.394.008-.24-.216l.233.045c.01-.218-.243.173-.138-.207.237-.253.339-.042.263.161a3.215,3.215,0,0,0,.2-.389c.065.016.035.118.085.187-.012-.22.6-.507.541-.849l.065.011a11.707,11.707,0,0,0,.869-1.958c-.162-.081-.018-.343-.075-.6a8.026,8.026,0,0,0,.706-1.681c.029-.47-.114-.168-.17-.394.167.007.3-.636.337-.279a9.406,9.406,0,0,0,.2-1.987c-.084.1-.132.209-.178.139,0-.18.132-.39.2-.353l.011.049c-.083-1.117.769-2.469.517-3.352l.012.049-.078-.891c.084-.392.089.253.231-.026-.137-.967.27-1.422.316-2.171.593-.385.728-1.883,1.475-2.3l-.118-.035c.029-.221.2-.145.3-.238-.08-.041-.207.1-.182-.034.938-1.411,2.724-2.1,4.36-2.538.6-.182.177-.671,1.039-.628l-.171.264c1.2-.606,2.629-.485,3.9-.806-.075.055-.073.12-.2.131.25.133,1.114-.1,1.086-.221.224-.011.066.107.213.15.32.034.724-.319.91-.211.032.017-.072.073-.125.092.179-.115.906-.207.676-.331.544-.055.951-.376,1.384-.423.179-.292.883-.252.843-.555.081.276.946-.184,1.16-.478-.055.132.294-.064.241.107.33-.193.606-.413.471-.508.777-.083,1.018-.985,1.579-.86.825-.778,1.529-1.532,2.216-2.249.168.238-.795.758-.568.958a15.859,15.859,0,0,1,1.573-1.877c.2-.142-.009.185-.033.278a21.081,21.081,0,0,0,1.725-2.023c.019.02-.017.108-.056.188.1-.132.281-.263.169-.335l-.077.145c-.313.072.123-.756.063-.842.107.455.6-.56.684.081.051-.1.091-.241.007-.279.121-.107.191-.115.168.076.311-.507.072-.431.4-.844.049.04,0,.14.026.23a1.642,1.642,0,0,1,.462-.9c.014.045.086.035,0,.139.45-.628.519-1.251,1.111-1.857.082.361.239-.179.459-.075l.2-.405-.2.078c.233-.317.3-.7.558-.927l-.092.294.4-.621-.319.282c.136-.393-.27-.145.094-.527-.043.1.236-.317.472-.4v0A1.1,1.1,0,0,1,67.19-225c.107-.014.176.208.246.2-.045-.275.511-.766.49-1.089a.168.168,0,0,0,.124.17l-.03-.227c.153-.112.189-.117.25-.032.359-.413-.348-.051.155-.482-.021.049.013.044-.033.143.454-.472.7-1.052,1.144-1.466.3.016-.285.442,0,.414a17.22,17.22,0,0,1,1.513-2.148l-.122.1c-.184-.32.541-.348.721-.741-.053.089.042.224.035.179.451-.339.717-.9,1.322-1.514l-.028.132c.312-.143.718-.5,1.023-.685.032-.135.2-.25.03-.277a3.237,3.237,0,0,0,1.4-.757,2.065,2.065,0,0,1,1.351-.633c-.107.049-.222.183-.137.146l.726-.413c-.115-.111-.133-.039-.339-.074a1.011,1.011,0,0,1,.451-.37c-.313.249.085.208.27.25-.041-.034-.006-.1-.035-.137.506.116-.029-.3.605-.319l-.006.084a2.5,2.5,0,0,1,.612-.321c.142.135-.208.15-.183.29.314-.124.561-.508.908-.4-.132.077-.335.12-.465.2a1.049,1.049,0,0,0,.65.05h-.025l.575-.028-.152-.024c.33-.542.828-.247,1.363-.592-.523.34-.072.169-.092.368.151.037.374.071.318.133.252-.178.448.052.81-.181.02.062.287,0,.234.156.344-.061-.086-.106-.062-.185.536-.24,1.26.21,2.039-.032.676-.1.818-.265,1.461-.315.2.122-.2.208-.2.208a2.1,2.1,0,0,0,.912.123c-.073.044-.013.1.072.186.255.025.207-.2.527-.052a1.009,1.009,0,0,1-.3.207c.307-.015.621-.066.94-.054.058.124-.22.122-.34.169.351.024.908.091,1.053-.04Z" transform="translate(-7.526 235.888)"/></clipPath></defs><g transform="translate(0 270.993)"><g class="c" transform="translate(17.708 -270.993)"><g class="d" transform="translate(-225.981 -278.781)"><g class="e" transform="translate(176.214 227.816)"><g class="f"><g class="g" transform="translate(48.058 50.959)"><path class="h" d="M12.708-275.993H314.362V4H12.708Z" transform="translate(-16.004 271.004)"/></g><g class="i" transform="translate(0.996 0.244)"><g class="g" transform="translate(47.062 50.715)"><path class="j" d="M-36-326.756H372.023V74.488H-36Z" transform="translate(-16.063 271.045)"/></g></g></g></g></g></g><g class="k" transform="translate(164.911 -202.805)"><g class="l" transform="translate(-372.73 -347.253)"><path class="m" d="M159.73-207.747h23.783v23.834H159.73Z" transform="translate(208 550)"/></g></g><g class="n" transform="translate(186.989 -202.805)"><g class="l" transform="translate(-394.784 -347.253)"><path class="m" d="M181.783-207.747h23.783v23.834H181.783Z" transform="translate(208 550)"/></g></g><g class="o" transform="translate(210.906 -202.805)"><g class="l" transform="translate(-418.675 -347.253)"><path class="m" d="M205.675-207.747h23.783v23.834H205.675Z" transform="translate(208 550)"/></g></g><g class="p" transform="translate(114.317 -69.193)"><g class="l" transform="translate(-322.191 -480.978)"><path class="m" d="M109.191-74.022h23.783v23.834H109.191Z" transform="translate(208 550)"/></g></g><g class="q" transform="translate(138.234 -69.193)"><g class="l" transform="translate(-346.082 -480.978)"><path class="m" d="M133.082-74.022h23.783v23.834H133.082Z" transform="translate(208 550)"/></g></g><g class="r" transform="translate(160.312 -69.193)"><g class="l" transform="translate(-368.136 -480.978)"><path class="m" d="M155.136-74.022h23.783v23.834H155.136Z" transform="translate(208 550)"/></g></g><g class="s" transform="translate(0.443 -223.072)"><g class="l" transform="translate(-208.443 -327.001)"><path class="m" d="M-4.557-228H149.9V-91.155H-4.557Z" transform="translate(208 550)"/></g></g><g class="t" transform="translate(190.749 -155.387)"><g class="l" transform="translate(-398.396 -394.831)"><path class="m" d="M185.4-160.169H339.854V-23.326H185.4Z" transform="translate(208 550)"/></g></g><g class="u" transform="translate(217.271 -121.88)"><g class="l" transform="translate(-424.917 -428.338)"><g class="e" transform="translate(178 225)"><g class="v"><g class="w" transform="translate(246 203)"><path class="x" d="M211.917-126.662h117.13V-22.881H211.917Z" transform="translate(-216 122)"/></g><g class="y" transform="translate(0.473 0.22)"><g class="w" transform="translate(245.527 202.78)"><path class="x" d="M-34.527-329.78H372.122V80.678H-34.527Z" transform="translate(-216 122)"/></g></g></g></g></g></g><g class="z" transform="translate(170.213 -127.58)"><g class="l" transform="translate(-377.992 -422.583)"><path class="m" d="M164.992-132.417h73.181v88.45H164.992Z" transform="translate(208 550)"/></g></g><g class="aa" transform="translate(244.575 -166.213)"><g class="l" transform="translate(-452.286 -383.892)"><path class="m" d="M239.286-171.108h46.929v63.444H239.286Z" transform="translate(208 550)"/></g></g><g class="ab" transform="translate(224.475 -71.857)"><g class="l" transform="translate(-432.121 -478.361)"><path class="m" d="M219.121-76.639h111.57v51.168H219.121Z" transform="translate(208 550)"/></g></g><g class="ac" transform="translate(199.031 -42.239)"><g class="l" transform="translate(-406.753 -507.979)"><path class="m" d="M193.753-47.021h93.3V-33.5h-93.3Z" transform="translate(208 550)"/></g></g><g class="ad" transform="translate(178.232 -84.2)"><g class="l" transform="translate(-385.988 -465.979)"><path class="m" d="M172.988-89.021H260.56v51.877H172.988Z" transform="translate(208 550)"/></g></g><g class="ae" transform="translate(210.792 -67.023)"><g class="l" transform="translate(-418.564 -483.147)"><path class="m" d="M205.564-71.853h18.519v18.229H205.564Z" transform="translate(208 550)"/></g></g><g class="af" transform="translate(12.838 -183.99)"><g class="l" transform="translate(-220.838 -366.114)"><g class="e" transform="translate(178 226)"><g class="ag"><g class="ah" transform="translate(42 140)"><path class="ai" d="M7.838-188.886h122v97.558h-122Z" transform="translate(-12 184)"/></g><g class="aj" transform="translate(0.473 0.332)"><g class="ah" transform="translate(41.527 139.668)"><path class="ai" d="M-34.527-328.668h388.5V51.121h-388.5Z" transform="translate(-12 184)"/></g></g></g></g></g></g><g class="ak" transform="translate(58.055 -224.379)"><g class="l" transform="translate(-265.984 -325.668)"><path class="m" d="M52.984-229.332h53.088v63.712H52.984Z" transform="translate(208 550)"/></g></g><g class="al" transform="translate(55.862 -157.754)"><g class="l" transform="translate(-263.8 -392.347)"><path class="m" d="M50.8-162.653H79.4v33.7H50.8Z" transform="translate(208 550)"/></g></g><g class="am" transform="translate(10.625 -141.485)"><g class="l" transform="translate(-218.625 -408.643)"><path class="m" d="M5.625-146.357H83.132v59.628H5.625Z" transform="translate(208 550)"/></g></g><g class="an" transform="translate(59.047 -144.075)"><g class="l" transform="translate(-266.966 -406.044)"><path class="m" d="M53.966-148.956h88.11v47.326H53.966Z" transform="translate(208 550)"/></g></g><g class="ao" transform="translate(237.223 -43.482)"><g class="l" transform="translate(-444.954 -506.736)"><path class="m" d="M231.954-48.264h34.492V-29.08H231.954Z" transform="translate(208 550)"/></g></g><g class="ap" transform="translate(99.662 -130.559)"><g class="l" transform="translate(-307.545 -419.571)"><path class="m" d="M94.545-135.429h46.237v44.62H94.545Z" transform="translate(208 550)"/></g></g><g class="aq" transform="translate(0 -240.216)"><g class="ar" transform="translate(-208.219 -309.466)"><g class="e" transform="translate(180.19 229.764)"><g class="as"><g class="at" transform="translate(218.156 229.231)"><g class="au" transform="translate(-190.126 -150.312)"><path class="av" d="M184.926-95.534h11.294v16.242H184.926Z" transform="translate(0.195 240.851)"/></g></g><g class="aw" transform="translate(286.37 168.837)"><g class="au" transform="translate(-258.341 -89.918)"><path class="av" d="M253.069-155.989h12.509v13.207H253.069Z" transform="translate(0.267 240.913)"/></g></g><g class="ax" transform="translate(28.029 79.702)"><g class="au" transform="translate(0 -0.783)"><path class="av" d="M-5-245.216H150.885V-86.64H-5Z" transform="translate(-0.005 241.004)"/></g></g><g class="ay" transform="translate(107.708 146.583)"><g class="au" transform="translate(-79.679 -67.664)"><path class="av" d="M74.595-178.267H88.93v12.393H74.595Z" transform="translate(0.079 240.936)"/></g></g><g class="az" transform="translate(115.214 112.177)"><g class="au" transform="translate(-87.185 -33.258)"><path class="av" d="M82.093-212.708H94.487v13.128H82.093Z" transform="translate(0.086 240.971)"/></g></g><g class="ba" transform="translate(124.652 112.801)"><g class="au" transform="translate(-96.623 -33.882)"><path class="av" d="M91.521-212.083h12.231v13.139H91.521Z" transform="translate(0.096 240.97)"/></g></g><g class="bb" transform="translate(118.648 115.211)"><g class="au" transform="translate(-90.619 -36.292)"><path class="av" d="M85.523-209.671H99.318V-191.7H85.523Z" transform="translate(0.09 240.968)"/></g></g><g class="bc" transform="translate(110.409 120.948)"><g class="au" transform="translate(-82.379 -42.029)"><path class="av" d="M77.293-203.928H95.369v16.016H77.293Z" transform="translate(0.081 240.962)"/></g></g><g class="bd" transform="translate(111.911 106.116)"><g class="au" transform="translate(-83.881 -27.197)"><path class="av" d="M78.793-218.775h16.46v12.524H78.793Z" transform="translate(0.083 240.977)"/></g></g><g class="be" transform="translate(93.659 106.748)"><g class="au" transform="translate(-65.63 -27.829)"><path class="av" d="M60.561-218.142h15.7v16.249h-15.7Z" transform="translate(0.064 240.977)"/></g></g><g class="bf" transform="translate(256.05 277.293)"><g class="au" transform="translate(-228.021 -198.374)"><path class="av" d="M222.781-47.423H234.1V-37.31h-11.32Z" transform="translate(0.235 240.801)"/></g></g><g class="bg" transform="translate(275.421 166.661)"><g class="au" transform="translate(-247.391 -87.742)"><path class="av" d="M242.131-158.168h12.285v13.2H242.131Z" transform="translate(0.255 240.915)"/></g></g><g class="bh" transform="translate(280.945 178.914)"><g class="au" transform="translate(-252.916 -99.995)"><path class="av" d="M247.649-145.9h18.473v17.031H247.649Z" transform="translate(0.261 240.902)"/></g></g><g class="bi" transform="translate(288.648 161.739)"><g class="au" transform="translate(-260.618 -82.82)"><path class="av" d="M255.344-163.094h16.117v13.019H255.344Z" transform="translate(0.269 240.92)"/></g></g><g class="bj" transform="translate(275.031 160.042)"><g class="au" transform="translate(-247.002 -81.123)"><path class="av" d="M241.742-164.794h15.511v12.185H241.742Z" transform="translate(0.255 240.922)"/></g></g><g class="bk" transform="translate(301.419 174.776)"><g class="au" transform="translate(-273.389 -95.857)"><path class="av" d="M268.1-150.045h14.952v14.277H268.1Z" transform="translate(0.282 240.907)"/></g></g><g class="bl" transform="translate(278.114 200.592)"><g class="au" transform="translate(-250.085 -121.673)"><path class="av" d="M244.822-124.2h30.3v16.846h-30.3Z" transform="translate(0.258 240.88)"/></g></g><g class="bm" transform="translate(238.163 251.981)"><g class="au" transform="translate(-210.134 -173.062)"><path class="av" d="M204.913-72.76h19.824v19.49H204.913Z" transform="translate(0.216 240.827)"/></g></g><g class="bn" transform="translate(325.67 263.741)"><g class="au" transform="translate(-297.641 -184.822)"><path class="av" d="M292.327-60.988H319.3v14.013h-26.97Z" transform="translate(0.308 240.815)"/></g></g><g class="bo" transform="translate(197.552 138.911)"><g class="au" transform="translate(-169.522 -59.992)"><path class="av" d="M164.344-185.946H340.832V-22.88H164.344Z" transform="translate(0.173 240.943)"/></g></g><g class="bp" transform="translate(0.111 0.607)"><g class="au" transform="translate(27.919 78.312)"><path class="bq" d="M-32.889-324.392h405.3V80.315h-405.3Z" transform="translate(-0.035 241.086)"/></g></g></g></g></g></g><g class="br" transform="translate(7.526 -235.888)"><g class="l" transform="translate(-215.526 -314.112)"><path class="m" d="M2.526-240.888H93.98V-158H2.526Z" transform="translate(208 550)"/></g></g></g></svg>