<svg xmlns="http://www.w3.org/2000/svg" xmlns:xlink="http://www.w3.org/1999/xlink" width="229" height="137" viewBox="0 0 229 137"><defs><style>.a,.b{fill:none;}.a{clip-rule:evenodd;}.c{clip-path:url(#a);}.d{clip-path:url(#b);}.e{isolation:isolate;}.f{clip-path:url(#c);}.g{clip-path:url(#d);}.h{fill:#ffded6;}.i{clip-path:url(#e);}.j{clip-path:url(#g);}.k{clip-path:url(#h);}.l{fill:#ffddd3;}.m{clip-path:url(#i);}.n{fill:#ffdfd5;}.o{clip-path:url(#k);}.p{fill:#fff;}.q{clip-path:url(#m);}.r{clip-path:url(#o);}.s{clip-path:url(#q);}.t{clip-path:url(#s);}.u{clip-path:url(#u);}.v{clip-path:url(#w);}.w{clip-path:url(#y);}.x{clip-path:url(#aa);}.y{clip-path:url(#ac);}.z{clip-path:url(#ae);}.aa{clip-path:url(#ag);}.ab{clip-path:url(#ai);}.ac{clip-path:url(#ak);}.ad{clip-path:url(#al);}.ae{fill:#ffca56;}.af{clip-path:url(#am);}.ag{clip-path:url(#ao);}.ah{clip-path:url(#aq);}.ai{clip-path:url(#as);}.aj{clip-path:url(#au);}.ak{clip-path:url(#aw);}.al{clip-path:url(#ay);}.am{clip-path:url(#ba);}.an{clip-path:url(#bc);}.ao{clip-path:url(#be);}.ap{clip-path:url(#bg);}.aq{clip-path:url(#bi);}.ar{clip-path:url(#bk);}.as{clip-path:url(#bm);}.at{clip-path:url(#bo);}.au{clip-path:url(#bp);}.av{fill:#5ae1e1;}.aw{clip-path:url(#bq);}.ax{fill:#fb779f;}.ay{clip-path:url(#bs);}.az{clip-path:url(#bu);}.ba{clip-path:url(#bv);}.bb{clip-path:url(#bw);}.bc{fill:#393e48;}.bd{clip-path:url(#bx);}.be{clip-path:url(#bz);}.bf{clip-path:url(#cb);}.bg{clip-path:url(#cd);}.bh{clip-path:url(#cf);}.bi{clip-path:url(#ch);}.bj{clip-path:url(#cj);}.bk{clip-path:url(#cl);}.bl{clip-path:url(#cn);}.bm{clip-path:url(#cp);}.bn{clip-path:url(#cr);}.bo{clip-path:url(#ct);}.bp{clip-path:url(#cv);}.bq{clip-path:url(#cx);}.br{clip-path:url(#cz);}.bs{clip-path:url(#db);}.bt{clip-path:url(#dd);}.bu{clip-path:url(#df);}.bv{clip-path:url(#dh);}.bw{clip-path:url(#dj);}.bx{fill:#475473;}.by{clip-path:url(#dl);}.bz{clip-path:url(#dn);}.ca{clip-path:url(#do);}.cb{clip-path:url(#dp);}.cc{clip-path:url(#dq);}</style><clipPath id="a"><path class="a" d="M32-137H197a32,32,0,0,1,32,32V0H0V-105A32,32,0,0,1,32-137Z"/></clipPath><clipPath id="b"><path class="b" d="M-693,453H747V-571H-693Z"/></clipPath><clipPath id="c"><rect class="b" width="239" height="147" transform="translate(-5 -142)"/></clipPath><clipPath id="d"><path class="b" d="M0,0H229V-137H0Z"/></clipPath><clipPath id="e"><path class="a" d="M196.8-45.176c-.357,1.709-.382,4.5-.893,9.256.025-.879-.106-.95-.2-1.113-.076-.114-.1-.277-.087-.773-.021.25-.049.5-.089.759-.08.557-.152,1.128-.27,1.695s-.273,1.128-.417,1.68-.355,1.077-.529,1.586a17.06,17.06,0,0,1-1.059,2.382c2.028-5.229,2.518-11.215,2.072-17.9a120.091,120.091,0,0,0-10.615-40.647q1.426,2.631,2.742,5.333c.714.1-2.078-6.715.045-3.017.888,1.84.534,1.8.576,2.232.446.915.831,1.855,1.25,2.784l.617,1.4.573,1.417-.625,2.072a87.223,87.223,0,0,0,3.8,12.883A52.606,52.606,0,0,1,196.9-47.714a4.554,4.554,0,0,0,.374.792,6.793,6.793,0,0,0-.476,1.746M182.481-92.8q-1.371-2.636-2.906-5.211c.123.157.248.314.367.477.323.455.648.924.966,1.42a16.621,16.621,0,0,1,1.745,3.388c.019.108-.058.051-.173-.074m-36.052-35.716c.29-.3.509-.626,2.005-.266A44.043,44.043,0,0,1,153-126.054a10.991,10.991,0,0,1,1.631,1.289c.35.338.471.545.245.548.258.216.523.428.79.638a62.739,62.739,0,0,0-9.239-4.932m-66.936,2.362a78.119,78.119,0,0,0-22.976,13.292l.117-.108.813-.749.851-.709,1.714-1.423,1.793-1.343.9-.673.934-.632,1.881-1.26,1.946-1.178c1.288-.81,2.657-1.485,4-2.219a86.87,86.87,0,0,1,17.3-6.5,66.708,66.708,0,0,0-9.278,3.505M72.966-7a35.954,35.954,0,0,0-4.177-.058c-1.238-.374-1.619-.669-1.591-.879q2.886.514,6.052.946L72.966-7m125.953-32.63c-.187-2.142-.5-4.11-.923-7.31a6.584,6.584,0,0,0,.37-1.572c.288-1.873.322-4.6.541-5.947l-.228,1.343c-.208-.81-.464-1.392-.707-2.187a18.442,18.442,0,0,1-.581-3.484c-.317-3.364.857,1.7.775-.651a44.159,44.159,0,0,0-2.6-11.113l-.782-2.052-.879-2.141c-.579-1.513-1.3-3.191-2.077-5.337a59.582,59.582,0,0,0-9.511-19.234c-2.031-2.727-4.146-5.43-6.589-8.2-2.38-2.822-5.108-5.685-8.214-8.877a108.038,108.038,0,0,1,12.434,17.685l-2.21-2.89-2.327-2.783c0,.006.005.012.008.018a78.275,78.275,0,0,0-11.467-12.891c.749.595,1.455,1.189,2.139,1.721a34.816,34.816,0,0,1,2.71,2.372c-1.529-2.545-4.87-5.961-7.139-8.349-2.345-2.276-3.51-3.737-.327-2.471-.84-.662-1.6-1.246-2.3-1.766-.723-.485-1.39-.895-2-1.268s-1.174-.7-1.7-.993a16.994,16.994,0,0,0-1.552-.731c-1-.433-1.935-.8-2.956-1.211-1.043-.362-2.192-.72-3.573-1.22-.332-.166-.7-.35-1.088-.523l-1.253-.472-2.593-.956-.607-.23-.584-.184c-.375-.121-.718-.239-1.017-.353a2.94,2.94,0,0,1-1.148-.622l-1.781-.3c-.523-.072-.99-.1-1.415-.149-.852-.089-1.56-.182-2.346-.328-.394-.073-.807-.16-1.269-.267l-1.572-.285-2.041-.4c-.778-.149-1.661-.364-2.69-.474-1.423-.047-2.828-.063-4.074-.051-1.244.05-2.327.194-3.112.3-1.57.234-1.943.485-.052.663l1.943-.032c.323,0,.647-.017.971-.008l.972.051,3.889.206c1.294.107,2.583.3,3.874.455.644.09,1.294.14,1.933.264l1.917.382c3.511,1.287,1.635,1.382-.77,1.31-.6-.015-1.242-.057-1.848-.065-.611.017-1.185.036-1.651.066l-.259.019a78,78,0,0,0-19.3-.109q-7.313.827-13.928,2.23l.621-.2c1.734-.515,3.479-1.022,5.236-1.485-1.77.286-3.533.618-5.294.956-1.752.386-3.515.722-5.251,1.181.42-.324,1.057-.735,1.651-1.119a6.46,6.46,0,0,0,1.373-1.03c.229-.287.137-.49-.552-.534a9.182,9.182,0,0,0-1.517.07c-.675.09-1.532.236-2.608.449l-1.258.432-1.242.473-2.462.937-2.417,1.01c-.8.327-1.6.667-2.385,1.038l-2.358,1.068-2.318,1.14-1.157.565-1.14.605-2.28,1.2c-3.016,1.661-5.974,3.442-8.942,5.341-2.937,1.946-5.868,4.023-8.823,6.309A69.227,69.227,0,0,0,35.835-87.892a85.3,85.3,0,0,0-4.628,14.822A114.966,114.966,0,0,0,29-57.506c1.132-3.406-.165,4.641,1.184-1.789.017,1.072.028,2.083.007,3.154-.32,2.776-.563,5.445-.7,8.006-.322-1.828-.5-2.239-.715-1.814a14.694,14.694,0,0,0-.514,3.417c-.286,3.177-.164,7.244-1.018,6.342.247,2.591.432,4.52.587,6.143.1.821.167,1.572.217,2.3.094.725.184,1.416.275,2.113a16.789,16.789,0,0,0,.421,2.174c.1.382.2.776.3,1.188.135.4.3.821.471,1.263s.367.9.581,1.395c.249.47.529.962.835,1.485a23.661,23.661,0,0,0,2.418,3.339c1.458,1.161,1.921,1.31,1.776.878-.13-.449-.938-1.411-1.773-2.8l-.687-1.053c-.225-.372-.427-.778-.648-1.175l-.654-1.2c-.207-.407-.371-.835-.553-1.241s-.347-.808-.512-1.193-.264-.774-.386-1.129c-.223-.717-.443-1.333-.547-1.819.2.5.463,1.105.707,1.773.13.331.242.685.394,1.031l.485,1.044a17.6,17.6,0,0,1-.888-3.422,17.948,17.948,0,0,1-.176-2.922,6.2,6.2,0,0,1,.427-2.1A26.424,26.424,0,0,0,40.809-17.654a1.246,1.246,0,0,0-.108,1.117,2.569,2.569,0,0,0,.582.808,5.615,5.615,0,0,0,1.342,1c.729,1.053,4.047,2.863,7.527,4.018.853.347,1.738.575,2.566.853.835.255,1.618.556,2.342.76a10.318,10.318,0,0,1,3.056,1.276c5.8,1.175,10.9,2.284,15.327,3.069,4.425.747,8.166,1.066,11.113.3,2.808.737,5.634,1.487,8.473,2.136,6.911.787,11.587.231,16.5-.122,2.217-.622-5.3-1.046.583-1.8a43.5,43.5,0,0,1,7.847.009c.561.389-2.2.664-2.821.777,11.236-.412,19.081,1.049,27.878,1.133,5.786-.654,12.737-1.414,19.054-2.767a69.433,69.433,0,0,0,8.727-2.4c1.284-.485,2.469-.97,3.519-1.451,1.042-.524,1.955-1.025,2.708-1.5-1.1.4-2.192.833-3.293,1.212-1.109.344-2.212.714-3.323,1.032A15.8,15.8,0,0,0,174.531-10c.56-.424.531-.664.546-.9s.067-.481.771-.9c.357-.2.86-.481,1.6-.846.369-.182.8-.383,1.293-.608s1.038-.529,1.669-.838c3.791-1.837,4.771-2.426,5.047-2.186.267.206-.284,1.054.164,1.18a27.365,27.365,0,0,0,6.394-6.4,50.862,50.862,0,0,0,4.15-7.228c-.213.69-.406,1.125-.489,1.395s-.088.361-.028.328a5.308,5.308,0,0,0,.845-1.308l.938-1.92c.195-.457.272-.575.087.088a24.392,24.392,0,0,0,1.329-5.582,21.162,21.162,0,0,0,.075-3.9"/></clipPath><clipPath id="g"><rect class="b" width="223" height="224" transform="translate(3 -174)"/></clipPath><clipPath id="h"><path class="b" d="M27-1H200V-137H27Z"/></clipPath><clipPath id="i"><path class="a" d="M23.491-173.182h181.7a20.049,20.049,0,0,1,20.049,20.049v182.7a20.049,20.049,0,0,1-20.049,20.049H23.491A20.049,20.049,0,0,1,3.442,29.567v-182.7A20.049,20.049,0,0,1,23.491-173.182Z"/></clipPath><clipPath id="k"><path class="a" d="M157.635-70l8.622,4.977-8.622,4.977Zm-.646-1.119v12.193l10.56-6.1Z"/></clipPath><clipPath id="m"><path class="a" d="M91.658-115.207l7.414,4.28-7.414,4.28Zm-.646,9.679,9.353-5.4-9.353-5.4Z"/></clipPath><clipPath id="o"><path class="a" d="M113.112-88.47a4.256,4.256,0,0,1-4.251-4.251,4.256,4.256,0,0,1,4.251-4.251,4.256,4.256,0,0,1,4.251,4.251,4.256,4.256,0,0,1-4.251,4.251m0-9.147a4.9,4.9,0,0,0-4.9,4.9,4.9,4.9,0,0,0,4.9,4.9,4.9,4.9,0,0,0,4.9-4.9,4.9,4.9,0,0,0-4.9-4.9"/></clipPath><clipPath id="q"><path class="a" d="M84.651-103.625a1.339,1.339,0,0,1-1.338-1.337,1.339,1.339,0,0,1,1.338-1.337,1.339,1.339,0,0,1,1.338,1.337,1.339,1.339,0,0,1-1.338,1.337m0-3.321a1.986,1.986,0,0,0-1.983,1.984,1.986,1.986,0,0,0,1.983,1.983,1.985,1.985,0,0,0,1.983-1.983,1.986,1.986,0,0,0-1.983-1.984"/></clipPath><clipPath id="s"><path class="a" d="M108-116.991a1.339,1.339,0,0,1-1.338-1.337A1.34,1.34,0,0,1,108-119.667a1.34,1.34,0,0,1,1.338,1.338A1.339,1.339,0,0,1,108-116.991m1.983-1.337A1.985,1.985,0,0,0,108-120.312a1.986,1.986,0,0,0-1.983,1.984A1.986,1.986,0,0,0,108-116.346a1.985,1.985,0,0,0,1.983-1.983"/></clipPath><clipPath id="u"><path class="a" d="M59.64-70.361A3.739,3.739,0,0,1,55.9-74.1a3.739,3.739,0,0,1,3.735-3.734A3.738,3.738,0,0,1,63.374-74.1a3.738,3.738,0,0,1-3.735,3.734m0-8.115a4.386,4.386,0,0,0-4.381,4.38,4.386,4.386,0,0,0,4.381,4.38,4.386,4.386,0,0,0,4.381-4.38,4.386,4.386,0,0,0-4.381-4.38"/></clipPath><clipPath id="w"><path class="a" d="M195.936-118.2H132.717a5.475,5.475,0,0,0-5.481,5.469v26.356a5.475,5.475,0,0,0,5.481,5.469h7.443a13.791,13.791,0,0,1,1.476,4.961c.263,1.9.4,5.011.4,5.011a53.691,53.691,0,0,0,13.495-9.972h40.4a5.475,5.475,0,0,0,5.481-5.469v-26.356a5.475,5.475,0,0,0-5.481-5.469"/></clipPath><clipPath id="y"><path class="a" d="M163.746-100.057a14.146,14.146,0,0,1-13.963,14.323,14.146,14.146,0,0,1-13.962-14.323,14.146,14.146,0,0,1,13.962-14.323,14.146,14.146,0,0,1,13.963,14.323"/></clipPath><clipPath id="aa"><path class="a" d="M153.7-112.737a2.459,2.459,0,0,0-1.312.506,9.631,9.631,0,0,0-1.6-4.377c-1.444-2.073-6.91-1.916-8.546.609a35.913,35.913,0,0,0,.146,7.387,4.394,4.394,0,0,0,2.97,3.76c-.027.378-.061.755-.1,1.093a2.928,2.928,0,0,1-.52,1.188s-.44,2.646,4.44,2.8c3.907.12,4.175-2.408,4.175-2.408s-.008-1.517-.108-3.067c-.049-.756-.089-2.208-.116-3.5a2.431,2.431,0,0,0,2.081-1.188,1.873,1.873,0,0,0-1.514-2.8"/></clipPath><clipPath id="ac"><path class="a" d="M136.181-93.406c-.726-3.175-2.292-3.828-2.292-3.828s-.751.116-1.682-2.162c-.852-2.087-2.2-5.157-2.417-5.659a3.814,3.814,0,0,0,.812-1.288c.285-.831.46-2.974.767-3.7s1.184-2.143.679-2.493-1.14.416-1.819,1.422c-.5.734-.9,1.3-1.077,1.557-.2-.508-.3-.469-.3-.469s-.079-3.106-.171-4.26-.843-.8-.912-.359-.142,4.435-.142,4.435-.713-4.586-.809-4.776c-.287-.567-.935-.49-.884.545.037.737.468,4.623.468,4.623h-.231s-1.734-4.614-2.451-4.13c-.527.356,1.463,4.5,1.463,4.5l-.261.139s-2.1-2.168-2.474-1.753,1.688,2.768,1.688,2.768.069.231.508,1.361a9.431,9.431,0,0,0,1.057,1.967s.507,2.025,1.1,4.977,1.944,9.027,4.142,11.389a4.416,4.416,0,0,0,5.072.928s1.028-1.977.169-5.737"/></clipPath><clipPath id="ae"><path class="a" d="M98.71-71.157c.22,3.392,1.337,7.493,4.568,6.61a6.426,6.426,0,0,0,4.838-6.61c0-3.4-1.814-5.894-4.982-6.612-2.714-.615-4.8.814-4.424,6.612"/></clipPath><clipPath id="ag"><path class="a" d="M96.17-71.157c0,3.834,2.374,6.942,5.3,6.942s5.3-3.108,5.3-6.942-2.374-6.942-5.3-6.942-5.3,3.108-5.3,6.942"/></clipPath><clipPath id="ai"><path class="a" d="M47.8-25S55.345-38.392,65.592-46.81C76.113-55.452,86.376-55.3,86.376-55.3l12.3.832s6.8-.928,19.861,11.95c1.1,1.089-3.089,34.361-3.089,34.361s-43.5.5-43.417,0l.161-9.071S54.983-15.307,47.8-25"/></clipPath><clipPath id="ak"><rect class="b" width="226" height="226" transform="translate(3 -176)"/></clipPath><clipPath id="al"><path class="b" d="M47-7h73V-56H47Z"/></clipPath><clipPath id="am"><path class="a" d="M23.491-175.428H208.948A20.049,20.049,0,0,1,229-155.379V29.576a20.049,20.049,0,0,1-20.049,20.049H23.491A20.049,20.049,0,0,1,3.442,29.576V-155.379A20.049,20.049,0,0,1,23.491-175.428Z"/></clipPath><clipPath id="ao"><path class="a" d="M104.438-81.11a25.486,25.486,0,0,0-2.464-3.115s-4.858,3.638-9.563,7.444c-5.088,4.116-7.019,1.751-7.019,1.751a12.653,12.653,0,0,1-2.434.1,3.658,3.658,0,0,0-3,5.578c1.254,2.27,3.8,2.436,5.069,2.363.078,2.225.208,6.331.157,7.992a8.734,8.734,0,0,1-1.342,4.863c.059.507.765,4.765,7.794,5.329,7.476.6,8.3-4.105,8.3-4.105a7.017,7.017,0,0,1-1.914-3.681,18.7,18.7,0,0,1-.071-3.19c2.856-.483,5.949-3.044,6.94-8.624,1.03-5.8-.445-12.7-.445-12.7"/></clipPath><clipPath id="aq"><path class="a" d="M90.177-20.756s4.807,2.457,6.24,3.029c.216.086-.712,1.715-2.588,1.351l-2.626-.51Z"/></clipPath><clipPath id="as"><path class="a" d="M87.355-69.74c0,3.838-2.377,6.949-5.308,6.949S76.738-65.9,76.738-69.74s2.377-6.949,5.309-6.949,5.308,3.111,5.308,6.949"/></clipPath><clipPath id="au"><path class="a" d="M85.46-69.74c0,3.4-2.107,6.161-4.706,6.161s-4.706-2.758-4.706-6.161S78.154-75.9,80.753-75.9s4.706,2.758,4.706,6.161"/></clipPath><clipPath id="aw"><path class="a" d="M101.446-88.044s-7.093-5.433-13.894-.626c-5.318,3.759-4.318,12.12-4.318,12.12a2.5,2.5,0,0,1-1.874.383A7.453,7.453,0,0,0,79.6-76.44s-.335-8.483,4.475-12.938c7.094-6.569,16.5-1.685,17.375,1.333"/></clipPath><clipPath id="ay"><path class="a" d="M82.244-26.338a1.588,1.588,0,0,1,.664-1.988,1.757,1.757,0,0,1,2.052,0L96.769-12.911l1.986,4.592L93.894-10.98Z"/></clipPath><clipPath id="ba"><path class="a" d="M49.824-22.507a17.912,17.912,0,0,0-2.381,7.03c-.409,3.949.682,5.992,2.319,6.673a8.235,8.235,0,0,0,2.866.682H94.379a2.138,2.138,0,0,0,.8-1.533c-.027-.886-.269-1.02-.269-1.02a1.531,1.531,0,0,0,1.291-.913,1.558,1.558,0,0,0-.4-1.557,1.186,1.186,0,0,0,1.1-.929c.262-.887-.657-1.551-2.876-2.588A25.13,25.13,0,0,0,88.2-18.439s-1-1.516-1.263-1.464a44.11,44.11,0,0,0-7.92,2.957s-4.539,0-9.8-.1S60.033-17.6,56.478-18.9a25.061,25.061,0,0,1-6.654-3.6"/></clipPath><clipPath id="bc"><path class="a" d="M133.1-44.646l1.349-4.375a13.941,13.941,0,0,0,2.641-5.048,13.291,13.291,0,0,0,.756-3.625s2.5-4.956,3.009-6.3-.225-2.131-1.067-.953-3.721,5.263-3.721,5.263l-.539-.43s1.061-6.117,1.51-8.024-.228-2.979-1.015-2.474c-1.072.687-2.942,9.554-2.942,9.554l-.444-.1s1.452-8.327,1.532-9.4c.112-1.515-1.586-1.51-1.932-.06-.247,1.035-1.888,9.8-1.888,9.8a84.944,84.944,0,0,0-.338-8.563c-.337-1.346-1.461-.9-1.63.449s-.505,7.852-.505,7.852l-.675,3.534A23.08,23.08,0,0,0,125-61.87c-1.067-1.4-2.016-.667-2.016-.667s.328,1.559.725,3.1a16.55,16.55,0,0,1,1.018,4.42c0,1.683,1.63,4.6,1.63,4.6l-.562,5.384Z"/></clipPath><clipPath id="be"><path class="a" d="M159.756-10.528h-45.5a2.755,2.755,0,0,1-2.707-3.277L117.6-44.882A2.756,2.756,0,0,1,120.3-47.11h45.5a2.754,2.754,0,0,1,2.707,3.277l-6.042,31.077a2.758,2.758,0,0,1-2.708,2.228"/></clipPath><clipPath id="bg"><path class="a" d="M160.984-7.8H102.04a.926.926,0,0,1-.927-.925v-.841a.927.927,0,0,1,.927-.926h58.944a.927.927,0,0,1,.927.926v.841a.926.926,0,0,1-.927.925"/></clipPath><clipPath id="bi"><path class="a" d="M143.657-26.457a3.368,3.368,0,0,1-4.549,1.3,3.354,3.354,0,0,1-.619-4.683,3.369,3.369,0,0,1,4.549-1.3,3.354,3.354,0,0,1,.619,4.683"/></clipPath><clipPath id="bk"><path class="a" d="M40.675-2.355H187.927a4.4,4.4,0,0,0,4.4-4.393V-8.06H36.273v1.311a4.4,4.4,0,0,0,4.4,4.393"/></clipPath><clipPath id="bm"><path class="a" d="M161.215-99.424c-3.938-3.241-6.726-4.048-8.03-4.244.024.786.027,1.348.027,1.348s-.268,2.528-4.182,2.407c-4.889-.15-4.448-2.8-4.448-2.8a3.239,3.239,0,0,0,.475-.954,11.946,11.946,0,0,0-5.611,2.042c-1.689,1.09-5.255,3.076-6.174,3.747a1.849,1.849,0,0,1,0,.314.675.675,0,0,0,.442.188s1.569.652,2.3,3.827c.861,3.759-.17,5.736-.17,5.736a4.865,4.865,0,0,1-3.075.292,3.4,3.4,0,0,0,3.461.6c1.036-.318,4.107-2.581,4.356-2.366a13.734,13.734,0,0,0,9.054,3.407,14.078,14.078,0,0,0,13.7-11.451,17.486,17.486,0,0,0-2.121-2.1"/></clipPath><clipPath id="bo"><rect class="b" width="256" height="256" transform="translate(49 -166)"/></clipPath><clipPath id="bp"><path class="b" d="M132-85h32v-19H132Z"/></clipPath><clipPath id="bq"><path class="a" d="M69.735-165.2H284.081a20.049,20.049,0,0,1,20.049,20.049V69.191A20.049,20.049,0,0,1,284.081,89.24H69.735A20.049,20.049,0,0,1,49.686,69.191V-145.155A20.049,20.049,0,0,1,69.735-165.2Z"/></clipPath><clipPath id="bs"><path class="a" d="M87.478-92.1a12.437,12.437,0,0,1,8.154-.455c2.964.819,5.563,2.689,6.047,4.349h0l.126.433c.194.152.39.307.6.483,2.85,2.409,3.724,6.352,3.938,10.867a7.057,7.057,0,0,1,2.1,5.319,6.946,6.946,0,0,1-2.667,5.763,6.223,6.223,0,0,0,1.869,5.069c2.91,2.667,3.2,5.252,1.849,9.818a62.141,62.141,0,0,1,7.557,6.122h0l.132-.68A3.082,3.082,0,0,1,120.2-47.5h5.408l.3-2.924c-.282-.52-1.618-3.069-1.618-4.666a9.87,9.87,0,0,0-.636-3.109c-.133-.412-.265-.819-.371-1.231-.393-1.526-.724-3.095-.726-3.11a.322.322,0,0,1,.118-.321,1.437,1.437,0,0,1,1.024-.248,2.234,2.234,0,0,1,1.444.974,18.418,18.418,0,0,1,1.825,3.4h0l.471-2.472c.009-.222.334-6.49.5-7.832.109-.873.6-1.507,1.189-1.543.183-.016.815.03,1.073,1.055a25.619,25.619,0,0,1,.273,3.658l.016.566c.01.378.018.757.025,1.124v0l.051-.261.206-1.089.105-.553c.4-2.121.805-4.2.92-4.677a1.532,1.532,0,0,1,1.613-1.317,1.232,1.232,0,0,1,.954,1.476c-.036.487-.344,2.409-.675,4.393l-.091.542c-.06.361-.121.719-.18,1.068v-.006l.066-.262c.63-2.522,1.479-5.432,2.162-6.03l.072-.055a.9.9,0,0,1,1.051-.015c.592.418.765,1.5.452,2.834-.4,1.689-1.29,6.775-1.472,7.818h0l.122.1c.316-.449.969-1.376,1.642-2.331l.4-.573c.6-.853,1.17-1.656,1.474-2.081.653-.912,1.212-.715,1.366-.631.486.259.592,1.016.266,1.886-.207.552-.734,1.68-1.29,2.834l-.258.532c-.645,1.326-1.271,2.573-1.434,2.895a16.837,16.837,0,0,1-.77,3.64,14.244,14.244,0,0,1-2.661,5.122h0l-.44,1.428H146.3a.323.323,0,0,1,.323.323.323.323,0,0,1-.323.323H120.2a2.434,2.434,0,0,0-2.386,1.967h0l-1.282,6.6a.323.323,0,0,1-.316.261.335.335,0,0,1-.063-.006.323.323,0,0,1-.256-.378h0l1.005-5.175c-9.7-9.145-15.65-10.385-17.56-10.522a6.554,6.554,0,0,0,.727.894h0l.126.119-.029.172c-.008.047-.851,4.425-7.347,4.425q-.608,0-1.284-.054c-3.972-.319-5.956-1.826-6.923-3.035a5.436,5.436,0,0,1-1.138-2.438h0l-.086-.082.077-.253.119-.339A37.026,37.026,0,0,0,65.7-46.539c-9.447,7.747-16.681,19.887-17.63,21.518a15.292,15.292,0,0,0,3.567,3.328,26.487,26.487,0,0,0,4.923,2.42c.589.216,1.192.41,1.819.584l.09.025q.284.078.575.15l.128.031A46.1,46.1,0,0,0,69.184-17.44l.806.015c.866-.026,1.5-.072,1.83-.1.153-1.226.85-6.664,1.838-12.016l.14-.746c.142-.744.288-1.483.44-2.2a.321.321,0,0,1,.382-.25.323.323,0,0,1,.25.382c-1.3,6.2-2.256,13.679-2.417,14.971,2.5.033,4.577.044,5.676.048h.765a45.193,45.193,0,0,1,7.583-2.875h0l-4.546-6a.354.354,0,0,1-.04-.068,1.89,1.89,0,0,1,.794-2.393,2.092,2.092,0,0,1,2.336-.036l.063.046.028.023a.36.36,0,0,1,.047.049h0l6.118,8c1.483.75,4.187,2.1,5.189,2.5a.407.407,0,0,1,.207.535,2.391,2.391,0,0,1-1.207,1.22c1.207.666,1.952,1.349,1.675,2.288a1.71,1.71,0,0,1-.354.657h0l.167.218a.357.357,0,0,1,.039.068h0l1.984,4.592c.009.021,0,.043.006.066h1.874a1.463,1.463,0,0,1-.144-.623h0v-.289a1.527,1.527,0,0,1,1.526-1.524h10.091a3.085,3.085,0,0,1-.535-.507,3.068,3.068,0,0,1-.647-2.543h0l1.2-6.155a.319.319,0,0,1-.1-.237c.194-17.686-6.8-27.427-6.873-27.524a.323.323,0,0,1,.07-.451.323.323,0,0,1,.452.069c0,.005.027.037.067.1l.057.083c.9,1.344,6.451,10.182,6.85,25.292h0l1.739-8.955a.326.326,0,0,1,.379-.256.324.324,0,0,1,.256.379h0l-3.454,17.781a2.424,2.424,0,0,0,.511,2.01,2.426,2.426,0,0,0,1.876.883h45.446A2.436,2.436,0,0,0,162-12.886h0l6.036-31.079a2.425,2.425,0,0,0-.511-2.009,2.425,2.425,0,0,0-1.876-.884h-9.495a.323.323,0,0,1-.323-.323.323.323,0,0,1,.323-.323h9.495a3.066,3.066,0,0,1,2.374,1.119,3.065,3.065,0,0,1,.647,2.542h0l-6.036,31.079a3.07,3.07,0,0,1-1.418,2.031,1.522,1.522,0,0,1,.872,1.371h0v.289a1.477,1.477,0,0,1-.144.623h30.2a.322.322,0,0,1,.323.323A6.036,6.036,0,0,1,186.442-2.1H41.975a6.036,6.036,0,0,1-6.032-6.026.323.323,0,0,1,.323-.323H49.942c-.108-.041-.213-.077-.325-.124-1.159-.483-3.028-2.035-2.514-7A18.156,18.156,0,0,1,49.442-22.6a15.061,15.061,0,0,1-2.016-2.2h0l-.125-.168.1-.183c.076-.134,7.687-13.5,17.861-21.858a12.05,12.05,0,0,1-1.072-1.543c-3.193-5.532.274-10.77,4.69-12.682,4.15-1.8,6.055-4.294,6.993-6.8a8.162,8.162,0,0,1-.2-1.769,7.572,7.572,0,0,1,1.279-4.3c.028-.269.057-.53.093-.778.523-3.692,0-10.716,6.458-15.441A10.121,10.121,0,0,1,87.478-92.1ZM191.819-7.8H36.6a5.39,5.39,0,0,0,5.376,5.058H186.442A5.391,5.391,0,0,0,191.819-7.8ZM160.564-10.24H102.239a.88.88,0,0,0-.88.878h0v.289a.877.877,0,0,0,.26.623h59.565a.874.874,0,0,0,.26-.623h0v-.289a.88.88,0,0,0-.88-.878ZM95.43-9.8c0,.024,0,.042.005.067a2.082,2.082,0,0,1-.443,1.284h2.9ZM49.894-22.1a17.844,17.844,0,0,0-2.149,6.585c-.349,3.375.4,5.628,2.12,6.342a8,8,0,0,0,2.739.656H94.188a1.728,1.728,0,0,0,.6-1.2,1.8,1.8,0,0,0-.132-.751,28.93,28.93,0,0,0-6.676-1.2.3.3,0,0,1-.381-.211.346.346,0,0,1,.232-.414,26.278,26.278,0,0,1,7.046,1.218,1.167,1.167,0,0,0,.952-.7,1.194,1.194,0,0,0-.292-1.176c-2.622-1.273-7.987-1.838-8.041-1.844a.322.322,0,0,1-.288-.353.329.329,0,0,1,.354-.288c.226.023,5.492.579,8.227,1.891a.871.871,0,0,0,.731-.692c.158-.538-.373-1.05-1.983-1.858-.134-.071-.305-.154-.453-.223l-.2-.091h0l-.069-.032a24.916,24.916,0,0,0-5.731-1.751.324.324,0,0,1-.218-.141,8.345,8.345,0,0,0-1.018-1.308,44.607,44.607,0,0,0-7.744,2.914.326.326,0,0,1-.14.032h-.695c-1.471,0-5.094-.023-9.1-.1-5.8-.114-9.514-.656-12.832-1.873A26.074,26.074,0,0,1,49.894-22.1ZM96.32-12.94a1.668,1.668,0,0,1,.115,1.4,1.673,1.673,0,0,1-1.029.993h0l2.6,1.427-1.6-3.693Zm-4.146-6.482,1.791,2.342.128.058c.193.09.379.179.56.267a2.085,2.085,0,0,0,.8-.308,1.852,1.852,0,0,0,.529-.534c-.882-.378-2.477-1.16-3.806-1.824Zm-7.5-8.745a1.463,1.463,0,0,0-1.653.048,1.239,1.239,0,0,0-.545,1.553h0l5.191,6.853c.124.149.267.338.431.569h0l.263.347a26.438,26.438,0,0,1,4.414,1.22h0Zm53.43-1.915a3.688,3.688,0,0,1,4.991-1.4,3.186,3.186,0,0,1,1.394,2.3,4.181,4.181,0,0,1-.683,2.83,4.034,4.034,0,0,1-3.3,1.893,3.064,3.064,0,0,1-1.692-.5A3.682,3.682,0,0,1,138.1-30.082Zm3.3-1.248a3.39,3.39,0,0,0-2.755,1.6,3.041,3.041,0,0,0,.525,4.236,3.046,3.046,0,0,0,4.1-1.212,3.54,3.54,0,0,0,.582-2.392,2.55,2.55,0,0,0-1.108-1.844A2.419,2.419,0,0,0,141.4-31.33ZM152.236-47.5a.323.323,0,0,1,.323.323.323.323,0,0,1-.323.323h-2.178a.322.322,0,0,1-.323-.323.322.322,0,0,1,.323-.323h2.178ZM129.177-69.942c-.189.011-.506.331-.587.979-.073.579-.178,2.146-.273,3.728l-.031.526c-.108,1.835-.2,3.542-.2,3.575h0l-.641,3.376a9,9,0,0,1,2.159,2.913,9.811,9.811,0,0,1,.784,3.077l.006.06a.324.324,0,0,1-.294.349h-.028a.322.322,0,0,1-.321-.3,9.553,9.553,0,0,0-.719-2.893,7.4,7.4,0,0,0-2.106-2.794h0l-.007-.006a.315.315,0,0,1-.113-.136c0-.008-.014-.011-.016-.019a22.926,22.926,0,0,0-2.153-4.246c-.61-.8-1.13-.781-1.388-.691.106.493.369,1.681.669,2.844.1.4.231.794.361,1.194a10.389,10.389,0,0,1,.667,3.307c0,1.578,1.571,4.414,1.586,4.442a.319.319,0,0,1,.039.19h0l-.308,2.957H133.5l.518-1.683a.331.331,0,0,1,.067-.119,13.738,13.738,0,0,0,2.569-4.92,15.526,15.526,0,0,0,.746-3.492v-.074a.335.335,0,0,1,.032-.118c.014-.028.817-1.621,1.6-3.234l.222-.46c.514-1.068.984-2.08,1.171-2.578.247-.657.127-1.04.035-1.089-.044-.02-.252.037-.537.436-.842,1.178-3.716,5.262-3.716,5.262a.279.279,0,0,1-.043.04c.027.02.054.035.081.055a.322.322,0,0,1,.064.452.322.322,0,0,1-.258.128.322.322,0,0,1-.195-.065,6.884,6.884,0,0,0-6.889-1.1.322.322,0,0,1-.429-.153.323.323,0,0,1,.153-.43,5.861,5.861,0,0,1,1.216-.377,73.7,73.7,0,0,0-.327-8.356C129.5-69.729,129.336-69.968,129.177-69.942ZM101.855-83.864c-1.026.773-5.248,3.972-9.309,7.261-2.939,2.38-4.889,2.667-6.058,2.438a8.676,8.676,0,0,1,1.128,4.353,8.127,8.127,0,0,1-2.232,5.786c.037,1.307.067,2.663.071,3.727v.549c0,.258,0,.489-.011.688a9.777,9.777,0,0,1-1.326,4.946c.136.829,1.089,4.4,7.474,4.915,6.325.508,7.679-2.907,7.9-3.684a7.313,7.313,0,0,1-1.874-3.73,17.256,17.256,0,0,1-.09-2.865,6.774,6.774,0,0,1-.731.041A10.781,10.781,0,0,1,91-61.408a11.627,11.627,0,0,1-3.456-3.608.323.323,0,0,1,.1-.444.323.323,0,0,1,.444.1,10.875,10.875,0,0,0,3.276,3.418A9.637,9.637,0,0,0,97.5-60.124c2.709-.308,5.966-2.68,6.984-8.414.957-5.393-.294-11.844-.43-12.52A24.807,24.807,0,0,0,101.855-83.864Zm34.551,13.418c-.035-.025-.133-.094-.329.031-.544.35-1.663,4.243-2.542,8.173l-.13.589q-.064.294-.126.587a.32.32,0,0,1-.054.12,7.94,7.94,0,0,1,1.866.733c0-.011,0-.021,0-.032.043-.25,1.066-6.148,1.513-8.043C136.9-69.558,136.65-70.274,136.407-70.446Zm-3.087-1c-.319-.051-.74.224-.885.829-.217.909-1.537,7.944-1.826,9.485a7.434,7.434,0,0,1,1.611,0,.313.313,0,0,1-.016-.158c.007-.041.369-2.122.739-4.323l.1-.576c.337-2.015.654-3.991.689-4.466C133.762-71.1,133.609-71.4,133.32-71.444Zm-50.151-4.8a3.092,3.092,0,0,1-.814.314c1.958.886,3.368,3.289,3.368,6.114,0,3.477-2.134,6.316-4.8,6.469a3.78,3.78,0,0,0,1.067.158c2.746,0,4.98-2.973,4.98-6.626C86.97-72.925,85.347-75.534,83.169-76.241Zm-2.471.59c-2.413,0-4.378,2.619-4.378,5.838s1.965,5.838,4.378,5.838,4.378-2.619,4.378-5.838S83.112-75.651,80.7-75.651Zm13.338,8.472a.322.322,0,0,1,.431.148,3.942,3.942,0,0,0,4.487,1.88.325.325,0,0,1,.38.253.322.322,0,0,1-.253.38,5.894,5.894,0,0,1-1.163.12,4.588,4.588,0,0,1-4.032-2.35A.323.323,0,0,1,94.036-67.179Zm12.342-8.241c.007.267.014.536.018.807a8.852,8.852,0,0,1,.709,3.505,8.571,8.571,0,0,1-1.276,4.582c-.009.106-.014.212-.021.317a6.361,6.361,0,0,0,1.988-4.9A6.632,6.632,0,0,0,106.379-75.419Zm-6.522,2.551a.323.323,0,0,1,.323.316,7.51,7.51,0,0,0,.618,2.584h0l.6,1.1a.764.764,0,0,1,.075.727.761.761,0,0,1-.606.457h0l-1.206.206a.342.342,0,0,1-.055,0,.324.324,0,0,1-.318-.268.323.323,0,0,1,.265-.372h0l1.211-.206c.091-.014.108-.054.114-.067a.147.147,0,0,0-.023-.136h0l-.632-1.156a8.1,8.1,0,0,1-.685-2.858.323.323,0,0,1,.317-.328h0Zm6.516.545c-.065,1.4-.224,2.714-.364,3.95a8.435,8.435,0,0,0,.451-2.734A8.756,8.756,0,0,0,106.373-72.324Zm42.887-50.938c1.321-.2,3.691-.449,5.5,2.72a5.744,5.744,0,0,1,.664,2.016H195.9a5.807,5.807,0,0,1,5.8,5.8h0v26.382a5.806,5.806,0,0,1-5.8,5.8H155.653A54.554,54.554,0,0,1,142.168-70.6h0l-.443.217-.022-.493c0-.021-.062-1.4-.18-2.872l-.037-.442c-.051-.59-.111-1.174-.18-1.671a13.894,13.894,0,0,0-1.352-4.689h-7.243a5.807,5.807,0,0,1-5.8-5.8h0V-97.877c-.147-.647-.292-1.32-.433-2.025-.528-2.637-.993-4.554-1.081-4.909a9.829,9.829,0,0,1-1.058-1.989c-.324-.836-.449-1.184-.494-1.316-2.2-2.527-1.778-2.994-1.641-3.149a.491.491,0,0,1,.362-.161c.448-.028,1.268.647,1.9,1.239-1.615-3.558-1.128-3.888-.936-4.018a.538.538,0,0,1,.471-.063c.6.19,1.366,1.715,1.9,2.962v0l-.023-.222c-.113-1.061-.239-2.3-.272-2.791l-.006-.094c-.05-.968.44-1.174.591-1.214a.814.814,0,0,1,.9.507,3.648,3.648,0,0,1,.124.534,5.806,5.806,0,0,1,5.488-3.936h6.65c-.263-.65.347-.733,1.221-1.346.972-.683,1.275-2.488,3.12-3.044a3.467,3.467,0,0,1,2.965.526A9.415,9.415,0,0,1,149.26-123.261ZM195.9-117.88H155.487a12.328,12.328,0,0,1-.565,4.187,14.664,14.664,0,0,1,9.128,13.656,15.023,15.023,0,0,1-.261,2.778h0l0,0-.03.154v.006c-.075.375-.168.744-.27,1.109-.02.071-.038.143-.059.213-.1.333-.21.659-.33.981-.035.094-.071.188-.108.281-.122.308-.253.611-.4.908-.043.091-.089.18-.134.269-.148.293-.3.582-.467.863-.038.064-.078.126-.117.19q-.246.4-.517.788c-.04.057-.077.114-.118.171-.207.286-.426.564-.653.834l-.119.141q-.361.42-.752.81l-.059.058a14.126,14.126,0,0,1-7.355,3.866l-.1.017c-.373.066-.75.119-1.133.155l-.144.011c-.385.032-.773.053-1.165.053-.43,0-.859-.022-1.285-.061-.188-.017-.371-.051-.556-.076-.235-.031-.47-.058-.7-.1-.207-.038-.41-.091-.614-.14s-.418-.092-.624-.151c-.189-.053-.371-.118-.556-.179-.222-.073-.444-.143-.662-.227-.149-.057-.293-.123-.44-.186-.252-.106-.5-.214-.748-.336-.1-.051-.2-.107-.3-.16-.284-.149-.565-.3-.839-.472-.057-.035-.113-.074-.169-.11-.308-.2-.61-.4-.9-.62-.026-.019-.05-.039-.076-.058-.226-.172-.454-.34-.671-.526a17.085,17.085,0,0,0-1.677.978,14.8,14.8,0,0,1-2.463,1.368,3.676,3.676,0,0,1-3.7-.616,4.421,4.421,0,0,1-2.085-1.3c-1.15-1.238-2.2-3.576-3.141-6.964h0v8.965a5.161,5.161,0,0,0,4.938,5.148l.218,0h7.635l.091.173a14.31,14.31,0,0,1,1.509,5.073c.2,1.435.327,3.578.378,4.542a53.907,53.907,0,0,0,12.957-9.688h0l.1-.1H195.9a5.16,5.16,0,0,0,5.156-5.152h0v-26.382a5.16,5.16,0,0,0-5.156-5.153ZM95.45-73.322a.7.7,0,0,1,1.146-.228,1.347,1.347,0,0,1,.1,1.533.7.7,0,0,1-1.146.228A1.348,1.348,0,0,1,95.45-73.322Zm6.522-.572c.25-.5.725-.63,1.061-.289a1.416,1.416,0,0,1,.157,1.525c-.25.5-.724.63-1.061.289A1.419,1.419,0,0,1,101.972-73.894Zm-8.6-2.593a3.183,3.183,0,0,1,3.892-.968.323.323,0,0,1,.178.421.323.323,0,0,1-.421.177,2.491,2.491,0,0,0-3.114.731.323.323,0,0,1-.268.142.32.32,0,0,1-.18-.055A.322.322,0,0,1,93.376-76.487ZM95.46-91.935a11.526,11.526,0,0,0-11.227,2.72c-4.141,3.839-4.371,10.872-4.371,12.394a9.7,9.7,0,0,1,1.521.268,2.1,2.1,0,0,0,1.452-.24c-.023-.258-.057-.73-.062-1.349v-.352c.027-2.747.651-7.768,4.53-10.513,5.274-3.732,10.765-1.43,13.1-.106A10.494,10.494,0,0,0,95.46-91.935ZM101.5-77.381a2.16,2.16,0,0,1,2.628.085.322.322,0,0,1,.05.453.321.321,0,0,1-.252.121.325.325,0,0,1-.2-.07,1.518,1.518,0,0,0-1.838-.071.323.323,0,0,1-.451-.068A.321.321,0,0,1,101.5-77.381Zm47.358-39.6c-.708-.47-1.4-.823-1.123-.409.467.69-.231.885-.231.885h0l-.04-.019a5.5,5.5,0,0,0-2.473-.645c-.647.129-1.227.7-2.158.943a2.906,2.906,0,0,0-.282.338c-.017.227-.064.9-.094,1.8h0l.017-.062a.306.306,0,0,1,.028-.06l.043-.054a1.492,1.492,0,0,1,1.93-.162.323.323,0,0,1,.072.451.324.324,0,0,1-.449.074.852.852,0,0,0-1.1.1.325.325,0,0,1-.226.092.321.321,0,0,1-.231-.1.315.315,0,0,1-.085-.19,28.4,28.4,0,0,0,.246,5.345c.564,3.155,2.837,3.576,3.286,3.628a4.61,4.61,0,0,0,3.422-.891,7.12,7.12,0,0,0,1.812-1.934.324.324,0,0,1,.445-.1.323.323,0,0,1,.105.444,7.716,7.716,0,0,1-1.988,2.121,5.187,5.187,0,0,1-3.131,1.051,6.329,6.329,0,0,1-.74-.044c-1.533-.178-3.349-1.364-3.848-4.156a20.568,20.568,0,0,1-.264-2.848,14.121,14.121,0,0,0-5.662,11.355c0,.1,0,.19.007.286l.2-.118c1.137-.671,2.313-1.365,3.089-1.866a12.148,12.148,0,0,1,5.831-2.105h0l-.01.1a2,2,0,0,1-.167.57,11.761,11.761,0,0,0-5.3,1.978c-.786.509-1.968,1.207-3.11,1.881-1.195.7-2.327,1.373-2.885,1.753a.321.321,0,0,0,.081.027.219.219,0,0,1,.139.024c.07.029,1.727.755,2.482,4.058.875,3.834-.153,5.878-.2,5.963a.322.322,0,0,1-.143.14,5.314,5.314,0,0,1-1.686.435,3.65,3.65,0,0,0,1.831-.137,15.165,15.165,0,0,0,2.309-1.3,9.3,9.3,0,0,1,1.968-1.09c1.627-5.228,2.224-8.2,2.231-8.234a.318.318,0,0,1,.38-.254.322.322,0,0,1,.253.379c-.006.03-.61,3.04-2.252,8.316-.005.017-.021.025-.029.041a13.405,13.405,0,0,0,8.617,3.166,13.354,13.354,0,0,0,8.032-2.715s-.006-.005-.007-.009c-.343-1.03-.782-2.394-1.156-3.559-.349-1.087-.643-2-.75-2.3a.323.323,0,0,1,.2-.412.323.323,0,0,1,.412.2c.108.305.4,1.226.757,2.322s.756,2.351,1.089,3.352a14.021,14.021,0,0,0,4.755-7.921,17,17,0,0,0-1.973-1.942c-3.522-2.906-6.106-3.818-7.483-4.1h0l.041,1.728a.323.323,0,0,1-.315.331h0a.324.324,0,0,1-.33-.315h0l-.169-7.028a3.865,3.865,0,0,1-.663-.055.323.323,0,0,1-.254-.379.324.324,0,0,1,.379-.255,2.505,2.505,0,0,0,2.585-.989,1.465,1.465,0,0,0,.006-1.551,1.6,1.6,0,0,0-1.225-.775,2.148,2.148,0,0,0-1.118.434h0l-.439.355c-.033.064-.055.1-.058.083a9.34,9.34,0,0,0-2.077-4.54,6,6,0,0,0-.914-.744ZM128.2-114.731a.2.2,0,0,0-.124.147c-.032.2-.07,1.382-.1,2.618l-.01.437c-.01.437-.019.867-.026,1.251a.317.317,0,0,1,.17.249.322.322,0,0,1-.3.347,4.1,4.1,0,0,0-2.506,1.164.323.323,0,0,1-.239.105.322.322,0,0,1-.217-.084.323.323,0,0,1-.022-.456l.026-.027a.318.318,0,0,1-.175-.091,10.84,10.84,0,0,0-1.9-1.631,11.569,11.569,0,0,0,1.594,2.211.326.326,0,0,1,.065.118c0,.01.079.254.5,1.34a9.257,9.257,0,0,0,1.015,1.894.322.322,0,0,1,.054.113c0,.02.515,2.069,1.1,5,1.164,5.814,2.53,9.6,4.061,11.244a4.014,4.014,0,0,0,4.588.906,9.218,9.218,0,0,0,.1-5.428c-.6-2.63-1.794-3.434-2.053-3.58a.792.792,0,0,1-.164-.032c.242.678.548,1.626.888,2.891a.323.323,0,0,1-.228.4.328.328,0,0,1-.084.011.324.324,0,0,1-.312-.24,25.287,25.287,0,0,0-1.385-4.126.29.29,0,0,1-.008-.03,8.608,8.608,0,0,1-.609-1.236c-.843-2.068-2.159-5.074-2.413-5.657a.322.322,0,0,1,.06-.35,3.51,3.51,0,0,0,.743-1.174,13.1,13.1,0,0,0,.341-1.71,10.66,10.66,0,0,1,.434-2.012c.066-.155.157-.342.256-.544.167-.34.674-1.373.536-1.561a.129.129,0,0,0-.111-.025c-.383.072-1.039,1.043-1.254,1.363-.5.739-.9,1.309-1.081,1.565,0,0,0,0-.007.006a.317.317,0,0,1-.1.092,2.475,2.475,0,0,0-1.085,1.767.321.321,0,0,1-.317.267.351.351,0,0,1-.056,0,.323.323,0,0,1-.262-.374,3.243,3.243,0,0,1,1.165-2.052c-.014-.026-.029-.054-.037-.067a.235.235,0,0,1-.042-.024.321.321,0,0,1-.142-.259c0-.031-.08-3.114-.169-4.247C128.322-114.606,128.227-114.72,128.2-114.731Zm57.338,18.653a.323.323,0,0,1,.323.323.322.322,0,0,1-.323.323H171.6a.323.323,0,0,1-.323-.323.323.323,0,0,1,.323-.323h13.938Zm-30.826-17-.008.02a1.8,1.8,0,0,1-.088.268,2.429,2.429,0,0,1,.853.825,2.113,2.113,0,0,1,.01,2.2,2.622,2.622,0,0,1-1.97,1.319h0l.111,4.659c1.433.266,4.158,1.181,7.911,4.279h0l.341.291a17.7,17.7,0,0,1,1.351,1.329,14.233,14.233,0,0,0,.176-2.144A14.02,14.02,0,0,0,154.716-113.082Zm-14.993-4.8h-7.012a5.141,5.141,0,0,0-4.406,2.512c.227.034.621.217.69,1.066.081,1.013.15,3.465.167,4.122a.242.242,0,0,1,.021.024c.2-.29.47-.677.772-1.126.615-.91,1.134-1.537,1.672-1.638a.778.778,0,0,1,.6.13c.56.39.215,1.255-.183,2.084l-.141.29c-.093.19-.18.366-.242.512a10.875,10.875,0,0,0-.39,1.862,13.045,13.045,0,0,1-.368,1.816,3.991,3.991,0,0,1-.739,1.245c.385.879,1.56,3.576,2.337,5.482a6.406,6.406,0,0,0,.8,1.491c.414-.3,1.251-.8,2.217-1.374-.01-.219-.025-.436-.025-.657a14.755,14.755,0,0,1,6.292-12.133c-.02-2,.121-3.737.131-3.852h0l.007-.081c-.009-.008-.021,0-.036-.006-.94-.016-1.649-.951-2.16-1.772Zm4.919,15.757a.325.325,0,0,1,.381.248c.025.113.679,2.682,6.453,1.384a.324.324,0,0,1,.386.244.323.323,0,0,1-.245.386,13.957,13.957,0,0,1-3.022.379,5.5,5.5,0,0,1-3.016-.74,2.617,2.617,0,0,1-1.189-1.52A.323.323,0,0,1,144.642-102.122Zm48.328-.828a.322.322,0,0,1,.322.323.322.322,0,0,1-.322.323H171.6a.323.323,0,0,1-.323-.323.323.323,0,0,1,.323-.323H192.97Zm-44.414-6.142.075,0a.322.322,0,0,1,.271.365,2.485,2.485,0,0,1-2.3,1.993l-.036,0a.322.322,0,0,1-.32-.288.323.323,0,0,1,.286-.356,1.834,1.834,0,0,0,1.727-1.446.322.322,0,0,1,.368-.27Zm-3.748-2.665a.35.35,0,0,1,.326.32h0v.056a8.811,8.811,0,0,1-.245,2h0l-.13.493.825-.038a.323.323,0,0,1,.338.308.323.323,0,0,1-.307.337h0l-1.266.058h-.015a.322.322,0,0,1-.251-.12.323.323,0,0,1-.061-.285h0l.244-.918a8.368,8.368,0,0,0,.223-1.881A.323.323,0,0,1,144.808-111.757Zm48.162,2.209a.323.323,0,0,1,.322.323.322.322,0,0,1-.322.323H171.6a.323.323,0,0,1-.323-.323.323.323,0,0,1,.323-.323H192.97Zm-69.02-4a19.469,19.469,0,0,0,1.517,3.973.333.333,0,0,1,.02.078c.108-.075.228-.149.361-.225A15.4,15.4,0,0,0,123.95-113.549Zm29.957,2.079a.321.321,0,0,1,.42.177,1.192,1.192,0,0,1-.654,1.552,1.2,1.2,0,0,1-.449.088,1.193,1.193,0,0,1-.463-.094.324.324,0,0,1-.172-.423.325.325,0,0,1,.423-.172.538.538,0,0,0,.417,0,.547.547,0,0,0,.3-.711A.321.321,0,0,1,153.907-111.47Zm-27.549-3.536c-.023.012-.129.151-.109.558.031.612.342,3.477.437,4.349a4.473,4.473,0,0,1,.6-.155c-.068-.44-.148-.944-.23-1.455l-.07-.438c-.211-1.31-.42-2.548-.473-2.712A.271.271,0,0,0,126.358-115.006Zm21,3.045a.527.527,0,0,1,.446.58.527.527,0,0,1-.446.581.527.527,0,0,1-.447-.581A.527.527,0,0,1,147.357-111.961Zm-3.917-.189c.222.005.4.27.388.59s-.195.576-.417.57-.4-.269-.389-.59S143.217-112.155,143.439-112.15Zm3.474-2.232a1.752,1.752,0,0,1,2.191.363.323.323,0,0,1-.049.454.321.321,0,0,1-.2.072.321.321,0,0,1-.25-.119,1.1,1.1,0,0,0-1.4-.194.323.323,0,0,1-.435-.142A.323.323,0,0,1,146.913-114.381Z"/></clipPath><clipPath id="bu"><rect class="b" width="218" height="218" transform="translate(7 -172)"/></clipPath><clipPath id="bv"><path class="a" d="M186.442-2.746H41.975A5.39,5.39,0,0,1,36.6-7.8H191.819a5.391,5.391,0,0,1-5.376,5.058ZM49.865-9.169c-1.716-.714-2.469-2.967-2.12-6.342A17.844,17.844,0,0,1,49.894-22.1a26.074,26.074,0,0,0,6.445,3.429c3.318,1.217,7.037,1.759,12.832,1.873,5.2.1,9.751.1,9.8.1a.326.326,0,0,0,.14-.032,44.607,44.607,0,0,1,7.744-2.914,8.345,8.345,0,0,1,1.018,1.308.324.324,0,0,0,.218.141,24.916,24.916,0,0,1,5.731,1.751c.133.062.483.223.717.347,1.611.808,2.142,1.32,1.983,1.858a.871.871,0,0,1-.731.692c-2.734-1.311-8-1.867-8.227-1.891a.329.329,0,0,0-.354.288.322.322,0,0,0,.288.353c.054.006,5.419.571,8.041,1.844a1.194,1.194,0,0,1,.292,1.176,1.167,1.167,0,0,1-.952.7,26.278,26.278,0,0,0-7.046-1.218.346.346,0,0,0-.232.414.3.3,0,0,0,.381.211,28.93,28.93,0,0,1,6.676,1.2,1.8,1.8,0,0,1,.132.751,1.728,1.728,0,0,1-.6,1.2H52.6a8,8,0,0,1-2.739-.656Zm32.607-17.4a1.239,1.239,0,0,1,.545-1.553,1.463,1.463,0,0,1,1.653-.048l8.1,10.59a26.438,26.438,0,0,0-4.414-1.22l-.263-.347c-.164-.232-.307-.421-.431-.569ZM95.98-17.6a1.852,1.852,0,0,1-.529.534,2.085,2.085,0,0,1-.8.308c-.182-.088-.368-.177-.56-.267l-.128-.058-1.791-2.342c1.329.664,2.924,1.446,3.806,1.824ZM95.43-9.8l2.465,1.351h-2.9a2.082,2.082,0,0,0,.443-1.284c0-.025,0-.043-.005-.067Zm2.581.678-2.6-1.427a1.673,1.673,0,0,0,1.029-.993,1.668,1.668,0,0,0-.115-1.4l.1.125Zm3.348-.239a.88.88,0,0,1,.88-.878h58.326a.88.88,0,0,1,.88.878v.289a.874.874,0,0,1-.26.623H101.619a.877.877,0,0,1-.26-.623ZM80.7-75.651c2.414,0,4.378,2.619,4.378,5.838s-1.964,5.838-4.378,5.838-4.378-2.619-4.378-5.838,1.965-5.838,4.378-5.838Zm3.534-13.565a11.526,11.526,0,0,1,11.227-2.72,10.494,10.494,0,0,1,4.943,2.821c-2.335-1.324-7.826-3.626-13.1.106-5,3.538-4.592,10.857-4.468,12.215a2.1,2.1,0,0,1-1.452.24,9.7,9.7,0,0,0-1.521-.268c0-1.522.23-8.555,4.371-12.394Zm17.623,5.351a24.807,24.807,0,0,1,2.2,2.806c.137.676,1.387,7.127.43,12.52-1.018,5.734-4.275,8.105-6.984,8.414a9.637,9.637,0,0,1-6.129-1.814,10.875,10.875,0,0,1-3.276-3.418.323.323,0,0,0-.444-.1.323.323,0,0,0-.1.444A11.627,11.627,0,0,0,91-61.408a10.781,10.781,0,0,0,5.8,1.968,6.774,6.774,0,0,0,.731-.041,17.256,17.256,0,0,0,.09,2.865,7.313,7.313,0,0,0,1.874,3.73c-.224.777-1.578,4.192-7.9,3.684-6.385-.513-7.339-4.086-7.474-4.915a9.777,9.777,0,0,0,1.326-4.946c.032-1.057-.007-3.063-.06-4.963a8.127,8.127,0,0,0,2.232-5.786,8.676,8.676,0,0,0-1.128-4.353c1.169.229,3.12-.058,6.058-2.438,4.061-3.289,8.283-6.488,9.309-7.261ZM81.99-63.186a3.78,3.78,0,0,1-1.067-.158c2.666-.153,4.8-2.992,4.8-6.469,0-2.825-1.41-5.228-3.368-6.114a3.092,3.092,0,0,0,.814-.314c2.178.706,3.8,3.316,3.8,6.429,0,3.653-2.234,6.626-4.98,6.626Zm23.839-3.339a8.571,8.571,0,0,0,1.276-4.582,8.852,8.852,0,0,0-.709-3.505c0-.271-.01-.539-.018-.807a6.632,6.632,0,0,1,1.417,4.312,6.361,6.361,0,0,1-1.988,4.9c.007-.1.012-.21.021-.317Zm.544-5.8a8.756,8.756,0,0,1,.087,1.216,8.435,8.435,0,0,1-.451,2.734c.14-1.236.3-2.554.364-3.95Zm18.571,17.231a10.389,10.389,0,0,0-.667-3.307c-.129-.4-.258-.794-.361-1.194-.3-1.162-.563-2.35-.669-2.844.258-.089.778-.112,1.388.691a22.926,22.926,0,0,1,2.153,4.246c0,.008.012.011.016.019a.315.315,0,0,0,.113.136l0,0,0,0a7.4,7.4,0,0,1,2.106,2.794,9.553,9.553,0,0,1,.719,2.893.322.322,0,0,0,.321.3h.028a.324.324,0,0,0,.294-.349,10.027,10.027,0,0,0-.79-3.137,9,9,0,0,0-2.159-2.913l.641-3.376c0-.065.338-6.51.5-7.829.081-.648.4-.967.587-.979.159-.026.318.214.406.568a73.7,73.7,0,0,1,.327,8.356,5.861,5.861,0,0,0-1.216.377.323.323,0,0,0-.153.43.322.322,0,0,0,.429.153,6.884,6.884,0,0,1,6.889,1.1.322.322,0,0,0,.195.065.322.322,0,0,0,.258-.128.322.322,0,0,0-.064-.452c-.026-.02-.053-.035-.081-.055a.279.279,0,0,0,.043-.04s2.874-4.084,3.716-5.262c.285-.4.493-.457.537-.436.092.049.211.432-.035,1.089-.493,1.315-2.966,6.222-2.991,6.271a.356.356,0,0,0-.032.179,14.491,14.491,0,0,1-.746,3.505,13.738,13.738,0,0,1-2.569,4.92.331.331,0,0,0-.067.119L133.5-47.5h-7.243l.308-2.957a.319.319,0,0,0-.039-.19c-.015-.028-1.586-2.864-1.586-4.442Zm7.49-15.522c.145-.605.567-.879.885-.829.29.045.442.34.409.79-.076,1.041-1.511,9.282-1.525,9.365a.313.313,0,0,0,.016.158,7.434,7.434,0,0,0-1.611,0c.289-1.541,1.609-8.576,1.826-9.485Zm3.644.2c.2-.125.294-.056.329-.031.243.172.495.888.2,2.16-.447,1.9-1.47,7.793-1.513,8.043,0,.011,0,.021,0,.032a7.94,7.94,0,0,0-1.866-.733.32.32,0,0,0,.054-.12c.9-4.294,2.2-8.965,2.8-9.35ZM192.151-8.449h-30.2a1.477,1.477,0,0,0,.144-.623v-.289a1.522,1.522,0,0,0-.872-1.371,3.07,3.07,0,0,0,1.418-2.031l6.036-31.079a3.065,3.065,0,0,0-.647-2.542A3.066,3.066,0,0,0,165.65-47.5h-9.495a.323.323,0,0,0-.323.323.323.323,0,0,0,.323.323h9.495a2.425,2.425,0,0,1,1.876.884,2.425,2.425,0,0,1,.511,2.009L162-12.886a2.436,2.436,0,0,1-2.387,1.968H114.168a2.426,2.426,0,0,1-1.876-.883,2.424,2.424,0,0,1-.511-2.01l3.454-17.781a.324.324,0,0,0-.256-.379.326.326,0,0,0-.379.256l-1.739,8.955c-.432-16.369-6.905-25.378-6.974-25.472a.323.323,0,0,0-.452-.069.323.323,0,0,0-.07.451c.071.1,7.067,9.838,6.873,27.524a.319.319,0,0,0,.1.237l-1.2,6.155a3.068,3.068,0,0,0,.647,2.543,3.085,3.085,0,0,0,.535.507H102.239a1.527,1.527,0,0,0-1.526,1.524v.289a1.463,1.463,0,0,0,.144.623H98.983c0-.022,0-.045-.006-.066l-1.984-4.592a.357.357,0,0,0-.039-.068l-.167-.218a1.71,1.71,0,0,0,.354-.657c.277-.939-.468-1.623-1.675-2.288a2.391,2.391,0,0,0,1.207-1.22.407.407,0,0,0-.207-.535c-1-.4-3.706-1.751-5.189-2.5l-6.118-8a.36.36,0,0,0-.047-.049,2.064,2.064,0,0,0-2.427-.032,1.89,1.89,0,0,0-.794,2.393.354.354,0,0,0,.04.068l4.546,6a45.193,45.193,0,0,0-7.583,2.875c-.465,0-3.077,0-6.441-.05.161-1.292,1.114-8.774,2.417-14.971a.323.323,0,0,0-.25-.382.321.321,0,0,0-.382.25C72.949-26.358,72-18.979,71.82-17.525c-.327.028-.964.073-1.83.1l-.806-.015a46.1,46.1,0,0,1-10.011-1.044l-.128-.031q-.291-.072-.575-.15l-.09-.025c-.626-.174-1.23-.368-1.819-.584a26.487,26.487,0,0,1-4.923-2.42,15.292,15.292,0,0,1-3.567-3.328c.949-1.631,8.183-13.771,17.63-21.518A37.026,37.026,0,0,1,83.589-54.7l-.119.339-.077.253.086.082a5.436,5.436,0,0,0,1.138,2.438c.966,1.209,2.95,2.716,6.923,3.035q.677.054,1.284.054c6.5,0,7.339-4.377,7.347-4.425l.029-.172-.126-.119a6.554,6.554,0,0,1-.727-.894c1.91.137,7.857,1.377,17.56,10.522L115.9-38.418a.323.323,0,0,0,.256.378.335.335,0,0,0,.063.006.323.323,0,0,0,.316-.261l1.282-6.6a2.434,2.434,0,0,1,2.386-1.967h26.1a.323.323,0,0,0,.323-.323.323.323,0,0,0-.323-.323H134.18l.44-1.428a14.244,14.244,0,0,0,2.661-5.122,16.837,16.837,0,0,0,.77-3.64c.324-.644,2.5-4.988,2.982-6.261.326-.869.219-1.627-.266-1.886-.154-.084-.713-.281-1.366.631-.708.991-2.857,4.041-3.52,4.985l-.122-.1c.182-1.043,1.075-6.129,1.472-7.818.314-1.33.14-2.416-.452-2.834a.9.9,0,0,0-1.051.015c-.718.461-1.643,3.685-2.3,6.354.413-2.438.9-5.383.945-6a1.232,1.232,0,0,0-.954-1.476,1.532,1.532,0,0,0-1.613,1.317c-.15.625-.787,3.967-1.281,6.583a40.265,40.265,0,0,0-.315-5.349c-.258-1.026-.889-1.071-1.073-1.055-.591.035-1.079.67-1.189,1.543-.168,1.342-.493,7.61-.5,7.832l-.471,2.472a18.418,18.418,0,0,0-1.825-3.4,2.234,2.234,0,0,0-1.444-.974,1.437,1.437,0,0,0-1.024.248.322.322,0,0,0-.118.321c0,.015.333,1.584.726,3.11.106.412.238.819.371,1.231a9.87,9.87,0,0,1,.636,3.109c0,1.6,1.336,4.146,1.618,4.666l-.3,2.924H120.2a3.082,3.082,0,0,0-3.021,2.489l-.132.68a62.141,62.141,0,0,0-7.557-6.122c1.354-4.566,1.061-7.151-1.849-9.818a6.223,6.223,0,0,1-1.869-5.069,6.946,6.946,0,0,0,2.667-5.763,7.057,7.057,0,0,0-2.1-5.319c-.214-4.515-1.088-8.458-3.938-10.867-.208-.176-.4-.332-.6-.483l-.126-.433c-.484-1.66-3.082-3.53-6.047-4.349a12.437,12.437,0,0,0-8.154.455A10.121,10.121,0,0,0,83.5-90.326c-6.457,4.724-5.935,11.748-6.458,15.441-.035.247-.065.508-.093.778a7.572,7.572,0,0,0-1.279,4.3,8.162,8.162,0,0,0,.2,1.769c-.938,2.509-2.843,5.006-6.993,6.8-4.416,1.912-7.883,7.15-4.69,12.682a12.05,12.05,0,0,0,1.072,1.543C55.091-38.659,47.479-25.29,47.4-25.156l-.1.183.125.168a15.061,15.061,0,0,0,2.016,2.2A18.156,18.156,0,0,0,47.1-15.578c-.514,4.969,1.355,6.522,2.514,7,.112.047.217.083.325.124H36.267a.323.323,0,0,0-.323.323A6.036,6.036,0,0,0,41.975-2.1H186.442a6.036,6.036,0,0,0,6.032-6.026.322.322,0,0,0-.323-.323Z"/></clipPath><clipPath id="bw"><path class="b" d="M35-2H202V-124H35Z"/></clipPath><clipPath id="bx"><path class="a" d="M152.236-46.858a.323.323,0,0,0,.323-.323.323.323,0,0,0-.323-.323h-2.178a.322.322,0,0,0-.323.323.322.322,0,0,0,.323.323Z"/></clipPath><clipPath id="bz"><path class="a" d="M143.263-26.7a3.046,3.046,0,0,1-4.1,1.212,3.041,3.041,0,0,1-.525-4.236,3.39,3.39,0,0,1,2.755-1.6,2.419,2.419,0,0,1,1.341.391,2.55,2.55,0,0,1,1.108,1.844,3.54,3.54,0,0,1-.582,2.392m-.171-4.776a3.688,3.688,0,0,0-4.991,1.4,3.682,3.682,0,0,0,.711,5.13,3.064,3.064,0,0,0,1.692.5,4.034,4.034,0,0,0,3.3-1.893,4.181,4.181,0,0,0,.683-2.83,3.186,3.186,0,0,0-1.394-2.3"/></clipPath><clipPath id="cb"><path class="a" d="M96.694-72.018a1.347,1.347,0,0,0-.1-1.533.7.7,0,0,0-1.146.228,1.348,1.348,0,0,0,.1,1.533.7.7,0,0,0,1.146-.228"/></clipPath><clipPath id="cd"><path class="a" d="M101.972-73.894a1.419,1.419,0,0,0,.157,1.525c.337.341.811.212,1.061-.289a1.416,1.416,0,0,0-.157-1.525c-.336-.342-.811-.212-1.061.289"/></clipPath><clipPath id="cf"><path class="a" d="M99.6-67.476a.342.342,0,0,0,.055,0l1.206-.206a.761.761,0,0,0,.606-.457.764.764,0,0,0-.075-.727l-.6-1.1a7.51,7.51,0,0,1-.618-2.584.323.323,0,0,0-.323-.316H99.85a.323.323,0,0,0-.317.328,8.1,8.1,0,0,0,.685,2.858l.632,1.156a.147.147,0,0,1,.023.136c-.006.013-.022.052-.114.067l-1.211.206a.323.323,0,0,0-.265.372.324.324,0,0,0,.318.268"/></clipPath><clipPath id="ch"><path class="a" d="M94.468-67.03a.322.322,0,0,0-.431-.148.323.323,0,0,0-.15.431,4.588,4.588,0,0,0,4.032,2.35,5.894,5.894,0,0,0,1.163-.12.322.322,0,0,0,.253-.38.325.325,0,0,0-.38-.253,3.942,3.942,0,0,1-4.487-1.88"/></clipPath><clipPath id="cj"><path class="a" d="M93.643-75.984a.323.323,0,0,0,.268-.142,2.491,2.491,0,0,1,3.114-.731.323.323,0,0,0,.421-.177.323.323,0,0,0-.178-.421,3.183,3.183,0,0,0-3.892.968.322.322,0,0,0,.087.448.32.32,0,0,0,.18.055"/></clipPath><clipPath id="cl"><path class="a" d="M101.884-76.863a1.518,1.518,0,0,1,1.838.071.325.325,0,0,0,.2.07.321.321,0,0,0,.252-.121.322.322,0,0,0-.05-.453,2.16,2.16,0,0,0-2.628-.085.321.321,0,0,0-.065.45.323.323,0,0,0,.451.068"/></clipPath><clipPath id="cn"><path class="a" d="M201.06-86.344a5.16,5.16,0,0,1-5.156,5.152H155.377l-.1.1A53.907,53.907,0,0,1,142.324-71.4c-.051-.964-.18-3.108-.378-4.542a14.31,14.31,0,0,0-1.509-5.073l-.091-.173h-7.635a5.16,5.16,0,0,1-5.156-5.152V-95.31c.94,3.388,1.991,5.726,3.141,6.964a4.421,4.421,0,0,0,2.085,1.3,3.676,3.676,0,0,0,3.7.616,14.8,14.8,0,0,0,2.463-1.368,17.085,17.085,0,0,1,1.677-.978c.217.186.445.354.671.526.025.019.05.039.076.058.293.22.6.425.9.62.056.036.112.075.169.11.275.168.555.323.839.472.1.053.2.109.3.16.245.121.5.229.748.336.147.063.291.129.44.186.218.084.44.155.662.227.185.061.368.126.556.179.206.058.415.1.624.151s.406.1.614.14c.232.043.468.07.7.1.186.025.368.058.556.076.426.039.855.061,1.285.061.393,0,.781-.021,1.165-.053l.144-.011c.383-.036.76-.088,1.133-.155l.1-.017a14.126,14.126,0,0,0,7.355-3.866l.059-.058q.391-.39.752-.81l.119-.141c.226-.27.446-.547.653-.834.041-.056.078-.114.118-.171q.27-.386.517-.788c.039-.064.079-.126.117-.19.166-.281.319-.57.467-.863.045-.089.091-.178.134-.269.142-.3.273-.6.4-.908.038-.093.074-.187.108-.281.12-.322.232-.648.33-.981.021-.071.039-.142.059-.213.1-.364.2-.733.27-1.109V-97.1l.03-.154,0,0a15.023,15.023,0,0,0,.261-2.778,14.664,14.664,0,0,0-9.128-13.656,12.328,12.328,0,0,0,.565-4.187H195.9a5.16,5.16,0,0,1,5.156,5.153Zm-75.053-18.683a.322.322,0,0,0-.054-.113,9.257,9.257,0,0,1-1.015-1.894c-.421-1.086-.5-1.33-.5-1.34a.326.326,0,0,0-.065-.118,11.569,11.569,0,0,1-1.594-2.211,10.84,10.84,0,0,1,1.9,1.631.318.318,0,0,0,.175.091l-.026.027a.323.323,0,0,0,.022.456.322.322,0,0,0,.217.084.323.323,0,0,0,.239-.105,4.1,4.1,0,0,1,2.506-1.164.322.322,0,0,0,.3-.347.317.317,0,0,0-.17-.249c.03-1.6.089-4.006.137-4.306a.2.2,0,0,1,.124-.147c.023.011.118.125.147.481.089,1.133.168,4.216.169,4.247a.321.321,0,0,0,.142.259.235.235,0,0,0,.042.024c.008.013.023.041.037.067a3.243,3.243,0,0,0-1.165,2.052.323.323,0,0,0,.262.374.351.351,0,0,0,.056,0,.321.321,0,0,0,.317-.267,2.475,2.475,0,0,1,1.085-1.767.317.317,0,0,0,.1-.092s.005,0,.007-.006c.182-.256.583-.827,1.081-1.565.215-.32.871-1.292,1.254-1.363a.129.129,0,0,1,.111.025c.138.187-.369,1.221-.536,1.561-.1.2-.19.389-.256.544a10.66,10.66,0,0,0-.434,2.012,13.1,13.1,0,0,1-.341,1.71,3.51,3.51,0,0,1-.743,1.174.322.322,0,0,0-.06.35c.255.582,1.57,3.589,2.413,5.657a8.608,8.608,0,0,0,.609,1.236.29.29,0,0,0,.008.03,25.287,25.287,0,0,1,1.385,4.126.324.324,0,0,0,.312.24.328.328,0,0,0,.084-.011.323.323,0,0,0,.228-.4c-.34-1.265-.646-2.214-.888-2.891a.792.792,0,0,0,.164.032c.258.147,1.453.951,2.053,3.58a9.218,9.218,0,0,1-.1,5.428,4.014,4.014,0,0,1-4.588-.906c-1.531-1.647-2.9-5.43-4.061-11.244-.587-2.929-1.1-4.977-1.1-5Zm-2.058-8.521a15.4,15.4,0,0,1,1.9,3.826c-.133.076-.253.15-.361.225a.333.333,0,0,0-.02-.078,19.469,19.469,0,0,1-1.517-3.973Zm2.409-1.457a.271.271,0,0,1,.151.147c.08.246.509,2.909.773,4.6a4.473,4.473,0,0,0-.6.155c-.1-.872-.407-3.737-.437-4.349-.02-.407.087-.546.109-.558Zm6.353-2.874h7.012c.511.821,1.22,1.755,2.16,1.772.014,0,.027,0,.041,0l-.005.008-.007.081c-.009.115-.151,1.852-.131,3.852a14.755,14.755,0,0,0-6.292,12.133c0,.221.015.438.025.657-.966.573-1.8,1.078-2.217,1.374a6.406,6.406,0,0,1-.8-1.491c-.777-1.906-1.952-4.6-2.337-5.482a3.991,3.991,0,0,0,.739-1.245,13.045,13.045,0,0,0,.368-1.816,10.875,10.875,0,0,1,.39-1.862c.063-.147.149-.322.242-.512.446-.909.951-1.939.324-2.374a.778.778,0,0,0-.6-.13c-.538.1-1.057.727-1.672,1.638-.3.449-.569.835-.772,1.126a.242.242,0,0,0-.021-.024c-.017-.657-.087-3.109-.167-4.122-.068-.849-.462-1.032-.69-1.066a5.141,5.141,0,0,1,4.406-2.512Zm18.953,9.921a.324.324,0,0,0-.445.1,7.12,7.12,0,0,1-1.812,1.934,4.61,4.61,0,0,1-3.422.891c-.45-.052-2.723-.473-3.286-3.628a28.4,28.4,0,0,1-.246-5.345.315.315,0,0,0,.085.19.321.321,0,0,0,.231.1.325.325,0,0,0,.226-.092.852.852,0,0,1,1.1-.1.324.324,0,0,0,.449-.074.323.323,0,0,0-.072-.451,1.492,1.492,0,0,0-1.93.162.313.313,0,0,0-.087.177c.031-.892.077-1.569.094-1.8a2.906,2.906,0,0,1,.282-.338c.931-.246,1.51-.814,2.158-.943a5.757,5.757,0,0,1,2.513.665s.7-.195.231-.885,1.775.75,2.272,1.313a9.34,9.34,0,0,1,2.077,4.54c0,.018.025-.019.058-.083l.439-.355a2.148,2.148,0,0,1,1.118-.434,1.6,1.6,0,0,1,1.225.775,1.465,1.465,0,0,1-.006,1.551,2.505,2.505,0,0,1-2.585.989.324.324,0,0,0-.379.255.323.323,0,0,0,.254.379,3.865,3.865,0,0,0,.663.055l.169,7.028a.323.323,0,0,0,.323.315h.007a.323.323,0,0,0,.315-.331l-.041-1.728c1.377.286,3.961,1.2,7.483,4.1a17,17,0,0,1,1.973,1.942,14.021,14.021,0,0,1-4.755,7.921c-.332-1-.737-2.26-1.089-3.352s-.648-2.016-.757-2.322a.323.323,0,0,0-.412-.2.323.323,0,0,0-.2.412c.107.3.4,1.216.75,2.3.375,1.165.813,2.529,1.156,3.559,0,0,.005,0,.007.009a13.354,13.354,0,0,1-8.032,2.715,13.405,13.405,0,0,1-8.617-3.166c.008-.015.024-.024.029-.041,1.642-5.276,2.246-8.286,2.252-8.316a.322.322,0,0,0-.253-.379.318.318,0,0,0-.38.254c-.007.029-.6,3.005-2.231,8.234a9.3,9.3,0,0,0-1.968,1.09,15.165,15.165,0,0,1-2.309,1.3,3.65,3.65,0,0,1-1.831.137,5.314,5.314,0,0,0,1.686-.435.322.322,0,0,0,.143-.14c.044-.085,1.072-2.129.2-5.963-.754-3.3-2.412-4.028-2.482-4.058a.219.219,0,0,0-.139-.024.321.321,0,0,1-.081-.027c.558-.38,1.69-1.048,2.885-1.753,1.143-.675,2.324-1.372,3.11-1.881a11.761,11.761,0,0,1,5.3-1.978,2,2,0,0,0,.167-.57c0-.031.007-.067.01-.1a12.148,12.148,0,0,0-5.831,2.105c-.775.5-1.951,1.2-3.089,1.866l-.2.118c0-.1-.007-.19-.007-.286a14.121,14.121,0,0,1,5.662-11.355,20.568,20.568,0,0,0,.264,2.848c.5,2.792,2.315,3.978,3.848,4.156a6.329,6.329,0,0,0,.74.044,5.187,5.187,0,0,0,3.131-1.051,7.716,7.716,0,0,0,1.988-2.121.323.323,0,0,0-.105-.444Zm3.044-5.1.008-.02a14.02,14.02,0,0,1,8.688,13.045,14.233,14.233,0,0,1-.176,2.144,17.065,17.065,0,0,0-1.692-1.62h0c-3.753-3.1-6.477-4.013-7.911-4.279l-.111-4.659a2.622,2.622,0,0,0,1.97-1.319,2.113,2.113,0,0,0-.01-2.2,2.429,2.429,0,0,0-.853-.825,1.8,1.8,0,0,0,.088-.268Zm41.2-5.464H155.419a5.744,5.744,0,0,0-.664-2.016c-1.8-3.17-4.175-2.924-5.5-2.72a9.415,9.415,0,0,0-2.593.872,3.467,3.467,0,0,0-2.965-.526c-1.846.556-2.148,2.361-3.12,3.044-.874.614-1.485.7-1.221,1.346h-6.65a5.806,5.806,0,0,0-5.488,3.936,3.648,3.648,0,0,0-.124-.534.814.814,0,0,0-.9-.507c-.151.04-.641.246-.591,1.214.021.438.175,1.931.3,3.11-.538-1.247-1.3-2.772-1.9-2.962a.538.538,0,0,0-.471.063c-.193.13-.679.46.936,4.018-.636-.593-1.457-1.267-1.9-1.239a.491.491,0,0,0-.362.161c-.137.155-.554.622,1.641,3.149.045.132.17.481.494,1.316a9.829,9.829,0,0,0,1.058,1.989c.088.355.553,2.272,1.081,4.909.141.7.286,1.379.433,2.025v11.533a5.807,5.807,0,0,0,5.8,5.8h7.243a13.894,13.894,0,0,1,1.352,4.689c.257,1.862.4,4.955.4,4.985l.022.493.443-.217a54.554,54.554,0,0,0,13.485-9.949H195.9a5.806,5.806,0,0,0,5.8-5.8v-26.382a5.807,5.807,0,0,0-5.8-5.8Z"/></clipPath><clipPath id="cp"><path class="a" d="M192.97-109.548H171.6a.323.323,0,0,0-.323.323.323.323,0,0,0,.323.323H192.97a.322.322,0,0,0,.322-.323.323.323,0,0,0-.322-.323"/></clipPath><clipPath id="cr"><path class="a" d="M192.97-102.95H171.6a.323.323,0,0,0-.323.323.323.323,0,0,0,.323.323H192.97a.322.322,0,0,0,.322-.323.322.322,0,0,0-.322-.323"/></clipPath><clipPath id="ct"><path class="a" d="M185.542-96.078H171.6a.323.323,0,0,0-.323.323.323.323,0,0,0,.323.323h13.938a.322.322,0,0,0,.323-.323.323.323,0,0,0-.323-.323"/></clipPath><clipPath id="cv"><path class="a" d="M147.8-111.38a.527.527,0,0,0-.446-.58.527.527,0,0,0-.447.58.527.527,0,0,0,.447.581.527.527,0,0,0,.446-.581"/></clipPath><clipPath id="cx"><path class="a" d="M143.439-112.15c-.222-.005-.409.25-.418.57s.166.585.389.59.41-.249.417-.57-.166-.585-.388-.59"/></clipPath><clipPath id="cz"><path class="a" d="M145.583-108.931l-.825.038.13-.493a8.876,8.876,0,0,0,.245-2.051.35.35,0,0,0-.326-.32.323.323,0,0,0-.32.326,8.368,8.368,0,0,1-.223,1.881l-.244.918a.323.323,0,0,0,.061.285.322.322,0,0,0,.251.12h.015l1.266-.058a.323.323,0,0,0,.307-.337.323.323,0,0,0-.338-.308"/></clipPath><clipPath id="db"><path class="a" d="M148.631-109.089a.322.322,0,0,0-.368.27,1.834,1.834,0,0,1-1.727,1.446.323.323,0,0,0-.286.356.322.322,0,0,0,.32.288l.036,0a2.485,2.485,0,0,0,2.3-1.993.322.322,0,0,0-.271-.365"/></clipPath><clipPath id="dd"><path class="a" d="M146.913-114.381a.323.323,0,0,0-.142.434.323.323,0,0,0,.435.142,1.1,1.1,0,0,1,1.4.194.321.321,0,0,0,.25.119.321.321,0,0,0,.2-.072.323.323,0,0,0,.049-.454,1.752,1.752,0,0,0-2.191-.363"/></clipPath><clipPath id="df"><path class="a" d="M152.761-109.746a1.193,1.193,0,0,0,.463.094,1.2,1.2,0,0,0,.449-.088,1.192,1.192,0,0,0,.654-1.552.321.321,0,0,0-.42-.177.321.321,0,0,0-.177.42.547.547,0,0,1-.3.711.538.538,0,0,1-.417,0,.325.325,0,0,0-.423.172.324.324,0,0,0,.172.423"/></clipPath><clipPath id="dh"><path class="a" d="M151.475-100.49c-5.774,1.3-6.428-1.271-6.453-1.384a.325.325,0,0,0-.381-.248.323.323,0,0,0-.252.381,2.617,2.617,0,0,0,1.189,1.52,5.5,5.5,0,0,0,3.016.74,13.957,13.957,0,0,0,3.022-.379.323.323,0,0,0,.245-.386.324.324,0,0,0-.386-.244"/></clipPath><clipPath id="dj"><path class="a" d="M27.752-171.836H204.437a20.049,20.049,0,0,1,20.049,20.049V25.9A20.049,20.049,0,0,1,204.437,45.95H27.752A20.049,20.049,0,0,1,7.7,25.9V-151.786A20.049,20.049,0,0,1,27.752-171.836Z"/></clipPath><clipPath id="dl"><path class="a" d="M95.021-46.718c-.033.044.068.126-.043.113.03.1.1.006.144.039.049-.077-.017-.145,0-.2,0,.032.03.028.061.037h0l-.042-.071a.132.132,0,0,0,.076-.029h0l-.045.038c.056,0,.161.113.242.026-.019.034-.058.1.012.133.1-.066.031.027.1.073.1-.041-.009-.139.152-.128.016,0-.008-.044-.028-.061.11.012.155-.053.268-.022-.049-.009-.088-.027-.037-.077-.011.068.1.038.143.068h0v-.039c.04.033.011.057-.011.076a.021.021,0,0,0-.032-.015c-.043.041.008.18.091.175a.134.134,0,0,0,.015-.185c.122.013.063-.2.183-.162.024-.006.146.128.227.119.017-.1-.113-.036-.088-.122.186.174.222-.21.424-.135h0l.011.11a.291.291,0,0,0,.121-.036h0l-.075-.038c.032-.035.129-.044.124.043.061-.111.1-.067.185-.067-.089.019-.006-.013-.052.059.107.021.1-.015.159-.058,0,.039.054.084.079.076.035-.088.139-.113.206-.179h0l.011.03c.119-.091.322-.011.422-.153h0l.005-.006-.013,0c-.086-.076.078-.107.1-.163.019.019.041.058.064.048-.037-.088.03-.07.03-.119.058.008.041.107.117.065.026-.022.009-.068-.009-.1a.175.175,0,0,0,.148.037c0,.029-.04.011-.047.021.016.048.036.018.063.077.04-.011-.023-.088.036-.08h0l-.009.088c.027.008.036-.031.043-.041l0,0,0,.026a.22.22,0,0,0,.027.074l.019.033c.083-.1-.068-.193-.1-.27.125,0,.16-.122.233-.163h0l.026.086a.1.1,0,0,0,.036-.1h0l.056-.032a.152.152,0,0,0,.015.141c.048-.056.142-.083.1-.2v0l.007.016c.083-.006.221-.058.273-.054l.02.01c.066-.082.211-.085.15-.189.033-.056.208.044.163-.1.1.027.02.025.05.11.1.026.051-.178.164-.05.04-.089-.035-.018-.054-.1.1.12.142-.061.254-.033-.008-.073-.05-.011-.042-.1a.041.041,0,0,0,.062.016h0l-.046-.089.206.15c.025-.163-.119-.122-.023-.251h0l0,.012c.094.055.042-.125.174-.133-.041.009.017.047.026.077h0l.021-.07,0,.01.011.009c.089.022.011-.061.1-.051-.021.043.038.093.075.107h0l0-.145.058.127c.078-.051.035-.3.191-.193h0l-.019.046c.024.021.109.075.108-.018,0-.025-.042-.091-.058-.07h0l.055-.009c.044.077-.023.176-.061.244-.006-.042.015-.1-.034-.131-.026.066-.036.147-.064.21a.471.471,0,0,0-.043-.13c-.082.009,0,.079-.035.119-.038-.014-.063-.023-.071-.053a.153.153,0,0,1-.142.118s.018-.1-.046-.112c-.062.12-.02.216-.091.348-.04.216-.3.112-.329.258.017.036.109.012.062.072-.034-.072-.065-.018-.085-.042,0,.139-.11.042-.113.138,0-.03-.058-.031-.1-.038-.046-.087-.091.013-.073-.165-.017.187-.185.083-.144.315h0l.04.009-.124.018c-.047.01-.041.037-.15-.018.013-.035.05-.056.062-.091-.1-.044-.074.126-.132.164-.032-.063.05-.057-.01-.122-.048.014-.057.08-.087.12h0l-.013-.037c-.146-.02.052.193-.088.12.013.019.015.047.031.065-.049-.02-.147-.045-.1-.127a.143.143,0,0,0-.061.121c.058.036.053.006.1.066h0l-.135.111c-.017.008,0-.04.017-.051-.269-.1-.289.335-.594.2.048.047.008.06.006.108-.075.009-.172.065-.249.053h0l0-.048c-.139.113-.226.223-.342.239,0,.02-.021-.06-.006-.079-.051.107-.231-.1-.195.073h.034c-.164.031-.3.2-.461.272-.069-.086.092-.04.021-.145-.125,0-.215.116-.348.122.016-.019.008-.029.016-.038-.141-.025.042.094-.066.112-.008-.05-.016-.061-.058-.075h0l-.01.087-.009-.024a.254.254,0,0,1-.008-.04v-.037l-.024.056c-.037.041-.105.047-.141.083l-.023.047-.011-.041c0-.019-.005-.042-.009-.062l-.017-.05c-.063-.016-.091.032-.119.078h0c-.056-.06-.15-.027-.132-.044-.107-.009,0,.059-.065.138h0l.091.026-.138.055.046-.062c-.074-.023-.122.078-.2.094h0l.048.049-.08.055c-.034-.116-.118,0-.1-.148-.171-.019-.247.151-.4.183.026,0,.011-.027.013-.047-.092-.013-.133.056-.175.126,0-.039.023-.054.019-.086-.1.014-.052.078-.161.131.024-.055.01-.079-.023-.087a.093.093,0,0,1-.029.094c.05-.251-.142-.077-.115-.274,0,.051-.16.181-.1.27h0l.029-.023c.012.065-.034.045-.065.055.015-.013.03-.031.029-.044-.152.1-.33.062-.508.13.013-.026.083-.075.033-.091-.185-.021-.278.112-.458.186-.02-.152.2-.037.191-.183a3.749,3.749,0,0,0-.6.212c-.086-.221-.207.114-.348-.065.015.075-.051.1-.124.1.023-.062-.053-.063-.033-.107-.062.069-.246.1-.241-.049-.015.141-.136-.007-.188.094-.08-.053-.172.029-.272-.013.034.089-.1.042-.139.08.011-.006.032-.018.027-.031-.029-.077-.118.068-.173.022-.025-.032.008-.082-.033-.09,0,.066-.159.134-.212.05.026,0,.028-.029.045-.053-.272.09-.549-.063-.831.045h0l.056-.1c-.16-.149-.126.167-.261.142a5.008,5.008,0,0,0-1.094-.268c-.03.027.01.04.008.085-.029-.017-.026-.107-.075-.057h0v.058c-.141-.178-.49.036-.572-.222-.171.07-.253-.1-.466-.012-.05-.064.088-.082.01-.114h0l-.191.05.011-.006c-.205.131-.4-.287-.639-.212h0l.011-.006c.014-.037-.017-.094-.054-.088-.019.025,0,.044.013.081a.867.867,0,0,1-.4-.014c.079-.038-.045-.068-.029-.15-.053.04,0,.09-.1.107a1.071,1.071,0,0,1-.307-.194c-.063.057-.11.021-.141.107-.14-.038-.228-.028-.4-.083h0l.006-.031c-.084.094-.127-.1-.18-.055.018-.036.042-.044.048-.075h0l-.087,0c.048-.017.1-.11.048-.146-.091.048,0,.058-.055.106h0l.018-.107c-.052-.009-.108.1-.06.151-.164-.07-.346-.091-.486-.169h0L85.593-47c-.091-.01-.2-.057-.223-.132-.011.017-.046.043-.042.068-.135.044.037-.107-.111-.059.037-.012.076-.011.1-.046a2.178,2.178,0,0,1-.23-.012c.019-.047-.045-.211-.144-.213a.081.081,0,0,0,.007.087h0l-.062,0,.015-.127-.121.053.044-.089c-.063-.011-.145.09-.185.059-.135-.145-.085-.156-.155-.3-.107.156-.183-.1-.278-.007-.073-.221-.331-.288-.5-.452h0l.025,0c-.031-.127-.176.055-.244-.036h0l.039-.008c-.053-.159-.29-.243-.445-.263.039,0,.067-.061.03-.083-.051.006-.057.126-.092.05.026,0,.041-.044.029-.056h0l-.118.026a1.45,1.45,0,0,0-.4-.474.051.051,0,0,1,.023-.049l.046-.024c-.124-.1-.292-.15-.406-.239h0l.07-.085c-.045-.053-.152.081-.138-.055,0-.025.044.041.1.027-.028-.162-.132.009-.21-.1h0l.115-.054c-.009-.126-.123-.046-.2-.028-.206-.018.118-.231-.091-.31-.068.014-.064.064-.132.077-.06-.129-.136-.093-.192-.226.107-.169.04.057.134-.11h0l.026.11c.026-.132.067.052.146-.025-.013-.073-.145-.1-.226-.152.067-.048.066.078.134-.02h0L81.66-50.3c.026,0,.054-.02.066,0,.054-.058-.026-.045-.052-.079a.553.553,0,0,0-.126.1l0,0,.008-.009h0l.008-.015c-.148,0-.162-.177-.281-.191.027,0,.027-.015.042-.029-.023-.049-.144-.038-.209-.086.032-.066.167-.075.08-.157-.069.016-.145.123-.193.035,0,0,.092.046.11-.018-.09-.058,0-.038.027-.151-.109,0-.018-.1-.161-.031.077-.077.044-.05.084-.14-.063.065-.125-.062-.214-.012.093-.076.171.025.245-.1-.093-.011-.161-.088-.279-.04.007-.05.041-.088.024-.15,0,.012.025.013.039.013-.13-.065-.117-.256-.281-.258.176-.048-.072-.236.119-.217a.3.3,0,0,0-.161-.088c.135-.044,0-.126.059-.2-.084,0-.086-.09-.147-.127a.072.072,0,0,0,.085,0c-.074-.038-.016-.041.035-.109-.062-.065-.1.045-.176.016.012-.077.084-.035.137-.063h0l-.165-.063a.12.12,0,0,1,.066-.063c-.05-.024-.115-.045-.06-.111h0l.024.089.063-.051-.112-.087c.071-.186.235-.151.383-.165h0l.036.05a.086.086,0,0,0,.07-.075c.03-.023.174.051.207.1.025.154-.163.072-.171.189h0l.122.117-.048.016c-.027.032.031.029.044.031-.075.012.015.121.022.181h0l.055-.041c.2.1-.067.3.06.4h0l.138.042-.082.056c.075.027.143.006.152.1-.024.359.324.554.394.876.015-.014.016-.026.019-.051-.053.372.45.213.433.525h0l-.039.008c.091.09-.042.01-.025.115.105-.06.176.066.256.094-.026.007-.04-.014-.067-.019-.012.027-.063.076-.022.091.183-.047.279.1.4.158-.05.066-.022.19-.071.319.03-.01.09-.035.147-.06,0,.068.05.065.105.056l-.078-.069h0s0-.007-.011-.009c-.023-.017-.036-.024-.036-.015.017-.088.046-.039.108-.105.027.031.11.069.068.124a.16.16,0,0,1,.031.065c.021,0,.038.007.045.027H83a.1.1,0,0,0-.012.028c.031.086.206.068.293.067-.123.039-.075.107-.13.169a.683.683,0,0,0-.119-.136.088.088,0,0,1-.025.05c.006.127.158.056.218.185a.066.066,0,0,0-.054.032c.021.047.1.025.138-.006-.045.069,0,.177.057.182.076-.024.091-.052.148,0h0l-.063.023c.042.1.112-.017.141.068l0,0-.009-.011c-.01,0-.022.012-.027.026v.02c.095.036.116.013.239-.035h0l-.064.063c.093.013.282.011.214.109.088-.166.2.017.261.059-.023-.008-.05.021-.062.036.192-.02.251.163.378.246h0l-.051.13c.069.041.226-.177.3-.134h0l-.06.042a.817.817,0,0,1,.291.17h0l-.046.079c.059-.016.108.01.167-.007-.007.241.4.1.468.383h0l.081-.151c.064.03.161.034.141.164h0l-.014-.008c-.058.117.065.03.095.074.037,0,.1-.066.084-.1.141.152.43.178.486.367.2,0,.38-.081.569,0h0l-.009.018c.058.042.177.129.137.265.152.013.294-.147.445-.033h0l-.051.041c.021.026.061.017.095,0l.05-.025c.015.006,0,.031-.011.05.03.056.073-.013.109-.019h0l-.025.044c.115.126.377-.014.547.048-.035.007-.029.064-.021.089.106-.139.3-.058.377-.078h0l-.057.051c.162-.07.094.192.256.12h0l-.065-.108c.053.04.107.019.107-.053.059.062-.013.121.089.15,0,.044-.081.019-.056.081h0l.126.138c0,.013.02.019.07.013.019-.2.122.007.081-.194.207.015.361.169.55.1.047.2.349.058.3.3a.265.265,0,0,0,.261-.112c-.018-.022-.047,0-.068.014.033-.06.154-.048.2-.047-.072.054-.183.081-.246.169a.934.934,0,0,0,.286-.115h0l.011.129c.086-.087.055.108.145-.012h0l-.011-.039c.141.019.154-.107.286-.114h0l-.009.05c.044.023.119-.091.155.027h0l-.086,0c0,.09.065.134.092.18.093-.016.043-.143.089-.151.013.085,0,.045-.036.125a.522.522,0,0,0,.323-.149.063.063,0,0,1,0,.031c.105.023.2-.121.266-.045h0l-.021.011c.08.132.222-.1.233.1.039.039-.091-.008-.03.095.125.066.089-.176.2-.117-.015-.006-.011.006-.016.025a1.656,1.656,0,0,0,.276-.047c.109.171.332-.043.46.156-.041-.071.03-.082.029-.114h0a.079.079,0,0,0,0,.017l0,.014c.046.005.05-.061.066-.09.039.061.124-.065.149-.025,0-.044.036-.032.076-.032-.079.05-.023.095-.056.164.123.023.131-.2.258-.174h0l.074.078c.007-.128.126-.086.12-.133.024.038.057.059.056.123.048-.035.128.025.143-.053h0l-.052-.029c.159.036.236-.153.362-.078h0l.016.191c.088.072.137-.116.218-.006-.031-.062-.034-.042.01-.109-.031-.011-.082.043-.132.045h0l.1-.12-.161.067c.064-.08.06-.061.024-.136.094-.068.118.083.206,0,.038.023.009.1.054.13.077-.081.179.112.228,0,.022.016-.034.011-.024.055.054-.027.094-.025.1-.085h0l-.05-.013c.042,0,.038-.08.123-.047.039-.05.051-.148,0-.142.018-.015.069.029.062.089.123-.016.028-.211.159-.139a.025.025,0,0,0-.008.029.076.076,0,0,0,.074-.01Zm5.5-39.219c.152.043.182.2.237.34h0l-.029.043a.082.082,0,0,0,.082.053c.03.023.006.178-.029.217-.121.048-.1-.146-.2-.139h0l-.066.132-.024-.045c-.032-.022-.016.033-.015.046-.027-.071-.1.022-.144.033h0l.046.051c-.046.2-.263-.05-.318.074h0l-.012.135-.059-.079c-.011.072.018.142-.06.146-.3-.028-.435.286-.707.322a.066.066,0,0,0,.044.023c-.318-.1-.174.393-.442.333h0l-.007-.038c-.077.07-.006-.038-.1-.046.05.109-.063.146-.091.214,0-.025.014-.034.02-.057-.024-.017-.064-.075-.078-.041.034.18-.094.24-.155.339-.052-.06-.163-.07-.27-.152l.038.149c-.058-.022-.062.025-.06.079l.068-.05h0s.007,0,.009-.007.025-.025.017-.028c.03.017.041.028.046.041l.014.048h0l.021.038c-.031.015-.073.079-.116.025a.114.114,0,0,1-.06.008c0,.019-.01.033-.027.034h0v-.011a.139.139,0,0,0-.023-.019c-.077,0-.081.169-.093.252-.017-.126-.081-.1-.127-.17a.448.448,0,0,0,.13-.069.11.11,0,0,1-.039-.038c-.109-.034-.062.134-.185.14a.07.07,0,0,0-.019-.058c-.044,0-.037.075-.017.122-.053-.063-.152-.068-.166-.016.007.076.029.1-.028.128h0l-.008-.063c-.089,0,0,.1-.082.1.033,0,0-.047-.02-.046-.047.071-.031.1-.013.225h0l-.042-.081c-.025.082-.066.244-.136.144.122.143-.063.163-.113.193.013-.016-.006-.051-.016-.068-.03.17-.2.142-.3.216h0l-.094-.1c-.05.042.09.274.03.309h0l-.017-.068a.555.555,0,0,1-.231.15h0L96.43-82.6c0,.055-.041.081-.046.137-.2-.133-.192.289-.461.179h0l.094.142c-.048.032-.087.1-.185.017h0l.012-.006c-.073-.108-.048.032-.094.031-.013.028.016.112.05.119-.175.021-.3.235-.467.171-.087.139-.094.317-.235.406h0l-.011-.017a.225.225,0,0,1-.263-.061c-.072.1-.008.3-.157.344h0l-.01-.062c-.046,0-.048.091-.048.113-.011.005-.022-.022-.033-.038-.057-.016-.024.056-.036.084h0l-.022-.044c-.15,0-.165.259-.292.334.011-.028-.035-.06-.057-.071.057.161-.091.239-.113.307h0l-.011-.072c-.022.157-.186-.059-.207.1h0l.11.025c-.053.011-.065.061-.01.107-.076,0-.084-.087-.158-.043-.032-.031.026-.063-.033-.088h0l-.165-.012c-.011-.007-.024,0-.046.035.138.141-.066.072.105.178-.113.12-.31.114-.363.276-.17-.108-.226.18-.374-.018a.22.22,0,0,0-.058.241c.025,0,.021-.033.026-.053.024.062-.046.134-.078.159a.694.694,0,0,0,.014-.272,1.008,1.008,0,0,0-.075.255h0l-.095-.087c.01.113-.1-.047-.074.092h0l.033.022c-.094.067-.017.167-.089.249h0l-.027-.042c-.041.007-.009.139-.108.068h0l.052-.047c-.059-.066-.125-.063-.172-.085-.045.062.067.131.045.162-.063-.057-.03-.033-.059-.114a.411.411,0,0,0-.1.286.077.077,0,0,1-.018-.026c-.079.038-.053.205-.137.179h0l.006-.02c-.127-.059-.079.2-.212.037-.048-.013.065-.037-.037-.09-.12,0,.046.184-.061.188.014,0,0-.01,0-.028a1.207,1.207,0,0,0-.156.17c-.163-.087-.2.185-.4.071.065.043.022.083.039.11a.071.071,0,0,0-.016-.027c-.034.015,0,.074,0,.1-.058-.035-.053.11-.091.086.022.038-.009.044-.038.061.032-.077-.031-.092-.041-.167-.1.033,0,.226-.1.251h0l-.091-.043c.054.116-.054.122-.029.162-.035-.025-.068-.032-.1-.089-.02.048-.1.023-.082.1h0l.051.007c-.13.027-.115.218-.244.189h0l-.088-.169c-.094-.04-.059.147-.163.07.047.048.042.029.033.1.028,0,.047-.065.084-.082h0l-.028.139.1-.111c-.018.093-.023.075.035.132-.048.093-.123-.04-.162.063-.038-.01-.042-.086-.089-.106-.034.093-.181-.062-.182.051-.023-.01.023-.018,0-.057-.033.037-.065.045-.053.1h.044c-.033.01,0,.084-.083.073-.015.057,0,.153.043.135-.01.019-.065-.011-.077-.069-.094.044.041.209-.089.169a.024.024,0,0,0,0-.029.057.057,0,0,0-.059.022h0l.019-.025c.007-.037-.055-.082-.032-.1l.035-.01c-.021-.035-.038-.04-.054-.036l-.048.025h0l-.026,0c-.02.082.053.136.049.192-.012-.029-.033-.022-.061-.024h0l.053.061a.094.094,0,0,0-.056.042h0l.027-.045c-.049,0-.161-.082-.208.016.008-.037.024-.11-.041-.127-.063.078-.031-.022-.1-.058-.074.048.036.133-.1.137-.013,0,.014.042.035.057-.1,0-.122.066-.22.046.041,0,.077.019.043.072h0l-.009-.028c-.018-.019-.056-.012-.089-.016l-.03-.009,0,.039c-.039-.032-.016-.055,0-.076a.018.018,0,0,0,.029.012c.028-.045-.034-.176-.1-.167-.056.054-.012.148.011.181-.1-.011-.031.193-.138.163-.021.005-.133-.122-.2-.117-.008.094.1.039.083.122-.167-.179-.183.2-.359.111h0l-.009-.11a.242.242,0,0,0-.1.026h0l.062.044a.061.061,0,0,1-.1-.056c-.054.1-.083.053-.158.04.075-.006,0,.014.046-.051-.088-.036-.086,0-.135.034,0-.039-.038-.091-.058-.086-.036.077-.124.079-.187.129h0l-.005-.031c-.109.069-.258-.067-.364.039h0l-.005,0,.01.006c.053.1-.085.081-.118.127-.01-.025-.018-.069-.039-.067,0,.038,0,.054-.012.063l-.032.018h0l-.012.019c-.044-.028,0-.115-.074-.1-.026.011-.026.061-.021.1a.155.155,0,0,0-.1-.088c.011-.024.033,0,.042,0,0-.051-.022-.03-.025-.094-.033,0-.008.09-.052.058h0l.034-.076c-.017-.019-.037.012-.044.018h0l.012-.022a.272.272,0,0,0,0-.078l0-.038c-.09.056-.009.2-.009.285-.094-.058-.162.043-.236.049h0l.012-.089a.1.1,0,0,0-.063.072h-.055a.164.164,0,0,0,.044-.132c-.056.025-.133,0-.151.123h0l0-.02c-.075-.037-.231-.083-.223-.119-.083.033-.179-.043-.193.073-.052.023-.108-.159-.16-.018-.047-.087,0-.032.03-.116-.045-.086-.13.1-.124-.07-.073.041.01.037-.023.108v0l0-.05c-.018-.065-.09-.027-.136-.061l-.024-.031c-.04.058.02.043-.04.1a.039.039,0,0,0-.024-.055h0l-.032.095-.01-.252c-.115.09-.017.17-.15.183h0l.009-.006c-.008-.107-.107.052-.176-.045.025.026.025-.042.042-.067h0l-.059.026a.019.019,0,0,0,.008-.021c-.021-.083-.048.026-.078-.053.039-.008.051-.083.048-.122h0l-.1.081.07-.116c-.052-.029-.2.1-.2,0l0-.05.039-.005c.008-.031.026-.13-.041-.084-.019.009-.057.079-.038.083l0-.007-.017-.035a.168.168,0,0,1,.143-.067l.048,0c-.028.028-.076.042-.084.1.055-.011.117-.053.168-.066a.673.673,0,0,0-.077.108c.034.06.055-.045.094-.04,0,.038.006.064-.011.087a.1.1,0,0,1,.133.042s-.075.048-.057.1c.109-.027.155-.125.267-.159.141-.112.206.13.306.041.01-.038-.048-.079.007-.095-.022.077.023.055.02.087.073-.1.079.04.13-.032-.013.025.015.063.035.09-.019.1.06.044-.042.176.1-.139.155.049.239-.17h0l-.02-.029.081.051.018.007c.017.005.027.007.047.043l.023.049h0l-.079.042c.043.09.1-.065.154-.066,0,.071-.055.021-.044.108.037.015.071-.035.106-.056h0l-.005.039c.092.089.04-.194.106-.062,0-.023.006-.049,0-.072.024.041.083.111.024.161.033,0,.069-.035.085-.08-.027-.058-.034-.028-.045-.1h0l.127-.042c.014,0-.009.038-.027.039.161.212.29-.184.478.045-.025-.062.007-.058.019-.1.056.014.137-.011.192.023h0l-.01.045c.125-.063.2-.153.29-.143a.155.155,0,0,1,0,.079c.047-.092.171.144.156-.028h0L87.6-77.49c.131,0,.243-.143.362-.193.054.093-.07.028-.015.139.1.018.164-.1.269-.09-.012.016-.005.027-.011.036.113.035-.038-.1.046-.1.01.05.017.061.051.078h0v-.086a.242.242,0,0,1,.02.1c0-.114.132-.076.13-.18.015.022.023.119.046.152.052.016.069-.031.086-.076h0l.033.026a.168.168,0,0,0,.076.012c.089.012,0-.052.032-.132h0l-.074-.021c.033-.017.064-.041.1-.061h0l-.025.063c.061.018.08-.084.136-.1h0l-.046-.045.05-.059c.049.11.09-.007.1.137.14.009.159-.167.261-.218h0l-.007.01a.046.046,0,0,0,0,.017l.006.019c.073,0,.086-.073.1-.144v0l0,.03c0,.009,0,.017,0,.026l.006.027c.074-.029.018-.078.082-.149,0,.057.017.077.043.078a.107.107,0,0,1-.007-.1c.04.248.128.045.17.236-.016-.048.061-.2-.015-.274h0l-.013.027c-.031-.058.009-.049.029-.065a.07.07,0,0,0-.006.048c.076-.128.223-.12.32-.236,0,.028-.029.092.011.093.14-.032.155-.176.246-.295.081.134-.122.089-.057.219a1.553,1.553,0,0,0,.317-.377c.162.163.088-.161.264-.064a.086.086,0,0,1,.027-.138c.016.062.066.032.076.079,0-.084.107-.179.182-.054-.066-.126.093-.048.07-.153.079.008.09-.1.175-.111-.072-.058.038-.079.039-.127,0,.009-.009.029,0,.037.062.05.032-.107.093-.095.035.015.043.07.073.057-.036-.052.015-.18.095-.142-.016.011,0,.037.007.065.1-.209.358-.224.443-.455h0l.037.108c.185.024-.042-.194.047-.248.247-.139.571-.21.738-.44,0-.037-.034-.021-.065-.053.026,0,.09.058.078-.005h0L92.8-80.7c.2.04.212-.319.444-.2.034-.151.2-.089.227-.293.069.007.023.112.08.08h0l.048-.16v.011c-.01-.222.4-.084.446-.286h0v.011c.022.033.08.048.092.02-.01-.028-.034-.027-.068-.043a.772.772,0,0,1,.181-.258c0,.079.069.009.125.071-.01-.062-.068-.055-.042-.135.071-.069.187-.072.27-.1-.019-.078.028-.09-.027-.162.085-.074.112-.141.221-.226h0l.022.022c-.04-.113.129-.028.109-.1.022.034.02.056.042.079h0L95-82.429c0,.045.05.141.1.119-.006-.1-.045-.034-.064-.1h0l.077.074c.025-.034-.039-.136-.1-.131a2.659,2.659,0,0,1,.3-.267h0l.031.062c.039-.061.113-.116.181-.092-.01-.017-.019-.056-.041-.068.01-.123.074.086.085-.049v0l0,.029a.127.127,0,0,0,0,.031l.01.031.083-.165a.176.176,0,0,0,.179.028l.03-.035A.083.083,0,0,0,95.787-83h0l.021-.047.1.075-.008-.123.059.08c.027-.043-.032-.158,0-.174.155-.033.15.012.288.029-.1-.162.137-.089.079-.216.193.036.306-.149.478-.215h0l0,.022c.113.03-.009-.168.081-.184h0v.035c.145.024.246-.159.286-.282h0l.007.027a.063.063,0,0,0,.038.036l.02-.006c0-.046-.1-.1-.028-.1,0,.023.031.052.043.046h0l0-.11a.662.662,0,0,0,.437-.193c.042.012.043.053.055.084.089-.083.15-.213.233-.286h0l.067.088c.045-.028-.061-.16.05-.115.021,0-.036.03-.026.082.134.014,0-.125.091-.169h0l.042.12c.1.021.042-.1.027-.181.017-.184.191.163.262-.008-.011-.064-.053-.073-.064-.137.107-.027.072-.109.18-.136.143.13-.046.027.095.144h0l-.09.005c.109.048-.041.054.024.142.061,0,.081-.12.12-.186h0l.011.033c0,.025-.032.03-.019.059l.03.037.012-.047c0,.026.019.054,0,.062.051.061.037-.017.064-.036a.732.732,0,0,0-.092-.136.118.118,0,0,0,.023.021c0-.138.143-.118.145-.23,0,.026.015.028.027.044.038-.017.02-.133.052-.188.057.038.076.167.136.094-.02-.068-.114-.151-.048-.187,0,0-.028.082.026.106.039-.078.031.007.127.042-.016-.1.08-.006.009-.147.043.048.052.056.068.064l.056.028c-.059-.064.034-.117-.018-.2.074.093,0,.163.114.241,0-.089.05-.151-.005-.265h0l.08.031h.045c-.01,0-.007.023-.005.036.035-.118.189-.1.16-.262.07.169.173-.069.195.114a.241.241,0,0,0,.039-.154c.062.128.1-.01.17.046-.018-.08.051-.087.066-.146a.083.083,0,0,0,.018.081c.012-.073.028-.017.093.026.035-.067-.059-.093-.056-.169.062.005.048.078.083.126h0l.006-.164a.134.134,0,0,1,.065.057c.005-.05,0-.115.066-.07h0l-.059.034.055.054Z"/></clipPath><clipPath id="dn"><rect class="b" width="37" height="49" transform="translate(70 -92)"/></clipPath><clipPath id="do"><path class="a" d="M82.911-49.7c.029.01.023.029.012.045a.22.22,0,0,0-.042-.026l-.01.005a.191.191,0,0,1,.04-.024m-.166.719a.45.45,0,0,0-.055-.059c.017-.027.044-.046.056-.032-.022.008,0,.052,0,.091M81-50.729c.048.087.124-.019.193-.035.088.082-.048.091-.08.157.064.047.185.037.209.086-.015.014-.015.027-.042.029.119.014.133.186.281.191a.084.084,0,0,1-.018.026.553.553,0,0,1,.126-.1c.026.033.106.02.052.079-.013-.022-.04-.006-.066,0l.053.017c-.068.1-.067-.027-.134.02.081.051.213.079.226.152-.079.077-.12-.107-.146.025l-.026-.11c-.094.167-.027-.059-.134.11.056.133.132.1.192.226.068-.013.064-.063.132-.077.209.08-.115.292.091.31.08-.018.194-.1.2.028L82-49.547c.077.112.182-.06.21.1-.052.014-.1-.052-.1-.027-.014.136.093,0,.138.055l-.07.085c.114.089.282.144.406.239-.029.017-.072.023-.069.073a1.45,1.45,0,0,1,.4.474l.118-.026c.012.011,0,.053-.029.056.035.075.041-.044.092-.05.037.021.009.078-.03.083.155.02.391.1.445.263l-.039.008c.068.091.214-.091.244.036l-.025,0c.169.163.428.231.5.452.1-.094.171.164.278.007.069.144.019.156.155.3.04.031.122-.07.185-.059l-.044.089.121-.053-.015.127.062,0a.081.081,0,0,1-.007-.087c.1,0,.163.166.144.213a2.178,2.178,0,0,0,.23.012c-.021.035-.059.033-.1.046.148-.048-.024.1.111.059,0-.025.031-.051.042-.068.023.075.132.122.223.132l-.043.057c.14.078.323.1.486.169-.048-.055.008-.16.06-.151l-.018.107c.054-.048-.036-.058.055-.106.056.036,0,.129-.048.146l.087,0c-.006.031-.03.039-.048.075.053-.046.1.148.18.055l-.006.031c.17.054.258.044.4.083.03-.086.078-.049.141-.107a1.071,1.071,0,0,0,.307.194c.1-.017.046-.066.1-.107-.016.082.108.112.029.15a.867.867,0,0,0,.4.014c-.012-.037-.032-.056-.013-.081.037-.006.069.051.054.088l-.011.006c.237-.075.434.343.639.212l-.011.006.191-.05c.078.032-.059.05-.01.114.214-.091.295.082.466.012.082.259.431.044.572.222v-.058c.05-.05.046.04.075.057,0-.045-.039-.058-.008-.085a5.008,5.008,0,0,1,1.094.268c.135.025.1-.291.261-.142l-.056.1c.282-.108.559.045.831-.045-.017.024-.018.056-.045.053.054.084.209.016.212-.05.042.007.008.057.033.09.055.046.145-.1.173-.022,0,.012-.016.025-.027.031.038-.037.173.009.139-.08.1.042.192-.04.272.013.052-.1.173.048.188-.094-.005.146.179.118.241.049-.02.044.056.045.033.107.073,0,.139-.03.124-.1.141.179.262-.155.348.065a3.749,3.749,0,0,1,.6-.212c.006.146-.212.031-.191.183.18-.074.273-.207.458-.186.05.016-.02.065-.033.091.177-.068.356-.027.508-.13,0,.013-.014.031-.029.044.031-.01.077.01.065-.055l-.029.023c-.063-.088.1-.219.1-.27-.026.2.165.022.115.274a.093.093,0,0,0,.029-.094c.033.008.047.032.023.087.109-.053.057-.117.161-.131,0,.031-.014.047-.019.086.042-.07.084-.139.175-.126,0,.02.012.043-.013.047.149-.031.224-.2.4-.183-.02.147.064.032.1.148l.08-.055-.048-.049c.077-.015.125-.117.2-.094l-.046.062.138-.055-.091-.026c.062-.078-.043-.147.065-.138-.017.017.076-.016.132.044h0c.028-.046.056-.094.119-.078.024.034.022.132.038.155.012-.107.172-.066.188-.188a.186.186,0,0,0,.016.1l.009-.088c.042.014.05.025.058.075.108-.018-.074-.137.066-.112-.008.009,0,.019-.016.038.133-.006.223-.125.348-.122.07.105-.091.059-.021.145.159-.075.3-.241.461-.272H97.5c-.036-.17.144.034.195-.073-.015.019.008.1.006.079.116-.016.2-.126.342-.239l0,.048c.077.012.174-.044.249-.053,0-.048.042-.061-.006-.108.306.131.325-.306.594-.2-.021.011-.034.059-.017.051L99-47.376c-.047-.06-.041-.03-.1-.066a.143.143,0,0,1,.061-.121c-.043.081.056.106.1.127-.016-.017-.018-.046-.031-.065.139.073-.058-.139.088-.12l.013.037c.03-.04.04-.106.087-.12.059.065-.022.059.01.122.058-.038.036-.208.132-.164-.012.035-.049.056-.062.091.109.055.1.028.155.017h-.005l.124-.018-.04-.009c-.041-.233.127-.129.144-.315-.018.179.028.079.073.165.039.007.094.007.1.038,0-.1.112,0,.113-.138.02.024.051-.03.085.042.046-.06-.046-.036-.062-.072.032-.145.289-.042.329-.258.071-.132.029-.228.091-.348.064.012.046.112.046.112a.153.153,0,0,0,.142-.118c.008.029.033.038.071.053.035-.04-.048-.11.035-.119a.471.471,0,0,1,.043.13c.028-.063.038-.144.064-.21.049.029.028.089.034.131.038-.068.1-.166.061-.244l-.055.009c.016-.021.061.045.058.07,0,.093-.085.039-.108.018l.019-.046c-.156-.1-.113.142-.191.193l-.058-.127,0,.145c-.037-.014-.1-.064-.075-.107-.09-.01-.012.073-.1.051-.011-.005-.014-.012-.013-.02l-.022.071c-.008-.03-.067-.068-.026-.077-.132.008-.08.188-.174.133l0-.012c-.1.129.048.087.023.251l-.206-.15.046.089a.041.041,0,0,1-.062-.016c-.008.09.033.028.042.1-.112-.028-.153.153-.254.033.018.078.093.007.054.1-.113-.128-.063.076-.164.05-.03-.085.05-.083-.05-.11.045.147-.13.047-.163.1.06.1-.084.107-.15.189-.014-.037-.193.036-.292.044l-.007-.018c.042.113-.052.14-.1.2a.152.152,0,0,1-.015-.141l-.056.032a.1.1,0,0,1-.036.1l-.026-.086c-.074.041-.108.168-.233.163.029.077.18.168.1.27-.023-.038-.06-.106-.04-.135-.007.01-.016.049-.043.041l.009-.088c-.059-.008,0,.068-.036.08-.027-.058-.047-.028-.063-.077.007-.01.043.008.047-.021a.175.175,0,0,1-.148-.037c.018.031.036.078.009.1-.076.042-.058-.057-.117-.065,0,.049-.067.031-.03.119-.023.01-.045-.028-.064-.048-.023.057-.187.088-.1.163l.013,0-.005.006h0c-.1.141-.3.062-.422.153l-.011-.03c-.067.066-.171.091-.206.179-.024.008-.077-.037-.079-.076-.055.043-.051.079-.159.058.046-.073-.038-.04.052-.059-.09,0-.124-.044-.185.067,0-.087-.092-.079-.124-.043l.075.038a.291.291,0,0,1-.121.036l-.011-.11c-.2-.075-.237.309-.424.135-.025.085.105.026.088.122-.081.009-.2-.125-.227-.119-.12-.033-.061.175-.183.162a.134.134,0,0,1-.015.185c-.083,0-.133-.134-.091-.175a.021.021,0,0,1,.032.015c.022-.019.051-.043.011-.076v.039c-.048-.029-.154,0-.143-.068-.051.049-.011.068.037.077-.113-.031-.158.035-.268.022.02.017.045.057.028.061-.161-.011-.052.087-.152.128-.07-.045,0-.139-.1-.073-.071-.029-.032-.1-.012-.133-.082.087-.186-.021-.242-.026l.045-.038a.132.132,0,0,1-.076.029l.042.071c-.031-.008-.056,0-.061-.037-.022.054.045.123,0,.2-.046-.033-.114.059-.144-.039.129.015-.029-.1.072-.132a.076.076,0,0,1-.074.01.025.025,0,0,1,.008-.029c-.131-.072-.036.123-.159.139.007-.059-.044-.1-.062-.089.049-.006.037.092,0,.142-.085-.032-.081.046-.123.047l.05.013c-.008.059-.049.058-.1.085-.01-.044.047-.038.024-.055-.049.11-.151-.083-.228,0-.045-.035-.016-.107-.054-.13-.088.081-.112-.07-.206,0,.036.075.04.056-.024.136l.161-.067-.1.12c.05,0,.1-.056.132-.045-.044.066-.041.047-.01.109-.081-.11-.131.078-.218.006l-.016-.191c-.126-.075-.2.114-.362.078l.052.029c-.015.078-.1.018-.143.053,0-.064-.032-.085-.056-.123.006.047-.113,0-.12.133l-.074-.078c-.126-.027-.135.2-.258.174.034-.07-.022-.115.056-.164-.04,0-.077-.012-.076.032-.025-.04-.11.086-.149.025-.016.028-.02.1-.066.09a.058.058,0,0,1,0-.031c0,.031-.07.043-.029.114-.128-.2-.351.014-.46-.156a1.656,1.656,0,0,1-.276.047c.005-.019,0-.031.016-.025-.109-.059-.073.183-.2.117-.061-.1.069-.056.03-.095-.011-.207-.153.027-.233-.1l.021-.011c-.061-.076-.161.068-.266.045a.063.063,0,0,0,0-.031.522.522,0,0,1-.323.149c.038-.08.05-.04.036-.125-.047.008,0,.135-.089.151-.027-.047-.09-.091-.092-.18l.086,0c-.035-.118-.111,0-.155-.027l.009-.05c-.132.007-.145.133-.286.114l.011.039c-.09.12-.058-.075-.145.012l-.011-.129a.934.934,0,0,1-.286.115c.063-.088.174-.116.246-.169-.051,0-.171-.013-.2.047.021-.009.051-.036.068-.014a.265.265,0,0,1-.261.112c.048-.243-.254-.1-.3-.3-.189.066-.344-.089-.55-.1.042.2-.061,0-.081.194-.05.005-.067,0-.07-.013l-.126-.138c-.025-.061.053-.036.056-.081-.1-.03-.03-.089-.089-.15,0,.073-.054.093-.107.053l.065.108c-.162.072-.094-.19-.256-.12l.057-.051c-.081.019-.27-.061-.377.078-.008-.025-.014-.082.021-.089-.169-.062-.432.078-.547-.048l.025-.044c-.037.006-.08.075-.109.019.007-.019.026-.044.011-.05-.021.011-.11.065-.145.022l.051-.041c-.151-.114-.293.046-.445.033.041-.136-.078-.222-.137-.265l.009-.018c-.189-.078-.368.008-.569,0-.056-.188-.346-.215-.486-.367.016.035-.047.1-.084.1-.03-.044-.153.043-.095-.074l.014.008c.02-.13-.076-.134-.141-.164l-.081.151c-.072-.286-.475-.142-.468-.383-.059.017-.108-.009-.167.007l.046-.079a.817.817,0,0,0-.291-.17l.06-.042c-.072-.043-.229.175-.3.134l.051-.13c-.127-.083-.186-.266-.378-.246.013-.015.039-.045.062-.036-.057-.042-.173-.226-.261-.059.068-.1-.121-.1-.214-.109l.064-.063c-.123.048-.144.071-.239.035-.01-.024.029-.069.038-.032-.029-.085-.1.029-.141-.068l.063-.023c-.056-.055-.071-.027-.148,0-.061,0-.1-.113-.057-.182-.04.031-.117.054-.138.006a.066.066,0,0,1,.054-.032c-.06-.129-.212-.058-.218-.185a.088.088,0,0,0,.025-.05.683.683,0,0,1,.119.136c.055-.062.006-.13.13-.169-.088,0-.262.019-.293-.067A.1.1,0,0,1,83-49.56h.012c-.007-.019-.024-.025-.045-.027a.16.16,0,0,0-.031-.065c.042-.055-.041-.093-.068-.124-.063.066-.091.017-.108.105,0-.009.013,0,.036.015a.046.046,0,0,0,.019.006l-.008,0,.078.069c-.055.009-.108.012-.105-.056-.057.025-.117.05-.147.06.049-.129.021-.253.071-.319-.119-.063-.215-.2-.4-.158-.041-.014.01-.063.022-.091.027,0,.041.026.067.019-.08-.028-.151-.153-.256-.094-.016-.105.116-.025.025-.115l.039-.008c.017-.312-.486-.153-.433-.525,0,.024,0,.037-.019.051-.071-.322-.419-.518-.394-.876-.009-.093-.077-.072-.152-.1l.082-.056-.138-.042c-.127-.095.135-.294-.06-.4l-.055.041c-.007-.06-.1-.168-.022-.181-.013,0-.071,0-.044-.031l.048-.016-.122-.117c.008-.117.2-.035.171-.189-.033-.052-.177-.127-.207-.1a.086.086,0,0,1-.07.075l-.036-.05c-.149.014-.313-.021-.383.165l.112.087-.063.051-.024-.089c-.055.066.01.087.06.111a.12.12,0,0,0-.066.063l.165.063c-.053.028-.124-.014-.137.063.076.028.114-.081.176-.016-.052.067-.109.07-.035.109a.072.072,0,0,1-.085,0c.06.036.062.127.147.127-.063.077.076.159-.059.2a.3.3,0,0,1,.161.088c-.191-.019.057.169-.119.217.164,0,.151.192.281.258-.014,0-.042,0-.039-.013.016.063-.017.1-.024.15.117-.048.186.028.279.04-.074.127-.153.025-.245.1.089-.05.151.077.214.012-.04.09-.007.063-.084.14.143-.067.052.036.161.031-.024.113-.117.093-.027.151-.018.064-.11.018-.11.018"/></clipPath><clipPath id="dp"><path class="b" d="M80-45h21V-86H80Z"/></clipPath><clipPath id="dq"><path class="a" d="M98.224-83.741c-.012.023-.028.012-.041,0a.22.22,0,0,0,.028-.03l0-.011a.286.286,0,0,1,.016.043m-.593-.365a.274.274,0,0,0,.054-.031c.021.023.034.054.021.06,0-.022-.043-.018-.075-.029m1.457-1.217c-.066.035.028.119.048.187-.059.074-.079-.056-.136-.094-.032.055-.014.171-.052.188-.012-.015-.023-.017-.027-.044,0,.112-.148.091-.145.23a.118.118,0,0,1-.023-.021.732.732,0,0,1,.092.136c-.027.019-.014.1-.064.036.018-.008,0-.036,0-.062l-.012.047c-.084-.08.021-.058-.022-.129-.039.066-.059.187-.12.186-.065-.088.085-.095-.024-.142l.09-.005c-.141-.117.048-.015-.095-.144-.107.027-.073.109-.18.136.011.064.053.073.064.137-.071.172-.245-.175-.262.008.014.078.077.2-.027.181l-.042-.12c-.094.044.044.183-.091.169-.01-.052.047-.078.026-.082-.111-.046,0,.086-.05.115l-.067-.088c-.083.073-.144.2-.233.286-.012-.031-.013-.072-.055-.084a.662.662,0,0,1-.437.193l0,.11c-.011.006-.044-.022-.043-.046-.067,0,.031.052.028.1-.023.023-.066-.021-.064-.057-.04.123-.141.306-.286.282v-.035c-.09.015.032.214-.081.184l0-.022c-.172.066-.285.252-.478.215.057.127-.18.054-.079.216-.138-.017-.134-.062-.288-.029-.037.016.022.131,0,.174l-.059-.08.008.123-.1-.075L95.787-83a.083.083,0,0,1,.072.038c-.03.079-.178.046-.209.006l-.083.167c-.021-.034-.007-.062,0-.1-.011.135-.075-.074-.085.049.022.012.031.051.041.068-.068-.024-.142.031-.181.092l-.031-.062a2.659,2.659,0,0,0-.3.267c.058,0,.121.1.1.131l-.077-.074c.019.068.057.005.064.1-.048.022-.1-.074-.1-.119l-.027.068c-.022-.023-.02-.045-.042-.079.02.068-.15-.016-.109.1l-.022-.022c-.109.085-.136.152-.221.226.054.073.007.084.027.162-.083.027-.2.03-.27.1-.026.08.032.073.042.135-.056-.061-.128.008-.125-.071a.772.772,0,0,0-.181.258c.035.016.058.015.068.043-.012.028-.07.013-.092-.02v-.011c-.051.2-.456.064-.446.286v-.011l-.048.16c-.057.032-.011-.072-.08-.08-.024.2-.193.141-.227.293-.232-.121-.247.239-.444.2l.043.039c.012.063-.052,0-.078.005.031.032.06.016.065.053-.167.23-.491.3-.738.44-.088.054.138.272-.047.248l-.037-.108c-.085.231-.344.246-.443.455,0-.027-.023-.053-.007-.065-.08-.038-.131.09-.095.142-.03.013-.039-.042-.073-.057-.061-.012-.031.144-.093.095-.01-.008,0-.028,0-.037,0,.047-.111.068-.039.127-.086.009-.1.119-.175.111.022.106-.137.028-.07.153-.075-.126-.177-.03-.182.054-.01-.046-.06-.017-.076-.079a.086.086,0,0,0-.027.138c-.176-.1-.1.228-.264.064a1.553,1.553,0,0,1-.317.377c-.064-.131.138-.085.057-.219-.092.119-.107.263-.246.295-.041,0-.011-.065-.011-.093-.1.116-.244.109-.32.236a.07.07,0,0,1,.006-.048c-.02.015-.059.006-.029.065l.013-.027c.076.069,0,.226.015.274-.042-.191-.13.012-.17-.236a.107.107,0,0,0,.007.1c-.026,0-.044-.021-.043-.078-.063.071-.008.12-.082.149-.012-.029,0-.047-.01-.084-.012.072-.025.144-.1.144,0-.019-.021-.04,0-.046-.1.051-.12.227-.261.218-.015-.144-.056-.027-.1-.137l-.05.059.046.045c-.056.02-.075.123-.136.1l.025-.063c-.032.02-.063.044-.1.061l.074.021c-.036.08.057.144-.03.137.012-.016-.059.016-.111-.042h0c-.016.045-.034.092-.086.076-.023-.033-.031-.13-.046-.152,0,.1-.125.067-.13.18a.242.242,0,0,0-.02-.1v.086c-.034-.017-.041-.028-.051-.078-.084.009.067.139-.046.1.005-.009,0-.02.011-.036-.1-.006-.17.109-.269.09-.055-.111.069-.047.015-.139-.119.05-.231.2-.362.193l.026.008c.015.172-.109-.064-.156.028a.155.155,0,0,0,0-.079c-.089-.01-.164.08-.29.143l.01-.045c-.055-.034-.136-.008-.192-.023-.012.045-.044.041-.019.1-.187-.229-.317.167-.478-.045.018,0,.042-.039.027-.039l-.127.042c.011.075.017.045.045.1-.016.045-.053.08-.085.08.059-.05,0-.12-.024-.161,0,.023,0,.048,0,.072-.066-.132-.014.15-.106.062l.005-.039c-.035.021-.069.072-.106.056-.012-.087.039-.037.044-.108-.051,0-.111.155-.154.066.024-.022.055-.02.079-.042-.046-.105-.052-.08-.089-.1l0,0-.083-.052.02.029c-.084.219-.134.031-.239.17.1-.132.023-.079.042-.176-.019-.027-.048-.065-.035-.09-.051.072-.057-.073-.13.032,0-.031-.042-.01-.02-.087-.055.016,0,.056-.007.095-.1.089-.164-.152-.306-.041-.112.034-.157.133-.267.159-.018-.056.057-.1.057-.1a.1.1,0,0,0-.133-.042c.017-.023.014-.048.011-.087-.039,0-.06.1-.094.04a.673.673,0,0,1,.077-.108c-.052.013-.113.055-.168.066.007-.055.056-.069.084-.1-.059.009-.141,0-.191.072l.02.042c-.02,0,.019-.073.038-.083.066-.046.049.053.041.084l-.039.005c-.034.189.142.018.2.05l-.07.118.1-.083c0,.038-.008.114-.048.122.03.079.056-.03.078.053a.019.019,0,0,1-.008.021l.059-.026c-.017.025-.017.094-.042.067.069.1.167-.062.176.045l-.009.006c.133-.013.035-.093.15-.183l.01.252.032-.095a.039.039,0,0,1,.024.055c.06-.058,0-.043.04-.1.045.1.173-.013.162.144.033-.071-.05-.067.023-.108-.006.171.079-.016.124.07-.028.084-.077.029-.03.116.053-.14.108.042.16.018.014-.117.109-.04.193-.073-.008.036.148.082.223.119l0,.02c.018-.119.095-.1.151-.123a.164.164,0,0,1-.044.132h.055a.1.1,0,0,1,.063-.072l-.012.089c.073-.006.142-.107.236-.049,0-.083-.081-.229.009-.285.005.045.013.121-.01.139.007-.006.027-.037.044-.018l-.034.076c.043.032.018-.062.052-.058,0,.064.026.043.025.094-.008.006-.03-.022-.042,0a.155.155,0,0,1,.1.088c-.005-.036-.005-.086.021-.1.07-.012.03.074.074.1.013-.046.063,0,.055-.1.021,0,.029.042.039.067.033-.046.171-.03.118-.127l-.01-.006.005,0c.107-.106.255.03.364-.039l.005.031c.063-.05.152-.052.187-.129.02,0,.059.047.058.086.049-.034.047-.07.135-.034-.042.065.029.044-.046.051.075.013.1.059.158-.04a.061.061,0,0,0,.1.056l-.062-.044a.242.242,0,0,1,.1-.026l.009.11c.176.084.192-.29.359-.111.016-.083-.091-.028-.083-.122.067-.005.18.122.2.117.107.03.034-.174.138-.163-.024-.032-.067-.127-.011-.181.065-.009.128.122.1.167a.018.018,0,0,1-.029-.012c-.015.02-.038.043,0,.076l0-.039c.044.026.128-.013.129.055.035-.053,0-.067-.043-.072.1.02.125-.048.22-.046-.021-.015-.048-.052-.035-.057.137,0,.027-.089.1-.137.067.036.035.137.1.058.065.016.049.09.041.127.048-.1.16-.011.208-.016l-.027.045a.094.094,0,0,1,.056-.042l-.053-.061c.028,0,.049,0,.061.024,0-.056-.069-.11-.049-.192.047.023.076-.075.128.012-.111.008.053.089-.023.137a.057.057,0,0,1,.059-.022.024.024,0,0,1,0,.029c.129.04,0-.125.089-.169.012.058.067.088.077.069-.038.018-.058-.078-.043-.135.078.01.05-.063.083-.073h-.044c-.012-.058.02-.066.053-.1.023.039-.024.046,0,.057,0-.114.148.042.182-.051.047.02.051.1.089.106.039-.1.114.03.162-.063-.058-.057-.053-.039-.035-.132l-.1.111.028-.139c-.038.017-.056.083-.084.082.009-.075.014-.056-.033-.1.1.077.069-.11.163-.07l.088.169c.129.028.114-.162.244-.189l-.051-.007c-.022-.075.062-.05.082-.1.028.057.062.064.1.089-.025-.04.083-.046.029-.162l.091.043c.107-.025.008-.218.1-.251.01.075.073.09.041.167.029-.017.06-.022.038-.061.038.024.033-.121.091-.086,0-.031-.034-.09,0-.1a.071.071,0,0,1,.016.027c-.016-.027.027-.067-.039-.11.194.115.235-.157.4-.071a1.207,1.207,0,0,1,.156-.17c.007.018.018.026,0,.028.107,0-.059-.183.061-.188.1.053-.011.077.037.09.133.163.084-.1.212-.037l-.006.02c.085.026.058-.14.137-.179a.077.077,0,0,0,.018.026.411.411,0,0,1,.1-.286c.029.08,0,.057.059.114.023-.031-.09-.1-.045-.162.048.022.113.019.172.085l-.052.047c.1.071.067-.061.108-.068l.027.042c.072-.082,0-.182.089-.249l-.033-.022c-.03-.138.085.021.074-.092l.095.087a1.008,1.008,0,0,1,.075-.255.694.694,0,0,1-.014.272c.033-.026.1-.1.078-.159,0,.02,0,.057-.026.053a.22.22,0,0,1,.058-.241c.148.2.2-.09.374.018.053-.163.249-.157.363-.276-.171-.106.033-.036-.105-.178.021-.035.034-.042.046-.035l.165.012c.058.025,0,.057.033.088.074-.044.081.04.158.043-.055-.046-.044-.1.01-.107l-.11-.025c.021-.157.185.059.207-.1l.011.072c.022-.068.17-.146.113-.307.023.01.068.042.057.071.126-.075.142-.337.292-.334l.022.044c.012-.028-.021-.1.036-.084.011.016.022.044.033.038,0-.022,0-.112.048-.113l.01.062c.149-.041.085-.242.157-.344a.225.225,0,0,0,.263.061l.011.017c.141-.088.148-.266.235-.406.169.064.292-.15.467-.171-.034-.006-.063-.091-.05-.119.047,0,.021-.138.094-.031l-.012.006c.1.086.137.014.185-.017l-.094-.142c.269.11.263-.312.461-.179,0-.056.042-.082.046-.137l.052.075a.555.555,0,0,0,.231-.15l.017.068c.06-.036-.08-.267-.03-.309l.094.1c.1-.074.268-.046.3-.216.009.017.029.052.016.068.05-.03.236-.05.113-.193.069.1.11-.062.136-.144l.042.081c-.018-.127-.034-.154.013-.225.022,0,.054.051.02.046.077,0-.007-.1.082-.1l.008.063c.057-.029.036-.052.028-.128.014-.052.113-.047.166.016-.02-.046-.027-.121.017-.122a.07.07,0,0,1,.019.058c.122-.007.076-.175.185-.14a.11.11,0,0,0,.039.038.448.448,0,0,1-.13.069c.046.07.11.044.127.17.012-.082.016-.248.093-.252a.139.139,0,0,1,.023.019v.011c.017,0,.024-.015.027-.034a.114.114,0,0,0,.06-.008c.043.054.086-.01.116-.025-.051-.076-.005-.087-.08-.128.007,0,0,.012-.017.028s-.007.009-.007.015l0-.008-.068.05c0-.053,0-.1.06-.079l-.038-.149c.107.082.219.092.27.152.061-.1.189-.158.155-.339.014-.034.054.024.078.041-.006.023-.025.032-.02.057.028-.068.141-.105.091-.214.092.007.021.116.1.046l.007.038c.269.06.125-.432.442-.333a.066.066,0,0,1-.044-.023c.272-.036.406-.35.707-.322.079,0,.049-.074.06-.146l.059.079.012-.135c.055-.124.272.126.318-.074l-.046-.051c.049-.011.117-.1.144-.033,0-.013-.016-.068.015-.046l.024.045.066-.132c.1-.007.077.187.2.139.036-.039.059-.194.029-.217a.082.082,0,0,1-.082-.053l.029-.043c-.056-.14-.085-.3-.237-.34l-.033.118-.055-.054.059-.034c-.064-.045-.061.02-.066.07a.134.134,0,0,0-.065-.057l-.006.164c-.035-.048-.021-.121-.083-.126,0,.076.091.1.056.169-.064-.044-.08-.1-.093-.026a.083.083,0,0,1-.018-.081c-.015.06-.085.066-.066.146-.074-.056-.108.081-.17-.046a.241.241,0,0,1-.039.154c-.021-.182-.124.056-.195-.114.029.158-.125.143-.16.262,0-.013,0-.04.005-.036-.049.012-.083-.021-.125-.031.055.114,0,.176.005.265-.111-.078-.04-.148-.114-.241.053.088-.041.14.018.2-.077-.043-.052-.012-.124-.092.071.141-.025.044-.009.147-.1-.034-.088-.12-.127-.042-.054-.024-.026-.106-.026-.106"/></clipPath></defs><g transform="translate(0 137)"><g class="c"><g class="d"><g class="e"><g class="f"><g class="g"><path class="h" d="M-5-142H234V5H-5Z"/></g><g class="i"><g class="g"><g class="e"><g class="j"><g class="k"><path class="l" d="M22.251-141.761H203.974V3.083H22.251Z"/></g><g class="m"><g class="k"><path class="n" d="M-1.558-178.182h231.8v232.8H-1.558Z"/></g></g></g></g></g></g><g class="o"><g class="g"><path class="p" d="M151.989-76.118h20.56v22.193h-20.56Z"/></g></g><g class="q"><g class="g"><path class="p" d="M86.012-121.327h19.353v20.8H86.012Z"/></g></g><g class="r"><g class="g"><path class="p" d="M103.214-102.617h19.795v19.793H103.214Z"/></g></g><g class="s"><g class="g"><path class="p" d="M77.667-111.947H91.634V-97.98H77.667Z"/></g></g><g class="t"><g class="g"><path class="p" d="M101.017-125.312h13.967v13.967H101.017Z"/></g></g><g class="u"><g class="g"><path class="p" d="M50.259-83.476H69.021v18.76H50.259Z"/></g></g><g class="v"><g class="g"><path class="p" d="M122.236-123.2h84.18v57.267h-84.18Z"/></g></g><g class="w"><g class="g"><path class="p" d="M130.821-119.38h37.925v38.646H130.821Z"/></g></g><g class="x"><g class="g"><path class="p" d="M137.114-123.04h23.365v28.271H137.114Z"/></g></g><g class="y"><g class="g"><path class="p" d="M117.4-120.333h24.123v38.095H117.4Z"/></g></g><g class="z"><g class="g"><path class="p" d="M93.666-82.9h19.45v23.475H93.666Z"/></g></g><g class="aa"><g class="g"><path class="p" d="M91.17-83.1h20.609v23.884H91.17Z"/></g></g><g class="ab"><g class="g"><g class="e"><g class="ac"><g class="ad"><path class="ae" d="M42.8-60.3h80.925V-2.932H42.8Z"/></g><g class="af"><g class="ad"><path class="ae" d="M-1.558-180.428H234V54.625H-1.558Z"/></g></g></g></g></g></g><g class="ag"><g class="g"><path class="p" d="M74.4-89.225h35.844v45.468H74.4Z"/></g></g><g class="ah"><g class="g"><path class="p" d="M85.177-25.756h16.271v14.433H85.177Z"/></g></g><g class="ai"><g class="g"><path class="p" d="M71.738-81.689H92.355v23.9H71.738Z"/></g></g><g class="aj"><g class="g"><path class="p" d="M71.047-80.9H90.46v22.322H71.047Z"/></g></g><g class="ak"><g class="g"><path class="p" d="M74.591-97.641h31.855v26.532H74.591Z"/></g></g><g class="al"><g class="g"><path class="p" d="M77.123-33.648h26.632V-3.319H77.123Z"/></g></g><g class="am"><g class="g"><path class="p" d="M42.356-27.507h59.59V-3.122H42.356Z"/></g></g><g class="an"><g class="g"><path class="p" d="M117.982-76.7h28.036v37.054H117.982Z"/></g></g><g class="ao"><g class="g"><path class="p" d="M106.5-52.11h67.056V-5.528H106.5Z"/></g></g><g class="ap"><g class="g"><path class="p" d="M96.113-15.495h70.8V-2.8h-70.8Z"/></g></g><g class="aq"><g class="g"><path class="p" d="M132.827-36.584H149.32v16.876H132.827Z"/></g></g><g class="ar"><g class="g"><path class="p" d="M31.273-13.06H197.329v15.7H31.273Z"/></g></g><g class="as"><g class="g"><g class="e"><g class="at"><g class="au"><path class="av" d="M127.76-108.668h40.575v27.794H127.76Z"/></g><g class="aw"><g class="au"><path class="ax" d="M44.686-170.2H309.13V94.24H44.686Z"/></g></g></g></g></g></g><g class="ay"><g class="g"><g class="e"><g class="az"><g class="ba"><g class="bb"><path class="bc" d="M30.944-98.037h166.53V2.9H30.944Z"/></g></g><g class="bd"><g class="bb"><path class="bc" d="M144.735-52.5h12.824v10.645H144.735Z"/></g></g><g class="be"><g class="bb"><path class="bc" d="M132.389-36.974h17.129v17.518H132.389Z"/></g></g><g class="bf"><g class="bb"><path class="bc" d="M90.259-78.766h11.626v12.192H90.259Z"/></g></g><g class="bg"><g class="bb"><path class="bc" d="M96.823-79.374H108.34v12.2H96.823Z"/></g></g><g class="bh"><g class="bb"><path class="bc" d="M94.28-77.868h12.249v15.392H94.28Z"/></g></g><g class="bi"><g class="bb"><path class="bc" d="M88.854-72.211h15.487V-59.4H88.854Z"/></g></g><g class="bj"><g class="bb"><path class="bc" d="M88.32-82.749h14.15v11.764H88.32Z"/></g></g><g class="bk"><g class="bb"><path class="bc" d="M96.369-82.787h12.878v11.066H96.369Z"/></g></g><g class="bl"><g class="bb"><path class="bc" d="M117.078-128.368h89.628V-65.38H117.078Z"/></g></g><g class="bm"><g class="bb"><path class="bc" d="M166.281-114.548h32.011V-103.9H166.281Z"/></g></g><g class="bn"><g class="bb"><path class="bc" d="M166.281-107.95h32.011v10.645H166.281Z"/></g></g><g class="bo"><g class="bb"><path class="bc" d="M166.281-101.078h24.584v10.645H166.281Z"/></g></g><g class="bp"><g class="bb"><path class="bc" d="M141.91-116.961H152.8V-105.8H141.91Z"/></g></g><g class="bq"><g class="bb"><path class="bc" d="M138.021-117.15h10.806v11.16H138.021Z"/></g></g><g class="br"><g class="bb"><path class="bc" d="M139.01-116.757h11.911v13.529H139.01Z"/></g></g><g class="bs"><g class="bb"><path class="bc" d="M141.248-114.093h12.657v12.363H141.248Z"/></g></g><g class="bt"><g class="bb"><path class="bc" d="M141.737-119.609h12.439v11.117H141.737Z"/></g></g><g class="bu"><g class="bb"><path class="bc" d="M147.563-116.494h11.852v11.841H147.563Z"/></g></g><g class="bv"><g class="bb"><path class="bc" d="M139.383-107.129h17.486v12.648H139.383Z"/></g></g><g class="bw"><g class="bb"><path class="bx" d="M2.7-176.836H229.486V50.95H2.7Z"/></g></g></g></g></g></g><g class="by"><g class="g"><g class="e"><g class="bz"><g class="ca"><g class="cb"><path class="p" d="M75.365-57.884h30.548v17.221H75.365Z"/></g></g><g class="cc"><g class="cb"><path class="p" d="M79.637-90.937h26.185v18.992H79.637Z"/></g></g><g class="cb"><path class="p" d="M65.223-96.107h46.165v57.825H65.223Z"/></g></g></g></g></g></g></g></g></g></g></svg>