<svg xmlns="http://www.w3.org/2000/svg" xmlns:xlink="http://www.w3.org/1999/xlink" width="229" height="137" viewBox="0 0 229 137"><defs><style>.a,.b{fill:none;}.a{clip-rule:evenodd;}.c{clip-path:url(#a);}.d{clip-path:url(#b);}.e{isolation:isolate;}.f{clip-path:url(#c);}.g{clip-path:url(#d);}.h{fill:#ffded6;}.i{clip-path:url(#e);}.j{clip-path:url(#g);}.k{clip-path:url(#h);}.l{fill:#ffdfd5;}.m{clip-path:url(#i);}.n{clip-path:url(#k);}.o{fill:#fff;}.p{clip-path:url(#m);}.q{clip-path:url(#o);}.r{clip-path:url(#q);}.s{clip-path:url(#s);}.t{clip-path:url(#u);}.u{clip-path:url(#w);}.v{clip-path:url(#x);}.w{fill:#ffca56;}.x{clip-path:url(#y);}.y{clip-path:url(#aa);}.z{clip-path:url(#ac);}.aa{clip-path:url(#ae);}.ab{clip-path:url(#ag);}.ac{clip-path:url(#ai);}.ad{clip-path:url(#aj);}.ae{clip-path:url(#ak);}.af{clip-path:url(#al);}.ag{clip-path:url(#an);}.ah{clip-path:url(#ap);}.ai{clip-path:url(#aq);}.aj{clip-path:url(#ar);}.ak{fill:#393e48;}.al{clip-path:url(#as);}.am{clip-path:url(#au);}.an{clip-path:url(#aw);}.ao{clip-path:url(#ay);}.ap{clip-path:url(#ba);}.aq{clip-path:url(#bc);}.ar{clip-path:url(#be);}.as{clip-path:url(#bg);}.at{clip-path:url(#bi);}.au{clip-path:url(#bk);}.av{clip-path:url(#bm);}.aw{clip-path:url(#bo);}.ax{clip-path:url(#bq);}.ay{fill:#475473;}.az{clip-path:url(#bs);}</style><clipPath id="a"><path class="a" d="M32-137H197a32,32,0,0,1,32,32V0H0V-105A32,32,0,0,1,32-137Z"/></clipPath><clipPath id="b"><path class="b" d="M-693,663H747V-361H-693Z"/></clipPath><clipPath id="c"><rect class="b" width="239" height="199" transform="translate(-5 -150)"/></clipPath><clipPath id="d"><path class="b" d="M0,0H229V-137H0Z"/></clipPath><clipPath id="e"><path class="a" d="M197.335-60.541c.121.938.224,1.916.269,2.92.032,1.3.019,2.6-.019,3.812-.074,1.068-.165,2.052-.266,2.9a114.09,114.09,0,0,0-2.029-20.327c-3.105-16.491-8.07-31.9-16.351-44.366q2.065,2.661,3.914,5.5c.971-.064-3.3-7.271-.244-3.485,1.322,1.922.851,1.963.943,2.454.6.985,1.244,1.953,1.815,2.959s1.152,2.008,1.705,3.027l-.64,2.478a92.763,92.763,0,0,0,5.517,14.122,63.6,63.6,0,0,1,5.3,16.941,4.866,4.866,0,0,0,.567.825,7.043,7.043,0,0,0-.373,2.019,16.761,16.761,0,0,0-.012,1.692c.008.651.033,1.391.1,2.233s.182,1.784.287,2.851.239,2.252.422,3.572c-.377-1.677-.653-.553-.9-2.126m-21.774-59.742q-2.051-2.614-4.339-5.011a19.706,19.706,0,0,1,4.6,5.071c.046.124-.079.064-.263-.06m-50.7-25.145c.208-.5.3-.994,2.051-1.189,3.243.363,9.581,1.909,8.6,2.384.377.137.759.266,1.144.39a90.524,90.524,0,0,0-11.791-1.585M95.931,24.282a34.4,34.4,0,0,0-4.734.135c-1.376-.465-1.815-.8-1.795-1.061q3.318.558,6.84.92l-.311.006M53.917-121.474A80.946,80.946,0,0,0,36.995-97.256,73.523,73.523,0,0,1,61.931-129.08a58.259,58.259,0,0,0-8.014,7.606M202.133-56.307a25.484,25.484,0,0,0-.222-2.688,32.953,32.953,0,0,0-.842-4.121L199.9-66.876c-.358-1.147-.772-2.449-1.187-4.03a6.916,6.916,0,0,0,.278-1.819c.056-1.054.05-2.343.044-3.56a28.633,28.633,0,0,1,.042-3.12l-.162,1.525c-.681-1.744-1.478-2.456-2.044-6.19-.65-3.75,1.2,1.807.923-.829a46.377,46.377,0,0,0-3.933-12.31l-1.107-2.247c-.4-.749-.8-1.519-1.236-2.34l-3.007-5.829a47.2,47.2,0,0,0-6.239-11.416,54,54,0,0,0-8.112-8.689,93.279,93.279,0,0,0-22.044-13.635l2.369,1.3,2.346,1.472c.8.476,1.57,1.043,2.361,1.6s1.611,1.1,2.388,1.747a79.056,79.056,0,0,1,9.9,8.972,64.38,64.38,0,0,0-6.6-4.8,62.6,62.6,0,0,0-16.842-9.507l.512.152c.805.238,1.594.443,2.315.713,1.449.519,2.792.917,3.821,1.422a57.65,57.65,0,0,0-10.884-6.089c-3.387-1.521-5.221-2.6-1.3-2.712-1.161-.349-2.207-.658-3.161-.9-.96-.209-1.827-.38-2.622-.524a27.27,27.27,0,0,0-4.124-.464c-2.44-.159-4.525.02-7.816.03-.823-.09-1.809-.154-2.836-.212l-1.555-.082-1.523-.022c-1.972-.033-3.631-.159-4.026-.486-3.024.494-4.381.7-6.176.892-.895.089-1.893.124-3.252.16l-2.338.113c-.892.036-1.91.064-3.076.174-6.349,1.154-11.982,3.605-7.707,2.987a96.686,96.686,0,0,1,17.355-2.681c4.172.549,2.188,1.18-.454,1.854-1.323.372-2.819.693-3.822,1.043-.152.053-.288.1-.416.152a88.478,88.478,0,0,0-35.276,11.514q2.667-1.973,5.5-3.767a91.077,91.077,0,0,0-10.571,6.074c.607-1.059,2.077-2.755,2.321-3.612.121-.425-.066-.633-.834-.423a10.392,10.392,0,0,0-1.623.655,22.029,22.029,0,0,0-2.66,1.493,86.785,86.785,0,0,0-8.639,8.412,105.662,105.662,0,0,0-7.381,9.147A161.129,161.129,0,0,0,33.31-95.033,91.682,91.682,0,0,0,26.33-61.657a106.691,106.691,0,0,0,4.564,34.889c-.054-2.066.377-.809.711.013.174.41.311.718.314.467a6.193,6.193,0,0,0-.107-.853c-.057-.467-.151-1.132-.29-2.05.453,1.1.912,2.118,1.366,3.2a82.43,82.43,0,0,0,3.012,8.6c-2.523-3.437-1.794-.991-.6,2.328,1.269,3.39,3.41,7.447,1.992,7.011.746,1.243,1.426,2.312,1.969,3.306s1.089,1.828,1.51,2.644C41.606-.463,42.329.837,43,2.238a22.247,22.247,0,0,0,1.163,2.1c.437.718.918,1.482,1.5,2.308.618.791,1.332,1.648,2.186,2.595a38.306,38.306,0,0,0,3.16,2.979c1.687,1.022,2.269,1.042,2.068.591a4.744,4.744,0,0,0-.78-1.058c-.386-.485-.892-1.073-1.468-1.714-1.188-1.247-2.511-2.874-3.754-4.34-1.18-1.524-2.24-2.935-2.835-3.848.811.869,1.867,2.166,2.923,3.475-.748-1.125-1.413-2.275-1.985-3.344a22.79,22.79,0,0,1-1.234-3.041,11,11,0,0,1-.328-1.227,5.4,5.4,0,0,1-.078-.987,2.068,2.068,0,0,1,.023-.212A61.775,61.775,0,0,0,59.678,12.12a1.665,1.665,0,0,0-.139,1.368A4.392,4.392,0,0,0,61.715,15.5c.789,1.239,4.5,3.219,8.4,4.635,1.917.8,3.908,1.354,5.507,1.971a12.074,12.074,0,0,1,3.427,1.559c6.581,1.431,12.4,2.7,17.49,3.426a43.39,43.39,0,0,0,7.013.458,24.823,24.823,0,0,0,3.01-.264,12.789,12.789,0,0,0,2.64-.746c1.624.3,3.267.69,4.908.915l4.958.763a50.734,50.734,0,0,0,10.3-1.03c3-.542,5.653-1.441,8.381-2.2,2.307-1.272-6.2-.082.161-2.374,1.161-.373,2.73-.854,4.307-1.255a29.577,29.577,0,0,1,4.316-.97c.755.287-2.179,1.494-2.825,1.835,6.154-1.881,11.362-3.467,16.3-5.09a66.016,66.016,0,0,0,14-6.152c.668-.548,1.385-1.067,2.064-1.663l2.067-1.824,1.06-.928,1.016-1,2.06-2.03a66.766,66.766,0,0,0,7.271-9.057c4.236-6.286,6.709-12.756,7.176-16.765-.495,1.229-.931,2.475-1.477,3.681s-1.092,2.41-1.676,3.6c2.284-5.329,1.56-5.65,1.153-6.046-.219-.2-.407-.44-.246-1.353.067-.461.275-1.074.512-1.967s.6-2.038,1.1-3.531c1.454-4.478,1.967-5.615,2.394-5.628s.67,1.074,1.185.855a41.186,41.186,0,0,0,.691-4.517l.239-2.523c.083-.852.09-1.716.141-2.567s.086-1.693.127-2.51c.013-.817.033-1.609.064-2.36s.081-1.462.124-2.118.076-1.254.145-1.783c.268,6.11.931-4.747.983-1.884.061-1.256,0-2.362-.035-3.361"/></clipPath><clipPath id="g"><rect class="b" width="258" height="259" transform="translate(-10 -177)"/></clipPath><clipPath id="h"><path class="b" d="M26,0H203V-137H26Z"/></clipPath><clipPath id="i"><path class="a" d="M14.212-176.231H223.444a23.575,23.575,0,0,1,23.575,23.575v211A23.575,23.575,0,0,1,223.444,81.92H14.212A23.575,23.575,0,0,1-9.363,58.344v-211A23.575,23.575,0,0,1,14.212-176.231Z"/></clipPath><clipPath id="k"><path class="a" d="M156.38-89.642a.772.772,0,0,0-.026.141c-.06,0-.12-.017-.112-.05.036.023.081-.05.138-.092m-.039.411c0-.018,0-.041,0-.082h0c0,.034,0,.063,0,.082m-1.236.126c-.017-.055.019-.068.055-.071a.506.506,0,0,0,.009.094l.02.009a.363.363,0,0,1-.083-.032m11.026-4.739a.862.862,0,0,0,.444-.2.458.458,0,0,1-.45.089c.325-.219.049-.143.146-.23l-.172.122c-.166.034-.109-.025-.076-.092l-.065,0a.606.606,0,0,1,.176-.044c0,.014-.017.036.046,0a.139.139,0,0,1-.043,0c-.359.071.082-.213-.374-.141.013-.073.339-.169.312-.222-.522.085-.121-.162-.625-.1-.088.137-.046.106-.424.209l.626-.036q-.321.072-.6.148c.124.016.414-.048.462-.018-.323.085-.242.057-.37.165.141-.205-.5.075-.488-.073l.412-.319c-.1-.091-.326-.069-.543-.037a1.367,1.367,0,0,1-.632.006l.111.075c-.128.13-.27-.009-.427.033.044-.116-.033-.169-.087-.25-.046.085-.254-.036-.3.2l-.112-.172c-.225-.089-.3.314-.52.249.081-.123-.012-.219.148-.3-.074-.009-.139-.039-.149.044-.036-.079-.224.14-.281.019-.037.049-.061.174-.143.155a.111.111,0,0,1,.007-.06c-.007.06-.14.067-.081.208-.176-.4-.7-.048-.68-.371a1.592,1.592,0,0,1-.159.036.654.654,0,0,1-.1-.117c.031-.02.046-.041.044-.019.034-.174-.309.157-.31-.108.115-.2.152.058.182-.042.335-.217-.182-.222-.053-.469l.039.022c.061-.17-.272-.186-.34-.372a.125.125,0,0,0,.053-.027.974.974,0,0,1-.561-.351c.165-.023.113.036.235-.071-.06-.064-.211.143-.33.015.049-.089.056-.231.2-.325l.084.135c.146-.188-.089-.148-.127-.3l.09-.036c-.216-.333-.391-.15-.543-.467l-.027.1c-.223.089,0-.278-.181-.242l.09-.342c-.1-.062-.315-.092-.416-.181.095-.2.261-.087.4-.054-.069-.131-.247-.419-.309-.283.031.008.083-.02.1.085-.142.136-.241.149-.346-.053a1.76,1.76,0,0,0-.242-1.071c-.063.095-.125.134-.18-.049a2.188,2.188,0,0,1-.331.815,3.762,3.762,0,0,0-.411.728c.312.194-.07.182.187.523-.031.125-.053.158-.073.153l0,0h0a2.1,2.1,0,0,0-.331.193c-.132.029-.011-.178-.081-.226-.164.3-.187.03-.376.207.069.009.1.065.092.134a.333.333,0,0,1-.029.113.188.188,0,0,1-.049.064l.111-.037.132-.084c-.008.14-.02.179-.051.206a.272.272,0,0,1-.128.051c-.1.022-.193.044-.16.211l-.071-.128c.005.158-.216.476,0,.725-.05.005-.157-.006-.156-.074a1.268,1.268,0,0,0-.11.539,1.128,1.128,0,0,1-.045.262c-.03.085-.037.071-.091.078l-.074-.058c.018.025.126.137.043.1-.029-.029-.068-.071-.076-.068a.348.348,0,0,1,.064.141c0,.008-.015.008-.032,0a.648.648,0,0,0-.047-.1c-.076-.047-.053.012-.071.1.016.084-.142.223-.255.275-.048-.265-.32-.3-.456-.323l0-.039c-.385.037-.6.338-.935.506a.374.374,0,0,0-.258-.1,3.51,3.51,0,0,0-.5.045,6.875,6.875,0,0,1-1.142.113c.149.022.208.175.144.215-.209-.018-.111.21-.427.017l.055-.005a1.405,1.405,0,0,0-.919-.019l.521.233a2.4,2.4,0,0,0-1.042.013c.435.348,1.021.658.724.75.244.112.374.23.595.321l-.26,0a4.749,4.749,0,0,0,.825.778l-.207-.02c.238.23.751.005.9.13-.05.071-.1.144-.142.22a.949.949,0,0,1,.182.2l.125.181a.473.473,0,0,0,.378.217c-.029.025-.085.075-.127.051.1.095.268.478.47.182-.153.174.2.214.385.241l-.132.11c.234-.082.3-.1.442-.056,0,.034-.085.108-.076.057-.015.108.174-.06.18.067l-.125.034c.044.057.09.02.26,0a.108.108,0,0,1,.033.008c.021.062-.1.192-.243.21.1-.006.217.042.164.1a.19.19,0,0,1-.11-.027c-.135.137.152.364-.033.489a.174.174,0,0,0-.105.015,1.209,1.209,0,0,1,.071-.331c-.156-.021-.205.132-.4-.022.1.141.328.39.234.533a.232.232,0,0,1-.057.013l-.015-.019a.088.088,0,0,0,.012.1.3.3,0,0,0-.064.12c-.132,0-.094.17-.111.247.171.016.131.115.285.038-.014.011-.018-.018-.018-.071a.083.083,0,0,0-.014-.036l.014.008c0-.052.009-.119.015-.2.078.073.142.147.036.221.1.054.211.113.261.146-.252.075-.408.264-.559.273a3.219,3.219,0,0,1,.051.442c.016.209.066.386.222.443.032.075-.111.131-.17.188-.026-.046-.012-.117-.056-.137.06.179-.047.6.2.487-.143.3-.212.013-.215.32l-.071.009c-.215.437-.159.665-.059.753.1.106.238.077.137.423.049-.008.079.018.1.081-.012-.025-.018-.037.016-.1a3.252,3.252,0,0,0,1.026-.564,2.45,2.45,0,0,1,1.092-.5c.23-.057.135-.168.18-.32l.123.142.044-.271c.134-.257.593.182.714-.227l-.1-.088c.108-.034.269-.238.324-.105,0-.026-.033-.13.038-.1l.051.082.155-.279c.218-.044.162.349.44.212.081-.089.143-.407.074-.441a.159.159,0,0,1-.184-.075l.066-.1c-.126-.256-.2-.549-.524-.593l-.069.24-.119-.091.126-.083c-.139-.07-.129.057-.142.156a.245.245,0,0,0-.141-.095l-.018.324c-.074-.087-.042-.231-.175-.226-.009.15.193.177.117.317-.14-.069-.17-.173-.2-.027a.144.144,0,0,1-.036-.155c-.033.121-.187.151-.152.305-.157-.094-.242.187-.369-.051a.485.485,0,0,1-.1.313c-.03-.355-.278.137-.415-.182a.29.29,0,0,1-.136.3l-.068.051-.015.024a.269.269,0,0,0-.02.1c0-.025-.011-.074,0-.062-.039-.006-.064-.092-.081-.146a1.006,1.006,0,0,1-.083.557c-.023-.254.062-.36.057-.614a2.648,2.648,0,0,1-.1.466.868.868,0,0,1,.043-.334c-.119.414-.035.079-.151.357.033-.189.155-.413.063-.254.069-.153.14-.309.14-.309l-.264.555c-.117.141.108-.254.2-.439a4,4,0,0,1-.324.483l.112-.177a1.543,1.543,0,0,1-.116.153c-.055.038.033-.117-.173.086l.068-.088-.373.454c0-.044-.155.081.022-.13-.01.04.06-.035.114-.083l-.069.031c.256-.309.078-.026.265-.24-.074.036-.26.1-.181-.04.236-.2.06.079.282-.185l-.1.168c.389-.441-.031.06.385-.4.073-.09-.115.061-.04-.041-.125.063-.189.124-.313.179-.1-.025.046-.137.176-.192s.248-.083.109-.085-.4-.008-.251-.1a1.054,1.054,0,0,0,.229.054c.044-.153-.32-.155-.133-.36.085.055.052.192.085.16.2-.132-.117-.128-.1-.248l.21,0c0-.251-.113-.542-.114-.819.059.023.118.078.19.023a1.146,1.146,0,0,1,.06-.539l.282-.9-.071-.074-.194-.042c-.034-.034.009-.1.087-.079-.109-.189-.12.046-.266.009-.1-.072-.029-.165.08-.139-.512-.258-.871-.345-.933-.66l.071-.008c-.091-.181-.406.13-.423-.112h.046a3.532,3.532,0,0,0-.45-.433,1.233,1.233,0,0,1-.2-.221c-.041-.068-.018-.1.016-.164-.115.07-.126.022-.136-.009s-.028-.051-.245,0a.844.844,0,0,1,.358-.165,4.552,4.552,0,0,1-.483-.082l.324.038c-.123-.022-.253-.05-.39-.085l.4.057-.112-.036a2.125,2.125,0,0,1-.249-.037c-.17-.064.005-.063.217-.006l.176.047a.754.754,0,0,1-.214-.123l.243.108c-.305-.14.359.136.078.008l-.245-.108c.219.075.242.072.224.027l.152.1c.06.023.016-.066.089-.077-.04-.054-.142-.265-.1-.295l.074.189c-.01-.123-.063-.065-.05-.22.068.011.073.217.077.282-.008-.022.028-.052.078-.085.019.057-.008.094,0,.17.035-.132.279.153.323-.074l.018.057c.31-.056.437-.148.687-.2-.026-.17.08-.151.129-.3a1.706,1.706,0,0,0,.681.053c.245-.132.037-.155.116-.273.065.147.438.064.3.2l.381-.1a5.236,5.236,0,0,0,.206-.781c-.081.025-.13.064-.163.008.013-.092.144-.16.2-.112a.1.1,0,0,1,.008.023c-.056-.451.782-.626.609-1.04l.008.022-.025-.361c.084-.123.071.129.2.07a.518.518,0,0,1,0-.258.468.468,0,0,1,.036-.093.093.093,0,0,1,.023-.023c.035-.029.067-.025.024-.141.179.166.169.17.169.1s.007-.207.053.05l-.03-.2c-.021-.215.024.1.03.147-.017-.168-.027-.177-.037-.3a.557.557,0,0,1,.034-.157,1.067,1.067,0,0,1,.08.387.417.417,0,0,1-.056.269c-.018.029.422-.4.313-.058l-.219.019c.447.316.47.885.879,1.209-.055,0-.108.025-.131-.016-.08.159.172.333.279.277.025.074-.09.062-.116.141.024.226.372.292.3.475-.009.033-.06-.011-.085-.034.092.047.214.38.28.335a.03.03,0,0,0,.019-.028.1.1,0,0,0,.017-.042l0,.012c.276.1.609-.012.826.11.172-.172.313.125.384-.136-.042.274.29.255.417.138-.047.079.089.1.033.207.129.01.253-.028.246-.172.2.354.507-.214.6.222.081-.029.242-.046.251-.076a.448.448,0,0,1,.112-.074,1.188,1.188,0,0,1,.312-.094c-.264.25-.189.008-.369.279.1-.1.478-.3.551-.226a1.617,1.617,0,0,1-.265.14c.211-.068.189,0,.341-.027.008.008.032.01.079.008-.051.016-.1.025-.135.033,0,.009-.109.056.136-.019l-.052,0a2.207,2.207,0,0,1,.8-.151c-.611.12-.3.181-1.019.279a1.7,1.7,0,0,0,.263-.033.911.911,0,0,1-.286.055c.065.031.286-.007.216.062l-.209-.006c.155.01.27.06.142.119-.042-.009-.106-.011-.09-.026-.039.068.151.3-.1.391-.147-.229-.121,0-.308-.133l-.062.163.125.03c-.1.1-.064.3-.2.339l0-.14-.15.22.166-.048c-.014.184.219.188.044.279.009-.044-.1.1-.247.06h0c0,.1.01.205-.1.241-.071-.03-.168-.189-.215-.21.091.181-.189.275-.1.478a.349.349,0,0,0-.125-.147l.073.148c-.081.013-.1,0-.167-.07-.16.127.265.142-.009.248.006-.025-.019-.031,0-.083a2.2,2.2,0,0,0-.41.49.541.541,0,0,1,.022.2c-.223.053-.113-.264-.3-.21a4.364,4.364,0,0,0,.294.684.927.927,0,0,1,.169.44l.014-.06c.327-.026-.111.251.07.367-.031-.031-.186-.011-.149-.008-.009.211.164.393.328.676l-.09-.02c-.049.127.027.335.01.44.087.007.084.062.2.018-.208.161-.132.217-.022.385.106.143.243.39.024.31-.007-.028-.1-.128-.1-.11l.133.258c.177.158.1.081.233.159a1.108,1.108,0,0,1,.228.359,1.094,1.094,0,0,0-.391-.369l.179.193c-.309-.248.384.439.2.378l-.1-.131.162.3c0,.017-.018.019-.057-.008-.243-.3-.03-.1-.215-.336-.051-.014.2.44-.08.124-.007-.054.049-.028.032-.087-.315-.363-.253-.28-.341-.355l.009.009-.192-.188.073.092c.148.307.091.3.031.274s-.131-.081-.157.061c.036-.275-.049-.192-.117-.43a.744.744,0,0,1-.12-.236c0,.165-.085-.171-.112.058-.009-.07-.052-.031-.044-.193-.048.029.011.12.013.2-.05.089-.126-.016-.172-.1-.03-.043-.035-.072-.088-.1a.289.289,0,0,0-.228,0c-.269,0-.4.161-.643.154-.027-.119.15-.169.15-.169a.264.264,0,0,0-.3-.146c.043-.037.041-.087.038-.162-.09-.026-.15.169-.222.037a.985.985,0,0,1,.188-.176c-.123,0-.269.056-.394.056.018-.107.129-.112.195-.157-.135-.013-.338-.057-.445.074l.049.088c-.046-.013.039-.137.084-.15.154-.07.118.119.1.176h-.09c-.076.351.317.089.456.178l-.171.2.242-.119c0,.075-.036.214-.125.213.051.164.132-.037.162.133,0,.025-.009.033-.023.038l.136-.019c-.044.039-.061.17-.108.107.121.22.38-.03.367.177l-.022.007c.293.044.105-.157.392-.263a4.277,4.277,0,0,0-.058.483l.1-.158a.1.1,0,0,1,.049.129c.151-.069.006-.087.1-.175.112.242.356.082.415.44.032-.142-.146-.191-.011-.236.1.4.156.013.32.255.029.2-.154.013.053.275-.033-.325.323.222.444.22-.154-.32.2-.006.331-.026a2.831,2.831,0,0,0,.555.421A.459.459,0,0,1,163.7-86l.052.067a2.134,2.134,0,0,1-.394-.761,1.787,1.787,0,0,1,.349.454l-.038-.171a1.421,1.421,0,0,1-.213-.354l.22.23c-.064-.26-.334-.626-.259-.817-.179-.089-.473-.125-.633-.38a.791.791,0,0,1,.311.194c-.018-.028-.1-.11-.063-.131l.183.177c.047-.079-.148-.124-.15-.2.136.059.083-.025.192.029.018.03-.039.058.022.118a.233.233,0,0,1,.142-.223.27.27,0,0,1-.21-.133c-.053-.207.14-.042.177-.169-.1-.062-.041-.209-.225-.2-.012-.06.07-.079.114-.112-.112-.146-.106-.394-.279-.282l-.008.023-.01-.012c-.231-.227-.015-.569-.146-.815l.06-.012c-.1-.142-.113-.34-.264-.424-.01-.046.085-.132.159-.127-.068-.1-.142-.125-.074-.288.122.07.081-.069.1.092.017-.174.125-.129-.068-.246.166.037.192-.034.136-.077a.49.49,0,0,0-.107.033.156.156,0,0,1-.027-.087l.049-.032.2.087c.165.006.08-.057.064-.162.012-.134.068-.287.3-.229-.044-.16-.194.059-.262-.111.124-.089.443,0,.475-.034.224-.071-.083-.343.12-.445-.071-.03-.229-.144-.169-.308.123-.089.348.077.325.185a.039.039,0,0,1-.066.009c-.015.053-.036.12.062.132l-.039-.064c.1,0,.242-.157.295-.04.028-.13-.053-.117-.139-.082.209-.067.21-.215.4-.309-.051,0-.133-.043-.11-.065.329-.215.016-.217.158-.412.208-.057.206.167.318-.085.2-.1.233.035.231.123.06-.265.5-.394.683-.545l-.049.136a.635.635,0,0,1,.154-.21l-.261.064c.1-.069.159-.13.242-.129-.066-.068-.379.048-.445-.072.187-.089.1-.22.435-.291-.359.282.338-.075.149.17.013-.047.07-.105.179-.183.044-.016.054,0,.051.02.568-.347-.222-.083.041-.352"/></clipPath><clipPath id="m"><path class="a" d="M101.471-126.135a.471.471,0,0,0-.021.107c-.06,0-.119-.016-.114-.04.038.019.08-.036.134-.067m-.029.248h0c0,.026,0,.048,0,.062,0-.013,0-.031-.005-.062m-1.221.127c-.019-.043.016-.051.051-.053a.308.308,0,0,0,.012.071l.02.008a.506.506,0,0,1-.084-.026m8.646-3.708a.9.9,0,0,0,.418-.184.655.655,0,0,1-.46.11c.281-.181.006-.1.083-.168l-.146.1c-.193.049-.105-.02-.117-.066l.071-.025c.083-.022.005.042.091-.006-.046.008-.065.006-.065,0-.171.018.2-.208-.164-.139.045-.068.355-.165.359-.214-.463.089-.019-.151-.457-.084-.138.132-.089.1-.444.2l.523-.044-.557.151c.094.012.358-.053.382-.024-.3.085-.224.058-.379.162.212-.2-.436.079-.359-.061l.486-.309c-.1-.173-.7.107-.933-.01l.054.07c-.167.126-.214,0-.361.038.093-.111.055-.159.05-.236-.045.085-.266-.038-.4.189a1.4,1.4,0,0,0-.086-.169c-.279-.1-.384.3-.532.245.065-.124,0-.218.122-.3-.056-.008-.1-.035-.115.048-.024-.079-.174.144-.213.024-.03.05-.051.175-.114.158a.166.166,0,0,1,.007-.059c-.007.059-.108.07-.067.209-.144-.4-.469-.026-.426-.346l-.1.031a.366.366,0,0,1-.1-.093c.029-.022.046-.043.042-.023.049-.148-.3.172-.266-.031.142-.15.122.005.167-.067.352-.185-.132-.135.016-.353l.035.015c.078-.143-.236-.126-.28-.271a.15.15,0,0,0,.054-.027c-.217.022-.4-.182-.518-.285.142-.066.1.015.2-.129-.057-.06-.184.2-.285.1a1.944,1.944,0,0,1,.135-.449l.088.148c.105-.268-.116-.2-.132-.316l.063-.085c-.157-.235-.28.05-.393-.2l-.018.12c-.157.213,0-.292-.131-.158l.059-.407c-.071-.012-.226.071-.3.032.066-.262.186-.23.285-.27-.051-.1-.182-.309-.224-.133.022-.008.059-.066.071.037-.1.219-.17.286-.248.13a1.759,1.759,0,0,0-.186-1c-.046.061-.092.067-.137-.15-.123.724-.342.609-.544,1.146.238.37-.051.145.147.632-.022.109-.038.13-.053.113h0v0a.746.746,0,0,0-.248.011c-.1-.044-.01-.185-.064-.273-.121.208-.141-.074-.282,0a.267.267,0,0,1-.006.371,1.2,1.2,0,0,1,.2-.035c.011.479-.354.027-.355.528l-.047-.189c-.013.117-.087.289-.135.47a.313.313,0,0,0,.1.362c-.047,0-.151-.017-.157-.071-.136.2.04.713-.121.622l-.074-.06c.018.023.129.134.048.09a.515.515,0,0,0-.076-.069c.022.022.093.136.067.14l-.013-.008-.018-.03-.045-.07-.014,0c-.077-.054.064.261-.084.35a.415.415,0,0,0-.364-.338l0-.038a.608.608,0,0,0-.362.182,1.319,1.319,0,0,1-.232.163,2.929,2.929,0,0,1-.265.152,1.236,1.236,0,0,0-.747-.053,4.6,4.6,0,0,1-.91.075c.138.023.262.164.228.2-.185-.021.01.188-.352.005l.045,0a1.123,1.123,0,0,0-.786-.039l.554.224a1.922,1.922,0,0,0-.844-.022c.333.279.9.559.536.6.221.1.317.188.52.268l-.278-.023a2.6,2.6,0,0,0,.6.6l-.214-.031c.171.175.8.066.92.164l-.231.137a3.647,3.647,0,0,1,.333.423,1,1,0,0,0,.2.194.3.3,0,0,0,.185.037c-.028.025-.084.075-.117.059.069.074.166.4.383.112-.157.17.146.169.3.174l-.129.112c.221-.091.235-.16.355-.13,0,.027-.1.091-.083.05-.036.088.176-.057.154.047l-.124.033c.029.044.08.012.242-.009.067.025-.063.16-.221.182.1-.011.219.018.168.065a.233.233,0,0,1-.111-.013c-.125.064.17.233-.012.331a.212.212,0,0,0-.1.009.755.755,0,0,1,.057-.251c-.156-.019-.2.1-.4-.026.105.11.341.305.252.411a.247.247,0,0,1-.056.009l-.016-.014c-.019.025-.007.05.016.076a.188.188,0,0,0-.059.09c-.131,0-.087.127-.1.185.172.017.135.091.285.036-.014.008-.02-.014-.022-.054,0-.01,0-.021-.015-.028l.015.006c0-.039,0-.091.007-.148.081.057.148.115.045.169l.265.117c-.247.043-.411.3-.567.355.061.283-.028.721.305.667.037.039-.111.142-.171.208-.03-.02-.018-.076-.065-.07.071.1-.023.442.228.251-.138.276-.223.1-.213.319l-.074.039c-.216.417-.132.543-.016.553.114.026.26-.06.125.306.015.015.02.051.013.112a.187.187,0,0,1,.039-.115c.139.036.485-.226.761-.428a1.165,1.165,0,0,1,.78-.335c.16-.019.173-.195.236-.36l.066.175a2.544,2.544,0,0,0,.1-.305c.129-.257.56.195.6-.175l-.09-.092c.084-.022.191-.2.253-.069,0-.023-.043-.125.019-.086l.051.081.092-.247c.173-.022.175.342.385.239.056-.077.069-.368.008-.407-.033.014-.108-.005-.16-.087l.043-.084c-.133-.252-.231-.534-.5-.6l-.028.219-.108-.1.094-.066c-.122-.078-.1.041-.1.133a.274.274,0,0,0-.127-.1l.025.3c-.071-.088-.061-.22-.17-.227.011.14.18.184.133.308-.122-.078-.16-.178-.169-.044a.17.17,0,0,1-.047-.149c-.013.11-.136.124-.088.272-.14-.1-.176.153-.308-.082a1.337,1.337,0,0,1,0,.262c-.108-.311-.085.029-.174-.32.059.3-.018.16-.064.375.006-.03.015-.09.017-.074-.021-.016-.01-.124,0-.191a2.269,2.269,0,0,1-.211.64c.06-.305.142-.411.213-.713-.07.268-.117.3-.194.529a1.942,1.942,0,0,1,.123-.385c-.19.462-.043.085-.192.388.075-.216.211-.452.111-.286l.172-.333-.316.6c-.109.14.138-.275.245-.473a5.669,5.669,0,0,1-.33.5l.118-.183-.076.106c-.107.127.028-.1-.2.168l.069-.092-.375.484c0-.032-.16.126.018-.1-.008.032.063-.051.116-.109l-.072.053c.256-.33.081-.053.269-.286-.077.058-.271.188-.193.053.241-.245.067.028.289-.255l-.1.162c.392-.482-.031.056.387-.451.073-.1-.118.094-.044-.011-.129.1-.195.171-.323.265-.213.022.587-.473.289-.321-.149.07-.427.172-.271.045.081-.019.163-.043.246-.07.029-.044-.348.06-.174-.053.092,0,.073.04.1.025.2-.067-.135,0-.128-.053l.211-.013a.242.242,0,0,0-.037-.041c-.015-.049-.031-.1-.047-.154a1.34,1.34,0,0,1-.073-.32c.06.019.12.063.19.023a.728.728,0,0,1,.044-.433c.064-.23.159-.476.254-.731-.038-.028-.076-.053-.114-.076l-.1-.013c-.025-.026.03-.083.1-.068-.061-.151-.122.042-.251.018-.077-.054.008-.134.1-.118a3.4,3.4,0,0,1-.574-.268c-.142-.08-.214-.153-.221-.291l.063-.014c-.054-.151-.37.158-.352-.055l.04-.006a1.54,1.54,0,0,0-.268-.277c-.048-.049-.081-.116.043-.186-.317.058.079-.084-.4-.04a1.655,1.655,0,0,1,.444-.083c.022,0-.39-.057-.487-.1l.332.053-.386-.091.407.073-.107-.034c-.016,0-.148-.023-.253-.046-.2-.074.132-.023.357.047l.04.011a1.346,1.346,0,0,1-.241-.116l.258.1c-.326-.134.371.132.071.01l-.26-.1c.222.074.24.071.2.03l.179.1c.062.022-.018-.06.037-.068-.06-.05-.249-.243-.227-.269l.156.173c-.07-.112-.086-.06-.152-.2.063.012.168.2.2.258a.338.338,0,0,1-.016-.067l.093.152c-.045-.1.069.106.047.036,0,0,.008,0,.011-.012l.117-.047a1.42,1.42,0,0,1,.24-.089c-.028-.17.053-.146.084-.293.075.014.157.046.242.07a1,1,0,0,0,.4-.013c.166-.119,0-.148.034-.258.083.143.361.076.279.206l.224-.063a3.172,3.172,0,0,0,.144-.682c-.074.007-.115.033-.15-.019,0-.075.118-.109.182-.066l.006.025a.372.372,0,0,1,.084-.279,1.238,1.238,0,0,1,.218-.171.757.757,0,0,0,.2-.167c.045-.065.056-.137-.02-.168l.013.01a.6.6,0,0,1-.112-.171c.038-.019.086.1.173.141-.091-.118-.063-.158-.04-.162s.051.013.017-.129c.136.267.129.265.128.193s0-.206.04.08l-.025-.218c-.018-.228.019.113.024.164-.016-.17-.019-.195-.031-.325a.469.469,0,0,1,.024-.139,1.241,1.241,0,0,1,.025.676c-.022.019.32-.6.2-.274a2.1,2.1,0,0,0-.136.177c.088-.094.114-.039.129,0a.988.988,0,0,0,.333.453c-.051,0-.105.03-.121,0-.1.134.123.25.249.232.033.093-.082.076-.1.166,0,.188.31.187.232.354-.011.029-.053,0-.074-.015.1.029.19.4.261.174a.707.707,0,0,0,.022.083c.2.054.431-.035.565.07.165-.172.4.137.423-.13-.04.273.213.248.313.128-.039.08.064.095.018.206a.161.161,0,0,0,.192-.176c.063.174.2.122.2.066.03-.051.085-.089.011.116a.91.91,0,0,1,.522-.258c-.333.24-.156.01-.433.271.133-.1.532-.293.554-.223a2.453,2.453,0,0,1-.281.136c.193-.064.16-.01.272-.029.008.006.035.006.092,0l-.136.037c.008.005-.1.05.141-.028l-.053.009a3.264,3.264,0,0,1,.823-.192,9.946,9.946,0,0,1-1.016.3,2.631,2.631,0,0,0,.274-.052,1.257,1.257,0,0,1-.293.069c.081.013.309-.037.256.016l-.23.02c.171-.012.314.008.195.062-.049,0-.119.005-.107-.007-.021.05.263.18.025.269-.244-.124-.12,0-.341-.094a.362.362,0,0,1,.03.066l.115.04c-.04.038.066.168-.052.186a.245.245,0,0,0-.029-.108c-.01.031-.062.109-.09.162l.14-.025c.014.158.221.186.079.248,0-.037-.074.077-.211.026h0c.018.088.038.179-.057.2-.068-.035-.175-.182-.22-.206.105.167-.129.219-.023.4a.457.457,0,0,0-.131-.142l.084.139a.155.155,0,0,1-.172-.063c-.161.134.272.132.019.223,0-.019-.025-.026-.019-.066a1.018,1.018,0,0,0-.275.357.354.354,0,0,1,.02.18c-.229.03-.1-.2-.29-.17a2.914,2.914,0,0,0,.256.525c.094.174.152.232.151.364l.017-.046c.324-.035-.124.2.049.278a.284.284,0,0,0-.147,0c-.022.154.147.32.278.452l-.089-.018c-.064.057-.015.144-.043.192.093.041.087.076.214.1-.238.021-.159.09-.052.248.1.14.234.364,0,.218a.417.417,0,0,0-.1-.115l.125.228a1.245,1.245,0,0,0,.241.2,1.188,1.188,0,0,1,.221.336,1.726,1.726,0,0,0-.4-.412l.18.2c-.317-.3.383.455.186.336l-.1-.131c.05.091.155.254.186.329-.006,0-.016,0-.032-.016-.149-.185-.135-.185-.145-.213a1.408,1.408,0,0,0-.122-.176.3.3,0,0,0,.025.05c.036.085.233.424,0,.147-.023-.063.019-.043-.011-.108-.308-.368-.244-.281-.321-.354l.008.009-.017-.019.009.009-.113-.124c.026.031.046.054.064.074l-.119-.125.074.095c.191.333.155.337.111.316s-.1-.07-.071.1c-.071-.331-.094-.217-.214-.484a1.324,1.324,0,0,1-.15-.255c.054.194-.108-.185-.047.089-.029-.081-.041-.026-.091-.219-.019.043.046.139.077.237,0,.114-.08.005-.133-.08s-.09-.15-.159-.029c-.115.071-.2.252-.4.265-.009-.11.139-.174.133-.176-.033-.115-.111-.135-.218-.112.04-.039.043-.086.049-.158-.07-.018-.139.173-.183.053a1.213,1.213,0,0,1,.17-.183c-.1.012-.222.075-.323.085.026-.1.117-.118.174-.165-.108,0-.266-.028-.366.106l.029.081c-.035-.009.047-.134.083-.15.132-.078.081.1.059.16l-.072.006c-.1.341.245.059.346.132l-.16.2.208-.133c-.006.071-.053.206-.124.214.023.151.11-.046.115.113a.041.041,0,0,1-.022.038l.114-.028c-.039.04-.06.171-.1.109.128.227.327-.051.342.172l-.017.009c.242.025.062-.178.213-.347a4.385,4.385,0,0,0,.119.573l.007-.205a.178.178,0,0,1,.073.143c.066-.11-.026-.1,0-.225.148.263.237.029.393.439-.029-.174-.151-.2-.086-.275.2.453.1-.014.275.239.083.226-.086.043.124.313-.129-.376.265.2.335.176-.2-.347.118-.046.187-.094a2.12,2.12,0,0,0,.409.345.2.2,0,0,1,.058-.1l.052.066a1.96,1.96,0,0,1-.372-.674,2.266,2.266,0,0,1,.345.449l-.028-.13a1.522,1.522,0,0,1-.205-.327l.222.247c-.05-.2-.316-.559-.221-.655a2.358,2.358,0,0,1-.659-.52,1.524,1.524,0,0,1,.323.261c-.016-.026-.095-.114-.059-.113l.186.194c.057-.032-.151-.144-.147-.195.143.1.091.018.206.1.018.028-.046.023.016.088.009-.061.073-.111.17-.09a.484.484,0,0,1-.218-.177c-.042-.16.154.03.2-.039-.1-.083-.029-.157-.228-.231-.009-.045.081-.024.131-.027-.1-.116-.108-.417-.29-.345l-.009.018-.011-.014c-.234-.248,0-.516-.116-.7l.059-.012c-.091-.1-.094-.255-.238-.314-.007-.035.091-.1.165-.1-.063-.081-.134-.091-.053-.189.118.049.09-.028.089.05.036-.084.136-.078-.05-.164.165.035.2-.018.141-.052a.766.766,0,0,0-.109.02.09.09,0,0,1-.021-.077l.026-.015.207.075c.287.053-.279-.32.21-.24-.061-.144-.164.031-.248-.124.1-.065.392.046.416.02.188-.038-.122-.307.045-.375-.068-.034-.224-.15-.193-.285.1-.065.318.1.314.195-.014.025-.04.019-.057,0-.005.044-.015.1.074.121l-.044-.06a.357.357,0,0,0,.139-.039c.049-.02.112-.048.135.016.044-.15-.055-.117-.148-.071.237-.1.239-.255.464-.4-.066.013-.172,0-.147-.025.316-.209-.046-.153.05-.305.207-.061.279.087.318-.092.187-.092.265,0,.291.055-.023-.182.418-.318.562-.438l-.008.1a.3.3,0,0,1,.1-.157l-.263.072a.465.465,0,0,1,.22-.113c-.094-.037-.4.075-.508,0,.174-.081.037-.157.377-.242-.3.227.344-.088.218.1,0-.033.041-.078.134-.142.044-.015.059-.005.063.007.5-.294-.269-.029-.072-.237"/></clipPath><clipPath id="o"><path class="a" d="M54.989-92.113a.446.446,0,0,0-.02.107c-.06,0-.119-.016-.114-.04.038.019.079-.036.134-.067m-.029.248h0c0,.026,0,.048,0,.062,0-.013,0-.031-.005-.063m-1.221.127c-.019-.043.016-.051.052-.053a.3.3,0,0,0,.012.071l.02.008a.536.536,0,0,1-.084-.026m8.647-3.708a.89.89,0,0,0,.417-.184.658.658,0,0,1-.46.11c.282-.182.006-.1.083-.169l-.146.1c-.194.049-.105-.02-.118-.066l.071-.025c.082-.022,0,.041.091-.006-.045.008-.064.006-.065,0-.171.018.2-.208-.165-.139.045-.069.355-.165.359-.215-.463.09-.018-.151-.457-.084-.138.132-.088.1-.443.2l.522-.044-.557.151c.094.012.358-.053.382-.025-.3.085-.224.058-.379.162.213-.2-.436.079-.359-.061l.487-.308c-.1-.173-.7.107-.933-.01l.054.069c-.167.126-.214,0-.361.038.093-.111.055-.159.05-.236-.045.085-.266-.038-.4.189a1.6,1.6,0,0,0-.086-.17c-.279-.1-.384.3-.532.245.066-.125,0-.218.122-.3-.056-.008-.1-.035-.115.048-.025-.079-.174.144-.213.025-.03.05-.052.174-.114.157a.166.166,0,0,1,.007-.059c-.007.059-.108.07-.068.209-.144-.4-.469-.026-.426-.346l-.1.031a.35.35,0,0,1-.1-.094c.029-.022.045-.043.042-.023.049-.148-.3.172-.266-.03.141-.151.122,0,.167-.068.353-.184-.132-.135.016-.352l.035.015c.078-.143-.236-.126-.28-.27A.162.162,0,0,0,58.2-97c-.218.022-.4-.182-.518-.285.142-.065.1.016.2-.128-.057-.061-.184.195-.285.1a1.91,1.91,0,0,1,.135-.449l.088.148c.106-.268-.115-.2-.131-.316l.063-.085c-.157-.234-.28.05-.392-.2l-.018.12c-.157.212,0-.293-.131-.158l.059-.407c-.072-.012-.227.071-.3.031.066-.262.186-.23.285-.27-.051-.1-.181-.309-.224-.133.022-.008.059-.065.071.037-.1.219-.17.286-.247.13a1.764,1.764,0,0,0-.186-1c-.046.061-.092.067-.137-.15-.123.724-.343.609-.544,1.146.238.37-.051.145.147.632-.024.115-.04.137-.057.114a.753.753,0,0,0-.248.011c-.1-.044-.009-.185-.063-.273-.121.208-.14-.074-.282,0a.267.267,0,0,1-.006.371,1.27,1.27,0,0,1,.2-.035c.011.479-.353.027-.354.528l-.047-.189c-.013.117-.088.289-.135.471a.314.314,0,0,0,.1.362c-.047,0-.152-.017-.157-.071-.135.2.041.714-.121.622l-.074-.06c.019.023.129.134.048.09a.49.49,0,0,0-.076-.069c.022.022.093.136.067.14l-.013-.007-.018-.031-.046-.069-.013-.005c-.077-.054.064.261-.084.35a.416.416,0,0,0-.364-.338l0-.038a.6.6,0,0,0-.362.183,1.384,1.384,0,0,1-.232.162,2.887,2.887,0,0,1-.264.152,1.238,1.238,0,0,0-.748-.053,4.546,4.546,0,0,1-.91.075c.138.023.262.164.228.2-.185-.02.01.188-.352.005l.044,0a1.123,1.123,0,0,0-.786-.039l.555.224a1.931,1.931,0,0,0-.844-.022c.332.279.9.559.536.6.221.1.317.188.52.268l-.278-.023a2.575,2.575,0,0,0,.6.6l-.214-.031c.171.175.8.067.92.164l-.231.137a3.678,3.678,0,0,1,.334.424,1.031,1.031,0,0,0,.195.193.3.3,0,0,0,.186.037c-.028.025-.084.075-.117.06.07.074.166.4.383.111-.156.17.147.169.3.174l-.129.112c.22-.091.235-.16.355-.13,0,.027-.1.091-.083.05-.036.088.176-.057.154.047l-.124.033c.029.044.08.012.242-.009.067.025-.063.16-.221.182.1-.011.22.018.169.065a.247.247,0,0,1-.111-.013c-.125.063.17.232-.011.33a.218.218,0,0,0-.1.009.725.725,0,0,1,.057-.25c-.156-.02-.2.095-.4-.026.1.11.34.3.252.411a.277.277,0,0,1-.055.008l-.016-.014c-.019.025-.007.05.016.076a.191.191,0,0,0-.059.09c-.131,0-.087.127-.1.185.172.017.135.091.285.036-.013.008-.019-.014-.022-.054a.046.046,0,0,0-.014-.027l.014.006c0-.039,0-.09.008-.148.081.057.148.115.045.169l.265.117c-.246.043-.41.3-.566.355.061.283-.028.721.305.667.037.039-.111.141-.171.208-.03-.02-.018-.076-.066-.07.071.1-.024.442.228.251-.138.276-.223.1-.213.319l-.075.038c-.215.417-.132.543-.016.554.114.026.261-.06.125.306.016.015.02.051.013.112a.179.179,0,0,1,.039-.115c.138.036.484-.226.761-.428a1.163,1.163,0,0,1,.78-.335c.16-.019.173-.195.236-.359l.066.175a2.778,2.778,0,0,0,.1-.305c.128-.257.56.195.6-.175l-.09-.091c.085-.023.191-.2.253-.069,0-.024-.043-.126.019-.087l.052.082.093-.248c.173-.022.175.343.385.239.056-.077.068-.368.008-.407-.033.014-.108-.005-.16-.087l.043-.084c-.134-.252-.231-.534-.5-.6l-.028.219-.108-.1.094-.065c-.122-.078-.1.041-.1.133a.273.273,0,0,0-.126-.1l.025.3c-.071-.088-.061-.22-.17-.227.011.14.18.184.133.308-.122-.078-.16-.178-.169-.044a.171.171,0,0,1-.047-.149c-.014.11-.136.124-.088.272-.14-.1-.176.153-.308-.082a1.379,1.379,0,0,1,0,.261c-.108-.311-.085.029-.174-.32.059.3-.018.16-.065.375.006-.03.015-.09.017-.074-.02-.016-.01-.124,0-.191a2.269,2.269,0,0,1-.211.64c.06-.305.141-.411.213-.713-.07.268-.118.3-.194.529a1.941,1.941,0,0,1,.124-.385c-.19.462-.044.085-.192.387.075-.216.211-.452.11-.286l.173-.333-.316.6c-.109.14.138-.275.244-.473a5.468,5.468,0,0,1-.33.5l.117-.183-.075.106c-.107.127.028-.1-.2.168l.068-.092-.374.484c0-.032-.16.126.018-.1-.008.032.063-.051.117-.109l-.072.053c.256-.33.081-.053.269-.286-.077.058-.27.188-.193.053.241-.244.068.028.29-.255l-.1.162c.392-.482-.03.056.388-.451.073-.1-.119.094-.045-.011-.129.1-.194.171-.323.265-.213.022.587-.473.289-.321-.149.07-.427.172-.27.044.082-.019.163-.043.246-.07.029-.044-.348.06-.174-.053.092,0,.074.04.1.026.2-.068-.134,0-.128-.053l.211-.014a.243.243,0,0,0-.038-.042l-.046-.154a1.345,1.345,0,0,1-.073-.32c.06.019.12.063.189.023a.729.729,0,0,1,.044-.433c.065-.23.16-.476.254-.731a1.33,1.33,0,0,0-.114-.076l-.1-.013c-.025-.026.029-.083.1-.068-.061-.15-.122.042-.251.018-.077-.054.008-.134.1-.117a3.375,3.375,0,0,1-.574-.268c-.143-.08-.214-.153-.221-.291l.063-.014c-.054-.151-.37.158-.352-.055l.04-.006a1.524,1.524,0,0,0-.267-.277c-.049-.049-.081-.116.043-.186-.317.058.079-.084-.4-.04a1.662,1.662,0,0,1,.444-.083c.022,0-.391-.057-.487-.1l.332.053-.386-.091.407.072-.107-.034c-.017,0-.149-.023-.253-.046-.2-.074.132-.023.356.047l.04.011a1.328,1.328,0,0,1-.241-.116l.258.1c-.326-.134.371.132.071.009l-.26-.1c.222.074.239.071.2.03l.179.1c.062.022-.019-.06.037-.068-.06-.05-.249-.244-.227-.27l.156.174c-.07-.113-.085-.061-.151-.2.063.012.167.2.2.258a.339.339,0,0,1-.016-.067c.033.054.051.083.092.152-.044-.1.07.106.048.036,0,0,.008-.005.011-.012l.116-.047a1.405,1.405,0,0,1,.241-.089c-.029-.17.053-.146.084-.293.075.014.157.046.242.07a1.019,1.019,0,0,0,.405-.014c.166-.119,0-.148.034-.258.083.143.361.076.279.206l.223-.063a3.134,3.134,0,0,0,.143-.682c-.073.007-.115.033-.15-.019,0-.075.119-.109.182-.066l.006.026a.37.37,0,0,1,.084-.279,1.235,1.235,0,0,1,.218-.171.768.768,0,0,0,.2-.167c.045-.065.056-.137-.02-.168l.013.011a.6.6,0,0,1-.112-.17c.038-.019.085.1.173.141-.091-.118-.063-.158-.039-.162s.051.013.016-.129c.137.267.129.265.128.193s0-.206.04.08l-.025-.217c-.018-.229.019.113.024.164-.016-.17-.018-.195-.03-.325a.468.468,0,0,1,.024-.139,1.246,1.246,0,0,1,.025.676c-.023.019.32-.6.2-.274a2.1,2.1,0,0,0-.135.177c.087-.094.114-.039.129,0a.98.98,0,0,0,.333.454c-.052,0-.105.03-.121,0-.1.134.123.25.249.232.033.093-.083.077-.1.165,0,.188.309.187.232.354-.012.03-.053,0-.074-.015.095.029.19.4.261.174a.6.6,0,0,0,.022.082c.2.054.431-.035.565.07.165-.172.4.137.423-.13-.04.274.213.248.313.129-.038.08.065.095.018.206a.161.161,0,0,0,.193-.177c.063.174.2.122.2.066.031-.051.085-.089.012.116a.9.9,0,0,1,.522-.257c-.334.24-.156.01-.434.27.133-.1.532-.293.554-.223a2.5,2.5,0,0,1-.281.136c.193-.064.159-.01.272-.029.008.006.035.006.092,0l-.136.037c.008.005-.1.05.141-.028l-.054.009a3.273,3.273,0,0,1,.823-.192,9.982,9.982,0,0,1-1.016.3,2.684,2.684,0,0,0,.274-.052,1.291,1.291,0,0,1-.293.07c.081.012.309-.038.255.015l-.229.02c.171-.012.313.009.194.062-.048,0-.119.005-.107-.006-.02.049.263.179.026.269-.244-.124-.121,0-.342-.094a.326.326,0,0,1,.031.066l.115.04c-.04.038.066.168-.052.186a.237.237,0,0,0-.029-.108c-.009.031-.061.109-.09.162l.14-.025c.013.158.221.187.078.248,0-.037-.074.077-.211.026h0c.019.088.039.179-.056.2-.069-.034-.176-.182-.22-.206.105.167-.129.219-.023.4a.462.462,0,0,0-.131-.141l.084.138a.154.154,0,0,1-.172-.063c-.162.134.272.132.019.223,0-.019-.025-.026-.019-.066a1.022,1.022,0,0,0-.275.357.347.347,0,0,1,.019.18c-.229.03-.1-.2-.29-.17a2.874,2.874,0,0,0,.256.525c.094.174.152.232.151.364l.016-.046c.324-.034-.123.2.05.278a.285.285,0,0,0-.147,0c-.022.154.147.32.278.452l-.088-.018c-.065.057-.015.144-.043.192.093.041.087.077.214.1-.238.02-.159.09-.052.248.1.141.234.364,0,.218a.44.44,0,0,0-.1-.115l.125.228a1.225,1.225,0,0,0,.242.2,1.2,1.2,0,0,1,.221.336,1.74,1.74,0,0,0-.4-.411l.18.2c-.317-.3.383.454.186.335l-.1-.131c.05.091.155.254.185.33-.005,0-.016,0-.032-.016-.149-.186-.135-.186-.145-.213a1.374,1.374,0,0,0-.122-.177.283.283,0,0,0,.025.05c.036.085.233.424,0,.147-.023-.063.019-.042-.011-.108-.308-.368-.244-.281-.32-.354l.008.009L59.1-90.6l.074.095c.191.333.155.337.111.316s-.1-.07-.072.1c-.071-.331-.093-.217-.214-.484a1.358,1.358,0,0,1-.15-.255c.054.194-.108-.185-.047.089-.029-.081-.041-.027-.091-.219-.019.043.047.139.077.237,0,.114-.079.005-.133-.08s-.09-.15-.159-.029c-.115.071-.2.252-.4.265-.008-.11.139-.174.133-.176-.033-.115-.111-.135-.217-.112.04-.039.042-.087.049-.158-.07-.018-.139.174-.183.053a1.239,1.239,0,0,1,.17-.183c-.1.012-.222.075-.323.085.026-.1.117-.118.174-.165-.107,0-.265-.027-.365.107l.029.08c-.036-.009.047-.134.083-.15.132-.078.081.1.059.16l-.071.007c-.1.341.245.058.346.132l-.16.2.207-.133c-.006.072-.053.207-.124.214.023.151.11-.046.115.113a.041.041,0,0,1-.022.038l.114-.027c-.039.04-.06.17-.1.109.128.227.327-.051.341.172l-.017.009c.242.024.062-.178.214-.347a4.466,4.466,0,0,0,.118.573l.007-.205a.181.181,0,0,1,.073.143c.065-.11-.026-.1,0-.225.148.263.237.029.393.439-.03-.174-.15-.2-.086-.275.195.454.1-.014.274.239.084.226-.086.044.124.313-.128-.376.265.2.336.176-.2-.347.118-.046.187-.094a2.1,2.1,0,0,0,.409.345.2.2,0,0,1,.058-.1l.052.067a1.971,1.971,0,0,1-.372-.675,2.269,2.269,0,0,1,.345.449l-.028-.13a1.533,1.533,0,0,1-.2-.326l.221.246c-.05-.2-.316-.559-.221-.655a2.348,2.348,0,0,1-.659-.52,1.523,1.523,0,0,1,.323.261c-.017-.026-.1-.114-.059-.113l.186.195c.057-.033-.151-.145-.148-.2.143.1.092.018.206.1.018.028-.046.023.016.088.009-.061.073-.111.17-.089a.494.494,0,0,1-.218-.177c-.042-.161.155.03.2-.039-.1-.083-.029-.157-.228-.231-.008-.045.082-.023.131-.027-.1-.116-.108-.416-.29-.345l-.009.018-.011-.013c-.234-.248,0-.516-.117-.7l.059-.012c-.092-.1-.094-.255-.238-.314-.008-.034.091-.1.165-.1-.063-.081-.134-.091-.052-.189.118.049.09-.027.089.05.036-.084.136-.078-.05-.164.165.034.195-.018.141-.052a.616.616,0,0,0-.109.02.1.1,0,0,1-.022-.078l.027-.015.207.075c.288.053-.278-.32.211-.239-.061-.144-.165.03-.248-.125.1-.065.392.046.416.02.189-.038-.122-.307.046-.375-.068-.034-.224-.15-.193-.285.1-.065.319.1.314.2-.014.024-.04.018-.057,0-.005.044-.015.1.073.121l-.043-.06a.357.357,0,0,0,.139-.039c.049-.02.112-.048.134.016.044-.15-.054-.117-.147-.071.237-.1.239-.255.464-.4-.066.013-.172,0-.147-.024.315-.21-.046-.154.05-.306.207-.061.28.087.318-.092.187-.092.265,0,.292.055-.023-.182.417-.318.562-.438l-.008.1a.3.3,0,0,1,.1-.157l-.263.072a.46.46,0,0,1,.22-.113c-.095-.037-.4.075-.508,0,.174-.081.037-.157.376-.243-.3.227.344-.088.218.1,0-.033.04-.078.134-.141.044-.015.059-.005.063.007.5-.293-.269-.029-.072-.237"/></clipPath><clipPath id="q"><path class="a" d="M181.973-20.413s1.3.171,1.358-1.587c.04-1.283-.652-1.584-1.062-1.652h-1.91V-38.017h1.689c.221-.067.9-.368.9-1.566,0-1.539-.974-1.676-.974-1.676H53.265s-1.913,2.633-1.913,10.423c0,8.208,1.913,10.422,1.913,10.422Z"/></clipPath><clipPath id="s"><path class="a" d="M190.665-1.041h-1.91v-16h1.688c.221-.067.9-.368.9-1.566,0-1.539-.974-1.675-.974-1.675H48.542s-1.914,3.449-1.914,11.239C46.628-.833,48.542,2.2,48.542,2.2h4.632c-.378.775-1.822,4.267-1.822,12.5,0,9.983,1.913,12.677,1.913,12.677H181.973s1.3.208,1.358-1.931c.04-1.56-.651-1.926-1.062-2.01h-1.91V5.964h1.689c.221-.081.9-.447.9-1.9a2.224,2.224,0,0,0-.64-1.863h8.061s1.3.172,1.358-1.587c.04-1.283-.651-1.583-1.062-1.652"/></clipPath><clipPath id="u"><path class="a" d="M84.512-87.994c-1.985.425-4.693.324-7.666,7.577-2.892,7.053-3.031,9.752-3.83,11.35s-2.222,3.994-2.222,3.994.356,3.018,5.244,6.746,7.289,4.172,7.289,4.172l1.511-3.551s2.756,9.053,4.089,12.071a14.522,14.522,0,0,0,2.4,4.083,24.337,24.337,0,0,1,9.866-15.089A81.4,81.4,0,0,0,113.013-67.47s-4.711-3.2-6.222-4.438a32.607,32.607,0,0,1-3.022-2.928,24.067,24.067,0,0,0,7.466-1.776c3.2-1.509,3.467-2.4,3.467-2.4a93.881,93.881,0,0,0-5.156-10.207c-2.489-3.994-3.644-4.793-3.644-4.793s-5.066,3.551-8.355,4.349a26.5,26.5,0,0,1-7.378.8,16.776,16.776,0,0,0-5.658.866"/></clipPath><clipPath id="w"><rect class="b" width="248" height="259" transform="translate(-11 -182)"/></clipPath><clipPath id="x"><path class="b" d="M70-41h45V-95H70Z"/></clipPath><clipPath id="y"><path class="a" d="M13.328-181.19h200.1A23.575,23.575,0,0,1,237-157.615V52.8a23.575,23.575,0,0,1-23.575,23.575H13.328A23.575,23.575,0,0,1-10.247,52.8v-210.41A23.575,23.575,0,0,1,13.328-181.19Z"/></clipPath><clipPath id="aa"><path class="a" d="M72.98-61c-.333,1.822-.737,3.917-1.118,5.6A57.085,57.085,0,0,1,68.51-44.986s-5.118-.178-6.618.535c-1.08.513-3.9,1.949-5.392,2.714a.272.272,0,0,0,.122.512l13.476.248a3.3,3.3,0,0,0,2.294-.712c1.235-.891,1.965-1.717,3.794-6.5.943-2.466,2.009-5.432,2.858-7.835-.874-.555-1.883-1.252-3.035-2.14A19.994,19.994,0,0,1,72.98-61"/></clipPath><clipPath id="ac"><path class="a" d="M170.609-43.986c-2.49-1.153-8.27-3.815-10.226-4.435a1.422,1.422,0,0,0-1.5.334l-1.821-2.66.829-.424s-11.56-17.209-15.383-21.29-6.758-4.968-13.96-2.484a109.074,109.074,0,0,0-15.417,7.4l.212.144a90.055,90.055,0,0,1-6.595,6.582c-.214.192-.432.385-.651.578-.148.131-.3.262-.448.392h0c-1.312,1.133-2.71,2.259-4.134,3.269a24.553,24.553,0,0,0-9.8,14.69,2.432,2.432,0,0,0,.553.834l25.753.1,6.916,28.687,3.09.045.094,2.681a6.277,6.277,0,0,0-1.8,5.159c.395,3.352,10.077,10.251,13.042,11.829s5.532-.592,2.964-5.323-4.94-9.462-5.533-10.448a.984.984,0,0,0-.888-.379l-.05-3.4,2.518.037-1.383-26.218s-.529-6.939-1.33-9.511c-.649-2.086-1.766-4.346-8.229-7.017,2.152-1.813,5.249-4.331,5.651-4.16.622.267,1.956,1.952,4.535,4.613s9.515,8.693,9.515,8.693l2.809-1.436.85,1.518c-.179-.049-.281-.082-.281-.082-1.334.533-.355,4.613-.355,4.613h20.985a1.639,1.639,0,0,0-.533-2.927"/></clipPath><clipPath id="ae"><path class="a" d="M91.476-89.221a19.622,19.622,0,0,1-.643-2.658l-.509-.159c.106-.05.211-.1.317-.156,1.086-.586,2.737-2.256,2.073-5.474-.09-.435-.21-.895-.348-1.362l14.259-4.812a23.006,23.006,0,0,1,2.071,3.626c1.094,2.513.8,3.459.444,3.9a20.588,20.588,0,0,1-2.707,2.585,27.464,27.464,0,0,1,3.151,4.334c.722,1.158,1.457,2.5,2.139,3.829a38.345,38.345,0,0,0,3.19-3.474c2.043-2.572,4.263-6.121,2.309-9.847a43.253,43.253,0,0,0-3.892-5.832l12.57-4.245.054.1a1.346,1.346,0,0,0,1.62.628l18.806-6.438-.025-.064a.3.3,0,0,0,.221.024c.6-.226.065-3.094-1.189-6.407s-2.756-5.815-3.354-5.589a.3.3,0,0,0-.15.164l-.016-.04-18.387,7.615a1.339,1.339,0,0,0-.8,1.526c.009.04.021.086.031.129L108.137-111.2a9.364,9.364,0,0,1,.649-.721,2.157,2.157,0,0,0-2.024-.335,4.919,4.919,0,0,0-1.183.8,2.433,2.433,0,0,0-1.29.053,2.464,2.464,0,0,0-1.1.992,3.7,3.7,0,0,0-1.182.13,2.046,2.046,0,0,0-1.059.931,29.272,29.272,0,0,0-4.743,2.083c-.964.77-.451,1.8.193,1.734.328-.033,1.705-.365,2.98-.684-.019.057-.039.115-.057.172l-8.241,3.49c-.666-1.591-1.26-2.782-1.26-2.782-2.725-1.932-8.42.151-9.053,2.882a10.7,10.7,0,0,0,.157,5.169,2.725,2.725,0,0,0-1.56.018,2.079,2.079,0,0,0-.4,3.511,2.831,2.831,0,0,0,2.945.255c.278,1.558.746,4.234.9,5.41a20.508,20.508,0,0,0,.373,2.264s.911,2.527,5.161,1.668a4.606,4.606,0,0,0,4-3.942,2.656,2.656,0,0,1-.86-1.112"/></clipPath><clipPath id="ag"><path class="a" d="M79.4,27.371l-.011.023c-.122.269-1.26,2.973-1.26,10.218,0,7.775,1.184,10.453,1.266,10.629l0,.009H67.733l0-.009c-.082-.175-1.266-2.853-1.266-10.629,0-7.246,1.138-9.95,1.26-10.218l.011-.023Zm56.1,0-.011.023c-.122.269-1.26,2.973-1.26,10.218,0,7.775,1.184,10.453,1.266,10.629l0,.009H123.832s-1.27-2.585-1.27-10.638c0-7.246,1.138-9.95,1.26-10.218l.01-.023ZM78.3-16.052a6.36,6.36,0,0,1,6.362,6.357A6.36,6.36,0,0,1,78.3-3.337,6.36,6.36,0,0,1,71.94-9.694,6.36,6.36,0,0,1,78.3-16.052Z"/></clipPath><clipPath id="ai"><rect class="b" width="259" height="233" transform="translate(-11 -151)"/></clipPath><clipPath id="aj"><path class="a" d="M84.664-9.694A6.36,6.36,0,0,1,78.3-3.337,6.36,6.36,0,0,1,71.94-9.694,6.36,6.36,0,0,1,78.3-16.052a6.36,6.36,0,0,1,6.362,6.357"/></clipPath><clipPath id="ak"><path class="b" d="M66,0h70V-17H66Z"/></clipPath><clipPath id="al"><path class="a" d="M13.328-150.295H224.033a23.575,23.575,0,0,1,23.575,23.575V58.348a23.575,23.575,0,0,1-23.575,23.575H13.328A23.575,23.575,0,0,1-10.247,58.348V-126.719A23.575,23.575,0,0,1,13.328-150.295Z"/></clipPath><clipPath id="an"><path class="a" d="M142.173-127.17c1.378.044,3.282,4.855,3.665,5.868s2.147,5.883,1.128,6.821h0l.012.029-.11.038a.565.565,0,0,1-.079.055.672.672,0,0,1-.175.032h0l-18.822,6.46a1.751,1.751,0,0,1-.572.1,1.739,1.739,0,0,1-1.4-.727h0L114.1-104.529a41.644,41.644,0,0,1,3.579,5.447c2.05,3.919-.179,7.565-2.349,10.3a37.691,37.691,0,0,1-3.008,3.3c1.6,3.14,2.868,6.1,2.887,6.145a.406.406,0,0,1,.015.278c-.052.177-.479,1.139-3.675,2.65a22.885,22.885,0,0,1-6.709,1.745c.519.533,1.356,1.366,2.373,2.294a42.54,42.54,0,0,0,5.722,4.137,108.462,108.462,0,0,1,15.252-7.331c7-2.421,10.22-1.84,14.36,2.6,3.794,4.064,14.918,20.669,15.389,21.374h0l.256.381-.825.423,1.321,1.936A1.751,1.751,0,0,1,160.2-49c.374.119.9.318,1.574.591a.4.4,0,0,1,.227.08c.006.005.009.013.015.018,1.83.752,4.65,2.013,8.435,3.772a2.257,2.257,0,0,1,1.479,1.615,1.971,1.971,0,0,1-.289,1.274h10.329c.11.012,1.379.211,1.379,2.083a1.824,1.824,0,0,1-1.187,1.956h0l-.119.017h-1.277v13.551h1.566c.438.074,1.452.423,1.4,2.068a2.412,2.412,0,0,1-.365,1.3h6.98c.111.011,1.379.211,1.379,2.083a1.822,1.822,0,0,1-1.187,1.956h0l-.119.018H189.15V-1.432h1.566c.438.074,1.452.423,1.4,2.067a2.109,2.109,0,0,1-.647,1.618,1.579,1.579,0,0,1-1.022.369,1.038,1.038,0,0,1-.148-.009H183.08a3.436,3.436,0,0,1,.274,1.457c0,1.721-.89,2.185-1.164,2.287h0l-.141.026h-1.277V23.044h1.581c.433.088,1.434.5,1.385,2.42A2.564,2.564,0,0,1,183,27.457a1.449,1.449,0,0,1-.928.34,1.013,1.013,0,0,1-.157-.011H180.6a2.531,2.531,0,0,1,.3,1.3,1.823,1.823,0,0,1-1.187,1.956h0l-.119.018h-1.277V44.609h1.566c.438.074,1.451.423,1.4,2.068a2.113,2.113,0,0,1-.647,1.618,1.582,1.582,0,0,1-1.022.369,1.179,1.179,0,0,1-.149-.008H136.014l0,.011H123.446l-.006-.011H79.888l0,.01H67.317l-.005-.009H50.9l-.123-.142a4.687,4.687,0,0,1-.648-1.188l-.094-.235c-.572-1.485-1.266-4.306-1.266-9.264,0-7.831,1.905-10.549,1.987-10.66h0L50.879,27h2c-.564-1.267-1.659-4.7-1.659-12.291,0-7.04,1.038-10.643,1.605-12.091H48.593l-.12-.19-.006-.009-.036-.06c-.022-.038-.051-.09-.086-.158l-.057-.114C47.8,1.079,46.5-2.216,46.5-9.027c0-7.8,1.88-11.29,1.96-11.434h0l.117-.21h4.3c-.575-1.078-1.663-3.936-1.663-10.145,0-7.832,1.906-10.549,1.987-10.661h0l.122-.168H56.1c0-.016-.015-.028-.018-.044a.666.666,0,0,1,.354-.754c.7-.357,1.654-.838,2.586-1.306l1.208-.6c.671-.334,1.259-.622,1.638-.8,1.388-.655,5.456-.608,6.567-.58a58.516,58.516,0,0,0,3.234-10.07.4.4,0,0,1,.488-.307.408.408,0,0,1,.307.489,57.756,57.756,0,0,1-3.4,10.477.446.446,0,0,1-.078.091.417.417,0,0,1,.262.345.408.408,0,0,1-.379.436c-3.41.242-6.055.955-6.055,1.407,0,.051,0,.1-.008.156a.683.683,0,0,0,0,.132c.018.031.241.318,2.446.494,3.081.248,5.045.356,5.064.357h0a2.976,2.976,0,0,0,2.044-.636c1.1-.784,1.807-1.464,3.671-6.3.9-2.343,1.925-5.157,2.761-7.5-.825-.531-1.756-1.176-2.806-1.979-4.96-3.793-5.376-6.9-5.392-7.029a.4.4,0,0,1,.054-.256c.009-.016.616-1.043,1.254-2.191l.2-.365c.269-.49.532-.984.748-1.417a14.051,14.051,0,0,0,.782-2.4,69.13,69.13,0,0,1,3.029-8.931c2.077-5.078,4.084-6.67,5.781-7.3h0l-.832-4.894a2.994,2.994,0,0,1-2.784-.515,2.4,2.4,0,0,1-.912-2.319,2.709,2.709,0,0,1,.322-.885,1.949,1.949,0,0,1-.268-.314c-.119-.119-3.743-4.021-3.195-7.987.612-4.427,3.581-5.115,4.851-5.409a10.51,10.51,0,0,1,2.914-.2,4.2,4.2,0,0,1,3.006-1.743,4.83,4.83,0,0,1,3.325,1.163,4.087,4.087,0,0,0,1.266.7c.289.068.547.107.769.141.518.078.927.141,1.179.484a1.334,1.334,0,0,1,.152,1.01,3.752,3.752,0,0,1-2,3.15h0l.021.015.045.091c.043.085.534,1.077,1.113,2.433h0l4.862-2.065a1.09,1.09,0,0,1-.807-.673,1.51,1.51,0,0,1,.592-1.766,27.634,27.634,0,0,1,4.73-2.105,2.313,2.313,0,0,1,1.19-.98,3.062,3.062,0,0,1,1.1-.15,2.421,2.421,0,0,1,1.172-.973,2.518,2.518,0,0,1,1.308-.1,3.78,3.78,0,0,1,1.184-.762,2.558,2.558,0,0,1,2.412.428h0l.141.131,13.037-5.478a1.744,1.744,0,0,1,1.071-1.784h0L141.759-127a.583.583,0,0,1,.2-.139.548.548,0,0,1,.185-.022h0ZM179.462,27.812l-43.844,0c-.309.88-1.11,3.744-1.11,9.781a.408.408,0,1,1-.815,0c0-5.658.683-8.585,1.064-9.781H123.945a15.076,15.076,0,0,0-.6,2.485.408.408,0,1,1-.8-.136,17.272,17.272,0,0,1,.542-2.348h0l-43.6,0c-.31.883-1.109,3.746-1.109,9.778,0,1.692.057,3.268.167,4.685a.408.408,0,1,1-.813.064c-.113-1.437-.17-3.035-.17-4.748,0-5.655.681-8.582,1.063-9.778H67.818c-.309.878-1.11,3.735-1.11,9.778,0,6.12.743,9.062,1.074,10.069l.042.125h0l.019.054H78.655a16.9,16.9,0,0,1-.529-2.26.408.408,0,1,1,.8-.139,14.182,14.182,0,0,0,.586,2.4h43.592c-.376-1.166-1.089-4.176-1.089-10.248a.408.408,0,1,1,.816,0c0,6.12.743,9.062,1.074,10.069l.043.125h0l.019.054h10.811a20.937,20.937,0,0,1-.754-3.835.407.407,0,1,1,.809-.1,18.387,18.387,0,0,0,.807,3.932h43.885a.8.8,0,0,0,.6-.176,1.37,1.37,0,0,0,.353-1.015c.022-.722-.21-1.135-.69-1.231H150.1a1.341,1.341,0,0,1-1.062-.505c-.624-.791-1.67-2.763-1.663-7.085.009-4.405,1.266-6.509,1.806-7.208a.974.974,0,0,1,.778-.379h29.575c.2-.08.559-.338.559-1.157,0-1.118-.566-1.26-.631-1.272Zm-112.507,0H51.314c-.385.686-1.729,3.545-1.729,10.012,0,6.8,1.335,9.409,1.714,10.012H66.98c-.376-1.166-1.087-4.176-1.087-10.248,0-5.657.682-8.582,1.062-9.778ZM177.51,31.057H149.959a.163.163,0,0,0-.133.062c-.381.495-1.626,2.44-1.635,6.711-.008,4.227,1.037,6.008,1.487,6.577a.529.529,0,0,0,.422.195h0l27.41.005V34.44a.4.4,0,0,1-.147.03H163.648a.408.408,0,0,1,0-.816h13.715a.407.407,0,0,1,.147.029h0Zm-18.372,2.6a.408.408,0,0,1,0,.817h-5.262a.408.408,0,0,1,0-.817h5.262ZM182.147,2.615H142.813c.949,2.121.946,3.932-.051,4.937a2.5,2.5,0,0,1-1.82.711,4.35,4.35,0,0,1-2.025-.558,57.341,57.341,0,0,1-7.254-5.089H88.75a21.056,21.056,0,0,0-.89,4.26.416.416,0,0,1-.457.354.408.408,0,0,1-.352-.457,23.639,23.639,0,0,1,.838-4.157H71.818c-.314.887-1.311,4.311-1.311,11.909,0,2.081.068,4.018.2,5.76a.409.409,0,0,1-.376.438H70.3a.408.408,0,0,1-.406-.377c-.134-1.762-.2-3.72-.2-5.822,0-7.143.854-10.638,1.265-11.909H53.705c-.464,1.08-1.674,4.615-1.674,12.091,0,8.335,1.355,11.532,1.736,12.266H67.289l.028-.056H70.96a16.854,16.854,0,0,1-.439-1.753.408.408,0,1,1,.8-.162,14.731,14.731,0,0,0,.5,1.915H87.891c-.411-1.289-1.267-4.88-1.267-12.392a.408.408,0,1,1,.816,0c0,8.207,1.051,11.666,1.334,12.448h34.644l.028-.056H136.02l-.027.056h45.982a.665.665,0,0,0,.511-.155,1.885,1.885,0,0,0,.436-1.376c.017-.645-.092-1.437-.7-1.592H152.545a1.3,1.3,0,0,1-1.084-.612c-.616-.948-1.648-3.319-1.64-8.531.009-5.313,1.251-7.842,1.784-8.683a.938.938,0,0,1,.8-.458h29.557c.17-.091.576-.42.576-1.5a2.1,2.1,0,0,0-.391-1.457Zm-2.191,3.77H152.4a.145.145,0,0,0-.112.08c-.387.609-1.649,3-1.657,8.247-.008,5.187,1.052,7.382,1.508,8.085a.482.482,0,0,0,.4.24h0l27.411.008V20.472a.421.421,0,0,1-.093.018H156.421a.408.408,0,0,1,0-.816h23.442a.391.391,0,0,1,.093.019h0V17.009H164.574a.408.408,0,0,1,0-.817h15.382ZM161.7,16.192a.408.408,0,0,1,0,.817h-2.834a.408.408,0,0,1,0-.817H161.7ZM127.972-9.164A5.85,5.85,0,0,0,126.5-4.549c.358,3.044,9.661,9.858,12.8,11.533,1.158.619,2.264.618,2.884-.007.852-.859.674-2.641-.477-4.768-.722-1.336-1.42-2.655-2.074-3.9a.4.4,0,0,1-.173-.023,5.811,5.811,0,0,0-4.167.4.406.406,0,0,1-.189.047.409.409,0,0,1-.362-.218.41.41,0,0,1,.17-.551h0L135-2.086a6.781,6.781,0,0,1,4.13-.57c-.27-.516-.525-1.009-.773-1.485a.394.394,0,0,1-.128,0,6.206,6.206,0,0,0-4.447.694.406.406,0,0,1-.222.066.406.406,0,0,1-.341-.185.408.408,0,0,1,.117-.564,6.97,6.97,0,0,1,4.552-.909c-.8-1.551-1.437-2.768-1.694-3.2-.3-.495-2.165.082-3.282.429-.434.134-.845.261-1.2.349-1.253.314-1.268,1.175-1.268,1.184V-4.7Zm62.314-10.7-52.157,0,.424,8.073-2.529-.037.039,2.632a1.177,1.177,0,0,1,.833.532c.281.47.932,1.724,1.832,3.459,1.035,2,2.322,4.478,3.687,7h47.938a.8.8,0,0,0,.6-.176A1.367,1.367,0,0,0,191.3.61c.022-.721-.209-1.135-.689-1.231H154.4a1.34,1.34,0,0,1-1.062-.505c-.672-.852-1.67-3.66-1.661-7.9.009-4.3,1.219-7.265,1.8-8.024a.974.974,0,0,1,.779-.381h36.1c.2-.08.558-.337.558-1.157,0-1.118-.565-1.259-.63-1.272Zm-67.781,0-73.432,0c-.389.852-1.757,4.31-1.757,10.828,0,6.846,1.357,10.052,1.745,10.829H71.277l0-.006H89.108l0,.006h41.583c-2.592-2.22-4.8-4.589-5-6.255a6.659,6.659,0,0,1,1.787-5.376h0l-.074-2.121-3.012-.045Zm65.829,3.243H154.262a.17.17,0,0,0-.135.062c-.321.419-1.625,3.072-1.634,7.528-.008,4.154,1,6.774,1.486,7.393a.532.532,0,0,0,.423.2h0l33.932.005v-7.11H160.206a.407.407,0,0,1-.408-.408.407.407,0,0,1,.408-.409h28.128v-2.257H171.089a.408.408,0,0,1-.407-.408.408.408,0,0,1,.407-.409h17.245Zm-110.188,0a6.785,6.785,0,0,1,6.772,6.782,6.784,6.784,0,0,1-6.772,6.781,6.785,6.785,0,0,1-6.773-6.781A6.785,6.785,0,0,1,78.146-16.615Zm0,.817a5.968,5.968,0,0,0-5.957,5.965,5.968,5.968,0,0,0,5.957,5.965A5.968,5.968,0,0,0,84.1-9.833,5.968,5.968,0,0,0,78.146-15.8Zm100.9,9.374a.408.408,0,0,1,.408.409.408.408,0,0,1-.408.408h-4.6a.407.407,0,0,1-.407-.408.407.407,0,0,1,.407-.409h4.6Zm-50.819-5.514.057,1.65,1.683,3.032a2.51,2.51,0,0,1,1.555-1c.341-.085.737-.208,1.156-.338a14.057,14.057,0,0,1,2.573-.633h0l-.037-2.612ZM141.95-72.4c-3.508-3.758-6.157-4.922-13.5-2.38a100.648,100.648,0,0,0-13.771,6.517l-.774.43h0l-.359.2a.407.407,0,0,1-.093.287,82.51,82.51,0,0,1-11.87,10.9A24.129,24.129,0,0,0,91.9-41.621a.331.331,0,0,1-.033.074.4.4,0,0,1,.25-.094h0l26.015.105,6.9,28.734,12.655.186-1.357-25.822c0-.034-.178-2.314-.474-4.723l-.068-.536h0l-.071-.536a25.857,25.857,0,0,0-.7-3.631l-.048-.154-.05-.158c-.668-2.077-2.1-5.084-13.291-8.391-11.1-3.28-12.505-4.03-12.671-4.182a.409.409,0,0,1-.025-.577.406.406,0,0,1,.541-.053h0l.01.006.069.035.038.018c.486.229,2.74,1.155,12.268,3.969,10.943,3.233,12.948,6.222,13.863,9.012l.074.232a42.2,42.2,0,0,1,1.051,6.46h12.515c-.236-1.19-.586-3.709.486-4.459h0l-.36-.643-2.7,1.385-.208-.182c-.042-.036-2.452-2.142-4.949-4.408l-.681-.62c-1.511-1.381-2.977-2.757-3.89-3.7-.949-.983-1.73-1.834-2.368-2.53a16.4,16.4,0,0,0-1.946-1.957,18.025,18.025,0,0,0-3.131,2.27.406.406,0,0,1-.573-.061.407.407,0,0,1,.06-.574c2.923-2.363,3.492-2.542,3.782-2.465l.044.014.061.025a10.465,10.465,0,0,1,2.3,2.2c.635.691,1.411,1.537,2.354,2.514,2.283,2.364,8.088,7.473,9.261,8.5h0L157-51.515c-.926-1.378-4.223-6.262-7.606-11.051l-.58-.819A111.845,111.845,0,0,0,141.95-72.4Zm39.958,31.57H170.984l-.011.009H149.556l0-.009H136.94c.067.682.12,1.27.155,1.687l.021.252c.019.225.029.367.032.4h0l.93,17.686h43.9a.8.8,0,0,0,.6-.177A1.365,1.365,0,0,0,182.922-22c.022-.722-.209-1.136-.689-1.232H152.545a1.34,1.34,0,0,1-1.062-.505c-.624-.79-1.67-2.762-1.662-7.085.009-4.406,1.266-6.509,1.805-7.209a.976.976,0,0,1,.779-.379h29.574c.2-.08.559-.338.559-1.157,0-1.117-.566-1.259-.63-1.272Zm-89.821,0-38.328,0c-.385.686-1.729,3.545-1.729,10.012,0,6.8,1.335,9.408,1.713,10.012h68.533l-4.784-19.918-25.375-.1h0Zm87.869,3.241H152.4a.165.165,0,0,0-.134.063c-.381.494-1.626,2.439-1.635,6.711-.008,4.227,1.037,6.008,1.487,6.577a.529.529,0,0,0,.422.195h0l27.411,0v-7.842H168.525a.408.408,0,0,1-.408-.408.408.408,0,0,1,.408-.409h11.431v-2.021H154.809a.408.408,0,0,1-.407-.409.408.408,0,0,1,.407-.408h25.147ZM166.08-32.7a.408.408,0,0,1,.408.409.408.408,0,0,1-.408.408h-2.245a.408.408,0,0,1-.407-.408.408.408,0,0,1,.407-.409h2.245Zm-6.123-15.52c-.736-.234-1.093.16-1.776,1a5.233,5.233,0,0,1-2.694,2.027,10.438,10.438,0,0,1-5.205-.218c-.5.425-.381,2.311-.079,3.765h20.446a1.591,1.591,0,0,0,.479-1.154c-.058-.374-.4-.709-1.017-1q-3.821-1.776-6.3-2.863h0l-1.2,1.685a.405.405,0,0,1-.331.172.407.407,0,0,1-.236-.075.41.41,0,0,1-.1-.57h0l1.1-1.544c-.43-.186-.826-.353-1.182-.5h0l-1.526,1.91a.4.4,0,0,1-.318.153.41.41,0,0,1-.255-.089.409.409,0,0,1-.063-.574h0l1.373-1.719C160.613-47.99,160.237-48.129,159.957-48.218Zm-75-8.44L83.89-54.133a.41.41,0,0,1-.45.242A13.656,13.656,0,0,1,79.5-55.722c-.827,2.315-1.823,5.056-2.707,7.351-1.85,4.8-2.627,5.718-3.958,6.671-.028.02-.056.035-.084.054H90.986A17.5,17.5,0,0,1,88.732-45.6c-1.067-2.421-3-8.559-3.77-11.058ZM67.145-44.931a16.693,16.693,0,0,0-4.928.514c-.592.279-1.7.83-2.837,1.4l-.62.312-1.459.738h0l5.109.093a.912.912,0,0,1-.413-.9h0l0-.093C62-44.091,64.9-44.667,67.145-44.931ZM89.2-105.313a8.125,8.125,0,0,1-1.624.2,6.176,6.176,0,0,0-.873.076,5.662,5.662,0,0,0-2.083,1.59h0l-.1.117-.156.017a1.057,1.057,0,0,1-.854-.3.865.865,0,0,1-.143-.222,9.223,9.223,0,0,0-1.065,1.729,8.335,8.335,0,0,0-.211,4.881h0l.052.235-.184.168a.387.387,0,0,1-.284.1h0l.015.047-.749-.232a2.316,2.316,0,0,0-1.3.012,1.706,1.706,0,0,0-.911,1.266,1.584,1.584,0,0,0,.626,1.551c1.276,1.05,2.94,0,3.011-.047a.407.407,0,0,1,.563.122.408.408,0,0,1-.12.564,3.887,3.887,0,0,1-.408.221h0l1.109,6.52a.408.408,0,0,1-.334.471.392.392,0,0,1-.069.006.408.408,0,0,1-.4-.34h0l-.111-.652c-1.526.619-3.266,2.139-5.167,6.788a68.258,68.258,0,0,0-3,8.836,14.311,14.311,0,0,1-.839,2.554c-.687,1.377-1.843,3.361-2.154,3.89.136.587.944,3.21,5.053,6.352a24.273,24.273,0,0,0,6.792,4.012h0l1.352-3.187c.04-.194.234-1.143.418-2.189l.073-.422c.059-.353.115-.707.162-1.037a44.538,44.538,0,0,0,.4-4.858h0l0-.126a.4.4,0,0,1,.424-.391.409.409,0,0,1,.391.425h0l0,.115A45.03,45.03,0,0,1,86.09-61.5c-.041.293-.089.6-.141.917l-.079.468c-.175,1.008-.364,1.946-.427,2.251.3.974,2.8,9.138,4.034,11.938a19.447,19.447,0,0,0,1.8,3.308,25.324,25.324,0,0,1,9.836-14.493,80.273,80.273,0,0,0,11.4-10.411,42.764,42.764,0,0,1-5.852-4.236c-1.574-1.435-2.72-2.646-2.951-2.892a.41.41,0,0,1-.109-.085c-.021-.026-1.477-1.833-3.008-3.8l-.317-.408h0l-.317-.41c-.526-.682-1.039-1.357-1.483-1.958-1.889-2.558-4.473-5.378-4.5-5.406A.408.408,0,0,1,94-87.294a.407.407,0,0,1,.576.024c.026.028,2.64,2.879,4.555,5.473,1.688,2.287,4.382,5.651,4.979,6.393A23.316,23.316,0,0,0,111.2-77.14a8.975,8.975,0,0,0,3.177-2.06,92.17,92.17,0,0,0-5.035-9.971,23.969,23.969,0,0,0-3.321-4.5c-1.1.748-5.288,3.521-8.214,4.234a24.941,24.941,0,0,1-5.891.8,1.881,1.881,0,0,1-.32-.576c-.025-.08-.046-.156-.07-.234a24.448,24.448,0,0,0,6.088-.78c3.171-.772,8.151-4.255,8.2-4.291a.407.407,0,0,1,.466,0c.05.035,1.252.894,3.752,4.918.635,1.022,1.283,2.191,1.9,3.367a36.351,36.351,0,0,0,2.762-3.05c2.017-2.546,4.1-5.917,2.265-9.419a41.942,41.942,0,0,0-3.674-5.549h0l-3.889,1.317a1.161,1.161,0,0,1-.374.061,1.178,1.178,0,0,1-1.017-.584c-.056-.1-.123-.22-.187-.334h0L92.981-98.773c.1.346.183.689.251,1.017.641,3.113-.756,5.1-2.276,5.924a5.814,5.814,0,0,1-2.837.763,6.724,6.724,0,0,1-1.6-.2,8.612,8.612,0,0,1-2.937-1.377.409.409,0,0,1-.084-.571.407.407,0,0,1,.57-.085,7.847,7.847,0,0,0,2.643,1.24,5.056,5.056,0,0,0,3.854-.484c.436-.236,2.576-1.588,1.865-5.041-.06-.293-.149-.607-.234-.919h0l-.582.2-.089-.009c-.11-.012-1.106-.158-1.739-1.678a3.2,3.2,0,0,1,.025-2.307h0l.065-.149.786-.334c-.485-1.135-.906-2.015-1.042-2.294A3.151,3.151,0,0,0,89.2-105.313Zm67.438,54.9-6.41,3.289.557,1a9.466,9.466,0,0,0,4.488.143,4.5,4.5,0,0,0,2.279-1.756c.164-.2.33-.4.506-.59h0ZM83.217-85.595a.407.407,0,0,1,.566.087l.005.006.03.035a4.954,4.954,0,0,0,3.5,1.263,5.124,5.124,0,0,0,3.21-.971.408.408,0,0,1,.573.058.407.407,0,0,1-.057.573,5.855,5.855,0,0,1-3.489,1.163c-.091,0-.183,0-.277-.007-3.039-.149-4.107-1.575-4.152-1.636A.409.409,0,0,1,83.217-85.595Zm8.749-1.672a.41.41,0,0,1,.516-.258.409.409,0,0,1,.258.516h0l-.253.759a.409.409,0,0,1-.387.279.414.414,0,0,1-.129-.021.409.409,0,0,1-.258-.516h0Zm-11.36-9.441a.408.408,0,0,1,.405.411.408.408,0,0,1-.407.406h0a.558.558,0,0,0-.561.553.557.557,0,0,0,.551.559.6.6,0,0,0,.393-.16.407.407,0,0,1,.576,0,.408.408,0,0,1,0,.577,1.356,1.356,0,0,1-.962.4h0a1.376,1.376,0,0,1-1.371-1.38,1.374,1.374,0,0,1,1.37-1.364h0Zm5.192.786a.407.407,0,0,1,.555.146,1.986,1.986,0,0,0,2.316.759.405.405,0,0,1,.5.284.407.407,0,0,1-.282.5,3.363,3.363,0,0,1-.908.13,2.734,2.734,0,0,1-2.331-1.263A.41.41,0,0,1,85.8-95.921Zm22.838-4.678a.408.408,0,0,1,.536.211c.923,2.128,1.046,3.5.388,4.328a14.3,14.3,0,0,1-1.445,1.5.407.407,0,0,1-.276.108.407.407,0,0,1-.3-.132.409.409,0,0,1,.023-.577,13.509,13.509,0,0,0,1.362-1.412c.545-.681.03-2.275-.5-3.492A.409.409,0,0,1,108.637-100.6Zm-20.031,0a.406.406,0,0,1,.564.117h0l.1.152a15.814,15.814,0,0,0,1.48,1.905h0l.723.734a.412.412,0,0,1,.113.348.409.409,0,0,1-.211.3h0l-1.2.646a.4.4,0,0,1-.193.049.407.407,0,0,1-.359-.215.409.409,0,0,1,.166-.553h0l.724-.389-.34-.345a16.7,16.7,0,0,1-1.612-2.075l-.06-.09h0l-.012-.018A.408.408,0,0,1,88.606-100.6Zm-2.2.646a.414.414,0,0,1,.481.318.409.409,0,0,1-.319.482,2.491,2.491,0,0,0-1.358.739.409.409,0,0,1-.317.151.4.4,0,0,1-.254-.09.407.407,0,0,1-.066-.57A3.263,3.263,0,0,1,86.408-99.954Zm12.424-5.416-8.318,3.532a2.324,2.324,0,0,0,.03,1.524,1.854,1.854,0,0,0,1.008,1.162h0l7.94-2.687c-.016-.013-.035-.018-.051-.031-.326-.281-.854-1.011-.717-2.742a6.422,6.422,0,0,1,.108-.76Zm-13.669,3.028.2.01a.409.409,0,0,1,.369.444.415.415,0,0,1-.443.37,1.158,1.158,0,0,0-1.3.738.408.408,0,0,1-.389.288.393.393,0,0,1-.12-.018.408.408,0,0,1-.269-.51,1.994,1.994,0,0,1,2.156-1.311Zm23.08-9.522a1.933,1.933,0,0,0-1.263-.031,3.429,3.429,0,0,0-.886.6c-.168.143-.263.221-.435.211-.051,0-.114-.013-.187-.025a1.726,1.726,0,0,0-.941.056,1.722,1.722,0,0,0-.811.728.571.571,0,0,1-.277.263.773.773,0,0,1-.322.03c-.047,0-.1,0-.168,0a2.168,2.168,0,0,0-.7.108,1.674,1.674,0,0,0-.856.782,10.841,10.841,0,0,0-1.858,4.6c-.115,1.462.306,1.945.437,2.058a.273.273,0,0,0,.218.089c.485-.114.8-.8.916-1.143a8.509,8.509,0,0,1,.7-4.9.406.406,0,0,1,.55-.174.409.409,0,0,1,.174.55,7.817,7.817,0,0,0-.612,4.437.881.881,0,0,0,.418.447.635.635,0,0,0,.514-.068,1.2,1.2,0,0,0,.645-1.086,7.732,7.732,0,0,1,.752-5.329.409.409,0,0,1,.551-.172.409.409,0,0,1,.172.551,7.123,7.123,0,0,0-.727,4.559h0l.045-.008a.784.784,0,0,0,.333.481.952.952,0,0,0,.769-.118c.345-.173.423-.736.531-1.716A9.38,9.38,0,0,1,108.242-111.864Zm-20.3,8.8a1.7,1.7,0,0,1,2.112-.647.409.409,0,0,1,.22.534.408.408,0,0,1-.533.22.877.877,0,0,0-1.114.333.41.41,0,0,1-.343.184.407.407,0,0,1-.22-.065A.407.407,0,0,1,87.947-103.068Zm34.574-13.718-14.032,5.894a7.671,7.671,0,0,0-1.492,3.17c.092.283.2.586.321.912a19.935,19.935,0,0,0,1.387,2.94.356.356,0,0,0,.426.16h0l16.274-5.509a37.922,37.922,0,0,1-1.644-3.793,38.055,38.055,0,0,1-1.24-3.775Zm-15.782,10.721c0,.019-.005.041-.007.061a4.566,4.566,0,0,1-.45,1.869h0l1.148-.388C107.209-104.966,106.974-105.484,106.739-106.065Zm-6.632-2.515a21.125,21.125,0,0,0-3.531,1.605c-.379.3-.427.622-.347.82.043.1.136.206.244.192.266-.026,1.417-.3,2.7-.62A13.283,13.283,0,0,1,100.107-108.58Zm41.359-17.413-17.739,7.365a.932.932,0,0,0-.56,1.062,32.859,32.859,0,0,0,1.356,4.266,34.079,34.079,0,0,0,1.876,4.222.934.934,0,0,0,1.128.438h0l18.141-6.226a7.417,7.417,0,0,1-.8-1.136,27.38,27.38,0,0,1-1.954-4.193,21.224,21.224,0,0,1-1.445-5.8Zm1.021.129-.044.007c-.386.146.164,2.553,1.23,5.375s2.244,4.991,2.631,4.845c.068-.026.106-.125.118-.282h0l.043.112c-.01-.122-.026-.262-.046-.413a21.369,21.369,0,0,0-1.345-4.793,21.323,21.323,0,0,0-2.16-4.484c-.085-.128-.165-.242-.239-.341h0l.043.113c-.113-.109-.207-.159-.275-.133Z"/></clipPath><clipPath id="ap"><rect class="b" width="266" height="261" transform="translate(-15 -179)"/></clipPath><clipPath id="aq"><path class="a" d="M78.146-15.8a5.968,5.968,0,0,0-5.957,5.965,5.968,5.968,0,0,0,5.957,5.965A5.968,5.968,0,0,0,84.1-9.833,5.968,5.968,0,0,0,78.146-15.8m0,12.747a6.785,6.785,0,0,1-6.773-6.781,6.785,6.785,0,0,1,6.773-6.782,6.785,6.785,0,0,1,6.772,6.782,6.784,6.784,0,0,1-6.772,6.781"/></clipPath><clipPath id="ar"><path class="b" d="M46,0H193V-128H46Z"/></clipPath><clipPath id="as"><path class="a" d="M163.835-31.881h2.245a.408.408,0,0,0,.408-.408.408.408,0,0,0-.408-.409h-2.245a.408.408,0,0,0-.407.409.408.408,0,0,0,.407.408"/></clipPath><clipPath id="au"><path class="a" d="M174.438-5.607h4.6a.408.408,0,0,0,.408-.408.408.408,0,0,0-.408-.409h-4.6a.407.407,0,0,0-.407.409.407.407,0,0,0,.407.408"/></clipPath><clipPath id="aw"><path class="a" d="M107.839-94.45a.407.407,0,0,0,.276-.108,14.3,14.3,0,0,0,1.445-1.5c.659-.825.535-2.2-.388-4.328a.408.408,0,0,0-.536-.211.409.409,0,0,0-.212.537c.529,1.217,1.044,2.811.5,3.492a13.509,13.509,0,0,1-1.362,1.412.409.409,0,0,0-.023.577.407.407,0,0,0,.3.132"/></clipPath><clipPath id="ay"><path class="a" d="M88.606-100.6a.408.408,0,0,0-.117.565,17.5,17.5,0,0,0,1.684,2.184l.34.345-.724.389a.409.409,0,0,0-.166.553.407.407,0,0,0,.359.215.4.4,0,0,0,.193-.049l1.2-.646a.409.409,0,0,0,.211-.3.412.412,0,0,0-.113-.348l-.723-.734a17.143,17.143,0,0,1-1.583-2.058.406.406,0,0,0-.564-.117"/></clipPath><clipPath id="ba"><path class="a" d="M86.354-95.775a.407.407,0,0,0-.555-.146.41.41,0,0,0-.148.558A2.734,2.734,0,0,0,87.981-94.1a3.363,3.363,0,0,0,.908-.13.407.407,0,0,0,.282-.5.405.405,0,0,0-.5-.284,1.986,1.986,0,0,1-2.316-.759"/></clipPath><clipPath id="bc"><path class="a" d="M83.593-100.492a.408.408,0,0,0,.389-.288,1.158,1.158,0,0,1,1.3-.738.415.415,0,0,0,.443-.37.409.409,0,0,0-.369-.444A1.994,1.994,0,0,0,83.2-101.02a.408.408,0,0,0,.269.51.393.393,0,0,0,.12.018"/></clipPath><clipPath id="be"><path class="a" d="M88.07-102.508a.407.407,0,0,0,.22.065.41.41,0,0,0,.343-.184.877.877,0,0,1,1.114-.333.408.408,0,0,0,.533-.22.409.409,0,0,0-.22-.534,1.7,1.7,0,0,0-2.112.647.407.407,0,0,0,.123.56"/></clipPath><clipPath id="bg"><path class="a" d="M80.988-94.939a.6.6,0,0,1-.393.16.557.557,0,0,1-.551-.559.557.557,0,0,1,.555-.553H80.6a.408.408,0,0,0,.407-.406.408.408,0,0,0-.405-.411H80.6a1.374,1.374,0,0,0-1.37,1.364,1.374,1.374,0,0,0,1.362,1.38H80.6a1.356,1.356,0,0,0,.962-.4.408.408,0,0,0,0-.577.407.407,0,0,0-.576,0"/></clipPath><clipPath id="bi"><path class="a" d="M84.574-98.923a.407.407,0,0,0,.066.57.4.4,0,0,0,.254.09.409.409,0,0,0,.317-.151,2.491,2.491,0,0,1,1.358-.739.409.409,0,0,0,.319-.482.414.414,0,0,0-.481-.318,3.263,3.263,0,0,0-1.833,1.031"/></clipPath><clipPath id="bk"><path class="a" d="M87.279-83.389c.094,0,.186.007.277.007a5.855,5.855,0,0,0,3.489-1.163.407.407,0,0,0,.057-.573.408.408,0,0,0-.573-.058,5.124,5.124,0,0,1-3.21.971c-2.6-.127-3.517-1.281-3.535-1.3a.407.407,0,0,0-.566-.087.409.409,0,0,0-.091.57c.044.06,1.113,1.487,4.152,1.636"/></clipPath><clipPath id="bm"><path class="a" d="M91.971-85.991a.414.414,0,0,0,.129.021.409.409,0,0,0,.387-.279l.253-.759a.409.409,0,0,0-.258-.516.41.41,0,0,0-.516.258l-.253.759a.409.409,0,0,0,.258.516"/></clipPath><clipPath id="bo"><path class="a" d="M171.089-11.615h17.245v2.257H160.206a.407.407,0,0,0-.408.409.407.407,0,0,0,.408.408h28.128v7.11L154.4-1.437a.532.532,0,0,1-.423-.2c-.489-.619-1.494-3.24-1.486-7.393.009-4.456,1.313-7.109,1.634-7.528a.17.17,0,0,1,.135-.062h34.072v4.183H171.089a.408.408,0,0,0-.407.409.408.408,0,0,0,.407.408Zm19.86,13.241a.8.8,0,0,1-.6.176H142.415c-1.365-2.524-2.652-5.007-3.687-7-.9-1.735-1.55-2.989-1.832-3.459a1.177,1.177,0,0,0-.833-.532l-.039-2.632,2.529.037-.424-8.073,52.157,0c.064.013.63.155.63,1.272,0,.82-.357,1.077-.558,1.157h-36.1a.974.974,0,0,0-.779.381c-.585.759-1.8,3.72-1.8,8.024-.008,4.241.989,7.049,1.661,7.9a1.34,1.34,0,0,0,1.062.505h36.21c.48.1.712.51.689,1.231a1.367,1.367,0,0,1-.352,1.015ZM164.574,17.009h15.382v2.685a.391.391,0,0,0-.093-.019H156.421a.408.408,0,0,0,0,.816h23.442a.421.421,0,0,0,.093-.018v2.571l-27.411-.008a.482.482,0,0,1-.4-.24c-.457-.7-1.516-2.9-1.508-8.085.008-5.244,1.27-7.638,1.657-8.247a.145.145,0,0,1,.112-.08h27.551v9.808H164.574a.408.408,0,0,0,0,.817ZM181.962,5.568H152.4a.938.938,0,0,0-.8.458c-.533.841-1.775,3.37-1.784,8.683-.008,5.212,1.024,7.582,1.64,8.531a1.3,1.3,0,0,0,1.084.612h29.678c.606.155.715.947.7,1.592a1.885,1.885,0,0,1-.436,1.376.665.665,0,0,1-.511.155H135.993l.027-.056H123.446l-.028.056H88.774c-.282-.782-1.334-4.241-1.334-12.448a.408.408,0,1,0-.816,0c0,7.512.856,11.1,1.267,12.392H71.819A14.731,14.731,0,0,1,71.32,25a.408.408,0,1,0-.8.162,16.854,16.854,0,0,0,.439,1.753H67.317l-.028.056H53.767c-.381-.734-1.736-3.93-1.736-12.266,0-7.476,1.21-11.011,1.674-12.091H70.956c-.41,1.271-1.265,4.766-1.265,11.909,0,2.1.068,4.06.2,5.822a.408.408,0,0,0,.406.377h.031a.409.409,0,0,0,.376-.438c-.133-1.742-.2-3.679-.2-5.76,0-7.6,1-11.022,1.311-11.909H87.89a23.639,23.639,0,0,0-.838,4.157.408.408,0,0,0,.352.457.416.416,0,0,0,.457-.354,21.056,21.056,0,0,1,.89-4.26h42.913a57.341,57.341,0,0,0,7.254,5.089,4.35,4.35,0,0,0,2.025.558,2.5,2.5,0,0,0,1.82-.711c1-1.005,1-2.816.051-4.937h39.334a2.1,2.1,0,0,1,.391,1.457c0,1.075-.406,1.405-.576,1.5Zm-18.315,28.9h13.715a.4.4,0,0,0,.147-.03V44.608L150.1,44.6a.529.529,0,0,1-.422-.195c-.45-.569-1.5-2.35-1.487-6.577.009-4.271,1.254-6.217,1.635-6.711a.163.163,0,0,1,.133-.062H177.51v2.626a.407.407,0,0,0-.147-.029H163.648a.408.408,0,0,0,0,.816Zm15.886-4.228H149.959a.974.974,0,0,0-.778.379c-.54.7-1.8,2.8-1.806,7.208-.008,4.323,1.038,6.294,1.663,7.085a1.341,1.341,0,0,0,1.062.505h29.687c.48.1.712.509.69,1.231a1.37,1.37,0,0,1-.353,1.015.8.8,0,0,1-.6.176H135.644a18.387,18.387,0,0,1-.807-3.932.407.407,0,1,0-.809.1,20.937,20.937,0,0,0,.754,3.835H123.971c-.288-.8-1.136-3.71-1.136-10.248a.408.408,0,1,0-.816,0c0,6.072.712,9.082,1.089,10.248H79.517a14.182,14.182,0,0,1-.586-2.4.408.408,0,1,0-.8.139,16.9,16.9,0,0,0,.529,2.26H67.843c-.287-.8-1.135-3.71-1.135-10.248,0-6.043.8-8.9,1.11-9.778H78.629c-.382,1.2-1.063,4.123-1.063,9.778,0,1.714.057,3.311.17,4.748a.408.408,0,1,0,.813-.064c-.11-1.416-.167-2.992-.167-4.685,0-6.033.8-8.9,1.109-9.778l43.6,0a17.272,17.272,0,0,0-.542,2.348.408.408,0,1,0,.8.136,15.076,15.076,0,0,1,.6-2.485h10.812c-.381,1.2-1.064,4.123-1.064,9.781a.408.408,0,1,0,.815,0c0-6.037.8-8.9,1.11-9.781l43.844,0c.065.012.631.155.631,1.272,0,.82-.358,1.077-.559,1.157ZM51.3,47.842c-.379-.6-1.714-3.216-1.714-10.012,0-6.468,1.345-9.326,1.729-10.012H66.955c-.381,1.2-1.062,4.121-1.062,9.778,0,6.072.711,9.082,1.087,10.248ZM49.061,1.8c-.388-.777-1.745-3.983-1.745-10.829,0-6.518,1.367-9.976,1.757-10.828l73.432,0,1.888,7.864,3.012.045.074,2.121a6.659,6.659,0,0,0-1.787,5.376c.2,1.666,2.4,4.034,5,6.255H89.106l0-.006H71.28l0,.006Zm2.97-32.618c0-6.468,1.344-9.326,1.729-10.012l38.328,0c.011,0,.02.006.032.006l25.375.1L122.278-20.8H53.744c-.379-.6-1.713-3.216-1.713-10.012Zm10.186-13.6a16.693,16.693,0,0,1,4.928-.514C64.9-44.667,62-44.091,62-42.866l0,.093a.912.912,0,0,0,.413.9L57.3-41.967c1.6-.809,3.947-1.994,4.916-2.451ZM72.839-41.7c1.331-.952,2.108-1.872,3.958-6.671.885-2.295,1.881-5.036,2.707-7.351a13.656,13.656,0,0,0,3.936,1.831.41.41,0,0,0,.45-.242l1.072-2.524c.772,2.5,2.7,8.637,3.77,11.058a17.5,17.5,0,0,0,2.254,3.954H72.755c.029-.019.056-.034.084-.054Zm3.648-17.093c-4.109-3.142-4.918-5.766-5.053-6.352.31-.529,1.466-2.513,2.154-3.89a14.311,14.311,0,0,0,.839-2.554,68.258,68.258,0,0,1,3-8.836c1.9-4.649,3.641-6.169,5.167-6.788l.111.652a.408.408,0,0,0,.4.34.392.392,0,0,0,.069-.006.408.408,0,0,0,.334-.471L82.4-93.219a3.887,3.887,0,0,0,.408-.221.408.408,0,0,0,.12-.564.407.407,0,0,0-.563-.122c-.071.046-1.735,1.1-3.011.047a1.584,1.584,0,0,1-.626-1.551,1.706,1.706,0,0,1,.911-1.266,2.316,2.316,0,0,1,1.3-.012l.749.232-.015-.047a.387.387,0,0,0,.284-.1l.184-.168-.052-.235a8.335,8.335,0,0,1,.211-4.881,9.223,9.223,0,0,1,1.065-1.729.865.865,0,0,0,.143.222,1.057,1.057,0,0,0,.854.3l.156-.017.1-.117a5.662,5.662,0,0,1,2.083-1.59,6.176,6.176,0,0,1,.873-.076,8.125,8.125,0,0,0,1.624-.2,3.151,3.151,0,0,1,.427.23c.137.279.558,1.159,1.042,2.294l-.786.334-.065.149A3.2,3.2,0,0,0,89.79-100c.633,1.52,1.628,1.667,1.739,1.678l.089.009.582-.2c.085.311.174.626.234.919.71,3.453-1.429,4.805-1.865,5.041a5.056,5.056,0,0,1-3.854.484,7.847,7.847,0,0,1-2.643-1.24.407.407,0,0,0-.57.085.409.409,0,0,0,.084.571,8.612,8.612,0,0,0,2.937,1.377,6.724,6.724,0,0,0,1.6.2,5.814,5.814,0,0,0,2.837-.763c1.521-.823,2.917-2.811,2.276-5.924-.068-.328-.155-.671-.251-1.017l14.833-5.019c.063.114.13.238.187.334a1.178,1.178,0,0,0,1.017.584,1.161,1.161,0,0,0,.374-.061l3.889-1.317a41.942,41.942,0,0,1,3.674,5.549c1.833,3.5-.248,6.873-2.265,9.419a36.351,36.351,0,0,1-2.762,3.05c-.613-1.176-1.261-2.346-1.9-3.367-2.5-4.024-3.7-4.883-3.752-4.918a.407.407,0,0,0-.466,0c-.05.035-5.031,3.518-8.2,4.291a24.448,24.448,0,0,1-6.088.78c.023.078.044.154.07.234a1.881,1.881,0,0,0,.32.576,24.941,24.941,0,0,0,5.891-.8c2.926-.712,7.119-3.486,8.214-4.234a23.969,23.969,0,0,1,3.321,4.5,92.17,92.17,0,0,1,5.035,9.971,8.975,8.975,0,0,1-3.177,2.06,23.316,23.316,0,0,1-7.085,1.735c-.6-.742-3.291-4.106-4.979-6.393-1.915-2.594-4.528-5.445-4.555-5.473A.407.407,0,0,0,94-87.294a.408.408,0,0,0-.024.577c.026.028,2.61,2.848,4.5,5.406,1.908,2.583,5.094,6.535,5.125,6.574a.41.41,0,0,0,.109.085c.231.246,1.377,1.457,2.951,2.892a42.764,42.764,0,0,0,5.852,4.236,80.273,80.273,0,0,1-11.4,10.411A25.324,25.324,0,0,0,91.275-42.62a19.447,19.447,0,0,1-1.8-3.308c-1.233-2.8-3.736-10.964-4.034-11.938.091-.445.452-2.244.647-3.637A45.03,45.03,0,0,0,86.5-66.45l0-.115a.409.409,0,0,0-.391-.425.4.4,0,0,0-.424.391l0,.126a44.538,44.538,0,0,1-.4,4.858c-.2,1.454-.593,3.364-.652,3.648l-1.352,3.187a24.273,24.273,0,0,1-6.792-4.012ZM98.832-105.37a6.422,6.422,0,0,0-.108.76c-.137,1.73.392,2.46.717,2.742.016.013.035.018.051.031l-7.94,2.687a1.854,1.854,0,0,1-1.008-1.162,2.324,2.324,0,0,1-.03-1.524Zm-2.6-.785c-.08-.2-.032-.517.347-.82a21.125,21.125,0,0,1,3.531-1.605,13.283,13.283,0,0,0-.935,2c-1.282.32-2.433.594-2.7.62-.109.014-.2-.088-.244-.192Zm5.524,3.552-.233.079c.034-.054.073-.108.1-.161.036.033.091.052.132.082Zm2.623-.887-.3.1c.032-.064.066-.127.091-.192.03.018.061.035.093.051a1.124,1.124,0,0,0,.118.039Zm-2.983-5.653a1.674,1.674,0,0,1,.856-.782,2.168,2.168,0,0,1,.7-.108c.064,0,.12,0,.168,0a.773.773,0,0,0,.322-.03.571.571,0,0,0,.277-.263,1.722,1.722,0,0,1,.811-.728,1.726,1.726,0,0,1,.941-.056c.074.012.136.022.187.025.172.01.267-.067.435-.211a3.429,3.429,0,0,1,.886-.6,1.933,1.933,0,0,1,1.263.031,9.38,9.38,0,0,0-2.321,5.77c-.108.98-.186,1.543-.531,1.716a.952.952,0,0,1-.769.118.784.784,0,0,1-.333-.481l-.045.008a7.123,7.123,0,0,1,.727-4.559.409.409,0,0,0-.172-.551.409.409,0,0,0-.551.172,7.732,7.732,0,0,0-.752,5.329,1.2,1.2,0,0,1-.645,1.086.635.635,0,0,1-.514.068.881.881,0,0,1-.418-.447,7.817,7.817,0,0,1,.612-4.437.409.409,0,0,0-.174-.55.406.406,0,0,0-.55.174,8.509,8.509,0,0,0-.7,4.9c-.112.34-.431,1.03-.916,1.143a.273.273,0,0,1-.218-.089c-.132-.113-.552-.6-.437-2.058a10.841,10.841,0,0,1,1.858-4.6Zm6.037,4.619-1.148.388a4.566,4.566,0,0,0,.45-1.869c0-.02,0-.042.007-.061.235.581.469,1.1.69,1.541Zm15.091-12.262a38.055,38.055,0,0,0,1.24,3.775,37.922,37.922,0,0,0,1.644,3.793l-16.274,5.509a.356.356,0,0,1-.426-.16,19.935,19.935,0,0,1-1.387-2.94c-.123-.326-.229-.629-.321-.912a7.671,7.671,0,0,1,1.492-3.17Zm1.207-1.842,17.739-7.365a21.224,21.224,0,0,0,1.445,5.8A27.38,27.38,0,0,0,144.865-116a7.417,7.417,0,0,0,.8,1.136l-18.141,6.226a.934.934,0,0,1-1.128-.438,34.079,34.079,0,0,1-1.876-4.222,32.859,32.859,0,0,1-1.356-4.266.932.932,0,0,1,.56-1.062Zm18.716-7.23c.068-.026.162.024.275.133l-.043-.113c.074.1.154.213.239.341a21.323,21.323,0,0,1,2.16,4.484,21.369,21.369,0,0,1,1.345,4.793c.02.151.036.29.046.413l-.043-.112c-.012.156-.05.256-.118.282-.386.146-1.564-2.023-2.631-4.845s-1.616-5.228-1.23-5.375ZM128.223-11.939l6.986.1.037,2.612a14.057,14.057,0,0,0-2.573.633c-.419.129-.814.252-1.156.338a2.51,2.51,0,0,0-1.555,1l-1.683-3.032Zm5,8.369a.406.406,0,0,0,.341.185.406.406,0,0,0,.222-.066,6.206,6.206,0,0,1,4.447-.694.394.394,0,0,0,.128,0c.247.476.5.969.773,1.485a6.827,6.827,0,0,0-4.218.614.41.41,0,0,0-.17.551.409.409,0,0,0,.362.218.406.406,0,0,0,.189-.047,5.811,5.811,0,0,1,4.167-.4.4.4,0,0,0,.173.023c.654,1.246,1.352,2.565,2.074,3.9,1.151,2.127,1.329,3.909.477,4.768-.62.625-1.726.626-2.884.007C136.162,5.309,126.859-1.5,126.5-4.549a5.85,5.85,0,0,1,1.472-4.615L130.447-4.7V-6.278c0-.009.015-.87,1.268-1.184.354-.088.765-.215,1.2-.349,1.117-.347,2.984-.923,3.282-.429.257.429.89,1.645,1.694,3.2a6.97,6.97,0,0,0-4.552.909.408.408,0,0,0-.117.564ZM113.454-67.35a.407.407,0,0,0,.093-.287,106.655,106.655,0,0,1,14.9-7.148c7.341-2.541,9.99-1.377,13.5,2.38,3.435,3.68,13.331,18.331,15.052,20.89l-10.08,5.172c-1.173-1.028-6.978-6.137-9.261-8.5-.944-.977-1.719-1.822-2.354-2.514a10.465,10.465,0,0,0-2.3-2.2c-.285-.124-.579-.248-3.886,2.427a.407.407,0,0,0-.06.574.406.406,0,0,0,.573.061,18.025,18.025,0,0,1,3.131-2.27,16.4,16.4,0,0,1,1.946,1.957c.638.7,1.419,1.547,2.368,2.53,2.556,2.647,9.449,8.669,9.52,8.73l.208.182,2.7-1.385.36.643c-1.072.751-.723,3.27-.486,4.459H136.857a42.2,42.2,0,0,0-1.051-6.46c-.885-2.856-2.69-5.921-13.937-9.244-10.929-3.229-12.288-3.971-12.385-4.029a.406.406,0,0,0-.541.053.409.409,0,0,0,.025.577c.165.152,1.567.9,12.671,4.182,11.771,3.477,12.745,6.622,13.389,8.7.776,2.5,1.3,9.366,1.309,9.426l1.357,25.822L125.038-12.8l-6.9-28.734-26.015-.105h0a.4.4,0,0,0-.25.094.331.331,0,0,0,.033-.074,24.129,24.129,0,0,1,9.681-14.827,82.51,82.51,0,0,0,11.87-10.9Zm44.6,19.024c-.176.186-.342.389-.506.59a4.5,4.5,0,0,1-2.279,1.756,9.466,9.466,0,0,1-4.488-.143l-.557-1,6.41-3.289Zm1.9.108c.28.089.656.227,1.114.407L159.7-46.091a.409.409,0,0,0,.063.574.41.41,0,0,0,.255.089.4.4,0,0,0,.318-.153l1.526-1.91c.357.148.752.315,1.182.5l-1.1,1.544a.41.41,0,0,0,.1.57.407.407,0,0,0,.236.075.405.405,0,0,0,.331-.172l1.2-1.685q2.484,1.088,6.3,2.863c.616.286.959.622,1.017,1a1.591,1.591,0,0,1-.479,1.154H150.2c-.3-1.454-.416-3.34.079-3.765a10.438,10.438,0,0,0,5.205.218,5.233,5.233,0,0,0,2.694-2.027c.683-.838,1.04-1.232,1.776-1Zm-5.148,13.5h25.147V-32.7H168.525a.408.408,0,0,0-.408.409.408.408,0,0,0,.408.408h11.431v7.842l-27.411,0a.529.529,0,0,1-.422-.195c-.45-.57-1.5-2.35-1.487-6.577.008-4.272,1.253-6.217,1.635-6.711a.165.165,0,0,1,.134-.063h27.551v2.054H154.809a.408.408,0,0,0-.407.408.408.408,0,0,0,.407.409Zm27.1-6.116c.064.013.63.155.63,1.272,0,.82-.358,1.077-.559,1.157H152.4a.976.976,0,0,0-.779.379c-.54.7-1.8,2.8-1.805,7.209-.008,4.323,1.038,6.294,1.662,7.085a1.34,1.34,0,0,0,1.062.505h29.687c.48.1.711.51.689,1.232a1.365,1.365,0,0,1-.351,1.015.8.8,0,0,1-.6.177h-43.9l-.93-17.686c-.008-.1-.081-1.054-.209-2.343h12.614l0,.009h21.418l.011-.009Zm8.807,39.4H189.15V-16.616h1.276l.119-.018a1.822,1.822,0,0,0,1.187-1.956c0-1.872-1.268-2.072-1.379-2.083h-6.98a2.412,2.412,0,0,0,.365-1.3c.051-1.645-.963-1.994-1.4-2.068h-1.566V-37.589h1.277l.119-.017a1.824,1.824,0,0,0,1.187-1.956c0-1.872-1.269-2.071-1.379-2.083H171.645a1.971,1.971,0,0,0,.289-1.274,2.257,2.257,0,0,0-1.479-1.615c-3.785-1.76-6.6-3.021-8.435-3.772-.006-.005-.008-.013-.015-.018a.4.4,0,0,0-.227-.08c-.672-.273-1.2-.471-1.574-.591a1.751,1.751,0,0,0-1.517.148l-1.321-1.936.825-.423-.256-.381c-.472-.7-11.6-17.31-15.389-21.374-4.14-4.435-7.361-5.016-14.36-2.6a108.462,108.462,0,0,0-15.252,7.331,42.54,42.54,0,0,1-5.722-4.137c-1.017-.927-1.854-1.761-2.373-2.294a22.885,22.885,0,0,0,6.709-1.745c3.2-1.512,3.623-2.473,3.675-2.65a.406.406,0,0,0-.015-.278c-.019-.043-1.291-3-2.887-6.145a37.691,37.691,0,0,0,3.008-3.3c2.17-2.739,4.4-6.386,2.349-10.3a41.644,41.644,0,0,0-3.579-5.447l11.722-3.969a1.739,1.739,0,0,0,1.4.727,1.751,1.751,0,0,0,.572-.1l18.822-6.46a.672.672,0,0,0,.175-.032.565.565,0,0,0,.079-.055l.11-.038-.012-.029c1.018-.937-.746-5.807-1.128-6.821s-2.286-5.824-3.662-5.861l0-.008-.026.011a.548.548,0,0,0-.185.022.583.583,0,0,0-.2.139l-18.343,7.617a1.744,1.744,0,0,0-1.071,1.784l-13.037,5.478-.141-.131a2.558,2.558,0,0,0-2.412-.428,3.78,3.78,0,0,0-1.184.762,2.518,2.518,0,0,0-1.308.1,2.421,2.421,0,0,0-1.172.973,3.062,3.062,0,0,0-1.1.15,2.313,2.313,0,0,0-1.19.98,27.634,27.634,0,0,0-4.73,2.105,1.51,1.51,0,0,0-.592,1.766,1.09,1.09,0,0,0,.807.673l-4.862,2.065c-.579-1.356-1.07-2.348-1.113-2.433l-.045-.091-.021-.015h0a3.752,3.752,0,0,0,2-3.15,1.334,1.334,0,0,0-.152-1.01c-.252-.344-.661-.406-1.179-.484-.222-.034-.48-.073-.769-.141a4.087,4.087,0,0,1-1.266-.7,4.83,4.83,0,0,0-3.325-1.163,4.2,4.2,0,0,0-3.006,1.743,10.51,10.51,0,0,0-2.914.2c-1.269.294-4.239.981-4.851,5.409-.548,3.966,3.076,7.867,3.195,7.987a1.949,1.949,0,0,0,.268.314,2.709,2.709,0,0,0-.322.885,2.4,2.4,0,0,0,.912,2.319,2.994,2.994,0,0,0,2.784.515l.832,4.894c-1.7.635-3.7,2.226-5.781,7.3A69.13,69.13,0,0,0,73.64-71.8a14.051,14.051,0,0,1-.782,2.4c-.783,1.568-2.19,3.949-2.2,3.973a.4.4,0,0,0-.054.256c.016.13.432,3.236,5.392,7.029,1.049.8,1.98,1.448,2.806,1.979-.837,2.343-1.858,5.157-2.761,7.5-1.864,4.837-2.575,5.516-3.671,6.3a2.976,2.976,0,0,1-2.044.636h0c-.019,0-1.982-.109-5.064-.357-2.2-.176-2.428-.463-2.446-.494a.683.683,0,0,1,0-.132c0-.053.008-.1.008-.156,0-.452,2.645-1.165,6.055-1.407a.408.408,0,0,0,.379-.436.417.417,0,0,0-.262-.345.446.446,0,0,0,.078-.091,57.756,57.756,0,0,0,3.4-10.477.408.408,0,0,0-.307-.489.4.4,0,0,0-.488.307,58.516,58.516,0,0,1-3.234,10.07c-1.111-.028-5.178-.075-6.567.58-1.084.511-3.869,1.918-5.432,2.712a.666.666,0,0,0-.354.754c0,.016.013.029.018.044H53.325l-.122.168c-.081.112-1.987,2.829-1.987,10.661,0,6.209,1.087,9.067,1.663,10.145h-4.3l-.117.21c-.08.145-1.96,3.631-1.96,11.434C46.5-.8,48.393,2.3,48.473,2.428l.12.19h4.227c-.567,1.448-1.605,5.052-1.605,12.091,0,7.589,1.095,11.024,1.659,12.291h-2l-.122.169c-.082.112-1.987,2.829-1.987,10.66,0,8.264,1.926,10.593,2.008,10.687l.123.142H67.312l.005.009H79.892l0-.01H123.44l.006.011h12.573l0-.011h43.461a1.179,1.179,0,0,0,.149.008,1.582,1.582,0,0,0,1.022-.369,2.113,2.113,0,0,0,.647-1.618c.051-1.645-.962-1.994-1.4-2.068h-1.566V31.057H179.6l.119-.018a1.823,1.823,0,0,0,1.187-1.956,2.531,2.531,0,0,0-.3-1.3h1.307a1.013,1.013,0,0,0,.157.011,1.449,1.449,0,0,0,.928-.34,2.564,2.564,0,0,0,.742-1.993c.049-1.917-.953-2.331-1.385-2.42h-1.581V6.384h1.277l.141-.026c.274-.1,1.164-.566,1.164-2.287a3.436,3.436,0,0,0-.274-1.457H190.3a1.038,1.038,0,0,0,.148.009,1.579,1.579,0,0,0,1.022-.369,2.109,2.109,0,0,0,.647-1.618c.051-1.644-.962-1.993-1.4-2.067Z"/></clipPath><clipPath id="bq"><path class="a" d="M8.963-178.585H227.036a23.575,23.575,0,0,1,23.576,23.575V58.348a23.575,23.575,0,0,1-23.576,23.575H8.963A23.575,23.575,0,0,1-14.612,58.348V-155.01A23.575,23.575,0,0,1,8.963-178.585Z"/></clipPath><clipPath id="bs"><path class="a" d="M90.237-68.683c-.037-.045-.009-.07.024-.086a.474.474,0,0,0,.042.084h.022a.345.345,0,0,1-.088,0Zm9.142-.3a2.138,2.138,0,0,1-.647-.559,1.783,1.783,0,0,1,.491.29l-.1-.145a1.411,1.411,0,0,1-.328-.248l.288.131c-.156-.217-.541-.456-.544-.661a3.563,3.563,0,0,1-.485-.018L98-70.281a.4.4,0,0,1,.177.053c-.027-.02-.129-.067-.107-.1l.235.095c.014-.09-.183-.059-.212-.127.147,0,.067-.054.188-.046.028.021-.014.069.065.1a.235.235,0,0,1,.047-.261.264.264,0,0,1-.243-.045c-.126-.172.113-.091.1-.223-.114-.021-.115-.178-.283-.1-.034-.052.034-.1.063-.146-.158-.093-.245-.326-.363-.157v.025l-.013-.007c-.3-.124-.227-.523-.439-.7l.05-.033c-.145-.094-.231-.273-.4-.3-.026-.04.029-.155.1-.178-.1-.07-.177-.063-.176-.239.139.019.048-.094.124.049-.049-.168.068-.166-.154-.2.166-.029.164-.1.1-.122a.515.515,0,0,0-.086.07.154.154,0,0,1-.057-.07L96.739-73l.215.005c.155-.056.053-.083,0-.175-.04-.129-.044-.292.191-.325-.1-.132-.158.128-.284-.005.08-.129.407-.167.425-.21.178-.149-.206-.288-.056-.459-.077,0-.266-.048-.27-.222.08-.13.349-.059.368.05a.039.039,0,0,1-.058.033c.007.054.013.125.108.1l-.06-.045c.1-.042.164-.237.256-.148-.023-.131-.092-.089-.158-.025.167-.141.112-.279.249-.436-.048.015-.137.01-.126-.019.223-.324-.066-.208-.008-.442.17-.131.252.077.26-.2.148-.174.227-.055.258.028-.044-.269.316-.555.424-.762l.006.145a.646.646,0,0,1,.064-.254l-.217.158c.066-.1.1-.18.174-.21-.087-.039-.331.187-.436.1.139-.153.01-.243.291-.434-.226.4.283-.2.2.1a.442.442,0,0,1,.1-.237c.035-.031.049-.018.055,0,.394-.535-.235.006-.094-.343a.855.855,0,0,0,.334-.354.455.455,0,0,1-.381.251c.217-.325-.009-.151.048-.268l-.112.178c-.14.094-.109.018-.1-.057l-.058.027a.6.6,0,0,1,.145-.107c.008.012,0,.04.042-.018a.121.121,0,0,1-.039.016c-.3.2,0-.228-.4.009-.016-.072.249-.284.2-.323-.448.276-.171-.105-.613.143-.029.161,0,.115-.313.353l.563-.269q-.269.188-.5.364c.12-.032.363-.2.418-.19-.265.2-.2.144-.278.292.053-.243-.428.256-.477.116l.261-.452c-.123-.048-.326.059-.513.17a1.356,1.356,0,0,1-.58.243l.131.028c-.07.169-.252.093-.381.191,0-.125-.094-.145-.174-.2-.009.1-.246.063-.2.3l-.167-.118c-.241,0-.161.4-.387.427.028-.145-.092-.2.026-.332-.072.019-.142.017-.121.1-.062-.061-.154.214-.251.122-.016.06.009.185-.074.2a.12.12,0,0,1-.016-.058c.016.058-.1.115,0,.223-.31-.3-.664.22-.764-.089a1.565,1.565,0,0,1-.133.093.669.669,0,0,1-.14-.07c.02-.03.027-.056.034-.033-.034-.174-.227.261-.327.016.033-.227.162,0,.152-.107.227-.327-.25-.137-.223-.417l.044.006c-.006-.18-.319-.07-.452-.217a.124.124,0,0,0,.039-.046.96.96,0,0,1-.648-.115c.143-.083.117-.009.19-.153-.078-.037-.141.211-.3.138a.644.644,0,0,1,.059-.376l.128.094c.064-.23-.137-.1-.228-.23l.069-.066c-.322-.228-.414.006-.673-.23l.012.1c-.171.166-.1-.259-.256-.157l-.045-.351a2.715,2.715,0,0,1-.45-.012c.012-.222.208-.178.347-.2-.112-.1-.384-.3-.39-.147.031,0,.069-.05.122.043-.08.18-.167.23-.338.081a1.772,1.772,0,0,0-.624-.9c-.022.112-.064.172-.184.022a2.209,2.209,0,0,1,0,.882,3.886,3.886,0,0,0-.107.831c.36.063,0,.2.367.415.019.135.012.175-.012.173a2.121,2.121,0,0,0-.234.3c-.11.076-.076-.162-.159-.179-.041.336-.161.1-.269.334.067-.017.113.024.135.09a.332.332,0,0,1,.016.116.191.191,0,0,1-.021.078l.088-.076.09-.128c.045.133.048.173.03.21a.28.28,0,0,1-.1.1c-.08.056-.16.113-.067.255l-.115-.092c.065.144-.021.523.273.673-.044.023-.146.053-.171-.011a1.27,1.27,0,0,0,.1.542,1.174,1.174,0,0,1,.056.261c0,.09-.008.08-.055.105l-.09-.026c.026.016.168.081.077.078a.375.375,0,0,0-.095-.036.348.348,0,0,1,.112.107c0,.009-.012.013-.03.008a.853.853,0,0,0-.08-.071c-.088-.015-.045.032-.027.122.046.072-.048.261-.132.352-.143-.228-.408-.162-.54-.129l-.016-.035c-.341.179-.429.54-.671.821a.364.364,0,0,0-.274,0,3.5,3.5,0,0,0-.445.231A6.816,6.816,0,0,1,86.3-72.7c.146-.036.257.084.213.144-.2.063-.023.237-.387.177l.049-.026a1.388,1.388,0,0,0-.853.328l.567.02a2.386,2.386,0,0,0-.955.4c.531.16,1.186.228.946.425.266.012.431.073.668.074l-.241.1a4.708,4.708,0,0,0,1.049.412l-.2.059c.3.124.693-.278.881-.219-.02.084-.036.17-.049.258a.914.914,0,0,1,.244.121l.183.122a.468.468,0,0,0,.428.059c-.017.034-.051.1-.1.1.123.053.424.343.5-.008-.076.218.266.122.445.079l-.081.152c.185-.165.243-.207.385-.219.012.022-.015.083-.033.094.038.037.128-.121.176-.017l-.1.078c.061.036.09-.015.24-.1a.122.122,0,0,1,.034,0c.042.05-.022.217-.145.286.086-.042.215-.043.188.032a.191.191,0,0,1-.111.016c-.073.179.276.281.151.467a.168.168,0,0,0-.091.053,1.318,1.318,0,0,1-.059-.335c-.151.039-.138.2-.378.132.146.093.447.239.414.407A.235.235,0,0,1,90.24-69l-.022-.011a.09.09,0,0,0,.048.088.293.293,0,0,0-.013.135c-.12.05-.022.193-.009.272.165-.05.163.057.276-.072-.009.015-.023-.009-.043-.059-.008-.01-.014-.023-.026-.028h.016l-.059-.187c.1.038.186.083.116.192.116.011.237.026.294.037-.2.165-.277.4-.412.464a3.155,3.155,0,0,1,.212.391c.093.188.206.334.37.327.057.059-.053.164-.087.239-.041-.033-.054-.1-.1-.107.122.144.181.579.362.379-.019.336-.191.091-.079.377l-.062.036c-.034.487.1.677.227.721.13.062.248-.018.284.342.043-.025.08-.012.12.04-.022-.019-.031-.028-.023-.1a3.243,3.243,0,0,0,.734-.91,2.459,2.459,0,0,1,.818-.874c.191-.139.062-.207.046-.365l.167.086-.062-.268c.028-.289.614-.054.573-.48l-.121-.046c.087-.073.159-.323.259-.22-.011-.023-.079-.109,0-.1l.078.057.037-.318c.184-.124.28.264.484.032.041-.114-.02-.432-.1-.438a.156.156,0,0,1-.2,0l.025-.114-.039-.037.01-.013,1.231.077-.016.046.041-.045.146.009c-.008.032-.014.068-.044.08.108.133.108-.084.2.063a.033.033,0,0,1-.007.044l.118-.069c-.026.052.008.181-.059.14.194.159.338-.17.4.027l-.018.015c.214-.052.13-.129.167-.252l.131.008a2.277,2.277,0,0,0,.091.323l.035-.185c.032.009.1.027.094.1.113-.121-.027-.083.028-.2.194.183.358-.057.546.252-.024-.144-.206-.122-.1-.215.242.336.148-.046.389.117.1.172-.137.07.152.235-.151-.289.38.085.491.038-.261-.239.184-.081.3-.149a2.8,2.8,0,0,0,.669.182.431.431,0,0,1-.017-.136Z"/></clipPath></defs><g transform="translate(0 137)"><g class="c"><g class="d"><g class="e"><g class="f"><g class="g"><path class="h" d="M-5-142H234V5H-5Z"/></g><g class="i"><g class="g"><g class="e"><g class="j"><g class="k"><path class="l" d="M21.294-154.751h185.9V33.214H21.294Z"/></g><g class="m"><g class="k"><path class="l" d="M-14.363-181.231H252.019V86.92H-14.363Z"/></g></g></g></g></g></g><g class="n"><g class="g"><path class="o" d="M146.278-104.363h25.3v23.8h-25.3Z"/></g></g><g class="p"><g class="g"><path class="o" d="M92.21-139.04h22.075V-117.8H92.21Z"/></g></g><g class="q"><g class="g"><path class="o" d="M45.728-105.018H67.8v21.235H45.728Z"/></g></g><g class="r"><g class="g"><path class="o" d="M46.352-46.258H188.333v30.85H46.352Z"/></g></g><g class="s"><g class="g"><path class="o" d="M41.628-25.28h155.1V32.382H41.628Z"/></g></g><g class="t"><g class="g"><g class="e"><g class="u"><g class="v"><path class="w" d="M65.793-99.008H119.7v62.455H65.793Z"/></g><g class="x"><g class="v"><path class="w" d="M-15.247-186.19H242V81.371H-15.247Z"/></g></g></g></g></g></g><g class="y"><g class="g"><path class="o" d="M51.353-66H84.045v30.039H51.353Z"/></g></g><g class="z"><g class="g"><path class="o" d="M86.716-81.327h90.156V12.955H86.716Z"/></g></g><g class="aa"><g class="g"><path class="o" d="M73.161-131.719h78.663v52.73H73.161Z"/></g></g><g class="ab"><g class="g"><g class="e"><g class="ac"><g class="ad"><g class="ae"><path class="w" d="M66.94-21.052H89.664V1.663H66.94Z"/></g></g><g class="af"><g class="ae"><path class="w" d="M-15.247-155.295H252.609V86.923H-15.247Z"/></g></g></g></g></g></g><g class="ag"><g class="g"><g class="e"><g class="ah"><g class="ai"><g class="aj"><path class="ak" d="M66.373-21.615H89.918V1.949H66.373Z"/></g></g><g class="al"><g class="aj"><path class="ak" d="M158.427-37.7h13.06v10.817h-13.06Z"/></g></g><g class="am"><g class="aj"><path class="ak" d="M169.031-11.424h15.419V-.607H169.031Z"/></g></g><g class="an"><g class="aj"><path class="ak" d="M102.432-105.633h12.544V-89.45H102.432Z"/></g></g><g class="ao"><g class="aj"><path class="ak" d="M83.422-105.667H96.594v14.318H83.422Z"/></g></g><g class="ap"><g class="aj"><path class="ak" d="M80.6-100.976H94.187V-89.1H80.6Z"/></g></g><g class="aq"><g class="aj"><path class="ak" d="M78.185-107.342H90.731v11.85H78.185Z"/></g></g><g class="ar"><g class="aj"><path class="ak" d="M82.884-108.859H95.311v11.416H82.884Z"/></g></g><g class="as"><g class="aj"><path class="ak" d="M74.227-101.707H86.682v12.744H74.227Z"/></g></g><g class="at"><g class="aj"><path class="ak" d="M79.487-104.961H91.9v11.7H79.487Z"/></g></g><g class="au"><g class="aj"><path class="ak" d="M78.049-90.672H96.194v12.29H78.049Z"/></g></g><g class="av"><g class="aj"><path class="ak" d="M86.693-92.545H97.761V-80.97H86.693Z"/></g></g><g class="aw"><g class="aj"><path class="ak" d="M41.5-132.17H197.117V53.667H41.5Z"/></g></g><g class="ax"><g class="aj"><path class="ay" d="M-19.612-183.585H255.611V86.923H-19.612Z"/></g></g></g></g></g></g><g class="az"><g class="g"><path class="o" d="M79.939-84.568h24.44v24.145H79.939Z"/></g></g></g></g></g></g></g></svg>