<svg xmlns="http://www.w3.org/2000/svg" viewBox="0 0 32 32"><path d="M23.2 28.9c-.2 0-.3 0-.5-.1L16 25.3l-5.9 3.2c-1 .5-2.2.2-2.7-.8-.2-.4-.3-.9-.2-1.3l1.1-6.8-4.8-4.8c-.8-.8-.8-2.1 0-2.9.3-.3.7-.5 1.1-.6l6.6-1 2.9-6.1c.5-1 1.6-1.4 2.6-1 .4.2.8.5 1 1l2.9 6.1 6.6 1c.5.1 1 .4 1.3.8.6.8.5 2-.2 2.7l-4.8 4.8.7 3.6c.1.5-.3 1.1-.8 1.2-.5.1-1-.3-1.1-.8l-.7-3.6c-.1-.7.1-1.3.6-1.8l4.8-4.8-6.6-1c-.7-.1-1.2-.6-1.5-1.2L16 5l-3 6.2c-.3.6-.8 1.1-1.5 1.2l-6.6 1 4.7 4.8c.5.5.7 1.1.6 1.8l-1.1 6.8 5.9-3.2c.6-.3 1.3-.3 1.9 0l6.7 3.5c.4.2.6.7.5 1.1-.1.5-.5.8-1 .8l.1-.1z"/></svg>