<svg xmlns="http://www.w3.org/2000/svg" viewBox="0 0 32 32"><path d="M10.8 28C6.5 28 3 24.5 3 20.2v-8.4C3 7.5 6.5 4 10.8 4h11.3c4.3 0 7.8 3.5 7.8 7.8v1.9c0 .5-.4 1-1 .9-.5 0-1-.4-1-.9v-1.9c0-3.2-2.7-5.9-5.9-5.9H10.8c-3.2 0-5.9 2.6-5.9 5.9v8.4c0 3.2 2.7 5.9 5.9 5.9h11.3c3.2 0 5.9-2.6 5.9-5.9.1-.5.5-.9 1.1-.8.4.1.8.4.8.8 0 4.3-3.5 7.8-7.8 7.8H10.8zm3.1-10.7l-5.6-4.4c-.4-.3-.5-.9-.1-1.3.3-.4.9-.5 1.3-.2l5.6 4.4c.7.5 1.7.5 2.4 0l5.5-4.4c.4-.3 1-.3 1.3.1.3.4.3 1-.1 1.3l-5.6 4.4c-1.3 1.2-3.3 1.2-4.7.1z"/></svg>