<svg xmlns="http://www.w3.org/2000/svg" xmlns:xlink="http://www.w3.org/1999/xlink" width="229" height="137" viewBox="0 0 229 137"><defs><style>.a,.b{fill:none;}.a{clip-rule:evenodd;}.c{clip-path:url(#a);}.d{clip-path:url(#b);}.e{isolation:isolate;}.f{clip-path:url(#c);}.g{clip-path:url(#d);}.h{fill:#ffded6;}.i{clip-path:url(#e);}.j{clip-path:url(#g);}.k{clip-path:url(#h);}.l{fill:#ffdfd5;}.m{clip-path:url(#i);}.n{clip-path:url(#k);}.o{fill:#fff;}.p{clip-path:url(#m);}.q{clip-path:url(#o);}.r{clip-path:url(#q);}.s{clip-path:url(#s);}.t{clip-path:url(#u);}.u{clip-path:url(#w);}.v{clip-path:url(#y);}.w{clip-path:url(#aa);}.x{clip-path:url(#ab);}.y{clip-path:url(#ac);}.z{fill:#5ae1e1;}.aa{clip-path:url(#ad);}.ab{clip-path:url(#af);}.ac{clip-path:url(#ah);}.ad{clip-path:url(#aj);}.ae{clip-path:url(#ak);}.af{clip-path:url(#al);}.ag{clip-path:url(#an);}.ah{clip-path:url(#ap);}.ai{clip-path:url(#ar);}.aj{clip-path:url(#at);}.ak{clip-path:url(#av);}.al{clip-path:url(#ax);}.am{clip-path:url(#az);}.an{clip-path:url(#bb);}.ao{clip-path:url(#bd);}.ap{clip-path:url(#bf);}.aq{clip-path:url(#bh);}.ar{clip-path:url(#bi);}.as{clip-path:url(#bj);}.at{clip-path:url(#bk);}.au{clip-path:url(#bm);}.av{clip-path:url(#bo);}.aw{clip-path:url(#bq);}.ax{clip-path:url(#bs);}.ay{clip-path:url(#bu);}.az{clip-path:url(#bv);}.ba{clip-path:url(#bw);}.bb{fill:#393e48;}.bc{clip-path:url(#bx);}.bd{clip-path:url(#bz);}.be{clip-path:url(#cb);}.bf{clip-path:url(#cd);}.bg{clip-path:url(#cf);}.bh{clip-path:url(#ch);}.bi{clip-path:url(#cj);}.bj{clip-path:url(#cl);}.bk{clip-path:url(#cn);}.bl{clip-path:url(#cp);}.bm{clip-path:url(#cr);}.bn{clip-path:url(#ct);}.bo{clip-path:url(#cv);}.bp{clip-path:url(#cx);}.bq{clip-path:url(#cz);}.br{clip-path:url(#db);}.bs{clip-path:url(#dd);}.bt{clip-path:url(#df);}.bu{clip-path:url(#dh);}.bv{clip-path:url(#dj);}.bw{clip-path:url(#dl);}.bx{clip-path:url(#dn);}.by{clip-path:url(#dp);}.bz{clip-path:url(#dr);}.ca{clip-path:url(#dt);}.cb{clip-path:url(#dv);}.cc{clip-path:url(#dx);}.cd{fill:#475473;}</style><clipPath id="a"><path class="a" d="M32-137H197a32,32,0,0,1,32,32V0H0V-105A32,32,0,0,1,32-137Z"/></clipPath><clipPath id="b"><path class="b" d="M-693,124H747V-900H-693Z"/></clipPath><clipPath id="c"><rect class="b" width="239" height="165" transform="translate(-5 -142)"/></clipPath><clipPath id="d"><path class="b" d="M0,0H229V-137H0Z"/></clipPath><clipPath id="e"><path class="a" d="M199.48-51.272c-.061.458-.1.988-.129,1.6-.063.618-.11,1.322-.139,2.126-.008,1.608-.129,3.614-.192,6.152-.071-1.507-.41-.755-.469-1.819a31.079,31.079,0,0,1-.876,6.017c-.275,1.008-.551,1.928-.8,2.707a58.257,58.257,0,0,0,.933-19.315c-1.875-16.631-6.3-30.943-13.2-42.658q1.783,2.608,3.386,5.356c.811.031-2.827-6.978-.2-3.232,1.119,1.889.733,1.877.815,2.335,1.04,1.913,2.1,3.831,3.007,5.817l-.549,2.251a108.665,108.665,0,0,0,4.533,13.6,58.108,58.108,0,0,1,3.912,16.335,4.8,4.8,0,0,0,.437.816,7.283,7.283,0,0,0-.463,1.907m-17.835-49.834q-1.781-2.588-3.747-4.976c.551.542,1.108,1.1,1.665,1.713a21.491,21.491,0,0,1,2.312,3.349c.043.117-.066.047-.23-.086m-44.956-29.685c.249-.384.414-.774,2.056-.716.734.225,1.643.543,2.586.863l1.415.5c.462.181.909.375,1.328.554,1.673.723,2.854,1.342,2.377,1.465.4.218.813.411,1.221.616a85.015,85.015,0,0,0-10.984-3.277M82.862,15.722c-1.88-.254-3.5-.412-4.441-.474-1.225-.564-1.61-.9-1.58-1.124q2.97.889,6.137,1.613l-.116-.016M65.669-122.493A65.686,65.686,0,0,0,44.686-103.4c.026-.039.05-.08.076-.119l.647-.986.694-.956c.467-.636.925-1.284,1.407-1.916,1.012-1.223,1.982-2.5,3.093-3.664a58.614,58.614,0,0,1,7.083-6.666l1.942-1.509,2.026-1.406c.668-.483,1.376-.9,2.079-1.336s1.393-.889,2.128-1.267a69.211,69.211,0,0,1,8.992-4.206,53.269,53.269,0,0,0-9.184,4.94M202.053-45.474c-.178-1.222-.405-2.389-.618-3.75-.19-1.139-.473-2.41-.725-3.961a6.608,6.608,0,0,0,.345-1.727c.2-1.983.215-4.876.374-6.3l-.191,1.428c-.267-.847-.565-1.455-.831-2.3a12.1,12.1,0,0,1-.367-1.5c-.124-.595-.245-1.306-.343-2.2-.4-3.583.957,1.79.827-.716a45.074,45.074,0,0,0-3.1-11.83c-.622-1.456-1.209-2.86-1.971-4.44l-2.547-5.628a51.094,51.094,0,0,0-12.353-19.6c-1.245-1.344-2.658-2.552-4.022-3.84-1.45-1.209-2.876-2.486-4.467-3.683a127.152,127.152,0,0,0-10.6-7.486,86.6,86.6,0,0,1,16.664,16.031c-.9-.938-1.9-1.78-2.836-2.666s-1.982-1.665-2.962-2.493c0,0,.006.008.008.013a69.4,69.4,0,0,0-14.871-10.926l.64.309,2.069.978c1.291.671,2.443,1.295,3.385,1.829a41.382,41.382,0,0,0-4.438-3.623c-.851-.623-1.717-1.246-2.582-1.783l-2.4-1.58c-2.97-1.827-4.5-3.107-.911-2.525a45.615,45.615,0,0,0-5.154-2.161c-1.436-.486-2.642-.774-3.758-1.043s-2.18-.388-3.326-.583c-.576-.085-1.172-.2-1.823-.283l-2.119-.286c-1.5-.462-3.642-.794-5.473-1.151-1.835-.332-3.378-.586-3.7-.952-5.771.007-5.265.051-13.943-.86-1.5-.011-2.967.112-4.272.209a29.675,29.675,0,0,0-3.266.414c-1.648.306-2.038.591-.032.719a132.341,132.341,0,0,1,16.445.224c3.836.978,1.9,1.3-.658,1.5-1.483.156-3.173.295-4.128.462-1.8-.078-3.62-.122-5.475-.122A109.763,109.763,0,0,0,82.89-129.6q2.983-1.152,6.059-2.118a94.7,94.7,0,0,0-11.114,3,30.568,30.568,0,0,0,3.046-2.58c.221-.333.108-.546-.636-.523a10.5,10.5,0,0,0-1.625.225,22.216,22.216,0,0,0-2.774.724c-.872.42-1.752.792-2.6,1.245L70.719-128.3c-1.644.95-3.283,1.861-4.84,2.9a81.135,81.135,0,0,0-8.94,6.615,100.47,100.47,0,0,0-8.107,7.684c-2.575,2.757-5.066,5.683-7.529,8.817A90.291,90.291,0,0,0,28.885-72.608c-.288,1.333-.617,2.661-.865,4.006s-.506,2.69-.73,4.05c-.187,1.374-.4,2.746-.557,4.129-.115,1.388-.276,2.775-.345,4.172a73.231,73.231,0,0,0,.963,16.884c.252-3.851,1.1,4.863.755-2.178.206.837.462,1.624.665,2.436.066.246.125.5.185.755A68.527,68.527,0,0,0,30.8-29.936c-.929-1.706-1.266-2.074-1.335-1.572a6.259,6.259,0,0,0,.129,1.4c.1.643.329,1.41.539,2.24.814,3.329,2.467,7.337,1.267,6.749.3.618.565,1.2.81,1.75s.468,1.071.71,1.546c.462.962.839,1.824,1.161,2.626.7,1.569,1.207,2.886,1.737,4.24.294.658.593,1.328.932,2.041a18.619,18.619,0,0,0,1.218,2.268c.5.8,1.079,1.668,1.776,2.638.748.925,1.623,1.942,2.657,3.077C43.882.175,44.375.3,44.231-.136a21.945,21.945,0,0,0-1.86-2.769,68.548,68.548,0,0,1-5.423-8.251c.344.442.726,1,1.127,1.608s.815,1.285,1.291,1.914L38.9-8.449c-.142-.278-.272-.562-.4-.839-.258-.557-.5-1.1-.717-1.631s-.43-1.027-.575-1.526-.27-.966-.368-1.4a6.573,6.573,0,0,1-.229-2.27A60.373,60.373,0,0,0,50.221.18a1.4,1.4,0,0,0-.208,1.188,4.41,4.41,0,0,0,1.852,2.077A4.841,4.841,0,0,0,52.8,4.52a12.422,12.422,0,0,0,1.681,1.333,43.785,43.785,0,0,0,4.745,2.833c.868.446,1.716.929,2.557,1.331s1.648.776,2.366,1.143a14.376,14.376,0,0,1,3.036,1.827q1.124.4,2.2.808c.719.277,1.449.485,2.153.736,1.416.472,2.763,1.018,4.107,1.41,1.337.418,2.618.873,3.869,1.254l3.639,1.017c1.164.347,2.3.546,3.39.764s2.129.385,3.125.5a19.219,19.219,0,0,0,5.4-.224c2.99.854,6.023,1.753,9.1,2.416a59.65,59.65,0,0,0,17.825-.917c2.31-.875-5.784-.642.438-2.012,1.131-.206,2.662-.44,4.184-.648a26.213,26.213,0,0,1,4.158-.381c.663.338-2.236,1.037-2.883,1.253,5.971-1.017,11.039-1.737,15.83-2.477a94.565,94.565,0,0,0,13.847-3.023l2.223-1.009,2.277-1.122c1.558-.723,3.1-1.606,4.679-2.434a83.083,83.083,0,0,0,9.046-5.785c1.434-1.008,2.735-2.132,4-3.185,1.247-1.07,2.361-2.193,3.411-3.22.991-1.1,1.908-2.115,2.676-3.088.739-1,1.365-1.921,1.852-2.734-.852.915-1.685,1.846-2.552,2.741l-2.69,2.586a16.685,16.685,0,0,0,3.073-3.717c.326-.675.182-.893.077-1.132s-.172-.5.3-1.234c.237-.366.607-.853,1.119-1.564.262-.351.57-.749.932-1.2s.79-.953,1.216-1.564c.687-.879,1.26-1.589,1.739-2.156.461-.579.8-1.035,1.093-1.359.575-.656.878-.838,1.054-.789.352.1.181,1.131.679,1.074a47.739,47.739,0,0,0,3.862-8.435c.25-.782.5-1.556.738-2.307s.506-1.469.677-2.174c.369-1.4.8-2.63,1.118-3.608-.263,1.449-.358,1.894-.229,1.813a5.757,5.757,0,0,0,.654-1.439c.482-1.472,1.018-3.362.763-1.982.143-.593.277-1.154.389-1.687.076-.538.149-1.046.217-1.528.124-.965.217-1.826.268-2.613a39,39,0,0,0-.167-4.081"/></clipPath><clipPath id="g"><rect class="b" width="234" height="236" transform="translate(-4 -173)"/></clipPath><clipPath id="h"><path class="b" d="M26,0H203V-137H26Z"/></clipPath><clipPath id="i"><path class="a" d="M17.346-172.815H208.222a21.268,21.268,0,0,1,21.268,21.268V40.924a21.268,21.268,0,0,1-21.268,21.268H17.346A21.268,21.268,0,0,1-3.922,40.924V-151.547A21.268,21.268,0,0,1,17.346-172.815Z"/></clipPath><clipPath id="k"><path class="a" d="M58.465-61.662,48.032-51.234l-3.291-3.29L55.173-64.951Zm-20.865,0L48.032-72.089l6.646,6.643L44.246-55.019ZM68.064-78.825,55.173-65.941l-7.141-7.137L36.609-61.662l7.141,7.137-9.99,9.986L46.672-31.633a.349.349,0,0,0,.247.1.348.348,0,0,0,.247-.1.349.349,0,0,0,0-.495L34.75-44.538l9.5-9.491,3.787,3.785L59.455-61.662l-3.787-3.785L68.559-78.33a.35.35,0,0,0,0-.495.351.351,0,0,0-.5,0Z"/></clipPath><clipPath id="m"><path class="a" d="M55.571-23.728a.35.35,0,0,0-.5,0,.35.35,0,0,0,0,.494L68.064-10.252a.346.346,0,0,0,.247.1.346.346,0,0,0,.247-.1.349.349,0,0,0,0-.495Z"/></clipPath><clipPath id="o"><path class="a" d="M137.324-103.525l-9.567-9.563,7.285-7.282,11.531,11.525L135.042-97.319l-11.531-11.526,3.751-3.748,9.567,9.563a.351.351,0,0,0,.248.1.35.35,0,0,0,.247-.1.349.349,0,0,0,0-.495Zm-2.282,7.2,12.521-12.515-12.521-12.514-7.781,7.776-15.588-15.58L101.508-119a.35.35,0,0,0,0,.495.351.351,0,0,0,.5,0l9.67-9.664,15.093,15.085-4.246,4.243Z"/></clipPath><clipPath id="q"><path class="a" d="M134.738-8.364l-7.32-7.315,7.32-7.315,7.319,7.315Zm-8.309-7.315,8.309,8.305,8.309-8.305-8.309-8.3Z"/></clipPath><clipPath id="s"><path class="a" d="M123.689,19.046H71.2a8.519,8.519,0,0,1-8.515-8.522v-116.67a8.519,8.519,0,0,1,8.515-8.522h52.488a8.518,8.518,0,0,1,8.515,8.522V10.523a8.519,8.519,0,0,1-8.515,8.522"/></clipPath><clipPath id="u"><path class="a" d="M123.122-111.265h-9.137a5.335,5.335,0,0,1-5.333,5.337H86.363a5.335,5.335,0,0,1-5.332-5.337H71.893a6.021,6.021,0,0,0-6.018,6.023V9.753a6.021,6.021,0,0,0,6.018,6.024h51.229a6.021,6.021,0,0,0,6.018-6.024V-105.242a6.021,6.021,0,0,0-6.018-6.023"/></clipPath><clipPath id="w"><path class="a" d="M196.48,11.282h0a10.213,10.213,0,0,1-14.355-1.669l-63.1-79.757L111.2-94.385c-.45-1.713.583-2.647,2.145-1.816l21.7,13.357,63.1,79.757a10.235,10.235,0,0,1-1.668,14.368"/></clipPath><clipPath id="y"><path class="a" d="M194.035-8.476l4.128,5.21a10.23,10.23,0,0,1-16.044,12.7h0L177.99,4.22s2.727.915,9.35-4.327c6.387-5.055,6.694-8.369,6.694-8.37ZM111.107-94.541c-.451-1.712.584-2.647,2.148-1.815h0l8.128,5a7.7,7.7,0,0,1-3.021,4.029c-2.06,1.63-3.492,1.945-4.3,1.943h0Z"/></clipPath><clipPath id="aa"><rect class="b" width="233" height="235" transform="translate(-2 -173)"/></clipPath><clipPath id="ab"><path class="a" d="M121.383-91.361l-8.128-5c-1.564-.831-2.6.1-2.148,1.815l2.958,9.152c.8,0,2.236-.313,4.3-1.943a7.7,7.7,0,0,0,3.021-4.029"/></clipPath><clipPath id="ac"><path class="b" d="M110,0h92V-98H110Z"/></clipPath><clipPath id="ad"><path class="a" d="M196.493,11.1a10.221,10.221,0,0,0,1.67-14.365l-4.128-5.21s-.307,3.315-6.694,8.37c-6.623,5.241-9.348,4.327-9.35,4.327l4.128,5.21A10.237,10.237,0,0,0,196.493,11.1"/></clipPath><clipPath id="af"><path class="a" d="M20.109-172.815h188.75a21.268,21.268,0,0,1,21.268,21.268V40.393A21.268,21.268,0,0,1,208.859,61.66H20.109A21.268,21.268,0,0,1-1.158,40.393v-191.94A21.268,21.268,0,0,1,20.109-172.815Z"/></clipPath><clipPath id="ah"><path class="a" d="M178.329-69.2s-5.647-8.628-9.738-12.409-8.111-4.643-12.006-3.771a6.911,6.911,0,0,0-1.4.48c.027-.146.056-.313.089-.5a43.424,43.424,0,0,0-7.524,3.308,46.119,46.119,0,0,0-7.442,5.655l6.062,7.623c-1.489,8.5-1.84,22.634-1.84,22.634s4.485.519,13.053.616,13.715-.278,13.715-.278-.338-3.455-.763-6.838c-.584-4.653-1.487-10.858-1.487-10.858s.609-.232,3.628-1.783a31.549,31.549,0,0,0,5.647-3.878"/></clipPath><clipPath id="aj"><rect class="b" width="233" height="238" transform="translate(-2 -175)"/></clipPath><clipPath id="ak"><path class="b" d="M140-45h39V-87H140Z"/></clipPath><clipPath id="al"><path class="a" d="M20.109-174.048H209.125a21.268,21.268,0,0,1,21.268,21.268V40.754a21.268,21.268,0,0,1-21.268,21.268H20.109A21.268,21.268,0,0,1-1.158,40.754V-152.781A21.268,21.268,0,0,1,20.109-174.048Z"/></clipPath><clipPath id="an"><path class="a" d="M169.809-21.015c-.245-5.754-.186-19.3-.15-24.766-2.033.1-6.342.269-12.351.2l-.664-.009h0c-5.985-.086-9.868-.376-11.483-.522-.156,5.2-.293,15.133.456,25.291C146.7-6.08,148.412,9.312,148.412,9.312a38.5,38.5,0,0,0,5.433.155,16.812,16.812,0,0,0,3.88-.62l.306-11.933c1.676,6.374,3.109,11.593,3.109,11.593s1.242.931,5.277.776S171.7,7.575,171.7,7.575s-1.576-21.3-1.886-28.59"/></clipPath><clipPath id="ap"><path class="a" d="M158.054-52.871a21.041,21.041,0,0,1,4.683-1.249h2.394l-.451,1.8-2.6.035s-4.336.832-4.024-.59"/></clipPath><clipPath id="ar"><path class="a" d="M177.108-68.006a34.262,34.262,0,0,1,4.378,6.887c1.635,3.626.5,4.835-.569,5.83s-5.477,3.2-10.171,4.906c-3.372,1.226-6.045,2.2-6.045,2.2a35.584,35.584,0,0,0-5.655,1.97c-.268.119-.8.1-.913-.108a1.078,1.078,0,0,1-.1-.612s-.358.051-.588-.432a.813.813,0,0,1,.111-.856.916.916,0,0,1-.3-.856,4.718,4.718,0,0,1,1.24-1.719,15.419,15.419,0,0,1,5.635-2.72s2.7-1.849,4.978-3.768a16.468,16.468,0,0,1,2.419-1.778l-2.288-4.382a34.547,34.547,0,0,0,7.867-4.567"/></clipPath><clipPath id="at"><path class="a" d="M163.575-96.2a2.057,2.057,0,0,0-1.988.662,5.308,5.308,0,0,0-.018-4.553c-1.188-2.3-6.189-4.145-8.188-1.795,0,0-2.025,4.876-.7,9.05,1,3.15,2.037,3.519,2.743,3.654a21.374,21.374,0,0,1-.153,2.154c-.078.6-.423,2.5-.423,2.5s-1.652,1.579,3.335,1.939c3.992.289,4.316-2.17,4.316-2.17a13.472,13.472,0,0,1-.5-3.421c.022-1.076.094-2.6.152-3.716a1.868,1.868,0,0,0,2.351-.952c.9-1.708.011-3.127-.922-3.351"/></clipPath><clipPath id="av"><path class="a" d="M86.945-76.918H77.917a2.2,2.2,0,0,1-2.2-2.2v-9.025a2.2,2.2,0,0,1,2.2-2.2h9.027a2.2,2.2,0,0,1,2.2,2.2v9.025a2.2,2.2,0,0,1-2.2,2.2"/></clipPath><clipPath id="ax"><path class="a" d="M86.945-51.842H77.917a2.2,2.2,0,0,1-2.2-2.2v-9.025a2.2,2.2,0,0,1,2.2-2.2h9.027a2.2,2.2,0,0,1,2.2,2.2v9.025a2.2,2.2,0,0,1-2.2,2.2"/></clipPath><clipPath id="az"><path class="a" d="M86.945-26.766H77.917a2.2,2.2,0,0,1-2.2-2.2V-38a2.2,2.2,0,0,1,2.2-2.2h9.027a2.2,2.2,0,0,1,2.2,2.2v9.026a2.2,2.2,0,0,1-2.2,2.2"/></clipPath><clipPath id="bb"><path class="a" d="M86.945-1.691H77.917a2.2,2.2,0,0,1-2.2-2.2V-12.92a2.2,2.2,0,0,1,2.2-2.2h9.027a2.2,2.2,0,0,1,2.2,2.2v9.026a2.2,2.2,0,0,1-2.2,2.2"/></clipPath><clipPath id="bd"><path class="a" d="M125.752-61.61s-.962.334-.03,2a12.393,12.393,0,0,0,.76,1.012,1,1,0,0,0,.2.96,2.076,2.076,0,0,0,1.068.724,1.225,1.225,0,0,0,.747,1.148c1.571.636,4.44-.89,5.169-1.6.327-.317.976-.775,1.05-1.378a.938.938,0,0,0-.223-.856,1.147,1.147,0,0,0,.055-1.118.717.717,0,0,0-.89-.312,1.361,1.361,0,0,0-.735-.49c-1.618-.22-3.4.8-4.864,1.045a2.29,2.29,0,0,1-2.3-1.144"/></clipPath><clipPath id="bf"><path class="a" d="M82.492-12.268a3.89,3.89,0,0,1,3.9,3.875,3.89,3.89,0,0,1-3.9,3.875,3.89,3.89,0,0,1-3.9-3.875A3.89,3.89,0,0,1,82.492-12.268Zm0-25.064a3.89,3.89,0,0,1,3.9,3.875,3.89,3.89,0,0,1-3.9,3.875,3.89,3.89,0,0,1-3.9-3.875A3.89,3.89,0,0,1,82.492-37.332Zm0-25.065a3.89,3.89,0,0,1,3.9,3.875,3.89,3.89,0,0,1-3.9,3.875,3.89,3.89,0,0,1-3.9-3.875A3.89,3.89,0,0,1,82.492-62.4Zm0-25.064a3.89,3.89,0,0,1,3.9,3.875,3.89,3.89,0,0,1-3.9,3.875,3.89,3.89,0,0,1-3.9-3.875A3.89,3.89,0,0,1,82.492-87.461Z"/></clipPath><clipPath id="bh"><rect class="b" width="230" height="230" transform="translate(-2 -173)"/></clipPath><clipPath id="bi"><path class="a" d="M86.4-83.586a3.89,3.89,0,0,1-3.9,3.875,3.89,3.89,0,0,1-3.9-3.875,3.89,3.89,0,0,1,3.9-3.875,3.89,3.89,0,0,1,3.9,3.875"/></clipPath><clipPath id="bj"><path class="b" d="M78-4h9V-88H78Z"/></clipPath><clipPath id="bk"><path class="a" d="M86.4-58.522a3.89,3.89,0,0,1-3.9,3.875,3.89,3.89,0,0,1-3.9-3.875,3.89,3.89,0,0,1,3.9-3.875,3.89,3.89,0,0,1,3.9,3.875"/></clipPath><clipPath id="bm"><path class="a" d="M86.4-33.458a3.89,3.89,0,0,1-3.9,3.875,3.89,3.89,0,0,1-3.9-3.875,3.89,3.89,0,0,1,3.9-3.875,3.89,3.89,0,0,1,3.9,3.875"/></clipPath><clipPath id="bo"><path class="a" d="M86.4-8.394a3.89,3.89,0,0,1-3.9,3.875,3.89,3.89,0,0,1-3.9-3.875,3.89,3.89,0,0,1,3.9-3.875,3.89,3.89,0,0,1,3.9,3.875"/></clipPath><clipPath id="bq"><path class="a" d="M20.109-172.815H206.732A21.268,21.268,0,0,1,228-151.547V35.342a21.268,21.268,0,0,1-21.268,21.268H20.109A21.268,21.268,0,0,1-1.158,35.342V-151.547A21.268,21.268,0,0,1,20.109-172.815Z"/></clipPath><clipPath id="bs"><path class="a" d="M101.321-114.97a.35.35,0,0,1,.351.35.35.35,0,0,1-.351.35H71.14a8.064,8.064,0,0,0-8.06,8.051h0v116.7a8.064,8.064,0,0,0,8.06,8.052h52.717a8.064,8.064,0,0,0,8.059-8.052h0V-53.4L130.4-55.313a4.724,4.724,0,0,1-.949.116,2.649,2.649,0,0,1-.994-.174,1.517,1.517,0,0,1-.947-1.216,2.453,2.453,0,0,1-1.016-.769,1.423,1.423,0,0,1-.3-1.088,9.782,9.782,0,0,1-.684-.926,2.315,2.315,0,0,1-.368-1.9,1.031,1.031,0,0,1,.246-.372h0l-6.678-8.426-.02-.06L113.9-84.946l-3.033-9.382a2.089,2.089,0,0,1,.467-2.269,1.962,1.962,0,0,1,2.176.039h0l8.354,5.132,10.054,6.178V-106.22a8.064,8.064,0,0,0-8.059-8.051h-5.372a.35.35,0,0,1-.35-.35.35.35,0,0,1,.35-.35h5.372a8.765,8.765,0,0,1,8.759,8.751h0v21.4l2.669,1.64.038.048,4.919,6.206a45.364,45.364,0,0,1,7.207-5.458,43.806,43.806,0,0,1,7.746-3.4c-.048.279-.1.555-.137.782a43.185,43.185,0,0,0-7.266,3.223,44.752,44.752,0,0,0-7.115,5.4h0l5.363,6.767c.16-.842.332-1.62.517-2.307a34.739,34.739,0,0,1,3.614-8.976.35.35,0,0,1,.481-.117.349.349,0,0,1,.117.48,34.087,34.087,0,0,0-3.537,8.794c-1.854,6.884-2.391,22.822-2.464,25.292h0l.17.017c1.377.133,5.643.487,12.5.565l.756.007a.593.593,0,0,1-.241-.226,1.26,1.26,0,0,1-.143-.5,1.1,1.1,0,0,1-.551-.564,1.129,1.129,0,0,1-.007-.967,1.3,1.3,0,0,1-.215-.948,4.941,4.941,0,0,1,1.353-1.929,8.218,8.218,0,0,1,.865-.669,1.986,1.986,0,0,1-1.2-.43.832.832,0,0,1-.213-.8.351.351,0,0,1,.219-.252,20.93,20.93,0,0,1,4.812-1.272h2.151c.989-.708,2.587-1.885,4-3.079.111-.093.2-.165.306-.25-.324-2.364-.62-4.442-.743-5.3a13.1,13.1,0,0,1-3.732.529,11.263,11.263,0,0,1-1.762-.123.351.351,0,0,1-.287-.285s-.082-.479-.278-2.044c-.191-1.532-1.54-11.058-1.553-11.154a.349.349,0,0,1,.3-.4.348.348,0,0,1,.4.3c.007.048.348,2.455.71,5.042l.126.9c.322,2.3.633,4.544.718,5.224.117.937.192,1.479.234,1.76a12.859,12.859,0,0,0,5.273-.539.164.164,0,0,1,.015-.009c.026-.01.659-.261,3.585-1.77a31.1,31.1,0,0,0,5.334-3.636c-.968-1.457-5.881-8.751-9.49-12.1a17.246,17.246,0,0,0-5.619-3.63c-.044-.171-.1-.415-.163-.709a.345.345,0,0,1,.248-.008,17.769,17.769,0,0,1,6.01,3.835,41.412,41.412,0,0,1,3.912,4.37l.414.524c2.882,3.681,5.4,7.535,5.443,7.593a.349.349,0,0,1-.061.452,31.485,31.485,0,0,1-5.706,3.931c-1.344.693-2.206,1.121-2.758,1.387-.249.107-.417.175-.482.2a.332.332,0,0,1-.023.032h0a.011.011,0,0,1-.008.01.339.339,0,0,1-.122.088c.1.72.388,2.7.706,5.02.56-.431.988-.724,1.242-.884h0l-1.2-2.321a.349.349,0,0,1,.151-.471.351.351,0,0,1,.471.151h0l1.346,2.612a.35.35,0,0,1-.144.467,16.511,16.511,0,0,0-2.363,1.739c-2.265,1.909-4.984,3.772-5.012,3.791a.351.351,0,0,1-.115.051,15.2,15.2,0,0,0-5.49,2.642,4.6,4.6,0,0,0-1.129,1.51.665.665,0,0,0,0,.157,7.15,7.15,0,0,1,4.009-2.362.348.348,0,0,1,.417.267.348.348,0,0,1-.266.416,6.248,6.248,0,0,0-3.9,2.506c0,.008-.014.011-.02.019a.205.205,0,0,1-.019.032.459.459,0,0,0-.057.475.42.42,0,0,0,.178.212,9.577,9.577,0,0,1,4.378-2.554.348.348,0,0,1,.425.253.349.349,0,0,1-.253.425,8.99,8.99,0,0,0-4.094,2.413c-.006.007-.014.009-.02.015a.605.605,0,0,0,.062.264,1.221,1.221,0,0,0,.462-.045,36.469,36.469,0,0,1,5.723-1.992s2.661-.976,6.013-2.193c4.779-1.736,9.061-3.9,10.063-4.835l.075-.07.15-.142c.9-.865,1.724-1.988.264-5.221a28.681,28.681,0,0,0-3.478-5.839.349.349,0,0,1,.047-.492.35.35,0,0,1,.493.048,28.722,28.722,0,0,1,3.576,6c1.65,3.657.635,5.034-.65,6.232-1.2,1.118-5.811,3.348-10.285,4.974.26,2.3.441,4.145.444,4.17a.351.351,0,0,1-.082.259.345.345,0,0,1-.242.124c-.045,0-4.124.294-10.933.294q-1.321,0-2.778-.016c-8.468-.1-13.014-.614-13.059-.619a.35.35,0,0,1-.309-.356c0-.159.364-14.058,1.815-22.554h0L135.213-82.142c-.432,1.27-1.872,4.1-6.634,7.863a.346.346,0,0,1-.217.075.348.348,0,0,1-.274-.132.349.349,0,0,1,.057-.492c5.281-4.177,6.323-7.141,6.515-7.913h0l-12.993-7.983a8.636,8.636,0,0,1-3,3.763,8.348,8.348,0,0,1-4.04,1.983h0l4.669,14.441c.432.049,1.74.049,4.1-1.148a.35.35,0,0,1,.471.154.349.349,0,0,1-.154.47,9.9,9.9,0,0,1-3.922,1.23h0l6.932,8.746a1.738,1.738,0,0,0,1.375.339,11.513,11.513,0,0,0,1.637-.461,7.613,7.613,0,0,1,3.336-.587,1.508,1.508,0,0,1,.812.451.992.992,0,0,1,1.084.547,1.494,1.494,0,0,1,.04,1.233,1.454,1.454,0,0,1,.159.935,2.44,2.44,0,0,1-.961,1.412c-.072.063-.137.122-.194.176a8.73,8.73,0,0,1-2.867,1.533h0L144.8-38.271c0-2.149.032-4.115.071-5.816a.346.346,0,0,1,.358-.342.35.35,0,0,1,.342.357c-.13,5.732-.148,14.427.507,23.3q.087,1.176.178,2.357l.074.943c.958,12.1,2.228,23.944,2.493,26.379l.019.171a37.935,37.935,0,0,0,5.1.127,18.349,18.349,0,0,0,3.564-.536h0l.18-7.013a.35.35,0,0,1,.7.017h0L158.2,8.947a.351.351,0,0,1-.239.323,12.123,12.123,0,0,1-1.569.361h0v2.5a.568.568,0,0,1,.065-.023c.607-.085,1.255.51,1.818,1.639a8.577,8.577,0,0,0,2.061-1.377,3.474,3.474,0,0,1,2.761-1.058,2.356,2.356,0,0,1,.444.081h0l-.229-1.807a5.394,5.394,0,0,1-2.254-.7.353.353,0,0,1-.128-.188c-.037-.136-2.7-9.854-5.009-18.923l-.2-.775c-.848-3.351-1.634-6.573-2.2-9.14-1.359-6.108-2.844-15.371-3.85-22.066a.351.351,0,0,1,.294-.4.354.354,0,0,1,.4.294c1.005,6.684,2.487,15.93,3.842,22.018.637,2.865,1.542,6.546,2.5,10.314l.214.838q.161.629.323,1.259l.216.838h0l.216.834c1.837,7.071,3.615,13.577,3.892,14.588.345.184,1.733.783,4.968.653s4.6-1.172,4.936-1.488c-.077-1.049-.526-7.164-.971-13.674l-.059-.87c-.365-5.375-.717-10.877-.847-13.911-.137-3.225-.179-8.9-.183-14.255v-1.909c0-2.514.012-4.878.022-6.785a.35.35,0,0,1,.35-.348h0a.349.349,0,0,1,.35.351c-.007,1.35-.013,2.936-.018,4.636h0L194.316-8.7l4.124,5.2a10.5,10.5,0,0,1,2.277,6.763,10.542,10.542,0,0,1-4,8.075q-.361.284-.74.535c-.026.017-.054.032-.081.049a10.47,10.47,0,0,1-5.722,1.7,10.57,10.57,0,0,1-3.444-.574l-.066-.025a10.376,10.376,0,0,1-.974-.395c-.063-.029-.123-.061-.185-.091q-.41-.2-.8-.435c-.084-.05-.166-.1-.248-.154-.234-.15-.46-.309-.682-.477-.092-.07-.184-.138-.274-.211-.21-.171-.412-.354-.611-.542-.084-.08-.171-.155-.253-.238a10.673,10.673,0,0,1-.739-.829h0l-.032-.035L171.378-3.611c.42,6.037.8,11.148.806,11.252a.351.351,0,0,1-.076.244,4.814,4.814,0,0,1-2.12,1.252h0v2.99a.552.552,0,0,1,.064-.023c.727-.1,1.524.763,2.153,2.382.448,1.152.653,3.534.016,4.464a.862.862,0,0,1-.728.415H138.859l-.023-.325c-.007-.1-.152-2.487,1.515-3.276.288-.137.668-.305,1.1-.5,1.753-.78,4.4-1.957,5.286-2.9a3.484,3.484,0,0,1,2.764-1.058,2.379,2.379,0,0,1,.443.08h0l-.194-1.532c-.726-.049-1.213-.1-1.261-.1a.35.35,0,0,1-.311-.31l0-.027-.007-.063c-.114-1.039-1.174-10.747-2.122-21.773l-.074-.862q-.037-.432-.073-.866l-.072-.87h0l-.072-.873-.035-.437-.07-.876h0l-.069-.877q-.034-.439-.068-.878l-.067-.877q-.033-.438-.065-.876c-.429-5.815-.569-11.547-.579-16.428h0L132.616-52.517v63a8.764,8.764,0,0,1-8.759,8.751H71.14a8.765,8.765,0,0,1-8.759-8.751h0v-116.7a8.765,8.765,0,0,1,8.759-8.751h30.181ZM162.971,12a2.743,2.743,0,0,0-2.124.844c-.982,1.047-3.71,2.26-5.516,3.062-.427.19-.8.357-1.086.492a2.576,2.576,0,0,0-1.114,2.27h18.362c.022,0,.074,0,.15-.111.407-.6.359-2.663-.09-3.815-.543-1.4-1.13-1.987-1.4-1.943.031,0-.012.1-.045.176-.229.531-.656,1.518-2.984,1.756-2.718.282-3.172-1.4-3.388-2.206a2.066,2.066,0,0,0-.109-.342A1.091,1.091,0,0,0,162.971,12Zm-13.6,0a2.746,2.746,0,0,0-2.123.844c-.982,1.047-3.709,2.259-5.513,3.061-.427.191-.8.357-1.087.492a2.563,2.563,0,0,0-1.115,2.27h12.9a3.229,3.229,0,0,1,1.517-2.9c.288-.136.667-.3,1.1-.5.772-.343,1.717-.764,2.609-1.207-.443-.9-.868-1.3-1.1-1.263.032,0-.012.1-.044.175-.23.531-.657,1.518-2.985,1.757-2.719.28-3.172-1.4-3.388-2.206a2,2,0,0,0-.109-.342A1.088,1.088,0,0,0,149.374,12ZM129.139-46.968a.349.349,0,0,1,.35.35h0V9.54a6.374,6.374,0,0,1-6.37,6.364H92.461a.35.35,0,1,1,0-.7h30.658a5.674,5.674,0,0,0,5.67-5.664h0V-46.619A.35.35,0,0,1,129.139-46.968ZM65.857-78.174a.35.35,0,0,1,.35.35h0V9.54A5.673,5.673,0,0,0,71.877,15.2h5.1a.35.35,0,1,1,0,.7h-5.1a6.375,6.375,0,0,1-6.37-6.364h0V-77.825A.35.35,0,0,1,65.857-78.174ZM155.691,9.739c-.494.068-1.062.128-1.7.169-.51.032-1.037.044-1.555.044-.7,0-1.376-.023-1.97-.054h0l.276,2.185c.026.079.05.162.075.259.217.806.513,1.9,2.64,1.692,1.471-.151,1.986-.589,2.237-.99h0Zm13.6-.392a12.771,12.771,0,0,1-2.723.376c-.313.012-.61.017-.891.017-.622,0-1.166-.028-1.644-.072h0l.3,2.414c.025.079.05.162.075.259.216.806.511,1.9,2.641,1.692,1.471-.151,1.987-.589,2.238-.99h0Zm.827-47.455c0,.554,0,1.117,0,1.686v1.146c0,5.377.044,11.091.183,14.326.107,2.507.366,6.7.659,11.121l.074,1.108.037.556.075,1.112c.05.741.1,1.479.151,2.208h0l6.916,8.726a6.193,6.193,0,0,0,3.222-.692.35.35,0,1,1,.274.643,8.744,8.744,0,0,1-2.924.769h0l3.63,4.581A9.9,9.9,0,0,0,194.6,11.867c.161-.081.317-.179.475-.27.128-.074.26-.139.385-.219a9.871,9.871,0,0,0,2.433-14.44h0L194.176-7.75a17.18,17.18,0,0,1-4.558,6.126.349.349,0,0,1-.494-.017.348.348,0,0,1,.017-.494c3.439-3.21,4.334-5.646,4.518-6.269h0ZM187.137-.4a.349.349,0,0,1,.492.056.348.348,0,0,1-.056.491c-.748.594-1.491,1.14-2.2,1.624a.35.35,0,1,1-.394-.578C185.673.72,186.4.184,187.137-.4ZM86.191-15.391a3.363,3.363,0,0,1,3.361,3.358h0v7.421a3.363,3.363,0,0,1-3.361,3.358H78.763A3.363,3.363,0,0,1,75.4-4.612h0v-7.421a3.363,3.363,0,0,1,3.361-3.358h7.428Zm0,.7H78.763A2.663,2.663,0,0,0,76.1-12.033h0v7.421a2.663,2.663,0,0,0,2.661,2.659h7.428a2.663,2.663,0,0,0,2.661-2.659h0v-7.421a2.663,2.663,0,0,0-2.661-2.658Zm31.829,6.357a.35.35,0,0,1,.35.35.35.35,0,0,1-.35.35h-9.937a.35.35,0,0,1-.35-.35.35.35,0,0,1,.35-.35h9.937Zm-12.7,0a.349.349,0,0,1,.349.35.349.349,0,0,1-.349.35H94.242a.35.35,0,0,1-.35-.35.35.35,0,0,1,.35-.35h11.08Zm12.7-5.462a.35.35,0,0,1,.35.35.35.35,0,0,1-.35.35H94.242a.35.35,0,0,1-.35-.35.35.35,0,0,1,.35-.35h23.776ZM86.191-40.476a3.363,3.363,0,0,1,3.361,3.357h0V-29.7a3.362,3.362,0,0,1-3.361,3.358H78.763A3.363,3.363,0,0,1,75.4-29.7h0v-7.421a3.363,3.363,0,0,1,3.361-3.357h7.428Zm0,.7H78.763A2.663,2.663,0,0,0,76.1-37.119h0V-29.7a2.663,2.663,0,0,0,2.661,2.659h7.428A2.663,2.663,0,0,0,88.852-29.7h0v-7.421a2.663,2.663,0,0,0-2.661-2.658Zm31.7,6.357a.35.35,0,0,1,.35.35.35.35,0,0,1-.35.35H94.242a.35.35,0,0,1-.35-.35.35.35,0,0,1,.35-.35h23.651Zm.125-5.462a.35.35,0,0,1,.35.35.35.35,0,0,1-.35.35H94.242a.349.349,0,0,1-.349-.35.349.349,0,0,1,.349-.35h23.776Zm52.325-10.864c-3.056,1.112-5.39,1.965-5.39,1.965l-.039.01-.092.023a36.444,36.444,0,0,0-5.443,1.9c6.1.021,10.166-.194,11.352-.267C170.668-46.739,170.527-48.12,170.344-49.746ZM86.191-65.562A3.363,3.363,0,0,1,89.552-62.2h0v7.421a3.363,3.363,0,0,1-3.361,3.358H78.763A3.363,3.363,0,0,1,75.4-54.783h0V-62.2a3.363,3.363,0,0,1,3.361-3.358h7.428Zm0,.7H78.763A2.663,2.663,0,0,0,76.1-62.2h0v7.421a2.663,2.663,0,0,0,2.661,2.659h7.428a2.663,2.663,0,0,0,2.661-2.659h0V-62.2a2.662,2.662,0,0,0-2.661-2.658ZM163.877-53.7h-1.01a18.77,18.77,0,0,0-4.314,1.134,3.175,3.175,0,0,0,1.856.226,18.5,18.5,0,0,1,3.468-1.36Zm-29.41-5.28a11.259,11.259,0,0,1-6.216,2.484.8.8,0,0,0,.469.48c1.368.552,4.07-.819,4.8-1.524.062-.06.136-.126.215-.2.306-.272.688-.61.732-.973A1.052,1.052,0,0,0,134.467-58.983Zm-.137-1.511a.34.34,0,0,0-.43-.14,15.436,15.436,0,0,1-7.021,2.386.731.731,0,0,0,.171.468,1.762,1.762,0,0,0,.846.589h.127a10.645,10.645,0,0,0,6.3-2.57A.783.783,0,0,0,134.33-60.494Zm-24.46,1.989a.35.35,0,0,1,.35.35.35.35,0,0,1-.35.35H94.242a.35.35,0,0,1-.35-.35.35.35,0,0,1,.35-.35H109.87Zm23.1-2.6a7.106,7.106,0,0,0-3.021.557,11.789,11.789,0,0,1-1.744.487,2.569,2.569,0,0,1-2.416-.95.007.007,0,0,0,0,0c-.056.162-.086.545.33,1.292a8.863,8.863,0,0,0,.575.775c.005,0,.009,0,.013,0a15.113,15.113,0,0,0,6.473-2.071A.528.528,0,0,0,132.972-61.1Zm-17.054-2.867a.35.35,0,0,1,.35.35.35.35,0,0,1-.35.35H94.242a.35.35,0,0,1-.35-.35.35.35,0,0,1,.35-.35h21.676ZM86.191-90.648a3.363,3.363,0,0,1,3.361,3.358h0v7.421a3.362,3.362,0,0,1-3.361,3.357H78.763A3.363,3.363,0,0,1,75.4-79.868h0v-7.421a3.364,3.364,0,0,1,3.361-3.358h7.428Zm0,.7H78.763A2.663,2.663,0,0,0,76.1-87.289h0v7.421a2.663,2.663,0,0,0,2.661,2.658h7.428a2.663,2.663,0,0,0,2.661-2.658h0v-7.421a2.663,2.663,0,0,0-2.661-2.659Zm68.4,5.542a.351.351,0,0,1,.459.18c.031.067.719,1.53,3.7,1.368a5.882,5.882,0,0,0,3.57-1.126.351.351,0,0,1,.494.011.348.348,0,0,1-.008.492h0l-.027.025c-.022.019-.056.049-.1.086l-.112.084a7.092,7.092,0,0,1-3.778,1.127c-.163.009-.321.013-.473.013-3.1,0-3.875-1.724-3.908-1.8A.349.349,0,0,1,154.6-84.406Zm-45.727.816a.349.349,0,0,1,.35.35.349.349,0,0,1-.35.35H94.242a.349.349,0,0,1-.349-.35.349.349,0,0,1,.349-.35h14.626Zm47.436-20.9a5.6,5.6,0,0,1,4.525-.928c3.4.673,4.519,1.845,5.716,5.66a68.319,68.319,0,0,0,3.583,9.529c1.237,2.292,1.237,2.692.118,3.371a11.021,11.021,0,0,1-5.586,1.251c-4.019-.155-4.291-.861-4.112-2.623a8.046,8.046,0,0,1,1.273-3.686.339.339,0,0,1,.022-.1.351.351,0,0,1,.459-.181,1.532,1.532,0,0,0,2.017-.755A2.264,2.264,0,0,0,164.488-95a1.383,1.383,0,0,0-.865-.8,1.6,1.6,0,0,0-1.329.272,3.206,3.206,0,0,1-.372.339c-1.091.844-1.7-1.393-3.438-3.821a39.022,39.022,0,0,0-2.549-3.2,5.868,5.868,0,0,0-1.384,1.471,27.827,27.827,0,0,0-1.62,2.325c-.017.1-.031.2-.047.3a1.887,1.887,0,0,1,1.164-.094.35.35,0,0,1,.244.431.349.349,0,0,1-.429.244,1.073,1.073,0,0,0-.826.134.349.349,0,0,1-.209.069c-.015,0-.029-.008-.044-.01a11.069,11.069,0,0,0,.346,4.456c1,3.16,1.969,3.33,2.609,3.442a5,5,0,0,0,4.179-1.765.352.352,0,0,1,.5-.009.35.35,0,0,1,.008.495,5.986,5.986,0,0,1-4.188,2.021,3.409,3.409,0,0,1-.453-.038h0l-.231,1.211a1.566,1.566,0,0,1-1.429,1.424c-.551.055-5.336-.057-6.46-.943-.584-.461-.191-1.471.826-3.654a46.916,46.916,0,0,0,3.817-9.81c.554-2.06,1.016-3.013,2.431-3.751a2.072,2.072,0,0,1,1.447-.123l.045-.039ZM112.318-96.2a1.039,1.039,0,0,0-.19.015.844.844,0,0,0-.11.015.715.715,0,0,0-.251.123,1.461,1.461,0,0,0-.23,1.524h0l2.868,8.87a7.418,7.418,0,0,0,3.823-1.855,7.8,7.8,0,0,0,2.828-3.59h0l-7.9-4.851a2.482,2.482,0,0,0-.442-.183c-.043-.013-.081-.015-.122-.025A1.482,1.482,0,0,0,112.318-96.2Zm-4.809,7.148a.35.35,0,0,1,.35.35.35.35,0,0,1-.35.35H94.242a.35.35,0,0,1-.35-.35.35.35,0,0,1,.35-.35h13.267Zm50.252-3.917a.35.35,0,0,1,.479-.122.348.348,0,0,1,.125.476,2.5,2.5,0,0,1-2.129,1.148,3.084,3.084,0,0,1-.839-.121.35.35,0,0,1-.242-.432.349.349,0,0,1,.432-.242A1.855,1.855,0,0,0,157.761-92.971Zm5.851-1.965a.349.349,0,0,1,.417.262,1.67,1.67,0,0,1-.429,1.519,1.327,1.327,0,0,1-.909.319,2.038,2.038,0,0,1-.607-.094.35.35,0,0,1-.217-.445.351.351,0,0,1,.444-.217c.011,0,.545.169.819-.082a.98.98,0,0,0,.216-.846A.35.35,0,0,1,163.612-94.936Zm-8.562-.777a.352.352,0,0,1,.457-.191.35.35,0,0,1,.191.456c-.009.021-.216.526-.451.95h0l-.088.154a2.739,2.739,0,0,0-.138.26,1.293,1.293,0,0,0,.567,0,.352.352,0,0,1,.413.272.35.35,0,0,1-.271.413,2.377,2.377,0,0,1-.466.048,1.318,1.318,0,0,1-.578-.114.66.66,0,0,1-.359-.4,1.086,1.086,0,0,1,.226-.835h0l.082-.142C154.849-95.224,155.048-95.708,155.05-95.713ZM81.366-111.639v.35a4.988,4.988,0,0,0,4.984,4.979h22.3a4.987,4.987,0,0,0,4.984-4.979h0v-.35h9.489a6.374,6.374,0,0,1,6.37,6.364h0v9.911a.35.35,0,0,1-.35.35.35.35,0,0,1-.349-.35h0v-9.911a5.674,5.674,0,0,0-5.67-5.664h-8.8a5.688,5.688,0,0,1-5.673,5.329h-22.3a5.689,5.689,0,0,1-5.673-5.329h-8.8a5.673,5.673,0,0,0-5.67,5.664h0v6.495a.35.35,0,0,1-.35.35.35.35,0,0,1-.35-.35h0v-6.495a6.374,6.374,0,0,1,6.37-6.364h9.489ZM157.4-96.676h.083a.54.54,0,0,1,.376.65c-.043.326-.281.563-.532.53a.54.54,0,0,1-.376-.649c.043-.326.281-.563.532-.531Zm-3.557-.1.075,0c.225.035.367.328.315.652s-.275.559-.5.524-.367-.328-.316-.652.276-.559.5-.524Zm3.11-1.58a2.062,2.062,0,0,1,1.533.11.35.35,0,0,1,.125.479.35.35,0,0,1-.3.173.348.348,0,0,1-.173-.046h0l-.039-.018a1.492,1.492,0,0,0-.962-.022.351.351,0,0,1-.428-.247A.35.35,0,0,1,156.952-98.352ZM109.935-114.97a.35.35,0,0,1,.35.35.35.35,0,0,1-.35.35h-3.356a.35.35,0,0,1-.35-.35.35.35,0,0,1,.35-.35h3.356Z"/></clipPath><clipPath id="bu"><rect class="b" width="240" height="238" transform="translate(-6 -176)"/></clipPath><clipPath id="bv"><path class="a" d="M106.579-114.271h3.356a.35.35,0,0,0,.35-.35.35.35,0,0,0-.35-.35h-3.356a.35.35,0,0,0-.35.35.35.35,0,0,0,.35.35"/></clipPath><clipPath id="bw"><path class="b" d="M62,0H201V-115H62Z"/></clipPath><clipPath id="bx"><path class="a" d="M86.351-106.31a4.988,4.988,0,0,1-4.984-4.979v-.35H71.877a6.374,6.374,0,0,0-6.37,6.364v6.495a.35.35,0,0,0,.35.35.35.35,0,0,0,.35-.35v-6.495a5.673,5.673,0,0,1,5.67-5.664h8.8a5.689,5.689,0,0,0,5.673,5.329h22.3a5.688,5.688,0,0,0,5.673-5.329h8.8a5.674,5.674,0,0,1,5.67,5.664v9.911a.35.35,0,0,0,.349.35.35.35,0,0,0,.35-.35v-9.911a6.374,6.374,0,0,0-6.37-6.364H113.63v.35a4.987,4.987,0,0,1-4.984,4.979Z"/></clipPath><clipPath id="bz"><path class="a" d="M92.111,15.554a.35.35,0,0,0,.35.35h30.658a6.374,6.374,0,0,0,6.37-6.364V-46.619a.349.349,0,0,0-.35-.35.35.35,0,0,0-.35.35V9.54a5.674,5.674,0,0,1-5.67,5.664H92.461a.35.35,0,0,0-.35.35"/></clipPath><clipPath id="cb"><path class="a" d="M65.857-78.174a.35.35,0,0,0-.35.35V9.54a6.375,6.375,0,0,0,6.37,6.364h5.1a.35.35,0,1,0,0-.7h-5.1A5.673,5.673,0,0,1,66.208,9.54V-77.825a.35.35,0,0,0-.35-.35"/></clipPath><clipPath id="cd"><path class="a" d="M88.852-79.868a2.663,2.663,0,0,1-2.661,2.658H78.763A2.663,2.663,0,0,1,76.1-79.868v-7.421a2.663,2.663,0,0,1,2.661-2.659h7.428a2.663,2.663,0,0,1,2.661,2.659Zm.7-7.421a3.363,3.363,0,0,0-3.361-3.358H78.763A3.364,3.364,0,0,0,75.4-87.289v7.421a3.363,3.363,0,0,0,3.361,3.357h7.428a3.362,3.362,0,0,0,3.361-3.357Z"/></clipPath><clipPath id="cf"><path class="a" d="M94.242-88.354h13.267a.35.35,0,0,0,.35-.35.35.35,0,0,0-.35-.35H94.242a.35.35,0,0,0-.35.35.35.35,0,0,0,.35.35"/></clipPath><clipPath id="ch"><path class="a" d="M108.868-83.591H94.242a.349.349,0,0,0-.349.35.349.349,0,0,0,.349.35h14.626a.349.349,0,0,0,.35-.35.349.349,0,0,0-.35-.35"/></clipPath><clipPath id="cj"><path class="a" d="M88.852-54.783a2.663,2.663,0,0,1-2.661,2.659H78.763A2.663,2.663,0,0,1,76.1-54.783V-62.2a2.663,2.663,0,0,1,2.661-2.658h7.428A2.662,2.662,0,0,1,88.852-62.2Zm.7-7.421a3.363,3.363,0,0,0-3.361-3.358H78.763A3.363,3.363,0,0,0,75.4-62.2v7.421a3.363,3.363,0,0,0,3.361,3.358h7.428a3.363,3.363,0,0,0,3.361-3.358Z"/></clipPath><clipPath id="cl"><path class="a" d="M115.918-63.968H94.242a.35.35,0,0,0-.35.35.35.35,0,0,0,.35.35h21.676a.35.35,0,0,0,.35-.35.35.35,0,0,0-.35-.35"/></clipPath><clipPath id="cn"><path class="a" d="M94.242-57.806H109.87a.35.35,0,0,0,.35-.35.35.35,0,0,0-.35-.35H94.242a.35.35,0,0,0-.35.35.35.35,0,0,0,.35.35"/></clipPath><clipPath id="cp"><path class="a" d="M88.852-29.7a2.663,2.663,0,0,1-2.661,2.659H78.763A2.663,2.663,0,0,1,76.1-29.7v-7.421a2.663,2.663,0,0,1,2.661-2.658h7.428a2.663,2.663,0,0,1,2.661,2.658Zm.7-7.421a3.363,3.363,0,0,0-3.361-3.357H78.763A3.363,3.363,0,0,0,75.4-37.119V-29.7a3.363,3.363,0,0,0,3.361,3.358h7.428A3.362,3.362,0,0,0,89.552-29.7Z"/></clipPath><clipPath id="cr"><path class="a" d="M118.019-38.882H94.242a.349.349,0,0,0-.349.35.349.349,0,0,0,.349.35h23.776a.35.35,0,0,0,.35-.35.35.35,0,0,0-.35-.35"/></clipPath><clipPath id="ct"><path class="a" d="M94.242-32.72h23.651a.35.35,0,0,0,.35-.35.35.35,0,0,0-.35-.35H94.242a.35.35,0,0,0-.35.35.35.35,0,0,0,.35.35"/></clipPath><clipPath id="cv"><path class="a" d="M76.1-4.612v-7.421a2.663,2.663,0,0,1,2.661-2.658h7.428a2.663,2.663,0,0,1,2.661,2.658v7.421a2.663,2.663,0,0,1-2.661,2.659H78.763A2.663,2.663,0,0,1,76.1-4.612ZM86.191-1.254a3.363,3.363,0,0,0,3.361-3.358v-7.421a3.363,3.363,0,0,0-3.361-3.358H78.763A3.363,3.363,0,0,0,75.4-12.033v7.421a3.363,3.363,0,0,0,3.361,3.358Z"/></clipPath><clipPath id="cx"><path class="a" d="M94.242-13.1h23.776a.35.35,0,0,0,.35-.35.35.35,0,0,0-.35-.35H94.242a.35.35,0,0,0-.35.35.35.35,0,0,0,.35.35"/></clipPath><clipPath id="cz"><path class="a" d="M94.242-7.635h11.08a.349.349,0,0,0,.349-.35.349.349,0,0,0-.349-.35H94.242a.35.35,0,0,0-.35.35.35.35,0,0,0,.35.35"/></clipPath><clipPath id="db"><path class="a" d="M118.021-8.334h-9.937a.35.35,0,0,0-.35.35.35.35,0,0,0,.35.35h9.937a.35.35,0,0,0,.35-.35.35.35,0,0,0-.35-.35"/></clipPath><clipPath id="dd"><path class="a" d="M157.858-96.025a.54.54,0,0,0-.376-.65c-.251-.033-.489.2-.532.531a.54.54,0,0,0,.376.649c.25.033.488-.2.532-.53"/></clipPath><clipPath id="df"><path class="a" d="M153.917-96.77c-.225-.035-.45.2-.5.524s.09.617.316.652.45-.2.5-.524-.09-.617-.315-.652"/></clipPath><clipPath id="dh"><path class="a" d="M155.247-94.5c.235-.424.442-.929.451-.95a.35.35,0,0,0-.191-.456.352.352,0,0,0-.457.191s-.2.488-.415.876l-.082.142a1.086,1.086,0,0,0-.226.835.66.66,0,0,0,.359.4,1.318,1.318,0,0,0,.578.114,2.377,2.377,0,0,0,.466-.048.35.35,0,0,0,.271-.413.352.352,0,0,0-.413-.272,1.293,1.293,0,0,1-.567,0,2.739,2.739,0,0,1,.138-.26Z"/></clipPath><clipPath id="dj"><path class="a" d="M158.485-98.243a2.062,2.062,0,0,0-1.533-.11.35.35,0,0,0-.247.429.351.351,0,0,0,.428.247,1.419,1.419,0,0,1,1,.04.348.348,0,0,0,.173.046.35.35,0,0,0,.3-.173.35.35,0,0,0-.125-.479"/></clipPath><clipPath id="dl"><path class="a" d="M155.4-91.59a3.084,3.084,0,0,0,.839.121,2.5,2.5,0,0,0,2.129-1.148.348.348,0,0,0-.125-.476.35.35,0,0,0-.479.122,1.855,1.855,0,0,1-2.174.707.349.349,0,0,0-.432.242.35.35,0,0,0,.242.432"/></clipPath><clipPath id="dn"><path class="a" d="M154.119-86.1a1.566,1.566,0,0,0,1.429-1.424l.231-1.211a3.409,3.409,0,0,0,.453.038,5.986,5.986,0,0,0,4.188-2.021.35.35,0,0,0-.008-.495.352.352,0,0,0-.5.009,5,5,0,0,1-4.179,1.765c-.64-.112-1.608-.282-2.609-3.442a11.069,11.069,0,0,1-.346-4.456c.015,0,.029.01.044.01a.349.349,0,0,0,.209-.069,1.073,1.073,0,0,1,.826-.134.349.349,0,0,0,.429-.244.35.35,0,0,0-.244-.431,1.887,1.887,0,0,0-1.164.094c.016-.1.029-.2.047-.3a27.827,27.827,0,0,1,1.62-2.325,5.868,5.868,0,0,1,1.384-1.471,39.022,39.022,0,0,1,2.549,3.2c1.737,2.427,2.347,4.664,3.438,3.821a3.206,3.206,0,0,0,.372-.339,1.6,1.6,0,0,1,1.329-.272,1.383,1.383,0,0,1,.865.8,2.264,2.264,0,0,1-.168,2.046,1.532,1.532,0,0,1-2.017.755.351.351,0,0,0-.459.181.339.339,0,0,0-.022.1,8.046,8.046,0,0,0-1.273,3.686c-.179,1.762.093,2.467,4.112,2.623a11.021,11.021,0,0,0,5.586-1.251c1.12-.678,1.12-1.079-.118-3.371a68.319,68.319,0,0,1-3.583-9.529c-1.2-3.815-2.314-4.987-5.716-5.66a5.491,5.491,0,0,0-4.65,1.031,2.072,2.072,0,0,0-1.447.123c-1.416.738-1.878,1.691-2.431,3.751a46.916,46.916,0,0,1-3.817,9.81c-1.016,2.183-1.41,3.193-.826,3.654,1.124.886,5.909,1,6.46.943"/></clipPath><clipPath id="dp"><path class="a" d="M162.311-93.592a.351.351,0,0,0-.444.217.35.35,0,0,0,.217.445,2.038,2.038,0,0,0,.607.094,1.327,1.327,0,0,0,.909-.319,1.67,1.67,0,0,0,.429-1.519.349.349,0,0,0-.417-.262.35.35,0,0,0-.266.416.98.98,0,0,1-.216.846c-.274.251-.809.086-.819.082"/></clipPath><clipPath id="dr"><path class="a" d="M187.137-.4C186.4.184,185.673.72,184.973,1.2a.35.35,0,1,0,.394.578c.713-.484,1.456-1.03,2.2-1.624a.348.348,0,0,0,.056-.491.349.349,0,0,0-.492-.056"/></clipPath><clipPath id="dt"><path class="a" d="M155.054-84.226a.351.351,0,0,0-.459-.18.349.349,0,0,0-.183.459c.033.077.81,1.8,3.908,1.8.152,0,.31,0,.473-.013a6.387,6.387,0,0,0,4.019-1.321.348.348,0,0,0,.008-.492.351.351,0,0,0-.494-.011,5.882,5.882,0,0,1-3.57,1.126c-2.983.162-3.671-1.3-3.7-1.368"/></clipPath><clipPath id="dv"><path class="a" d="M196.28,10.793a9.893,9.893,0,0,1-.822.585c-.126.08-.257.146-.385.219-.158.091-.314.189-.475.27a9.9,9.9,0,0,1-12.186-2.685L178.782,4.6a8.744,8.744,0,0,0,2.924-.769.35.35,0,1,0-.274-.643,6.193,6.193,0,0,1-3.222.692l-6.916-8.726c-.416-6.015-.85-12.657-1-16.1-.163-3.812-.191-11.069-.181-17.158L193.659-8.4c-.184.623-1.079,3.059-4.518,6.269a.348.348,0,0,0-.017.494.349.349,0,0,0,.494.017,17.18,17.18,0,0,0,4.558-6.126l3.716,4.687A9.8,9.8,0,0,1,199.634.331a9.872,9.872,0,0,1-3.354,10.462Zm-26.174,2.179c.033-.074.076-.176.045-.176.272-.044.859.546,1.4,1.943.449,1.152.5,3.22.09,3.815-.076.111-.128.111-.15.111H153.131a2.576,2.576,0,0,1,1.114-2.27c.285-.135.659-.3,1.086-.492,1.805-.8,4.533-2.015,5.516-3.062A2.743,2.743,0,0,1,162.971,12a1.091,1.091,0,0,1,.654.181,2.066,2.066,0,0,1,.109.342c.217.807.671,2.488,3.388,2.206,2.328-.238,2.756-1.225,2.984-1.756ZM152.43,18.666h-12.9a2.563,2.563,0,0,1,1.115-2.27c.285-.135.66-.3,1.087-.492,1.8-.8,4.531-2.015,5.513-3.061A2.746,2.746,0,0,1,149.374,12a1.088,1.088,0,0,1,.655.181,2,2,0,0,1,.109.342c.216.807.669,2.486,3.388,2.206,2.328-.238,2.755-1.226,2.985-1.757.032-.074.076-.175.044-.175.233-.036.658.36,1.1,1.263-.892.443-1.837.864-2.609,1.207-.433.192-.812.361-1.1.5a3.229,3.229,0,0,0-1.517,2.9Zm0-8.714c.517,0,1.044-.012,1.555-.044.642-.04,1.211-.1,1.7-.169v3.3c-.251.4-.766.839-2.237.99-2.128.212-2.423-.886-2.64-1.692-.026-.1-.05-.179-.075-.259L150.462,9.9c.593.031,1.271.054,1.97.054Zm13.242-.212c.281,0,.578-.005.891-.017a12.771,12.771,0,0,0,2.723-.376v3.7c-.25.4-.766.84-2.238.99-2.129.212-2.425-.886-2.641-1.692-.026-.1-.05-.179-.075-.259l-.3-2.414c.478.045,1.022.072,1.644.072ZM128.72-56.019a.8.8,0,0,1-.469-.48,11.259,11.259,0,0,0,6.216-2.484,1.052,1.052,0,0,1,0,.271c-.045.362-.426.7-.732.973-.079.071-.153.137-.215.2-.729.705-3.431,2.076-4.8,1.524Zm-.824-1.172a1.762,1.762,0,0,1-.846-.589.731.731,0,0,1-.171-.468,15.436,15.436,0,0,0,7.021-2.386.34.34,0,0,1,.43.14.783.783,0,0,1-.007.733,10.481,10.481,0,0,1-6.427,2.57Zm-1.188-1.748s-.008,0-.013,0a8.863,8.863,0,0,1-.575-.775c-.417-.747-.386-1.13-.33-1.292a.007.007,0,0,1,0,0,2.569,2.569,0,0,0,2.416.95,11.789,11.789,0,0,0,1.744-.487,7.106,7.106,0,0,1,3.021-.557.528.528,0,0,1,.209.091,15.113,15.113,0,0,1-6.473,2.071ZM111.536-94.525a1.461,1.461,0,0,1,.23-1.524.715.715,0,0,1,.251-.123.844.844,0,0,1,.11-.015,1.039,1.039,0,0,1,.19-.015,1.482,1.482,0,0,1,.278.043c.041.009.079.012.122.025a2.482,2.482,0,0,1,.442.183l7.9,4.851a7.8,7.8,0,0,1-2.828,3.59,7.418,7.418,0,0,1-3.823,1.855Zm47.018,41.955a18.77,18.77,0,0,1,4.314-1.134h1.01a18.5,18.5,0,0,0-3.468,1.36,3.175,3.175,0,0,1-1.856-.226Zm6.4,4.788s2.334-.853,5.39-1.965c.183,1.626.324,3.007.387,3.632-1.186.073-5.257.288-11.352.267a36.088,36.088,0,0,1,5.574-1.934ZM198.44-3.5l-4.124-5.2h0l-24.2-30.531c0-1.7.011-3.286.018-4.636a.349.349,0,0,0-.348-.351h0a.35.35,0,0,0-.35.348c-.034,6.356-.058,17.79.161,22.95.294,6.889,1.733,26.5,1.877,28.456-.341.317-1.7,1.365-4.936,1.488s-4.623-.469-4.968-.653C161.1,6.646,156.256-11.07,154.2-20.3c-1.355-6.088-2.837-15.334-3.842-22.018a.354.354,0,0,0-.4-.294.351.351,0,0,0-.294.4c1.007,6.7,2.492,15.958,3.85,22.066,2.153,9.676,7.358,28.648,7.411,28.838a.353.353,0,0,0,.128.188,5.394,5.394,0,0,0,2.254.7l.229,1.807a2.356,2.356,0,0,0-.444-.081,3.474,3.474,0,0,0-2.761,1.058,8.577,8.577,0,0,1-2.061,1.377c-.563-1.129-1.211-1.723-1.818-1.639a.568.568,0,0,0-.065.023V9.63a12.123,12.123,0,0,0,1.569-.361.351.351,0,0,0,.239-.323l.187-7.269a.35.35,0,0,0-.7-.017l-.18,7.013a18.349,18.349,0,0,1-3.564.536,37.935,37.935,0,0,1-5.1-.127c-.236-2.167-1.77-16.365-2.764-29.85-.655-8.877-.637-17.572-.507-23.3a.35.35,0,0,0-.342-.357.346.346,0,0,0-.358.342c-.039,1.7-.067,3.667-.071,5.816L131.139-55.508a8.73,8.73,0,0,0,2.867-1.533c.057-.054.123-.113.194-.176a2.44,2.44,0,0,0,.961-1.412,1.454,1.454,0,0,0-.159-.935,1.494,1.494,0,0,0-.04-1.233.992.992,0,0,0-1.084-.547,1.508,1.508,0,0,0-.812-.451,7.613,7.613,0,0,0-3.336.587,11.513,11.513,0,0,1-1.637.461,1.738,1.738,0,0,1-1.375-.339l-6.932-8.746a9.9,9.9,0,0,0,3.922-1.23.349.349,0,0,0,.154-.47.35.35,0,0,0-.471-.154c-2.36,1.2-3.668,1.2-4.1,1.148l-4.669-14.441a8.348,8.348,0,0,0,4.04-1.983,8.636,8.636,0,0,0,3-3.763l12.993,7.983c-.191.772-1.234,3.736-6.515,7.913a.349.349,0,0,0-.057.492.348.348,0,0,0,.274.132.346.346,0,0,0,.217-.075c4.762-3.767,6.2-6.593,6.634-7.863L145.876-68.69c-1.451,8.5-1.811,22.394-1.815,22.554a.35.35,0,0,0,.309.356c.045.005,4.59.523,13.059.619q1.455.017,2.778.016c6.809,0,10.888-.291,10.933-.294a.345.345,0,0,0,.242-.124.351.351,0,0,0,.082-.259c0-.026-.184-1.874-.444-4.17,4.474-1.626,9.086-3.856,10.285-4.974,1.285-1.2,2.3-2.576.65-6.232a28.722,28.722,0,0,0-3.576-6,.35.35,0,0,0-.493-.048.349.349,0,0,0-.047.492,28.681,28.681,0,0,1,3.478,5.839c1.581,3.5.481,4.528-.489,5.433-1,.933-5.283,3.1-10.062,4.835-3.352,1.217-6.014,2.191-6.013,2.193a36.469,36.469,0,0,0-5.723,1.992,1.221,1.221,0,0,1-.462.045.605.605,0,0,1-.062-.264c.006-.006.014-.008.02-.015a8.99,8.99,0,0,1,4.094-2.413.349.349,0,0,0,.253-.425.348.348,0,0,0-.425-.253,9.577,9.577,0,0,0-4.378,2.554.42.42,0,0,1-.178-.212.459.459,0,0,1,.057-.475.205.205,0,0,0,.019-.032c.006-.008.015-.011.02-.019a6.248,6.248,0,0,1,3.9-2.506.348.348,0,0,0,.266-.416.348.348,0,0,0-.417-.267A7.15,7.15,0,0,0,157.73-48.8a.665.665,0,0,1,0-.157,4.6,4.6,0,0,1,1.129-1.51,15.2,15.2,0,0,1,5.49-2.642.351.351,0,0,0,.115-.051c.027-.018,2.746-1.882,5.012-3.791a16.511,16.511,0,0,1,2.363-1.739.35.35,0,0,0,.144-.467l-1.346-2.612a.351.351,0,0,0-.471-.151.349.349,0,0,0-.151.471l1.2,2.321c-.254.16-.682.453-1.242.884-.319-2.316-.6-4.3-.706-5.02a.339.339,0,0,0,.122-.088l.011-.005,0-.005a.332.332,0,0,0,.023-.032c.065-.026.233-.094.482-.2.552-.266,1.414-.695,2.758-1.387a31.485,31.485,0,0,0,5.706-3.931.349.349,0,0,0,.061-.452c-.057-.087-5.705-8.717-9.769-12.487a17.769,17.769,0,0,0-6.01-3.835.345.345,0,0,0-.248.008c.061.294.12.538.163.709a17.246,17.246,0,0,1,5.619,3.63c3.61,3.35,8.523,10.644,9.49,12.1a31.1,31.1,0,0,1-5.334,3.636c-2.926,1.508-3.559,1.76-3.585,1.77a.164.164,0,0,0-.015.009,12.859,12.859,0,0,1-5.273.539c-.042-.28-.118-.822-.234-1.76-.192-1.538-1.541-11.069-1.555-11.166a.348.348,0,0,0-.4-.3.349.349,0,0,0-.3.4c.013.1,1.362,9.622,1.553,11.154.2,1.565.278,2.044.278,2.044a.351.351,0,0,0,.287.285,11.263,11.263,0,0,0,1.762.123,13.1,13.1,0,0,0,3.732-.529c.123.858.42,2.936.743,5.3-.1.085-.2.157-.306.25-1.417,1.194-3.014,2.371-4,3.079h-2.151a20.93,20.93,0,0,0-4.812,1.272.351.351,0,0,0-.219.252.832.832,0,0,0,.213.8,1.986,1.986,0,0,0,1.2.43,8.218,8.218,0,0,0-.865.669,4.941,4.941,0,0,0-1.353,1.929,1.3,1.3,0,0,0,.215.948,1.129,1.129,0,0,0,.007.967,1.1,1.1,0,0,0,.551.564,1.26,1.26,0,0,0,.143.5.593.593,0,0,0,.241.226l-.756-.007c-7.166-.081-11.5-.465-12.667-.581.073-2.469.609-18.407,2.464-25.292a34.087,34.087,0,0,1,3.537-8.794.349.349,0,0,0-.117-.48.35.35,0,0,0-.481.117,34.739,34.739,0,0,0-3.614,8.976c-.185.687-.357,1.465-.517,2.307l-5.363-6.767a44.752,44.752,0,0,1,7.115-5.4A43.185,43.185,0,0,1,155.059-85c.04-.227.089-.5.137-.782a43.806,43.806,0,0,0-7.746,3.4,45.364,45.364,0,0,0-7.207,5.458l-4.919-6.206-.038-.048-2.669-1.64v-21.4a8.765,8.765,0,0,0-8.759-8.751h-5.372a.35.35,0,0,0-.35.35.35.35,0,0,0,.35.35h5.372a8.064,8.064,0,0,1,8.059,8.051v20.972l-10.055-6.177h0l-8.354-5.132a1.962,1.962,0,0,0-2.176-.039,2.089,2.089,0,0,0-.467,2.269l3.033,9.382h0l4.791,14.821.02.06,6.678,8.426a1.031,1.031,0,0,0-.246.372,2.315,2.315,0,0,0,.368,1.9,9.782,9.782,0,0,0,.684.926,1.423,1.423,0,0,0,.3,1.088,2.453,2.453,0,0,0,1.016.769,1.517,1.517,0,0,0,.947,1.216,2.649,2.649,0,0,0,.994.174,4.724,4.724,0,0,0,.949-.116l1.516,1.913V10.484a8.064,8.064,0,0,1-8.059,8.052H71.14a8.064,8.064,0,0,1-8.06-8.052v-116.7a8.064,8.064,0,0,1,8.06-8.051h30.181a.35.35,0,0,0,.351-.35.35.35,0,0,0-.351-.35H71.14a8.765,8.765,0,0,0-8.759,8.751v116.7a8.765,8.765,0,0,0,8.759,8.751h52.717a8.764,8.764,0,0,0,8.759-8.751v-63L144.8-37.143c.01,4.881.15,10.612.579,16.428,1.076,14.585,2.781,30,2.8,30.157a.35.35,0,0,0,.311.31c.048.005.536.055,1.261.1l.194,1.532a2.379,2.379,0,0,0-.443-.08,3.484,3.484,0,0,0-2.764,1.058c-.885.944-3.533,2.121-5.286,2.9-.434.193-.814.362-1.1.5-1.666.789-1.522,3.175-1.515,3.276l.023.325h32.635a.862.862,0,0,0,.728-.415c.637-.931.432-3.313-.016-4.464-.629-1.62-1.427-2.484-2.153-2.382a.552.552,0,0,0-.064.023V9.136a4.814,4.814,0,0,0,2.12-1.252.351.351,0,0,0,.076-.244c-.008-.1-.386-5.214-.806-11.252L181.863,9.618c.01.012.022.023.032.035a10.673,10.673,0,0,0,.739.829c.083.083.169.158.253.238.2.189.4.371.611.542.09.073.182.141.274.211.222.168.448.328.682.477.082.052.165.1.248.154q.39.235.8.435c.062.03.123.063.185.091a10.376,10.376,0,0,0,.974.395l.066.025a10.57,10.57,0,0,0,3.444.574,10.47,10.47,0,0,0,5.722-1.7c.027-.017.054-.031.081-.049q.379-.251.74-.535a10.542,10.542,0,0,0,4-8.075A10.5,10.5,0,0,0,198.44-3.5Z"/></clipPath><clipPath id="dx"><path class="a" d="M16.031-175.409H212.49a21.268,21.268,0,0,1,21.268,21.268V40.722A21.268,21.268,0,0,1,212.49,61.99H16.031A21.268,21.268,0,0,1-5.236,40.722V-154.142A21.268,21.268,0,0,1,16.031-175.409Z"/></clipPath></defs><g transform="translate(0 137)"><g class="c"><g class="d"><g class="e"><g class="f"><g class="g"><path class="h" d="M-5-142H234V5H-5Z"/></g><g class="i"><g class="g"><g class="e"><g class="j"><g class="k"><path class="l" d="M21.266-141.747H207.223V26.975H21.266Z"/></g><g class="m"><g class="k"><path class="l" d="M-8.922-177.815H234.49V67.192H-8.922Z"/></g></g></g></g></g></g><g class="n"><g class="g"><path class="o" d="M28.76-83.927h44.9v57.4H28.76Z"/></g></g><g class="p"><g class="g"><path class="o" d="M49.974-28.83H73.661V-5.15H49.974Z"/></g></g><g class="q"><g class="g"><path class="o" d="M96.406-134.163h56.157v42.833H96.406Z"/></g></g><g class="r"><g class="g"><path class="o" d="M121.429-28.984h26.618v26.61H121.429Z"/></g></g><g class="s"><g class="g"><path class="o" d="M57.687-119.669H137.2V24.046H57.687Z"/></g></g><g class="t"><g class="g"><path class="o" d="M60.875-116.265H134.14V20.776H60.875Z"/></g></g><g class="u"><g class="g"><path class="o" d="M106.1-101.509h99.259v120H106.1Z"/></g></g><g class="v"><g class="g"><g class="e"><g class="w"><g class="x"><g class="y"><path class="z" d="M106-101.665h20.382v21.276H106Z"/></g></g><g class="aa"><g class="y"><path class="z" d="M172.99-13.476h32.383V18.308H172.99Z"/></g></g><g class="ab"><g class="y"><path class="z" d="M-6.158-177.815H235.127V66.66H-6.158Z"/></g></g></g></g></g></g><g class="ac"><g class="g"><g class="e"><g class="ad"><g class="ae"><path class="z" d="M135.313-90.692h48.016v50.143H135.313Z"/></g><g class="af"><g class="ae"><path class="z" d="M-6.158-179.048H235.393V67.022H-6.158Z"/></g></g></g></g></g></g><g class="ag"><g class="g"><path class="o" d="M140.039-51.112H176.7V14.51H140.039Z"/></g></g><g class="ah"><g class="g"><path class="o" d="M153.038-59.12h17.094v12.08H153.038Z"/></g></g><g class="ai"><g class="g"><path class="o" d="M152.246-73.006h35.062v31.871H152.246Z"/></g></g><g class="aj"><g class="g"><path class="o" d="M147.229-107.972h22.644v30.411H147.229Z"/></g></g><g class="ak"><g class="g"><path class="o" d="M70.713-95.35H94.149v23.432H70.713Z"/></g></g><g class="al"><g class="g"><path class="o" d="M70.713-70.274H94.149v23.432H70.713Z"/></g></g><g class="am"><g class="g"><path class="o" d="M70.713-45.2H94.149v23.432H70.713Z"/></g></g><g class="an"><g class="g"><path class="o" d="M70.713-20.123H94.149V3.309H70.713Z"/></g></g><g class="ao"><g class="g"><path class="o" d="M120.315-66.61h19.41v16h-19.41Z"/></g></g><g class="ap"><g class="g"><g class="e"><g class="aq"><g class="ar"><g class="as"><path class="z" d="M73.587-92.461H91.4v17.749H73.587Z"/></g></g><g class="at"><g class="as"><path class="z" d="M73.587-67.4H91.4v17.749H73.587Z"/></g></g><g class="au"><g class="as"><path class="z" d="M73.587-42.332H91.4v17.749H73.587Z"/></g></g><g class="av"><g class="as"><path class="z" d="M73.587-17.268H91.4V.481H73.587Z"/></g></g><g class="aw"><g class="as"><path class="z" d="M-6.158-177.815H233V61.609H-6.158Z"/></g></g></g></g></g></g><g class="ax"><g class="g"><g class="e"><g class="ay"><g class="az"><g class="ba"><path class="bb" d="M101.228-119.97h14.057v10.7H101.228Z"/></g></g><g class="bc"><g class="ba"><path class="bb" d="M60.507-116.639H134.49v26.625H60.507Z"/></g></g><g class="bd"><g class="ba"><path class="bb" d="M87.111-51.968h47.378V20.9H87.111Z"/></g></g><g class="be"><g class="ba"><path class="bb" d="M60.507-83.174H82.325V20.9H60.507Z"/></g></g><g class="bf"><g class="ba"><path class="bb" d="M70.4-95.648h24.15v24.137H70.4Z"/></g></g><g class="bg"><g class="ba"><path class="bb" d="M88.892-94.053H112.86v10.7H88.892Z"/></g></g><g class="bh"><g class="ba"><path class="bb" d="M88.893-88.591h25.325v10.7H88.893Z"/></g></g><g class="bi"><g class="ba"><path class="bb" d="M70.4-70.562h24.15v24.137H70.4Z"/></g></g><g class="bj"><g class="ba"><path class="bb" d="M88.892-68.968h32.376v10.7H88.892Z"/></g></g><g class="bk"><g class="ba"><path class="bb" d="M88.892-63.505h26.328v10.7H88.892Z"/></g></g><g class="bl"><g class="ba"><path class="bb" d="M70.4-45.476h24.15V-21.34H70.4Z"/></g></g><g class="bm"><g class="ba"><path class="bb" d="M88.893-43.882h34.476v10.7H88.893Z"/></g></g><g class="bn"><g class="ba"><path class="bb" d="M88.892-38.419h34.351v10.7H88.892Z"/></g></g><g class="bo"><g class="ba"><path class="bb" d="M70.4-20.391h24.15V3.746H70.4Z"/></g></g><g class="bp"><g class="ba"><path class="bb" d="M88.892-18.8h34.476V-8.1H88.892Z"/></g></g><g class="bq"><g class="ba"><path class="bb" d="M88.892-13.334h21.78v10.7H88.892Z"/></g></g><g class="br"><g class="ba"><path class="bb" d="M102.733-13.334h20.638v10.7H102.733Z"/></g></g><g class="bs"><g class="ba"><path class="bb" d="M151.943-101.677h10.921v11.186H151.943Z"/></g></g><g class="bt"><g class="ba"><path class="bb" d="M148.405-101.773h10.838v11.183H148.405Z"/></g></g><g class="bu"><g class="ba"><path class="bb" d="M149.3-100.93h11.707v12.582H149.3Z"/></g></g><g class="bv"><g class="ba"><path class="bb" d="M151.693-103.443h11.966v10.851H151.693Z"/></g></g><g class="bw"><g class="ba"><path class="bb" d="M150.142-98.142h13.271v11.673H150.142Z"/></g></g><g class="bx"><g class="ba"><path class="bb" d="M142.387-110.541h33.685V-80.6H142.387Z"/></g></g><g class="by"><g class="ba"><path class="bb" d="M156.848-99.944h12.217v12.108H156.848Z"/></g></g><g class="bz"><g class="ba"><path class="bb" d="M179.821-5.475H192.7V6.834H179.821Z"/></g></g><g class="ca"><g class="ba"><path class="bb" d="M149.383-89.434h18.534v12.288H149.383Z"/></g></g><g class="cb"><g class="ba"><path class="bb" d="M57.381-119.97H205.719V24.365H57.381Z"/></g></g><g class="cc"><g class="ba"><path class="cd" d="M-10.236-180.409H238.758V66.99H-10.236Z"/></g></g></g></g></g></g></g></g></g></g></g></svg>