<svg xmlns="http://www.w3.org/2000/svg" viewBox="0 0 32 32"><path d="M13.2 20.8c-1.6-1.6-1.6-4.1 0-5.7s4.1-1.6 5.7 0c1.6 1.6 1.6 4.1 0 5.7-.8.8-1.8 1.2-2.9 1.2-1.1 0-2.1-.4-2.8-1.2zM20.9 7H19V5.7c0-1-.8-1.7-1.7-1.7h-2.7c-1 0-1.7.8-1.7 1.7V7h-1.8V5.7c0-2 1.6-3.6 3.6-3.6h2.7c2 0 3.6 1.6 3.6 3.6V7z"/><path d="M27.2 16.7c.5 0 .9-.5.8-.9v-1.9C28 9.5 24.9 6 21 6H11c-3.8 0-7 3.5-7 7.8v8.4c0 4.3 3.1 7.8 7 7.8h10c3.8 0 7-3.5 7-7.8 0-.5-.4-.9-.9-.9s-.9.4-.9.9c0 3.2-2.4 5.8-5.3 5.9H11c-2.9 0-5.2-2.6-5.3-5.9v-8.4c0-3.2 2.4-5.8 5.3-5.9h10c2.9 0 5.2 2.6 5.3 5.9v1.9c0 .2.1.5.2.7.2.2.4.3.7.3z"/></svg>