<svg xmlns="http://www.w3.org/2000/svg" viewBox="0 0 32 32"><path d="M17.8 29c-.5-.1-.9-.6-.8-1.1.1-.4.4-.8.8-.8h3.6c3.1 0 4.7-1.6 4.7-4.9V9.8c0-3.2-1.6-4.9-4.7-4.9h-9.9c-3.1 0-4.7 1.6-4.7 4.9v12.5c0 3.2 1.6 4.9 4.7 4.9.5.1.9.6.8 1.1-.1.4-.4.8-.8.8-4-.1-6.5-2.6-6.5-6.9V9.8C5 5.5 7.5 3 11.6 3h9.9c4 0 6.5 2.5 6.5 6.8v12.5c0 4.2-2.4 6.8-6.6 6.8h-3.6zm-5.9-6.6c-.5 0-.9-.5-.9-1s.4-.9.9-.9h9.2c.5 0 .9.5.9 1s-.4.9-.9.9h-9.2zm9.2-5.5h-9.2c-.5-.1-.9-.6-.8-1.1.1-.4.4-.7.8-.8h9.2c.4 0 .7.1.9.4.2.3.2.7 0 1-.2.3-.5.4-.8.4 0 .2-.1.2-.1.1zm-9.2-5.5c-.5-.1-.9-.6-.8-1.1.1-.4.4-.8.8-.8h3.5c.5.1.9.6.8 1.1-.1.4-.4.8-.8.8h-3.5z"/></svg>